<svg xmlns="http://www.w3.org/2000/svg" width="1651.798" height="561.666" viewBox="0 0 1651.798 561.666">
  <defs>
    <style>
      .cls-1 {
        fill: #1b0b0d;
      }

      .cls-2, .cls-4 {
        fill: #fff;
      }

      .cls-3 {
        fill: #b5051b;
      }

      .cls-4 {
        stroke: #161615;
        stroke-width: 0.25px;
      }

      .cls-10, .cls-4, .cls-9 {
        stroke-miterlimit: 10;
      }

      .cls-5 {
        fill: #db0514;
      }

      .cls-6 {
        fill: #530c0e;
      }

      .cls-7 {
        fill: #e8656a;
      }

      .cls-8 {
        fill: #e34247;
      }

      .cls-9 {
        fill: #e5b829;
        stroke: #ee9998;
        stroke-width: 15px;
      }

      .cls-10 {
        fill: #060b36;
        stroke: #d8a21f;
        font-size: 73px;
        font-family: Limelight-Regular, Limelight;
      }
    </style>
  </defs>
  <g id="Group_178" data-name="Group 178" transform="translate(-172.32 -274.276)">
    <g id="Group_73" data-name="Group 73" transform="translate(897.25 274.276)">
      <path id="Path_301" data-name="Path 301" class="cls-1" d="M234.409,310.231c149.946-52.708,94.623-60.971,255.542-81.244s182.861-33.39,248.691,3.578,239.906,77.666,239.906,77.666L800.815,432.873,570.409,464.148l-154.3-52.708Z" transform="translate(-143.068 -146.876)"/>
      <path id="Path_302" data-name="Path 302" class="cls-2" d="M1019.909,664.594c-20.008,22.187-31.976,18.8-34.2,18.062-23.073-7.71-28.766-76.1-9.788-88.682,5.924-3.927,13.952-2.214,25.221.191,10.414,2.223,22.091,4.715,28.168,13.378C1037.979,619.9,1034.3,643.439,1019.909,664.594Z" transform="translate(-562.635 -366.671)"/>
      <path id="Path_303" data-name="Path 303" class="cls-2" d="M1122.16,662.476c17.21,24.905,29.476,23.291,31.765,22.878,23.786-4.289,37.521-71.262,20.2-86.493-5.409-4.755-13.569-4.223-25.026-3.478-10.588.689-22.458,1.462-29.507,9.167C1109.533,615.539,1110.4,639.412,1122.16,662.476Z" transform="translate(-647.754 -368.541)"/>
      <path id="Path_304" data-name="Path 304" class="cls-2" d="M884.344,663.485c-17.919,24.282-30.132,22.233-32.408,21.739-23.65-5.13-35.446-72.556-17.689-87.165,5.543-4.56,13.684-3.74,25.113-2.589,10.562,1.065,22.405,2.258,29.228,10.209C898.318,617.018,896.767,640.849,884.344,663.485Z" transform="translate(-482.852 -368.353)"/>
      <path id="Path_305" data-name="Path 305" class="cls-2" d="M1261.87,655.878c16.113,25.791,28.434,24.831,30.738,24.54,23.944-3.019,40.561-69.185,23.914-85.319-5.2-5.037-13.371-4.94-24.847-4.8-10.605.126-22.5.266-29.87,7.588C1251.289,608.324,1251.118,632.215,1261.87,655.878Z" transform="translate(-728.909 -365.873)"/>
      <path id="Path_306" data-name="Path 306" class="cls-2" d="M1617.393,320.919c11.837,14.326,10.026,18.744-42.067,44.288-23.044,11.3-39.963-4.131-52.173-22.12-10.205-15.035,16.256-35.327,42.36-40.366S1604.3,305.069,1617.393,320.919Z" transform="translate(-882.371 -199.738)"/>
      <path id="Path_307" data-name="Path 307" class="cls-2" d="M1445.969,280.019c-1.807,30.427-6.623,35.737-66.916,35.386-26.671-.156-27.976-36.041-23.638-72.269,3.625-30.28,39.889-41.133,64.123-29.255S1447.969,246.353,1445.969,280.019Z" transform="translate(-786.18 -146.876)"/>
      <path id="Path_308" data-name="Path 308" class="cls-2" d="M1230.189,223.9c-1.805,38.589-8,45.223-86.777,43.422-34.848-.8-37.208-46.386-32.2-92.282,4.183-38.362,51.361-51.326,83.24-35.7S1232.186,181.205,1230.189,223.9Z" transform="translate(-645.791 -103.032)"/>
      <path id="Path_309" data-name="Path 309" class="cls-2" d="M574.48,255.083c14.14,26.341,12.689,33.742-40,71.019-23.307,16.49-42.976-12.435-57.908-45.159-12.481-27.352,13.495-58.94,40.734-64.2S558.835,225.938,574.48,255.083Z" transform="translate(-280.38 -150.62)"/>
      <path id="Path_310" data-name="Path 310" class="cls-2" d="M741.245,280.019c-1.807,30.427-6.623,35.737-66.916,35.386-26.671-.156-27.975-36.041-23.638-72.269,3.625-30.28,39.889-41.133,64.123-29.255S743.245,246.353,741.245,280.019Z" transform="translate(-381.202 -146.876)"/>
      <path id="Path_311" data-name="Path 311" class="cls-2" d="M970.638,223.9c-1.8,38.589-8,45.223-86.777,43.422-34.848-.8-37.208-46.386-32.2-92.282,4.183-38.362,51.361-51.326,83.24-35.7S972.635,181.205,970.638,223.9Z" transform="translate(-496.638 -103.032)"/>
      <g id="Group_71" data-name="Group 71" transform="translate(9.952 154.976)">
        <path id="Path_312" data-name="Path 312" class="cls-3" d="M938.124,441.014c-5.18,4.836-9.055-.242-20.341,8.342-26.553,20.189-84.675,51.681-125.023,99.01C696.526,661.281,496.533,672.826,496.533,672.826S286.4,670.891,200.361,548.366C163.066,495.295,109.8,464.588,71.03,448.63a276.586,276.586,0,0,0-27.97-9.852c3.326-1.39,7.306-2.962,11.886-4.715,24.7-2.538,62.32-6.528,69.517-6.528a284.54,284.54,0,0,1,51.089,4.413c9.651,1.753,21.319,2.115,34.132,1.45a86.466,86.466,0,0,1,16.248,7.8,26.252,26.252,0,0,1,7.579,6.831C246,465.8,289.67,483.689,343.322,493.965c0,0,18.1,5.561,42.746,11.667,34.732,8.523,82.494,18.073,110.465,14.2,47.763,6.649,153.212-25.871,153.212-25.871C703.4,483.689,739,463.137,756.5,451.592a109.13,109.13,0,0,1,17.993-9.732,147.543,147.543,0,0,1,17.5-5.44l24.808-4.352c.273-.061.491-.061.709-.121a284.956,284.956,0,0,1,51.089-4.413c8.07,0,34.623-.6,49.78-.423C920.781,427.9,935.888,440.228,938.124,441.014Z" transform="translate(-43.06 -427.077)"/>
      </g>
      <path id="Path_313" data-name="Path 313" class="cls-4" d="M1823.473,427.126l33.423-1.39C1847.408,427.429,1835.959,427.792,1823.473,427.126Z" transform="translate(-1056.242 -271.331)"/>
      <path id="Path_314" data-name="Path 314" class="cls-5" d="M729.206,613.765s43.67,74.405,128.788,43.965,112.972-65.267,112.972-65.267l164.785-122.94L939.049,538c-.041-2.538-90.283,22.1-203.147-12C622.651,491.784,729.206,613.765,729.206,613.765Z" transform="translate(-401.3 -296.494)"/>
      <path id="Path_315" data-name="Path 315" class="cls-5" d="M990.995,199.112c-20.174-.665-134.183-24.6-134.183-24.6l-54.033-22.728c-54.033-22.728-84.294,12.693-84.294,12.693-83.258-27.5-180.964,27.2-180.964,27.2s-16.847,5.682-42.092,11.667c-13.522,3.264-30.26-.363-42.91-4.413-11.4-3.626-20.174-13.661-22.955-26.354l-.273-1.33c5.834-3.324,12.431-7.133,19.41-11.183,38.221-22.244,87.565-52.407,89.692-53.495l62.375-37.114S673.5,43.16,718.485,94.479C763.468,43.16,836.2,69.454,836.2,69.454l62.375,37.114c4.307,2.237,79.222,61.172,132.71,76.767,9.214,2.66,23.554,6.951,39.748,11.969.054.181.109.3.163.484C1078.941,218.877,1016.675,199.9,990.995,199.112Z" transform="translate(-255.06 -62.719)"/>
      <path id="Path_316" data-name="Path 316" class="cls-3" d="M945.774,345.911c-5.561,1.693-5.561,1.693-41.438,4.111-8.79.592-8.07,0-17.611.06h-.6c-15.921,0-64.12-11.727-82.058-8.4l-34.132,1.511c-2.889-.121-5.834-.363-8.887-.665-36.095-2.962-79.5-13.117-114.445-23.151-103.868-29.86-163.516-19.766-163.516-19.766s-59.649-10.095-163.516,19.766c-32.605,9.369-72.625,18.8-107.085,22.486-5.616.6-11.013,1.088-16.248,1.33-12.813.665-24.481.3-34.132-1.511-17.884-3.325-35.168,3.385-51.089,3.385-10.2,0-16.03,2.418-24.972,3.2A278.322,278.322,0,0,1,57.584,349.3c-19.138-.181-33.314-2.236-37.185-3.385-2.454-.786,1.363-3.143,9.215-6.467,3.326-1.39,7.306-2.962,11.886-4.715C76.558,321.672,144.113,301,170.284,293.383c3.108-.907,11.941-5.561,23.609-12.089l.273,1.33c2.781,12.693,11.559,22.728,22.955,26.354,12.65,4.05,29.388,7.677,42.91,4.413,25.245-5.984,42.092-11.667,42.092-11.667s97.707-54.7,180.964-27.2c0,0,30.26-35.421,84.294-12.693l54.033,22.728s114.009,23.936,134.183,24.6c25.68.786,87.946,19.766,80.2-3.324-.055-.182-.109-.3-.163-.484,22.3,6.891,48.144,15.111,69.3,22.425,2.4.786,4.743,1.572,6.979,2.358C934.761,338.174,950.191,344.581,945.774,345.911Z" transform="translate(-19.661 -172.767)"/>
      <path id="Path_317" data-name="Path 317" class="cls-6" d="M382.81,480.957c-39.7-19.357-107.568-16.751-107.568-16.751l84.116-3.936Z" transform="translate(-166.534 -291.176)"/>
      <path id="Path_318" data-name="Path 318" class="cls-6" d="M1730.487,469.012c6.77-5.051,20.425-6.16,29.287-7.195,9.727-1.136,18.9-1.74,27.438-1.974l-43.019.846C1738.693,462.682,1731.567,467.579,1730.487,469.012Z" transform="translate(-1002.806 -290.931)"/>
      <path id="Path_319" data-name="Path 319" class="cls-7" d="M881.219,710.31c3.144,24.537-10.7,52.518-31.145,50.229-21.261-2.38-54.3-33.83-75.735-71.416h0c-24.84-56.435,49.093-15.04,64.351-17.442C859.035,668.477,878.076,685.772,881.219,710.31Z" transform="translate(-450.439 -405.541)"/>
      <ellipse id="Ellipse_280" data-name="Ellipse 280" class="cls-7" cx="15.488" cy="17.171" rx="15.488" ry="17.171" transform="translate(411.497 317.273)"/>
      <g id="Group_72" data-name="Group 72" transform="translate(300.251 9.753)">
        <path id="Path_320" data-name="Path 320" class="cls-7" d="M725.571,138.8c12.578-17.885,21.173-30.429,40.714-40.911s64.5-22.7,72.047,3.233c6.862,23.583-39.91,5.234-56.6,5.839C761.052,107.709,743.308,127.312,725.571,138.8Z" transform="translate(-725.571 -85.648)"/>
      </g>
      <ellipse id="Ellipse_281" data-name="Ellipse 281" class="cls-8" cx="9.615" cy="10.659" rx="9.615" ry="10.659" transform="translate(417.37 22.855)"/>
    </g>
    <g id="Group_150" data-name="Group 150" transform="matrix(0.999, -0.035, 0.035, 0.999, 0.78, 153.323)">
      <path id="Path_561" data-name="Path 561" class="cls-9" d="M548.766,404.145c-257.811,52.391-484.8,33.3-503.942-175.242C30.4,71.7,329.325-40.273,495.608,72.938c154.2,104.985,576.588,136.844,541.443,137.041C786.916,211.38,703.989,372.6,548.766,404.145Z" transform="matrix(0.995, -0.105, 0.105, 0.995, 123.419, 260.041)"/>
      <text id="Vi_vil_elske_at_høre_fra_dig..._" data-name="Vi vil elske at
høre fra dig... " class="cls-10" transform="matrix(0.988, -0.156, 0.156, 0.988, 275.131, 491.857)"><tspan x="0" y="0">Vi vil elske at</tspan><tspan x="0" y="88">høre fra dig... </tspan></text>
    </g>
  </g>
</svg>
