<svg id="Layer_1" data-name="Layer 1" xmlns="http://www.w3.org/2000/svg" width="1625.26471" height="526.10451" viewBox="0 0 1625.26471 526.10451"><defs><style>.cls-1{fill:#1b0b0d;}.cls-2,.cls-4{fill:#fff;}.cls-3{fill:#b5051b;}.cls-4{stroke:#161615;stroke-miterlimit:10;stroke-width:0.25px;}.cls-5{fill:#db0514;}.cls-6{fill:#530c0e;}.cls-7{fill:#e8656a;}.cls-8{fill:#e34247;}.cls-9{fill:#e5b829;stroke:#ee9998;stroke-miterlimit:10.00138;stroke-width:15.00206px;}.cls-10{isolation:isolate;}.cls-11{fill:#060b36;}.cls-12{fill:none;stroke:#d8a21f;stroke-miterlimit:9.99853;}</style></defs><g id="Group_178" data-name="Group 178"><g id="Group_73" data-name="Group 73"><path id="Path_301" data-name="Path 301" class="cls-1" d="M816.271,163.355c149.946-52.708,94.623-60.971,255.542-81.244s182.861-33.39,248.691,3.578,239.906,77.666,239.906,77.666L1382.677,285.997l-230.406,31.275-154.3-52.708Z" transform="translate(-26.53362 0.00004)"/><path id="Path_302" data-name="Path 302" class="cls-2" d="M1182.204,297.923c-20.008,22.187-31.976,18.8-34.2,18.062-23.073-7.71-28.766-76.1-9.788-88.682,5.924-3.927,13.952-2.214,25.221.191,10.414,2.223,22.091,4.715,28.168,13.378C1200.274,253.229,1196.595,276.768,1182.204,297.923Z" transform="translate(-26.53362 0.00004)"/><path id="Path_303" data-name="Path 303" class="cls-2" d="M1199.336,293.935c17.21,24.905,29.476,23.291,31.765,22.878,23.786-4.289,37.521-71.262,20.19995-86.493-5.409-4.755-13.569-4.223-25.026-3.478-10.588.689-22.458,1.462-29.50695,9.167C1186.70892,246.998,1187.576,270.871,1199.336,293.935Z" transform="translate(-26.53362 0.00004)"/><path id="Path_304" data-name="Path 304" class="cls-2" d="M1126.422,295.132c-17.919,24.282-30.132,22.233-32.408,21.739-23.65-5.13-35.446-72.556-17.689-87.165,5.543-4.56,13.684-3.74,25.113-2.589,10.562,1.065,22.405,2.258,29.228,10.209C1140.396,248.665,1138.845,272.496,1126.422,295.132Z" transform="translate(-26.53362 0.00004)"/><path id="Path_305" data-name="Path 305" class="cls-2" d="M1257.891,290.005c16.113,25.791,28.434,24.831,30.738,24.54,23.944-3.019,40.561-69.185,23.91394-85.319-5.19995-5.037-13.371-4.94-24.84705-4.8-10.605.126-22.5.266-29.87,7.588C1247.30994,242.451,1247.139,266.342,1257.891,290.005Z" transform="translate(-26.53362 0.00004)"/><path id="Path_306" data-name="Path 306" class="cls-2" d="M1459.952,121.181c11.837,14.326,10.026,18.744-42.067,44.288-23.04395,11.3-39.963-4.131-52.173-22.12-10.205-15.035,16.256-35.327,42.36-40.366S1446.85907,105.331,1459.952,121.181Z" transform="translate(-26.53362 0.00004)"/><path id="Path_307" data-name="Path 307" class="cls-2" d="M1384.719,133.143c-1.807,30.427-6.623,35.737-66.916,35.386-26.671-.156-27.976-36.041-23.63794-72.269,3.625-30.28,39.889-41.133,64.123-29.255S1386.719,99.477,1384.719,133.143Z" transform="translate(-26.53362 0.00004)"/><path id="Path_308" data-name="Path 308" class="cls-2" d="M1309.32794,120.868c-1.805,38.589-8,45.223-86.777,43.422-34.848-.8-37.208-46.386-32.19995-92.282,4.183-38.362,51.361-51.326,83.24-35.7S1311.325,78.173,1309.32794,120.868Z" transform="translate(-26.53362 0.00004)"/><path id="Path_309" data-name="Path 309" class="cls-2" d="M1019.03,104.463c14.14,26.341,12.689,33.742-40,71.019-23.307,16.49-42.976-12.435-57.908-45.159-12.481-27.352,13.495-58.94,40.734-64.2S1003.385,75.318,1019.03,104.463Z" transform="translate(-26.53362 0.00004)"/><path id="Path_310" data-name="Path 310" class="cls-2" d="M1084.973,133.143c-1.807,30.427-6.623,35.737-66.916,35.386-26.671-.156-27.975-36.041-23.638-72.269,3.625-30.28,39.889-41.133,64.123-29.255S1086.973,99.477,1084.973,133.143Z" transform="translate(-26.53362 0.00004)"/><path id="Path_311" data-name="Path 311" class="cls-2" d="M1198.93,120.868c-1.8,38.589-8,45.223-86.777,43.422-34.848-.8-37.208-46.386-32.2-92.282,4.183-38.362,51.361-51.326,83.24-35.7S1200.927,78.173,1198.93,120.868Z" transform="translate(-26.53362 0.00004)"/><g id="Group_71" data-name="Group 71"><path id="Path_312" data-name="Path 312" class="cls-3" d="M1629.946,168.913c-5.18,4.836-9.055-.242-20.341,8.342-26.553,20.189-84.675,51.681-125.023,99.01-96.234,112.915-296.227,124.46-296.227,124.46s-210.133-1.935-296.172-124.46c-37.295-53.071-90.561-83.778-129.331-99.736a276.583,276.583,0,0,0-27.97-9.852c3.326-1.39,7.306-2.962,11.886-4.715,24.7-2.538,62.32-6.528,69.517-6.528a284.5416,284.5416,0,0,1,51.089,4.413c9.651,1.753,21.319,2.115,34.132,1.45a86.46636,86.46636,0,0,1,16.248,7.8,26.252,26.252,0,0,1,7.579,6.831c12.489,17.771,56.159,35.66,109.811,45.936,0,0,18.1,5.561,42.746,11.667,34.732,8.523,82.494,18.073,110.465,14.2,47.763,6.649,153.212-25.871,153.212-25.871,53.655-10.272,89.255-30.824,106.755-42.369a109.13166,109.13166,0,0,1,17.993-9.732,147.54552,147.54552,0,0,1,17.5-5.44l24.808-4.352c.273-.061.491-.061.709-.121a284.95678,284.95678,0,0,1,51.089-4.413c8.07,0,34.623-.6,49.78-.423C1612.603,155.799,1627.71,168.127,1629.946,168.913Z" transform="translate(-26.53362 0.00004)"/></g><path id="Path_313" data-name="Path 313" class="cls-4" d="M1492.16107,155.795l33.423-1.39C1516.096,156.098,1504.647,156.461,1492.16107,155.795Z" transform="translate(-26.53362 0.00004)"/><path id="Path_314" data-name="Path 314" class="cls-5" d="M1052.836,317.271s43.67,74.405,128.788,43.965,112.972-65.267,112.972-65.267l164.785-122.94-196.702,68.477c-.041-2.538-90.283,22.1-203.147-12C946.281,195.29,1052.836,317.271,1052.836,317.271Z" transform="translate(-26.53362 0.00004)"/><path id="Path_315" data-name="Path 315" class="cls-5" d="M1460.865,136.393c-20.174-.665-134.183-24.6-134.183-24.6l-54.033-22.728c-54.033-22.728-84.294,12.693-84.294,12.693-83.258-27.5-180.964,27.2-180.964,27.2s-16.847,5.682-42.092,11.667c-13.522,3.264-30.26-.363-42.91-4.413-11.4-3.626-20.174-13.661-22.955-26.354l-.273-1.33c5.834-3.324,12.431-7.133,19.41-11.183,38.221-22.244,87.565-52.407,89.692-53.495l62.375-37.114s72.732-26.295,117.717,25.024C1233.338-19.559,1306.07,6.735,1306.07,6.735l62.375,37.114c4.307,2.237,79.222,61.172,132.71,76.767,9.214,2.66,23.554,6.951,39.74805,11.969.05395.181.109.3.163.484C1548.811,156.158,1486.545,137.181,1460.865,136.393Z" transform="translate(-26.53362 0.00004)"/><path id="Path_316" data-name="Path 316" class="cls-3" d="M1651.043,173.144c-5.561,1.693-5.561,1.693-41.438,4.111-8.79.592-8.07,0-17.611.06h-.6c-15.921,0-64.12-11.727-82.058-8.4l-34.132,1.511c-2.889-.121-5.834-.363-8.887-.665-36.095-2.962-79.5-13.117-114.445-23.151-103.868-29.86-163.516-19.766-163.516-19.766s-59.649-10.095-163.516,19.766c-32.605,9.369-72.625,18.8-107.085,22.486-5.616.6-11.013,1.088-16.248,1.33-12.813.665-24.481.3-34.132-1.511-17.884-3.325-35.168,3.385-51.089,3.385-10.2,0-16.03,2.418-24.972,3.2a278.32419,278.32419,0,0,1-28.461,1.033c-19.138-.181-33.314-2.236-37.185-3.385-2.454-.786,1.363-3.143,9.215-6.467,3.326-1.39,7.306-2.962,11.886-4.715,35.058-13.061,102.613-33.733,128.784-41.35,3.108-.907,11.941-5.561,23.609-12.089l.273,1.33c2.781,12.693,11.559,22.728,22.955,26.354,12.65,4.05,29.388,7.677,42.91,4.413,25.245-5.984,42.092-11.667,42.092-11.667s97.707-54.7,180.964-27.2c0,0,30.26-35.421,84.294-12.693l54.033,22.728s114.009,23.936,134.183,24.6c25.68.786,87.946,19.766,80.2-3.324-.055-.182-.109-.3-.163-.484,22.3,6.891,48.144,15.111,69.3,22.425,2.4.786,4.743,1.572,6.979,2.358C1640.03,165.407,1655.46,171.814,1651.043,173.144Z" transform="translate(-26.53362 0.00004)"/><path id="Path_317" data-name="Path 317" class="cls-6" d="M941.206,189.781c-39.7-19.357-107.568-16.751-107.568-16.751l84.116-3.936Z" transform="translate(-26.53362 0.00004)"/><path id="Path_318" data-name="Path 318" class="cls-6" d="M1452.611,178.081c6.77-5.051,20.42505-6.16,29.287-7.195,9.727-1.136,18.9-1.74,27.438-1.974l-43.019.846C1460.817,171.751,1453.691,176.648,1452.611,178.081Z" transform="translate(-26.53362 0.00004)"/><path id="Path_319" data-name="Path 319" class="cls-7" d="M1155.71,304.769c3.144,24.537-10.7,52.518-31.145,50.229-21.261-2.38-54.3-33.83-75.735-71.416h0c-24.84-56.435,49.093-15.04,64.351-17.442C1133.526,262.936,1152.567,280.231,1155.71,304.769Z" transform="translate(-26.53362 0.00004)"/><ellipse id="Ellipse_280" data-name="Ellipse 280" class="cls-7" cx="1125.38138" cy="334.44405" rx="15.488" ry="17.171"/><g id="Group_72" data-name="Group 72"><path id="Path_320" data-name="Path 320" class="cls-7" d="M1025.181,62.905c12.578-17.885,21.173-30.429,40.714-40.911s64.5-22.7,72.047,3.233c6.862,23.583-39.91,5.234-56.6,5.839C1060.662,31.814,1042.918,51.417,1025.181,62.905Z" transform="translate(-26.53362 0.00004)"/></g><ellipse id="Ellipse_281" data-name="Ellipse 281" class="cls-8" cx="1125.38137" cy="33.51404" rx="9.615" ry="10.659"/></g><g id="Group_150" data-name="Group 150"><path id="Path_561" data-name="Path 561" class="cls-9" d="M560.78358,458.07161C312.78567,545.97733,85.32427,558.78584,37.22989,354.935.981,201.26745,281.37051,48.61143,461.86339,137.49462c167.37737,82.425,590.13229,54.95984,555.35464,60.0654C769.69757,233.89634,710.09813,405.14391,560.78358,458.07161Z" transform="translate(-26.53362 0.00004)"/><g id="Vi_vil_elske_at_høre_fra_dig..._" data-name="Vi vil elske at høre fra dig... " class="cls-10"><g class="cls-10"><path class="cls-11" d="M152.34668,302.84277a1.32422,1.32422,0,0,1,1.72705,1.22559,4.30466,4.30466,0,0,1-.12988,1.8584q-.27832,1.08837-.437,1.77246l-9.89551,50.60351-32.999-46.96484,19.10254-3.70605,16.20362,24.01269,4.01416-21.03711q.64892-3.394.7622-4.86719a5.51832,5.51832,0,0,1,.46338-2.10546A1.62088,1.62088,0,0,1,152.34668,302.84277Z" transform="translate(-26.53362 0.00004)"/><path class="cls-11" d="M169.57812,306.14258a8.99938,8.99938,0,0,1-5.94531-.51758,5.23117,5.23117,0,0,1-2.85058-3.83789,4.64034,4.64034,0,0,1,1.50634-4.21387A8.74437,8.74437,0,0,1,167.001,294.916a12.83339,12.83339,0,0,1,4.21289-.27149,8.35266,8.35266,0,0,1,2.73047.88477,5.20215,5.20215,0,0,1,2.80371,3.5957,4.66592,4.66592,0,0,1-1.5625,4.2959A10.4773,10.4773,0,0,1,169.57812,306.14258Zm-6.15966,7.54883,15.04492-2.918,7.249,37.36523-15.04492,2.918Z" transform="translate(-26.53362 0.00004)"/><path class="cls-11" d="M199.94531,306.60547l15.84912-3.07422,13.32373,17.78027,3.6753-13.05664a34.57751,34.57751,0,0,0,1.227-6.11914,5.28744,5.28744,0,0,1,.50342-2.45605,1.70452,1.70452,0,0,1,1.07275-.64453,1.35048,1.35048,0,0,1,1.15576.24707,1.44039,1.44039,0,0,1,.561.835,4.976,4.976,0,0,1,.08935.92676,11.80939,11.80939,0,0,1-.09521,1.28906q-.2461,1.53661-1.24024,5.39648L226.707,341.81836Z" transform="translate(-26.53362 0.00004)"/><path class="cls-11" d="M249.41846,290.65234a9.00068,9.00068,0,0,1-5.94532-.51562,5.231,5.231,0,0,1-2.85009-3.83887,4.64072,4.64072,0,0,1,1.50586-4.21387,8.74776,8.74776,0,0,1,4.7124-2.65722,12.8464,12.8464,0,0,1,4.2124-.272,8.35128,8.35128,0,0,1,2.73145.88574,5.19757,5.19757,0,0,1,2.80273,3.59521,4.66234,4.66234,0,0,1-1.5625,4.2959A10.45753,10.45753,0,0,1,249.41846,290.65234Zm-6.15918,7.54981,15.04443-2.91895,7.249,37.36524-15.04443,2.91894Z" transform="translate(-26.53362 0.00004)"/><path class="cls-11" d="M267.38867,280.92236l15.04492-2.91845,9.6045,49.50683-15.04493,2.91895Z" transform="translate(-26.53362 0.00004)"/><path class="cls-11" d="M350.251,307.39453q1.36449-.26367,1.60937.99609a3.672,3.672,0,0,1-.79053,2.47657q-4.42894,6.73974-14.0498,8.60547a21.61237,21.61237,0,0,1-15.56592-2.3877,17.85645,17.85645,0,0,1-8.7832-12.52734,19.07558,19.07558,0,0,1,2.82617-14.99707q4.71606-6.94044,14.4082-8.82129a19.21324,19.21324,0,0,1,13.96582,2.19043,17.3048,17.3048,0,0,1,8.28907,12.22461q.2307,1.18946.41845,2.5332L329.4873,302.167l2.91211,15.00879a27.09948,27.09948,0,0,0,5.44776-.54883,15.42208,15.42208,0,0,0,9.9331-6.248,14.02019,14.02019,0,0,0,1.01661-1.68457A2.25478,2.25478,0,0,1,350.251,307.39453Zm-14.439-24.46289a18.73024,18.73024,0,0,0-5.272.334,21.65652,21.65652,0,0,0-4.47363,1.26661l2.92578,15.081,9.6914-1.88086Z" transform="translate(-26.53362 0.00004)"/><path class="cls-11" d="M355.311,263.86523l15.04492-2.91845,9.60449,49.50634-15.04492,2.91895Z" transform="translate(-26.53362 0.00004)"/><path class="cls-11" d="M387.76221,304.07617a1.49033,1.49033,0,0,1,.18066-1.03418,1.21647,1.21647,0,0,1,.87744-.624,1.42537,1.42537,0,0,1,1.04737.16015l1.03076.63379q4.2561,2.48,10.79931,1.21,4.40846-.85548,5.31446-2.91993a1.73721,1.73721,0,0,0,.15674-1.06543,2.636,2.636,0,0,0-.38233-.94043,4.2897,4.2897,0,0,0-1.04639-.99609,18.41314,18.41314,0,0,0-2.10009-1.28125l-3.561-1.88574q-8.781-4.46923-12.334-7.627a11.53787,11.53787,0,0,1-3.93262-6.42529,9.14016,9.14016,0,0,1,2.647-8.24756q3.62329-3.969,10.34033-5.272a21.11391,21.11391,0,0,1,7.6626-.36182,16.526,16.526,0,0,1,4.23242,1.23c.86084.45118,1.33936.91944,1.43457,1.40967q.29225,1.50439-.89746,1.73487a1.58223,1.58223,0,0,1-1.10986-.20118q-.55079-.31128-2.13672-1.00195a11.444,11.444,0,0,0-4.0039-.80225,18.69612,18.69612,0,0,0-4.41211.2754,4.84518,4.84518,0,0,0-2.69434,1.17626,1.72413,1.72413,0,0,0-.58154,1.40088,2.8278,2.8278,0,0,0,.46924,1.10743,5.37742,5.37742,0,0,0,1.15771,1.10107,29.93227,29.93227,0,0,0,5.76807,3.3457q3.8745,1.82593,6.62011,3.43555a27.7325,27.7325,0,0,1,4.41309,3.10107,10.60668,10.60668,0,0,1,3.6499,5.89844,12.0531,12.0531,0,0,1-.1206,5.74121,11.68813,11.68813,0,0,1-2.63037,4.59473q-3.96753,4.437-11.73487,5.94238a21.07312,21.07312,0,0,1-10.85254-.36133Q388.04712,305.5459,387.76221,304.07617Z" transform="translate(-26.53362 0.00004)"/><path class="cls-11" d="M417.58789,251.7832l15.04492-2.91845,5.17871,26.69629,12.65918-13.5293a21.46073,21.46073,0,0,0,2.76807-3.6958q.97485-1.71387,1.84912-1.88282,1.57471-.30542,1.82568.98877a2.71752,2.71752,0,0,1-.80957,2.19l-7.58447,8.623,18.27832,25.35157-15.63916,3.03417-12.74951-18.00146,3.82812,19.73193L427.19238,301.29Z" transform="translate(-26.53362 0.00004)"/><path class="cls-11" d="M503.9834,277.5708q1.36451-.26514,1.60937.99463a3.67444,3.67444,0,0,1-.79052,2.47705q-4.429,6.74048-14.04981,8.606a21.61678,21.61678,0,0,1-15.56592-2.38867,17.85274,17.85274,0,0,1-8.7832-12.52637,19.07562,19.07562,0,0,1,2.82617-14.99707q4.71607-6.94043,14.40723-8.82178a19.21755,19.21755,0,0,1,13.9668,2.19092,17.30433,17.30433,0,0,1,8.28857,12.22363q.23072,1.18946.41895,2.5332l-23.09131,4.48,2.91211,15.00927a27.09147,27.09147,0,0,0,5.44726-.54883,15.422,15.422,0,0,0,9.9336-6.248,14.02116,14.02116,0,0,0,1.0166-1.68457A2.24883,2.24883,0,0,1,503.9834,277.5708Zm-14.439-24.46338a18.7117,18.7117,0,0,0-5.272.334,21.69156,21.69156,0,0,0-4.47363,1.26611l2.92578,15.08105,9.69141-1.88037Z" transform="translate(-26.53362 0.00004)"/><path class="cls-11" d="M557.56055,273.60205a17.89986,17.89986,0,0,1-9.35938,4.90137q-7.24218,1.40478-12.32129-1.38428-5.2749-2.86011-6.564-9.50928a12.25675,12.25675,0,0,1,2.63965-10.53076q3.8789-4.71093,11.40088-6.16992a23.77835,23.77835,0,0,1,9.81933.09228l-1.86621-9.62207a21.16388,21.16388,0,0,0-5.79248.18018,34.39843,34.39843,0,0,0-4.06982,1.00732,22.30163,22.30163,0,0,0-3.06153,1.24756,12.279,12.279,0,0,0-4.45849,3.40528,2.834,2.834,0,0,1-1.60791,1.25634,1.73613,1.73613,0,0,1-1.30274-.16455,1.239,1.239,0,0,1-.59277-.811,2.25064,2.25064,0,0,1,.002-.92676,2.44236,2.44236,0,0,1,.50537-.95019,12.05261,12.05261,0,0,1,3.146-2.498,29.03645,29.03645,0,0,1,9.80762-3.89893q15.53466-3.01391,21.27636,3.56836a17.56838,17.56838,0,0,1,3.56592,8.2749l4.25586,21.93653-14.97412,2.90527ZM553.70508,253.73a20.39442,20.39442,0,0,0-9.19531-.43115,8.284,8.284,0,0,0-1.30957.36328l4.31689,22.25195a1.96,1.96,0,0,0,.3916-.03955q.21021-.04027.41992-.08154a15.61029,15.61029,0,0,0,8.64844-5.19873Z" transform="translate(-26.53362 0.00004)"/><path class="cls-11" d="M598.44287,268.75635q-13.71606,2.66088-16.145-9.86377l-4.4873-22.94434-3.98975.9541q-1.88892.36695-2.16748-1.06689-.27833-1.43409,1.75049-1.82813l3.38623-.51123.5249-.10156-1.05224-5.42383,13.70605-9.62988,2.35547,12.1416,4.68848-.90918,3.29638-.78564q2.06324-.40063,2.34912,1.06933A1.17719,1.17719,0,0,1,602.28125,231a2.42471,2.42471,0,0,1-1.24072.62207l-4.37256.66748-3.84863.74658,6.38037,32.8877a10.79368,10.79368,0,0,0,6.36767-3.667,5.40213,5.40213,0,0,0,1.34815-2.876,6.00151,6.00151,0,0,1,.59619-2.16748,1.43827,1.43827,0,0,1,.94726-.63672,1.3337,1.3337,0,0,1,1.10694.27588,1.6605,1.6605,0,0,1,.63672,1.03662,3.64161,3.64161,0,0,1-.07178,1.50342,7.89158,7.89158,0,0,1-.72754,1.86474,12.66436,12.66436,0,0,1-3.03418,3.81983A17.262,17.262,0,0,1,598.44287,268.75635Z" transform="translate(-26.53362 0.00004)"/></g><g class="cls-10"><path class="cls-12" d="M152.34668,302.84277a1.32422,1.32422,0,0,1,1.72705,1.22559,4.30466,4.30466,0,0,1-.12988,1.8584q-.27832,1.08837-.437,1.77246l-9.89551,50.60351-32.999-46.96484,19.10254-3.70605,16.20362,24.01269,4.01416-21.03711q.64892-3.394.7622-4.86719a5.51832,5.51832,0,0,1,.46338-2.10546A1.62088,1.62088,0,0,1,152.34668,302.84277Z" transform="translate(-26.53362 0.00004)"/><path class="cls-12" d="M169.57812,306.14258a8.99938,8.99938,0,0,1-5.94531-.51758,5.23117,5.23117,0,0,1-2.85058-3.83789,4.64034,4.64034,0,0,1,1.50634-4.21387A8.74437,8.74437,0,0,1,167.001,294.916a12.83339,12.83339,0,0,1,4.21289-.27149,8.35266,8.35266,0,0,1,2.73047.88477,5.20215,5.20215,0,0,1,2.80371,3.5957,4.66592,4.66592,0,0,1-1.5625,4.2959A10.4773,10.4773,0,0,1,169.57812,306.14258Zm-6.15966,7.54883,15.04492-2.918,7.249,37.36523-15.04492,2.918Z" transform="translate(-26.53362 0.00004)"/><path class="cls-12" d="M199.94531,306.60547l15.84912-3.07422,13.32373,17.78027,3.6753-13.05664a34.57751,34.57751,0,0,0,1.227-6.11914,5.28744,5.28744,0,0,1,.50342-2.45605,1.70452,1.70452,0,0,1,1.07275-.64453,1.35048,1.35048,0,0,1,1.15576.24707,1.44039,1.44039,0,0,1,.561.835,4.976,4.976,0,0,1,.08935.92676,11.80939,11.80939,0,0,1-.09521,1.28906q-.2461,1.53661-1.24024,5.39648L226.707,341.81836Z" transform="translate(-26.53362 0.00004)"/><path class="cls-12" d="M249.41846,290.65234a9.00068,9.00068,0,0,1-5.94532-.51562,5.231,5.231,0,0,1-2.85009-3.83887,4.64072,4.64072,0,0,1,1.50586-4.21387,8.74776,8.74776,0,0,1,4.7124-2.65722,12.8464,12.8464,0,0,1,4.2124-.272,8.35128,8.35128,0,0,1,2.73145.88574,5.19757,5.19757,0,0,1,2.80273,3.59521,4.66234,4.66234,0,0,1-1.5625,4.2959A10.45753,10.45753,0,0,1,249.41846,290.65234Zm-6.15918,7.54981,15.04443-2.91895,7.249,37.36524-15.04443,2.91894Z" transform="translate(-26.53362 0.00004)"/><path class="cls-12" d="M267.38867,280.92236l15.04492-2.91845,9.6045,49.50683-15.04493,2.91895Z" transform="translate(-26.53362 0.00004)"/><path class="cls-12" d="M350.251,307.39453q1.36449-.26367,1.60937.99609a3.672,3.672,0,0,1-.79053,2.47657q-4.42894,6.73974-14.0498,8.60547a21.61237,21.61237,0,0,1-15.56592-2.3877,17.85645,17.85645,0,0,1-8.7832-12.52734,19.07558,19.07558,0,0,1,2.82617-14.99707q4.71606-6.94044,14.4082-8.82129a19.21324,19.21324,0,0,1,13.96582,2.19043,17.3048,17.3048,0,0,1,8.28907,12.22461q.2307,1.18946.41845,2.5332L329.4873,302.167l2.91211,15.00879a27.09948,27.09948,0,0,0,5.44776-.54883,15.42208,15.42208,0,0,0,9.9331-6.248,14.02019,14.02019,0,0,0,1.01661-1.68457A2.25478,2.25478,0,0,1,350.251,307.39453Zm-14.439-24.46289a18.73024,18.73024,0,0,0-5.272.334,21.65652,21.65652,0,0,0-4.47363,1.26661l2.92578,15.081,9.6914-1.88086Z" transform="translate(-26.53362 0.00004)"/><path class="cls-12" d="M355.311,263.86523l15.04492-2.91845,9.60449,49.50634-15.04492,2.91895Z" transform="translate(-26.53362 0.00004)"/><path class="cls-12" d="M387.76221,304.07617a1.49033,1.49033,0,0,1,.18066-1.03418,1.21647,1.21647,0,0,1,.87744-.624,1.42537,1.42537,0,0,1,1.04737.16015l1.03076.63379q4.2561,2.48,10.79931,1.21,4.40846-.85548,5.31446-2.91993a1.73721,1.73721,0,0,0,.15674-1.06543,2.636,2.636,0,0,0-.38233-.94043,4.2897,4.2897,0,0,0-1.04639-.99609,18.41314,18.41314,0,0,0-2.10009-1.28125l-3.561-1.88574q-8.781-4.46923-12.334-7.627a11.53787,11.53787,0,0,1-3.93262-6.42529,9.14016,9.14016,0,0,1,2.647-8.24756q3.62329-3.969,10.34033-5.272a21.11391,21.11391,0,0,1,7.6626-.36182,16.526,16.526,0,0,1,4.23242,1.23c.86084.45118,1.33936.91944,1.43457,1.40967q.29225,1.50439-.89746,1.73487a1.58223,1.58223,0,0,1-1.10986-.20118q-.55079-.31128-2.13672-1.00195a11.444,11.444,0,0,0-4.0039-.80225,18.69612,18.69612,0,0,0-4.41211.2754,4.84518,4.84518,0,0,0-2.69434,1.17626,1.72413,1.72413,0,0,0-.58154,1.40088,2.8278,2.8278,0,0,0,.46924,1.10743,5.37742,5.37742,0,0,0,1.15771,1.10107,29.93227,29.93227,0,0,0,5.76807,3.3457q3.8745,1.82593,6.62011,3.43555a27.7325,27.7325,0,0,1,4.41309,3.10107,10.60668,10.60668,0,0,1,3.6499,5.89844,12.0531,12.0531,0,0,1-.1206,5.74121,11.68813,11.68813,0,0,1-2.63037,4.59473q-3.96753,4.437-11.73487,5.94238a21.07312,21.07312,0,0,1-10.85254-.36133Q388.04712,305.5459,387.76221,304.07617Z" transform="translate(-26.53362 0.00004)"/><path class="cls-12" d="M417.58789,251.7832l15.04492-2.91845,5.17871,26.69629,12.65918-13.5293a21.46073,21.46073,0,0,0,2.76807-3.6958q.97485-1.71387,1.84912-1.88282,1.57471-.30542,1.82568.98877a2.71752,2.71752,0,0,1-.80957,2.19l-7.58447,8.623,18.27832,25.35157-15.63916,3.03417-12.74951-18.00146,3.82812,19.73193L427.19238,301.29Z" transform="translate(-26.53362 0.00004)"/><path class="cls-12" d="M503.9834,277.5708q1.36451-.26514,1.60937.99463a3.67444,3.67444,0,0,1-.79052,2.47705q-4.429,6.74048-14.04981,8.606a21.61678,21.61678,0,0,1-15.56592-2.38867,17.85274,17.85274,0,0,1-8.7832-12.52637,19.07562,19.07562,0,0,1,2.82617-14.99707q4.71607-6.94043,14.40723-8.82178a19.21755,19.21755,0,0,1,13.9668,2.19092,17.30433,17.30433,0,0,1,8.28857,12.22363q.23072,1.18946.41895,2.5332l-23.09131,4.48,2.91211,15.00927a27.09147,27.09147,0,0,0,5.44726-.54883,15.422,15.422,0,0,0,9.9336-6.248,14.02116,14.02116,0,0,0,1.0166-1.68457A2.24883,2.24883,0,0,1,503.9834,277.5708Zm-14.439-24.46338a18.7117,18.7117,0,0,0-5.272.334,21.69156,21.69156,0,0,0-4.47363,1.26611l2.92578,15.08105,9.69141-1.88037Z" transform="translate(-26.53362 0.00004)"/><path class="cls-12" d="M557.56055,273.60205a17.89986,17.89986,0,0,1-9.35938,4.90137q-7.24218,1.40478-12.32129-1.38428-5.2749-2.86011-6.564-9.50928a12.25675,12.25675,0,0,1,2.63965-10.53076q3.8789-4.71093,11.40088-6.16992a23.77835,23.77835,0,0,1,9.81933.09228l-1.86621-9.62207a21.16388,21.16388,0,0,0-5.79248.18018,34.39843,34.39843,0,0,0-4.06982,1.00732,22.30163,22.30163,0,0,0-3.06153,1.24756,12.279,12.279,0,0,0-4.45849,3.40528,2.834,2.834,0,0,1-1.60791,1.25634,1.73613,1.73613,0,0,1-1.30274-.16455,1.239,1.239,0,0,1-.59277-.811,2.25064,2.25064,0,0,1,.002-.92676,2.44236,2.44236,0,0,1,.50537-.95019,12.05261,12.05261,0,0,1,3.146-2.498,29.03645,29.03645,0,0,1,9.80762-3.89893q15.53466-3.01391,21.27636,3.56836a17.56838,17.56838,0,0,1,3.56592,8.2749l4.25586,21.93653-14.97412,2.90527ZM553.70508,253.73a20.39442,20.39442,0,0,0-9.19531-.43115,8.284,8.284,0,0,0-1.30957.36328l4.31689,22.25195a1.96,1.96,0,0,0,.3916-.03955q.21021-.04027.41992-.08154a15.61029,15.61029,0,0,0,8.64844-5.19873Z" transform="translate(-26.53362 0.00004)"/><path class="cls-12" d="M598.44287,268.75635q-13.71606,2.66088-16.145-9.86377l-4.4873-22.94434-3.98975.9541q-1.88892.36695-2.16748-1.06689-.27833-1.43409,1.75049-1.82813l3.38623-.51123.5249-.10156-1.05224-5.42383,13.70605-9.62988,2.35547,12.1416,4.68848-.90918,3.29638-.78564q2.06324-.40063,2.34912,1.06933A1.17719,1.17719,0,0,1,602.28125,231a2.42471,2.42471,0,0,1-1.24072.62207l-4.37256.66748-3.84863.74658,6.38037,32.8877a10.79368,10.79368,0,0,0,6.36767-3.667,5.40213,5.40213,0,0,0,1.34815-2.876,6.00151,6.00151,0,0,1,.59619-2.16748,1.43827,1.43827,0,0,1,.94726-.63672,1.3337,1.3337,0,0,1,1.10694.27588,1.6605,1.6605,0,0,1,.63672,1.03662,3.64161,3.64161,0,0,1-.07178,1.50342,7.89158,7.89158,0,0,1-.72754,1.86474,12.66436,12.66436,0,0,1-3.03418,3.81983A17.262,17.262,0,0,1,598.44287,268.75635Z" transform="translate(-26.53362 0.00004)"/></g><g class="cls-10"><path class="cls-11" d="M164.5542,402.44336q12.31567-2.38915,14.63721,9.57715l5.0498,26.03027-15.04492,2.918-6.604-34.042a3.0031,3.0031,0,0,0-1.74317-.09668,5.443,5.443,0,0,0-2.05664.90722,13.31135,13.31135,0,0,0-2.0791,1.81934,20.77207,20.77207,0,0,0-3.7168,5.72949l5.38916,27.78028-15.04394,2.91894-9.6045-49.50683,15.04395-2.91895,3.50293,18.05371Q156.99731,403.91114,164.5542,402.44336Z" transform="translate(-26.53362 0.00004)"/><path class="cls-11" d="M191.87158,402.80762a19.73384,19.73384,0,0,1,5.58985-5.24121,22.55025,22.55025,0,0,1,7.88818-3.03711,21.75634,21.75634,0,0,1,8.75781.04394q.79395-2.07861,1.32862-3.81543l.95361-2.94336q.82544-2.66748,1.31347-2.86914a1.7846,1.7846,0,0,1,1.07325-.082,1.12531,1.12531,0,0,1,.83447.65527,3.06617,3.06617,0,0,1-.34229,2.44434,21.6965,21.6965,0,0,0-1.23584,3.45215l-1.18994,3.9707a17.913,17.913,0,0,1,10.30909,9.72656,25.51256,25.51256,0,0,1,1.65918,5.55958,18.62239,18.62239,0,0,1-.09375,7.0957,18.88972,18.88972,0,0,1-2.83887,6.97754,19.75517,19.75517,0,0,1-13.30908,8.499,21.55173,21.55173,0,0,1-8.90332-.05176l-2.1504,6.69824q-.94628,2.79639-1.60449,3.14258-1.415.56544-1.93359-.51367a3.372,3.372,0,0,1,.43017-2.93359,8.83932,8.83932,0,0,0,.55176-1.26758l1.86475-5.73633.0708-.19433a18.51392,18.51392,0,0,1-10.47607-9.83985,24.65855,24.65855,0,0,1-1.77393-5.77246,17.17351,17.17351,0,0,1,.19189-7.15234A18.92032,18.92032,0,0,1,191.87158,402.80762Zm19.20947,28.002a4.39038,4.39038,0,0,0,.56641-.07227l.49024-.09472a17.25311,17.25311,0,0,0,11.01171-6.67578,17.9967,17.9967,0,0,0-4.44287-24.58692,17.03981,17.03981,0,0,0-13.10644-2.248l-.5249.10156a3.47713,3.47713,0,0,0-.4834.1289Z" transform="translate(-26.53362 0.00004)"/><path class="cls-11" d="M234.02051,389.62012l15.04492-2.918,2.13135,10.98633a27.432,27.432,0,0,1,3.48828-9.80762q2.23535-3.35742,5.03369-3.89941a3.70136,3.70136,0,0,1,2.66113.33691,2.46857,2.46857,0,0,1,1.28418,1.65723,3.90391,3.90391,0,0,1,.03174,1.66308,3.3029,3.3029,0,0,1-.53809,1.15821,2.779,2.779,0,0,1-1.61425,1.2207,5.18305,5.18305,0,0,1-2.01319.09961,4.87789,4.87789,0,0,0-2.01953-.11621q-.84009.1626-1.873,1.76074a15.40994,15.40994,0,0,0-1.76075,4.209,28.27431,28.27431,0,0,0-.46045,13.15821l2.898,14.93945-15.04492,2.918Z" transform="translate(-26.53362 0.00004)"/><path class="cls-11" d="M305.85107,405.63574q1.36524-.26514,1.60889.99512a3.66964,3.66964,0,0,1-.79,2.47656q-4.42894,6.74121-14.0498,8.60645a21.62414,21.62414,0,0,1-15.56641-2.38867,17.85469,17.85469,0,0,1-8.7832-12.52637,19.082,19.082,0,0,1,2.82666-14.99805q4.71606-6.94042,14.40771-8.82226a19.22185,19.22185,0,0,1,13.9668,2.19238,17.30576,17.30576,0,0,1,8.28857,12.22363q.23072,1.18946.41846,2.5332l-23.09131,4.4795L287.999,415.416a27.09152,27.09152,0,0,0,5.44825-.54786,15.427,15.427,0,0,0,9.93359-6.248,14.14493,14.14493,0,0,0,1.01611-1.68457A2.25054,2.25054,0,0,1,305.85107,405.63574Zm-14.439-24.46289a18.6553,18.6553,0,0,0-5.272.333,21.74213,21.74213,0,0,0-4.47412,1.2666l2.92578,15.08008,9.6914-1.87988Z" transform="translate(-26.53362 0.00004)"/><path class="cls-11" d="M352.415,369.44727l-3.77149.58691-3.88281.75293,6.75391,34.81152-15.04492,2.91895L329.751,373.69922l-.56006.10937-3.29639.78321q-2.064.40137-2.33887-1.01563-.27538-1.418,1.61426-1.7832l4.19043-.669a13.20654,13.20654,0,0,1,3.75293-10.78418q3.88038-3.94629,11.12305-5.35254,6.78661-1.31688,9.86474.88184a2.14615,2.14615,0,0,1,.9712,1.26367,1.403,1.403,0,0,1-1.27637,1.84571,2.60315,2.60315,0,0,1-1.606-.23438l-1.4292-.62988a8.19492,8.19492,0,0,0-4.69287-.79492q-.63574.08641-1.31836.21777a11.381,11.381,0,0,0-1.26367.31836q-.58081.186-1.16162.37109l1.9414,10.00586,3.04395-.58984,4.66064-1.04883q1.88892-.36768,2.16407,1.0498Q354.40893,369.06006,352.415,369.44727Z" transform="translate(-26.53362 0.00004)"/><path class="cls-11" d="M358.43457,365.48438l15.04492-2.91895,2.13086,10.98633a27.45108,27.45108,0,0,1,3.48828-9.80762q2.23536-3.35742,5.03418-3.89941a3.70181,3.70181,0,0,1,2.66114.33691,2.46567,2.46567,0,0,1,1.2832,1.65723,3.914,3.914,0,0,1,.03271,1.66308,3.31174,3.31174,0,0,1-.53808,1.15821,2.78057,2.78057,0,0,1-1.61426,1.2207,5.183,5.183,0,0,1-2.01318.09961,4.86155,4.86155,0,0,0-2.02-.11524q-.84009.16115-1.87256,1.75977a15.422,15.422,0,0,0-1.76172,4.209,28.28071,28.28071,0,0,0-.46,13.15821l2.89844,14.93945-15.04493,2.918Z" transform="translate(-26.53362 0.00004)"/><path class="cls-11" d="M422.4043,389.44922a17.89288,17.89288,0,0,1-9.35938,4.90137q-7.24218,1.40625-12.32129-1.38379-5.2749-2.86232-6.56494-9.50977a12.25511,12.25511,0,0,1,2.64063-10.53027q3.87817-4.71094,11.40039-6.16992a23.772,23.772,0,0,1,9.81982.09277l-1.8667-9.623a21.17657,21.17657,0,0,0-5.792.18067,34.51557,34.51557,0,0,0-4.07031,1.00683,22.35674,22.35674,0,0,0-3.061,1.248,12.27065,12.27065,0,0,0-4.459,3.40527,2.83651,2.83651,0,0,1-1.60742,1.25684,1.738,1.738,0,0,1-1.30274-.165,1.235,1.235,0,0,1-.59277-.81152,2.25446,2.25446,0,0,1,.00146-.92578,2.44536,2.44536,0,0,1,.50537-.95118,12.076,12.076,0,0,1,3.14551-2.498,29.05633,29.05633,0,0,1,9.8086-3.89942q15.53393-3.01318,21.27636,3.56934a17.57782,17.57782,0,0,1,3.56592,8.27539l4.25537,21.93652-14.97363,2.9043Zm-3.85547-19.8711a20.38985,20.38985,0,0,0-9.1958-.43164,8.36912,8.36912,0,0,0-1.30908.36329l4.31689,22.251a1.89064,1.89064,0,0,0,.3916-.03808l.41992-.082a15.60558,15.60558,0,0,0,8.64844-5.19921Z" transform="translate(-26.53362 0.00004)"/><path class="cls-11" d="M490.84326,376.57227a18.2,18.2,0,0,1-8.75146,4.38281,23.75379,23.75379,0,0,1-8.85352.21289,18.86352,18.86352,0,0,1-7.09961-2.81641q-6.509-4.36377-8.19287-13.042a18.45335,18.45335,0,0,1,2.78809-14.44434q4.63842-6.78075,13.875-8.57324a21.03508,21.03508,0,0,1,9.65039.34278l-2.647-13.64551,14.415-2.7959,9.6045,49.50586-14.415,2.79687Zm-16.43847-31.58985a14.885,14.885,0,0,0-2.03663.54l6.43457,33.168a16.84341,16.84341,0,0,0,2.769-.31934,16.24079,16.24079,0,0,0,8.67431-4.87793l-5.38281-27.74511A20.14869,20.14869,0,0,0,474.40479,344.98242Z" transform="translate(-26.53362 0.00004)"/><path class="cls-11" d="M515.98242,328.56543a8.99835,8.99835,0,0,1-5.94482-.5166,5.23413,5.23413,0,0,1-2.85108-3.83789,4.64253,4.64253,0,0,1,1.50684-4.21485,8.743,8.743,0,0,1,4.71191-2.65625,12.86239,12.86239,0,0,1,4.21241-.27246,8.3785,8.3785,0,0,1,2.73144.88574,5.20138,5.20138,0,0,1,2.80322,3.59571,4.663,4.663,0,0,1-1.5625,4.29492A10.46162,10.46162,0,0,1,515.98242,328.56543Zm-6.15918,7.54883,15.04492-2.91895,7.249,37.36621-15.04492,2.919Z" transform="translate(-26.53362 0.00004)"/><path class="cls-11" d="M548.97168,355.457q-2.93115,1.5498-2.71338,2.668.21021,1.084,2.11084,1.15137a50.48723,50.48723,0,0,0,9.91992-.88965,46.69011,46.69011,0,0,1,9.50733-.86328,17.29287,17.29287,0,0,1,5.36963,1.00879,6.83432,6.83432,0,0,1,4.49218,5.19043q.88257,4.54833-3.08154,8.25781-4.39893,4.08544-13.49561,5.85058-9.41161,1.8252-16.07714.21387-2.41407-.65625-2.6792-2.02148a1.16591,1.16591,0,0,1,.2539-1.0293,1.48584,1.48584,0,0,1,.85987-.5293,2.8207,2.8207,0,0,1,1.45263.18946q1.98048.668,3.63526,1.05664a23.99547,23.99547,0,0,0,5.03027.38476,33.63519,33.63519,0,0,0,6.40186-.58886,38.25072,38.25072,0,0,0,4.88281-1.21973,25.06551,25.06551,0,0,0,3.04736-1.22656q2.34156-1.21582,2.16455-2.126a1.488,1.488,0,0,0-.72656-1.12988,4.92228,4.92228,0,0,0-1.40967-.43457,12.83718,12.83718,0,0,0-2.292-.11817,70.27945,70.27945,0,0,0-7.94482.7793,43.09732,43.09732,0,0,1-7.98877.55176,17.0731,17.0731,0,0,1-5.04395-.92676,6.618,6.618,0,0,1-4.65381-5.08789q-1.01807-5.24707,5.45313-9.88086a14.56683,14.56683,0,0,1-6.0918-3.70117,11.48632,11.48632,0,0,1-3.15234-5.959,12.49372,12.49372,0,0,1,2.87744-11.17578q4.10229-4.86327,11.80078-6.35644a24.13387,24.13387,0,0,1,7.0957-.28711q4.03785-5.75684,8.272-6.57813a4.76712,4.76712,0,0,1,2.75634.082,1.80793,1.80793,0,0,1,1.14942,1.33887,1.49357,1.49357,0,0,1-.34034,1.42676,2.06491,2.06491,0,0,1-1.0415.62012,5.53383,5.53383,0,0,1-1.65039.10156,6.031,6.031,0,0,0-2.06152.03711q-1.88966.36621-4.24951,3.54687a13.9856,13.9856,0,0,1,9.01318,6.60157,14.47851,14.47851,0,0,1,1.39111,4.17675,10.14018,10.14018,0,0,1-.48828,5.3418,14.70446,14.70446,0,0,1-3.07666,5.09766,19.98951,19.98951,0,0,1-11.26758,6.10742A22.89,22.89,0,0,1,548.97168,355.457Zm7.05566-2.93164a18.076,18.076,0,0,0,9.2251-4.65723,9.667,9.667,0,0,0,3.10791-9.24218,10.04413,10.04413,0,0,0-6.2959-7.56348,17.84,17.84,0,0,0-10.42187-1.13672Z" transform="translate(-26.53362 0.00004)"/><path class="cls-11" d="M582.45752,356.83789a8.444,8.444,0,0,1-1.09473-2.83594,6.53922,6.53922,0,0,1,.06592-2.93554,7.1153,7.1153,0,0,1,1.29395-2.59278,8.737,8.737,0,0,1,5.5332-3.28808,7.94219,7.94219,0,0,1,6.4165,1.25976,7.40078,7.40078,0,0,1,3.104,4.77149,6.34753,6.34753,0,0,1-1.415,5.42968,8.9907,8.9907,0,0,1-5.47754,3.20313Q585.07569,360.97608,582.45752,356.83789Z" transform="translate(-26.53362 0.00004)"/><path class="cls-11" d="M606.42383,352.18848a8.4491,8.4491,0,0,1-1.09473-2.83692,6.53571,6.53571,0,0,1,.06592-2.93457,7.11421,7.11421,0,0,1,1.29346-2.59277,8.73414,8.73414,0,0,1,5.53369-3.28711,7.94159,7.94159,0,0,1,6.4165,1.25781,7.403,7.403,0,0,1,3.10352,4.77149,6.34364,6.34364,0,0,1-1.415,5.42968,8.98334,8.98334,0,0,1-5.47754,3.20411Q609.0415,356.32665,606.42383,352.18848Z" transform="translate(-26.53362 0.00004)"/><path class="cls-11" d="M630.38965,347.53906a8.4439,8.4439,0,0,1-1.09473-2.83594,6.5464,6.5464,0,0,1,.06543-2.93554,7.12315,7.12315,0,0,1,1.29395-2.59278,8.73943,8.73943,0,0,1,5.53369-3.28808,7.94219,7.94219,0,0,1,6.4165,1.25976A7.39348,7.39348,0,0,1,645.708,341.918a6.34165,6.34165,0,0,1-1.415,5.42871,8.98791,8.98791,0,0,1-5.47754,3.2041Q633.00733,351.67725,630.38965,347.53906Z" transform="translate(-26.53362 0.00004)"/></g><g class="cls-10"><path class="cls-12" d="M164.5542,402.44336q12.31567-2.38915,14.63721,9.57715l5.0498,26.03027-15.04492,2.918-6.604-34.042a3.0031,3.0031,0,0,0-1.74317-.09668,5.443,5.443,0,0,0-2.05664.90722,13.31135,13.31135,0,0,0-2.0791,1.81934,20.77207,20.77207,0,0,0-3.7168,5.72949l5.38916,27.78028-15.04394,2.91894-9.6045-49.50683,15.04395-2.91895,3.50293,18.05371Q156.99731,403.91114,164.5542,402.44336Z" transform="translate(-26.53362 0.00004)"/><path class="cls-12" d="M191.87158,402.80762a19.73384,19.73384,0,0,1,5.58985-5.24121,22.55025,22.55025,0,0,1,7.88818-3.03711,21.75634,21.75634,0,0,1,8.75781.04394q.79395-2.07861,1.32862-3.81543l.95361-2.94336q.82544-2.66748,1.31347-2.86914a1.7846,1.7846,0,0,1,1.07325-.082,1.12531,1.12531,0,0,1,.83447.65527,3.06617,3.06617,0,0,1-.34229,2.44434,21.6965,21.6965,0,0,0-1.23584,3.45215l-1.18994,3.9707a17.913,17.913,0,0,1,10.30909,9.72656,25.51256,25.51256,0,0,1,1.65918,5.55958,18.62239,18.62239,0,0,1-.09375,7.0957,18.88972,18.88972,0,0,1-2.83887,6.97754,19.75517,19.75517,0,0,1-13.30908,8.499,21.55173,21.55173,0,0,1-8.90332-.05176l-2.1504,6.69824q-.94628,2.79639-1.60449,3.14258-1.415.56544-1.93359-.51367a3.372,3.372,0,0,1,.43017-2.93359,8.83932,8.83932,0,0,0,.55176-1.26758l1.86475-5.73633.0708-.19433a18.51392,18.51392,0,0,1-10.47607-9.83985,24.65855,24.65855,0,0,1-1.77393-5.77246,17.17351,17.17351,0,0,1,.19189-7.15234A18.92032,18.92032,0,0,1,191.87158,402.80762Zm19.20947,28.002a4.39038,4.39038,0,0,0,.56641-.07227l.49024-.09472a17.25311,17.25311,0,0,0,11.01171-6.67578,17.9967,17.9967,0,0,0-4.44287-24.58692,17.03981,17.03981,0,0,0-13.10644-2.248l-.5249.10156a3.47713,3.47713,0,0,0-.4834.1289Z" transform="translate(-26.53362 0.00004)"/><path class="cls-12" d="M234.02051,389.62012l15.04492-2.918,2.13135,10.98633a27.432,27.432,0,0,1,3.48828-9.80762q2.23535-3.35742,5.03369-3.89941a3.70136,3.70136,0,0,1,2.66113.33691,2.46857,2.46857,0,0,1,1.28418,1.65723,3.90391,3.90391,0,0,1,.03174,1.66308,3.3029,3.3029,0,0,1-.53809,1.15821,2.779,2.779,0,0,1-1.61425,1.2207,5.18305,5.18305,0,0,1-2.01319.09961,4.87789,4.87789,0,0,0-2.01953-.11621q-.84009.1626-1.873,1.76074a15.40994,15.40994,0,0,0-1.76075,4.209,28.27431,28.27431,0,0,0-.46045,13.15821l2.898,14.93945-15.04492,2.918Z" transform="translate(-26.53362 0.00004)"/><path class="cls-12" d="M305.85107,405.63574q1.36524-.26514,1.60889.99512a3.66964,3.66964,0,0,1-.79,2.47656q-4.42894,6.74121-14.0498,8.60645a21.62414,21.62414,0,0,1-15.56641-2.38867,17.85469,17.85469,0,0,1-8.7832-12.52637,19.082,19.082,0,0,1,2.82666-14.99805q4.71606-6.94042,14.40771-8.82226a19.22185,19.22185,0,0,1,13.9668,2.19238,17.30576,17.30576,0,0,1,8.28857,12.22363q.23072,1.18946.41846,2.5332l-23.09131,4.4795L287.999,415.416a27.09152,27.09152,0,0,0,5.44825-.54786,15.427,15.427,0,0,0,9.93359-6.248,14.14493,14.14493,0,0,0,1.01611-1.68457A2.25054,2.25054,0,0,1,305.85107,405.63574Zm-14.439-24.46289a18.6553,18.6553,0,0,0-5.272.333,21.74213,21.74213,0,0,0-4.47412,1.2666l2.92578,15.08008,9.6914-1.87988Z" transform="translate(-26.53362 0.00004)"/><path class="cls-12" d="M352.415,369.44727l-3.77149.58691-3.88281.75293,6.75391,34.81152-15.04492,2.91895L329.751,373.69922l-.56006.10937-3.29639.78321q-2.064.40137-2.33887-1.01563-.27538-1.418,1.61426-1.7832l4.19043-.669a13.20654,13.20654,0,0,1,3.75293-10.78418q3.88038-3.94629,11.12305-5.35254,6.78661-1.31688,9.86474.88184a2.14615,2.14615,0,0,1,.9712,1.26367,1.403,1.403,0,0,1-1.27637,1.84571,2.60315,2.60315,0,0,1-1.606-.23438l-1.4292-.62988a8.19492,8.19492,0,0,0-4.69287-.79492q-.63574.08641-1.31836.21777a11.381,11.381,0,0,0-1.26367.31836q-.58081.186-1.16162.37109l1.9414,10.00586,3.04395-.58984,4.66064-1.04883q1.88892-.36768,2.16407,1.0498Q354.40893,369.06006,352.415,369.44727Z" transform="translate(-26.53362 0.00004)"/><path class="cls-12" d="M358.43457,365.48438l15.04492-2.91895,2.13086,10.98633a27.45108,27.45108,0,0,1,3.48828-9.80762q2.23536-3.35742,5.03418-3.89941a3.70181,3.70181,0,0,1,2.66114.33691,2.46567,2.46567,0,0,1,1.2832,1.65723,3.914,3.914,0,0,1,.03271,1.66308,3.31174,3.31174,0,0,1-.53808,1.15821,2.78057,2.78057,0,0,1-1.61426,1.2207,5.183,5.183,0,0,1-2.01318.09961,4.86155,4.86155,0,0,0-2.02-.11524q-.84009.16115-1.87256,1.75977a15.422,15.422,0,0,0-1.76172,4.209,28.28071,28.28071,0,0,0-.46,13.15821l2.89844,14.93945-15.04493,2.918Z" transform="translate(-26.53362 0.00004)"/><path class="cls-12" d="M422.4043,389.44922a17.89288,17.89288,0,0,1-9.35938,4.90137q-7.24218,1.40625-12.32129-1.38379-5.2749-2.86232-6.56494-9.50977a12.25511,12.25511,0,0,1,2.64063-10.53027q3.87817-4.71094,11.40039-6.16992a23.772,23.772,0,0,1,9.81982.09277l-1.8667-9.623a21.17657,21.17657,0,0,0-5.792.18067,34.51557,34.51557,0,0,0-4.07031,1.00683,22.35674,22.35674,0,0,0-3.061,1.248,12.27065,12.27065,0,0,0-4.459,3.40527,2.83651,2.83651,0,0,1-1.60742,1.25684,1.738,1.738,0,0,1-1.30274-.165,1.235,1.235,0,0,1-.59277-.81152,2.25446,2.25446,0,0,1,.00146-.92578,2.44536,2.44536,0,0,1,.50537-.95118,12.076,12.076,0,0,1,3.14551-2.498,29.05633,29.05633,0,0,1,9.8086-3.89942q15.53393-3.01318,21.27636,3.56934a17.57782,17.57782,0,0,1,3.56592,8.27539l4.25537,21.93652-14.97363,2.9043Zm-3.85547-19.8711a20.38985,20.38985,0,0,0-9.1958-.43164,8.36912,8.36912,0,0,0-1.30908.36329l4.31689,22.251a1.89064,1.89064,0,0,0,.3916-.03808l.41992-.082a15.60558,15.60558,0,0,0,8.64844-5.19921Z" transform="translate(-26.53362 0.00004)"/><path class="cls-12" d="M490.84326,376.57227a18.2,18.2,0,0,1-8.75146,4.38281,23.75379,23.75379,0,0,1-8.85352.21289,18.86352,18.86352,0,0,1-7.09961-2.81641q-6.509-4.36377-8.19287-13.042a18.45335,18.45335,0,0,1,2.78809-14.44434q4.63842-6.78075,13.875-8.57324a21.03508,21.03508,0,0,1,9.65039.34278l-2.647-13.64551,14.415-2.7959,9.6045,49.50586-14.415,2.79687Zm-16.43847-31.58985a14.885,14.885,0,0,0-2.03663.54l6.43457,33.168a16.84341,16.84341,0,0,0,2.769-.31934,16.24079,16.24079,0,0,0,8.67431-4.87793l-5.38281-27.74511A20.14869,20.14869,0,0,0,474.40479,344.98242Z" transform="translate(-26.53362 0.00004)"/><path class="cls-12" d="M515.98242,328.56543a8.99835,8.99835,0,0,1-5.94482-.5166,5.23413,5.23413,0,0,1-2.85108-3.83789,4.64253,4.64253,0,0,1,1.50684-4.21485,8.743,8.743,0,0,1,4.71191-2.65625,12.86239,12.86239,0,0,1,4.21241-.27246,8.3785,8.3785,0,0,1,2.73144.88574,5.20138,5.20138,0,0,1,2.80322,3.59571,4.663,4.663,0,0,1-1.5625,4.29492A10.46162,10.46162,0,0,1,515.98242,328.56543Zm-6.15918,7.54883,15.04492-2.91895,7.249,37.36621-15.04492,2.919Z" transform="translate(-26.53362 0.00004)"/><path class="cls-12" d="M548.97168,355.457q-2.93115,1.5498-2.71338,2.668.21021,1.084,2.11084,1.15137a50.48723,50.48723,0,0,0,9.91992-.88965,46.69011,46.69011,0,0,1,9.50733-.86328,17.29287,17.29287,0,0,1,5.36963,1.00879,6.83432,6.83432,0,0,1,4.49218,5.19043q.88257,4.54833-3.08154,8.25781-4.39893,4.08544-13.49561,5.85058-9.41161,1.8252-16.07714.21387-2.41407-.65625-2.6792-2.02148a1.16591,1.16591,0,0,1,.2539-1.0293,1.48584,1.48584,0,0,1,.85987-.5293,2.8207,2.8207,0,0,1,1.45263.18946q1.98048.668,3.63526,1.05664a23.99547,23.99547,0,0,0,5.03027.38476,33.63519,33.63519,0,0,0,6.40186-.58886,38.25072,38.25072,0,0,0,4.88281-1.21973,25.06551,25.06551,0,0,0,3.04736-1.22656q2.34156-1.21582,2.16455-2.126a1.488,1.488,0,0,0-.72656-1.12988,4.92228,4.92228,0,0,0-1.40967-.43457,12.83718,12.83718,0,0,0-2.292-.11817,70.27945,70.27945,0,0,0-7.94482.7793,43.09732,43.09732,0,0,1-7.98877.55176,17.0731,17.0731,0,0,1-5.04395-.92676,6.618,6.618,0,0,1-4.65381-5.08789q-1.01807-5.24707,5.45313-9.88086a14.56683,14.56683,0,0,1-6.0918-3.70117,11.48632,11.48632,0,0,1-3.15234-5.959,12.49372,12.49372,0,0,1,2.87744-11.17578q4.10229-4.86327,11.80078-6.35644a24.13387,24.13387,0,0,1,7.0957-.28711q4.03785-5.75684,8.272-6.57813a4.76712,4.76712,0,0,1,2.75634.082,1.80793,1.80793,0,0,1,1.14942,1.33887,1.49357,1.49357,0,0,1-.34034,1.42676,2.06491,2.06491,0,0,1-1.0415.62012,5.53383,5.53383,0,0,1-1.65039.10156,6.031,6.031,0,0,0-2.06152.03711q-1.88966.36621-4.24951,3.54687a13.9856,13.9856,0,0,1,9.01318,6.60157,14.47851,14.47851,0,0,1,1.39111,4.17675,10.14018,10.14018,0,0,1-.48828,5.3418,14.70446,14.70446,0,0,1-3.07666,5.09766,19.98951,19.98951,0,0,1-11.26758,6.10742A22.89,22.89,0,0,1,548.97168,355.457Zm7.05566-2.93164a18.076,18.076,0,0,0,9.2251-4.65723,9.667,9.667,0,0,0,3.10791-9.24218,10.04413,10.04413,0,0,0-6.2959-7.56348,17.84,17.84,0,0,0-10.42187-1.13672Z" transform="translate(-26.53362 0.00004)"/><path class="cls-12" d="M582.45752,356.83789a8.444,8.444,0,0,1-1.09473-2.83594,6.53922,6.53922,0,0,1,.06592-2.93554,7.1153,7.1153,0,0,1,1.29395-2.59278,8.737,8.737,0,0,1,5.5332-3.28808,7.94219,7.94219,0,0,1,6.4165,1.25976,7.40078,7.40078,0,0,1,3.104,4.77149,6.34753,6.34753,0,0,1-1.415,5.42968,8.9907,8.9907,0,0,1-5.47754,3.20313Q585.07569,360.97608,582.45752,356.83789Z" transform="translate(-26.53362 0.00004)"/><path class="cls-12" d="M606.42383,352.18848a8.4491,8.4491,0,0,1-1.09473-2.83692,6.53571,6.53571,0,0,1,.06592-2.93457,7.11421,7.11421,0,0,1,1.29346-2.59277,8.73414,8.73414,0,0,1,5.53369-3.28711,7.94159,7.94159,0,0,1,6.4165,1.25781,7.403,7.403,0,0,1,3.10352,4.77149,6.34364,6.34364,0,0,1-1.415,5.42968,8.98334,8.98334,0,0,1-5.47754,3.20411Q609.0415,356.32665,606.42383,352.18848Z" transform="translate(-26.53362 0.00004)"/><path class="cls-12" d="M630.38965,347.53906a8.4439,8.4439,0,0,1-1.09473-2.83594,6.5464,6.5464,0,0,1,.06543-2.93554,7.12315,7.12315,0,0,1,1.29395-2.59278,8.73943,8.73943,0,0,1,5.53369-3.28808,7.94219,7.94219,0,0,1,6.4165,1.25976A7.39348,7.39348,0,0,1,645.708,341.918a6.34165,6.34165,0,0,1-1.415,5.42871,8.98791,8.98791,0,0,1-5.47754,3.2041Q633.00733,351.67725,630.38965,347.53906Z" transform="translate(-26.53362 0.00004)"/></g></g></g></g></svg>
