<svg id="Layer_1" data-name="Layer 1" xmlns="http://www.w3.org/2000/svg" width="649.61352" height="489.15258" viewBox="0 0 649.61352 489.15258"><defs><style>.cls-1{fill:#1b0b0d;}.cls-2,.cls-4{fill:#fff;}.cls-3{fill:#b5051b;}.cls-4{stroke:#161615;stroke-width:0.25px;}.cls-4,.cls-9{stroke-miterlimit:10;}.cls-5{fill:#db0514;}.cls-6{fill:#530c0e;}.cls-7{fill:#e8656a;}.cls-8{fill:#e34247;}.cls-9{fill:#e5b829;stroke:#f3aca9;stroke-width:6px;}.cls-10{isolation:isolate;}.cls-11{fill:#052455;}</style></defs><g id="Group_177" data-name="Group 177"><g id="Group_73" data-name="Group 73"><path id="Path_301" data-name="Path 301" class="cls-1" d="M215.875,84.805c77.845-27.364,49.124-31.653,132.664-42.178s94.932-17.334,129.108,1.857,124.547,40.32,124.547,40.32l-92.27,63.67L390.31,164.711l-80.106-27.364Z" transform="translate(-0.02658 0.00065)"/><path id="Path_302" data-name="Path 302" class="cls-2" d="M405.85,154.667c-10.387,11.519-16.6,9.762-17.753,9.377-11.978-4-14.934-39.509-5.081-46.039,3.076-2.039,7.243-1.149,13.094.1,5.407,1.154,11.469,2.448,14.623,6.945C415.231,131.463,413.321,143.684,405.85,154.667Z" transform="translate(-0.02658 0.00065)"/><path id="Path_303" data-name="Path 303" class="cls-2" d="M414.744,152.597c8.934,12.929,15.30005,12.091,16.49,11.877,12.348-2.226,19.479-37,10.484-44.9-2.808-2.469-7.044-2.193-12.992-1.805-5.5.358-11.659.759-15.319,4.759C408.189,128.229,408.637,140.623,414.744,152.597Z" transform="translate(-0.02658 0.00065)"/><path id="Path_304" data-name="Path 304" class="cls-2" d="M376.891,153.218c-9.3,12.606-15.643,11.542-16.824,11.286-12.278-2.663-18.4-37.668-9.183-45.252,2.878-2.368,7.1-1.942,13.038-1.344,5.484.553,11.632,1.172,15.174,5.3C384.146,129.095,383.34,141.471,376.891,153.218Z" transform="translate(-0.02658 0.00065)"/><path id="Path_305" data-name="Path 305" class="cls-2" d="M445.143,150.556c8.365,13.39,14.761,12.891,15.958,12.74,12.431-1.567,21.057-35.917,12.415-44.294-2.7-2.615-6.942-2.565-12.9-2.494-5.506.065-11.679.138-15.507,3.939C439.65,125.868,439.561,138.271,445.143,150.556Z" transform="translate(-0.02658 0.00065)"/><path id="Path_306" data-name="Path 306" class="cls-2" d="M550.043,62.911c6.145,7.437,5.19995,9.731-21.839,22.992-11.963,5.866-20.74695-2.145-27.085-11.483-5.3-7.805,8.439-18.34,21.991-20.956S543.243,54.682,550.043,62.911Z" transform="translate(-0.02658 0.00065)"/><path id="Path_307" data-name="Path 307" class="cls-2" d="M510.98492,69.121c-.938,15.8-3.438,18.553-34.739,18.37C462.4,87.41,461.723,68.78,463.97491,49.973c1.882-15.72,20.708-21.354,33.29-15.188S512.024,51.643,510.98492,69.121Z" transform="translate(-0.02658 0.00065)"/><path id="Path_308" data-name="Path 308" class="cls-2" d="M471.845,62.75c-.937,20.034-4.15295,23.477-45.05,22.542-18.09094-.414-19.316-24.081-16.718-47.908,2.172-19.916,26.66394-26.646,43.214-18.534S472.88208,40.584,471.845,62.75Z" transform="translate(-0.02658 0.00065)"/><path id="Path_309" data-name="Path 309" class="cls-2" d="M321.138,54.232c7.341,13.675,6.587,17.517-20.766,36.869-12.1,8.561-22.311-6.456-30.063-23.444-6.479-14.2,7.006-30.6,21.147-33.328S313.016,39.102,321.138,54.232Z" transform="translate(-0.02658 0.00065)"/><path id="Path_310" data-name="Path 310" class="cls-2" d="M355.372,69.121c-.938,15.8-3.438,18.553-34.739,18.37-13.846-.081-14.523-18.711-12.272-37.518,1.882-15.72,20.708-21.354,33.29-15.188S356.411,51.643,355.372,69.121Z" transform="translate(-0.02658 0.00065)"/><path id="Path_311" data-name="Path 311" class="cls-2" d="M414.533,62.75c-.937,20.034-4.153,23.477-45.05,22.542-18.091-.414-19.316-24.081-16.718-47.908,2.172-19.916,26.664-26.646,43.214-18.534S415.57,40.584,414.533,62.75Z" transform="translate(-0.02658 0.00065)"/><g id="Group_71" data-name="Group 71"><path id="Path_312" data-name="Path 312" class="cls-3" d="M638.295,87.692c-2.689,2.51-4.7-.125-10.56,4.331-13.785,10.481-43.959,26.83-64.906,51.4-49.96,58.619-153.786,64.613-153.786,64.613s-109.091-1-153.758-64.613c-19.361-27.552-47.016-43.493-67.142-51.778a143.58938,143.58938,0,0,0-14.521-5.115c1.727-.722,3.793-1.538,6.171-2.448,12.822-1.318,32.354-3.389,36.09-3.389a147.71663,147.71663,0,0,1,26.523,2.291,79.105,79.105,0,0,0,17.719.753,44.88772,44.88772,0,0,1,8.438,4.049,13.6288,13.6288,0,0,1,3.935,3.546c6.482,9.226,29.155,18.515,57.008,23.849,0,0,9.4,2.887,22.192,6.057,18.031,4.425,42.827,9.383,57.348,7.374,24.8,3.452,79.54-13.431,79.54-13.431,27.853-5.334,46.337-16,55.423-22a56.65669,56.65669,0,0,1,9.341-5.052,76.60081,76.60081,0,0,1,9.086-2.824l12.879-2.259c.142-.032.255-.032.368-.063a147.93354,147.93354,0,0,1,26.523-2.291c4.189,0,17.974-.314,25.843-.22C629.292,80.879,637.134,87.279,638.295,87.692Z" transform="translate(-0.02658 0.00065)"/></g><path id="Path_313" data-name="Path 313" class="cls-4" d="M566.764,80.881l17.35205-.722A77.97578,77.97578,0,0,1,566.764,80.881Z" transform="translate(-0.02658 0.00065)"/><path id="Path_314" data-name="Path 314" class="cls-5" d="M338.689,164.711s22.671,38.628,66.86,22.825,58.649-33.884,58.649-33.884l85.548-63.824L447.63,125.375c-.021-1.318-46.87,11.472-105.464-6.229C283.371,101.385,338.689,164.711,338.689,164.711Z" transform="translate(-0.02658 0.00065)"/><path id="Path_315" data-name="Path 315" class="cls-5" d="M550.516,70.808c-10.473-.345-69.661-12.772-69.661-12.772l-28.051-11.8c-28.051-11.8-43.761,6.59-43.761,6.59-43.223-14.278-93.948,14.121-93.948,14.121s-8.746,2.95-21.852,6.057c-7.02,1.695-15.71-.189-22.277-2.291a18.179,18.179,0,0,1-11.917-13.682l-.142-.69c3.029-1.726,6.454-3.7,10.077-5.805,19.843-11.548,45.459-27.207,46.563-27.772L347.929,3.496s37.76-13.651,61.112,12.992c23.352-26.642,61.113-12.992,61.113-12.992l32.382,19.268c2.236,1.161,41.128,31.757,68.9,39.854,4.784,1.381,12.228,3.609,20.635,6.213.028.094.056.157.085.251C596.173,81.07,563.848,71.216,550.516,70.808Z" transform="translate(-0.02658 0.00065)"/><path id="Path_316" data-name="Path 316" class="cls-3" d="M649.248,89.888c-2.887.879-2.887.879-21.512,2.134-4.564.307-4.189,0-9.143.031h-.311c-8.265,0-33.288-6.088-42.6-4.362l-17.72.785c-1.5-.063-3.028-.188-4.614-.345-18.739-1.538-41.27-6.81-59.414-12.019-53.923-15.5-84.89-10.261-84.89-10.261s-30.967-5.241-84.89,10.261c-16.927,4.864-37.7,9.759-55.593,11.674-2.915.314-5.718.565-8.435.69a77.14212,77.14212,0,0,1-17.719-.785c-9.284-1.726-18.257,1.757-26.523,1.757-5.293,0-8.322,1.255-12.964,1.663a144.49227,144.49227,0,0,1-14.776.533c-9.935-.094-17.295-1.161-19.3-1.757-1.274-.408.707-1.632,4.784-3.358,1.727-.722,3.793-1.538,6.171-2.448,18.2-6.778,53.272-17.51,66.858-21.464,1.613-.471,6.2-2.887,12.257-6.276l.142.69a18.179,18.179,0,0,0,11.917,13.682c6.567,2.1,15.257,3.986,22.277,2.291,13.106-3.107,21.852-6.057,21.852-6.057s50.724-28.4,93.948-14.121c0,0,15.71-18.389,43.761-6.59l28.051,11.8s59.188,12.427,69.661,12.772c13.332.408,45.657,10.261,41.638-1.726-.029-.094-.057-.157-.085-.251,11.577,3.577,24.994,7.845,35.977,11.642,1.245.408,2.463.816,3.623,1.224C643.53,85.867,651.541,89.198,649.248,89.888Z" transform="translate(-0.02658 0.00065)"/><path id="Path_317" data-name="Path 317" class="cls-6" d="M280.736,98.525c-20.61-10.049-55.844-8.7-55.844-8.7l43.669-2.043Z" transform="translate(-0.02658 0.00065)"/><path id="Path_318" data-name="Path 318" class="cls-6" d="M546.231,92.447c3.515-2.622,10.6-3.2,15.2-3.735,5.05-.59,9.814-.9,14.245-1.025l-22.333.439A23.80089,23.80089,0,0,0,546.231,92.447Z" transform="translate(-0.02658 0.00065)"/><path id="Path_319" data-name="Path 319" class="cls-7" d="M392.095,158.22c1.632,12.739-5.555,27.265-16.169,26.076-11.038-1.236-28.19-17.563-39.318-37.076h0c-12.9-29.3,25.487-7.808,33.408-9.055C380.578,136.50305,390.463,145.481,392.095,158.22Z" transform="translate(-0.02658 0.00065)"/><ellipse id="Ellipse_280" data-name="Ellipse 280" class="cls-7" cx="390.09842" cy="173.62666" rx="8.041" ry="8.914"/><g id="Group_72" data-name="Group 72"><path id="Path_320" data-name="Path 320" class="cls-7" d="M324.331,32.656c6.53-9.285,10.992-15.8,21.137-21.239s33.486-11.784,37.4,1.678c3.562,12.243-20.719,2.717-29.383,3.031C342.751,16.515,333.539,26.693,324.331,32.656Z" transform="translate(-0.02658 0.00065)"/></g><ellipse id="Ellipse_281" data-name="Ellipse 281" class="cls-8" cx="390.09842" cy="17.39965" rx="4.992" ry="5.534"/></g><g id="Group_146" data-name="Group 146"><path id="Path_556" data-name="Path 556" class="cls-9" d="M494.355,320.599c95.528,148.777-96.6,165.982-230.624,165.545C136.364,485.73-75.758,439.596,33.107,320.599c89.9-98.261,244.01-205.161,253.651-183.837C335.67,244.941,428.788,218.485,494.355,320.599Z" transform="translate(-0.02658 0.00065)"/><g id="Vi_vil_elske_at_høre_fra_dig_" data-name="Vi vil elske at høre fra dig " class="cls-10"><g class="cls-10"><path class="cls-11" d="M114.87646,301.3457q1.10084,0,1.10108,1.15528a3.22958,3.22958,0,0,1-.36279,1.35547q-.36181.76611-.57715,1.249l-14.58252,36.01269L82.78418,301.6416H97.44727l8.54,20.08789,5.98877-14.98633q.96681-2.417,1.26221-3.49023a4.15213,4.15213,0,0,1,.64453-1.49121A1.22447,1.22447,0,0,1,114.87646,301.3457Z" transform="translate(-0.02658 0.00065)"/><path class="cls-11" d="M127.14941,306.26074a6.78505,6.78505,0,0,1-4.32373-1.23633,3.94465,3.94465,0,0,1-1.55761-3.249,3.49625,3.49625,0,0,1,1.71875-2.90039,6.59311,6.59311,0,0,1,3.86718-1.28906,9.643,9.643,0,0,1,3.15528.40332,6.27709,6.27709,0,0,1,1.89355,1.04687,3.917,3.917,0,0,1,1.55762,3.06153,3.51547,3.51547,0,0,1-1.77246,2.9541A7.89175,7.89175,0,0,1,127.14941,306.26074ZM121.50977,310.96h11.54785V339.6416H121.50977Z" transform="translate(-0.02658 0.00065)"/><path class="cls-11" d="M149.54688,310.96H161.7124l7.30469,15.06641,4.59229-9.13086a26.10866,26.10866,0,0,0,1.78613-4.35156,3.98674,3.98674,0,0,1,.72461-1.74512,1.28761,1.28761,0,0,1,.88672-.32227,1.01634,1.01634,0,0,1,.81884.34864,1.08781,1.08781,0,0,1,.29541.69921,3.66667,3.66667,0,0,1-.06738.69727,8.66836,8.66836,0,0,1-.25488.94043q-.40284,1.10156-1.6919,3.81348l-11.8164,23.875Z" transform="translate(-0.02658 0.00065)"/><path class="cls-11" d="M188.43359,306.26074a6.78505,6.78505,0,0,1-4.32373-1.23633,3.94465,3.94465,0,0,1-1.55761-3.249A3.49625,3.49625,0,0,1,184.271,298.875a6.59311,6.59311,0,0,1,3.86718-1.28906,9.643,9.643,0,0,1,3.15528.40332,6.27709,6.27709,0,0,1,1.89355,1.04687,3.917,3.917,0,0,1,1.55762,3.06153,3.51547,3.51547,0,0,1-1.77246,2.9541A7.89175,7.89175,0,0,1,188.43359,306.26074ZM182.794,310.96H194.3418V339.6416H182.794Z" transform="translate(-0.02658 0.00065)"/><path class="cls-11" d="M203.12354,301.6416h11.54785v38H203.12354Z" transform="translate(-0.02658 0.00065)"/><path class="cls-11" d="M260.62109,333.11621q1.04738,0,1.04737.9668a2.76993,2.76993,0,0,1-.93994,1.71875q-4.24367,4.35059-11.62842,4.34961a16.28612,16.28612,0,0,1-11.17188-4.001,13.455,13.455,0,0,1-4.6997-10.52734,14.37719,14.37719,0,0,1,4.24316-10.68848q4.48463-4.45752,11.92383-4.458a14.47747,14.47747,0,0,1,10.01709,3.626A13.03667,13.03667,0,0,1,263.79,324.334q0,.9126-.05371,1.9336H246.01172v11.52051a20.43086,20.43086,0,0,0,4.10889.37695,11.62319,11.62319,0,0,0,8.24462-3.19629,10.79334,10.79334,0,0,0,.99366-1.10059A1.69375,1.69375,0,0,1,260.62109,333.11621Zm-7.17041-20.16894a14.08491,14.08491,0,0,0-3.94775-.51075,16.28636,16.28636,0,0,0-3.49121.2959v11.5752h7.439Z" transform="translate(-0.02658 0.00065)"/><path class="cls-11" d="M270.61133,301.6416h11.54785v38H270.61133Z" transform="translate(-0.02658 0.00065)"/><path class="cls-11" d="M288.84619,336.043a1.12392,1.12392,0,0,1,.28174-.73828.91938.91938,0,0,1,.73877-.33594,1.07728,1.07728,0,0,1,.752.26855l.67139.61719q2.79273,2.44483,7.81494,2.44434,3.38379,0,4.35059-1.39649a1.30861,1.30861,0,0,0,.26855-.76562,1.97683,1.97683,0,0,0-.148-.752,3.228,3.228,0,0,0-.63086-.88575,13.77482,13.77482,0,0,0-1.36963-1.249l-2.36328-1.90723a47.02088,47.02088,0,0,1-8.02978-7.41211,8.6952,8.6952,0,0,1-1.98731-5.3164,6.88575,6.88575,0,0,1,3.14209-5.72071,13.721,13.721,0,0,1,8.40576-2.417,15.884,15.884,0,0,1,5.72022.833,12.41635,12.41635,0,0,1,2.9541,1.5166q.85913.68555.85938,1.249,0,1.1543-.91309,1.15429a1.19643,1.19643,0,0,1-.79248-.30859q-.36181-.30762-1.43652-1.04688a8.59984,8.59984,0,0,0-2.84668-1.168,14.03661,14.03661,0,0,0-3.30323-.42968,3.64911,3.64911,0,0,0-2.16162.48242,1.29732,1.29732,0,0,0-.63135.9541,2.12237,2.12237,0,0,0,.188.88574,4.02406,4.02406,0,0,0,.69824.98047,22.50171,22.50171,0,0,0,3.78663,3.30274q2.60448,1.90722,4.40429,3.49218a20.87862,20.87862,0,0,1,2.81983,2.92676,7.99241,7.99241,0,0,1,1.853,4.8877,9.07943,9.07943,0,0,1-.91308,4.22949,8.819,8.819,0,0,1-2.605,3.02148q-3.572,2.7129-9.53369,2.71192a15.87839,15.87839,0,0,1-7.97608-1.82617Q288.84571,337.17089,288.84619,336.043Z" transform="translate(-0.02658 0.00065)"/><path class="cls-11" d="M318.41406,301.6416h11.54785v20.49024l11.30664-8.19141a16.12752,16.12752,0,0,0,2.57813-2.33594q.9668-1.12793,1.6377-1.12793,1.20849,0,1.209.99317a2.04742,2.04742,0,0,1-.91309,1.5039l-6.84863,5.291,9.88281,21.37695h-12.0039l-6.84864-15.14648V339.6416H318.41406Z" transform="translate(-0.02658 0.00065)"/><path class="cls-11" d="M378.624,333.11621q1.04738,0,1.04786.9668a2.76864,2.76864,0,0,1-.94043,1.71875q-4.24367,4.35059-11.62793,4.34961a16.28526,16.28526,0,0,1-11.17188-4.001,13.4539,13.4539,0,0,1-4.70019-10.52734,14.37719,14.37719,0,0,1,4.24316-10.68848q4.48534-4.45752,11.92383-4.458a14.47956,14.47956,0,0,1,10.01758,3.626,13.03632,13.03632,0,0,1,4.377,10.23144q0,.9126-.05371,1.9336H364.01465v11.52051a20.43588,20.43588,0,0,0,4.10937.37695,11.62121,11.62121,0,0,0,8.24414-3.19629,10.75127,10.75127,0,0,0,.99414-1.10059A1.69219,1.69219,0,0,1,378.624,333.11621Zm-7.16992-20.16894a14.08849,14.08849,0,0,0-3.94824-.51075,16.2895,16.2895,0,0,0-3.49121.2959v11.5752h7.43945Z" transform="translate(-0.02658 0.00065)"/><path class="cls-11" d="M418.82715,337.86914a14.77892,14.77892,0,0,1-16.543-.51074,9.75957,9.75957,0,0,1-3.49121-7.97559,9.23739,9.23739,0,0,1,3.46387-7.41211,14.16673,14.16673,0,0,1,9.31933-2.92675,17.93019,17.93019,0,0,1,7.251,1.47656v-7.38477a15.94736,15.94736,0,0,0-4.31055-.69922,26.00761,26.00761,0,0,0-3.15527.16211,16.86821,16.86821,0,0,0-2.44434.48242,9.2342,9.2342,0,0,0-3.78613,1.88086,2.13937,2.13937,0,0,1-1.37012.69727,1.30465,1.30465,0,0,1-.93945-.30859.93016.93016,0,0,1-.32227-.68457,1.69236,1.69236,0,0,1,.13379-.68457,1.83924,1.83924,0,0,1,.51074-.63086,9.04844,9.04844,0,0,1,2.68555-1.39649,21.87527,21.87527,0,0,1,7.81445-1.47754q11.92383,0,15.22754,5.69336a13.24632,13.24632,0,0,1,1.4502,6.63379V339.6416H418.82715Zm0-15.25391a15.36513,15.36513,0,0,0-6.74121-1.63769,6.20329,6.20329,0,0,0-1.02051.08008V338.1377a1.54116,1.54116,0,0,0,.2959.02734h.32226a11.76408,11.76408,0,0,0,7.14356-2.60547Z" transform="translate(-0.02658 0.00065)"/><path class="cls-11" d="M449.76465,340.15137q-10.52784,0-10.52735-9.61328L439.21,312.9209l-3.08789.13379q-1.4502,0-1.45019-1.10059,0-1.10155,1.55761-1.10156l2.57813.10742H439.21v-4.16211l11.52149-5.15625V310.96h3.59863l2.55078-.10742q1.585,0,1.585,1.12793a.88791.88791,0,0,1-.44336.792,1.82964,1.82964,0,0,1-1.00684.28223l-3.33007-.13379h-2.9541V338.165a8.13049,8.13049,0,0,0,5.23632-1.79981,4.06681,4.06681,0,0,0,1.41016-1.93359,4.51514,4.51514,0,0,1,.752-1.51758,1.0821,1.0821,0,0,1,.792-.335,1.0041,1.0041,0,0,1,.77929.36231,1.25017,1.25017,0,0,1,.32227.85937,2.74462,2.74462,0,0,1-.26856,1.10059,5.98073,5.98073,0,0,1-.80566,1.27539,9.55874,9.55874,0,0,1-2.793,2.39062A13.01273,13.01273,0,0,1,449.76465,340.15137Z" transform="translate(-0.02658 0.00065)"/></g><g class="cls-10"><path class="cls-11" d="M109.61279,376.47656q9.45264,0,9.45313,9.18457V405.6416H107.51807V379.51074a2.2637,2.2637,0,0,0-1.27539-.32226,4.11168,4.11168,0,0,0-1.65186.37695,10.04947,10.04947,0,0,0-1.79932,1.04687,15.65425,15.65425,0,0,0-3.57177,3.70606V405.6416H87.67188v-38H99.21973V381.499Q103.812,376.47608,109.61279,376.47656Z" transform="translate(-0.02658 0.00065)"/><path class="cls-11" d="M129.76807,380.666a14.88123,14.88123,0,0,1,4.88769-3.0752,17.00664,17.00664,0,0,1,6.27051-1.11426,16.38277,16.38277,0,0,1,6.47217,1.28906q.88623-1.42381,1.53076-2.63183l1.12793-2.041q.99317-1.853,1.38281-1.93359a1.34492,1.34492,0,0,1,.80567.09375.85072.85072,0,0,1,.52392.60449,2.31312,2.31312,0,0,1-.604,1.75879,16.34776,16.34776,0,0,0-1.41016,2.37695l-1.45019,2.76563a13.49663,13.49663,0,0,1,6.23046,8.6748,19.235,19.235,0,0,1,.42969,4.35059,14.02756,14.02756,0,0,1-1.08789,5.23633,14.22493,14.22493,0,0,1-3.10156,4.7539,14.88585,14.88585,0,0,1-11.06445,4.377,16.23952,16.23952,0,0,1-6.57959-1.31543l-2.55127,4.64551q-1.10157,1.93359-1.63819,2.0957-1.12793.21387-1.356-.6582a2.53949,2.53949,0,0,1,.73828-2.1084,6.56606,6.56606,0,0,0,.59082-.85938l2.20215-3.97461.08056-.13379a13.95256,13.95256,0,0,1-6.33789-8.78222,18.591,18.591,0,0,1-.4834-4.52539,12.93875,12.93875,0,0,1,1.16846-5.26368A14.251,14.251,0,0,1,129.76807,380.666Zm10.1914,23.47168a3.52128,3.52128,0,0,0,.42969.02734h.376a13.00389,13.00389,0,0,0,9.104-3.35742,13.56247,13.56247,0,0,0,.2417-18.82617,12.84065,12.84065,0,0,0-9.37256-3.54493h-.40283a2.69946,2.69946,0,0,0-.376.02735Z" transform="translate(-0.02658 0.00065)"/><path class="cls-11" d="M162.84033,376.96h11.54785v8.43262a20.68342,20.68342,0,0,1,3.9878-6.75391,6.133,6.133,0,0,1,4.28369-2.16211,2.79415,2.79415,0,0,1,1.92041.63086,1.85985,1.85985,0,0,1,.71142,1.41016,2.9454,2.9454,0,0,1-.21484,1.23535,2.497,2.497,0,0,1-.564.7793,2.09409,2.09409,0,0,1-1.36963.67089,3.91946,3.91946,0,0,1-1.50391-.21484,3.65866,3.65866,0,0,0-1.477-.376,2.69022,2.69022,0,0,0-1.63818,1.03418,11.62075,11.62075,0,0,0-1.90674,2.86036,21.30877,21.30877,0,0,0-2.229,9.668v11.4668H162.84033Z" transform="translate(-0.02658 0.00065)"/><path class="cls-11" d="M213.67773,399.11621q1.04737,0,1.04737.9668a2.76993,2.76993,0,0,1-.93994,1.71875q-4.24366,4.35059-11.62842,4.34961a16.28614,16.28614,0,0,1-11.17188-4.001,13.455,13.455,0,0,1-4.6997-10.52734,14.37719,14.37719,0,0,1,4.24316-10.68848q4.48462-4.45752,11.92383-4.458a14.47747,14.47747,0,0,1,10.01709,3.626,13.03667,13.03667,0,0,1,4.37744,10.23144q0,.9126-.05371,1.9336H199.06836v11.52051a20.43086,20.43086,0,0,0,4.10889.37695,11.62323,11.62323,0,0,0,8.24463-3.19629,10.7942,10.7942,0,0,0,.99365-1.10059A1.69375,1.69375,0,0,1,213.67773,399.11621Zm-7.17041-20.16894a14.08491,14.08491,0,0,0-3.94775-.51075,16.28636,16.28636,0,0,0-3.49121.2959v11.5752h7.439Z" transform="translate(-0.02658 0.00065)"/><path class="cls-11" d="M253.31641,379.02832l-2.87354-.10742h-2.981v26.7207H235.91406l.02686-26.7207h-.42969l-2.55127.10742q-1.585,0-1.58447-1.08789,0-1.08839,1.45019-1.08789l3.1958.10742a9.95236,9.95236,0,0,1,4.32373-7.43945,15.58142,15.58142,0,0,1,8.99659-2.36328q5.20971,0,7.17041,2.06836a1.61755,1.61755,0,0,1,.53711,1.07421,1.05634,1.05634,0,0,1-1.2085,1.18165,1.97238,1.97238,0,0,1-1.15478-.40235l-.9668-.67187a6.16789,6.16789,0,0,0-3.35694-1.26172q-.48339-.02784-1.00732-.02735a8.33446,8.33446,0,0,0-.98.05372c-.30469.03613-.60889.07128-.91309.10742V376.96h2.33643l3.59863-.10742q1.4502,0,1.4502,1.08789Q254.84717,379.02735,253.31641,379.02832Z" transform="translate(-0.02658 0.00065)"/><path class="cls-11" d="M258.33838,376.96h11.54785v8.43262a20.68342,20.68342,0,0,1,3.98779-6.75391,6.13306,6.13306,0,0,1,4.28369-2.16211,2.79411,2.79411,0,0,1,1.92041.63086,1.85983,1.85983,0,0,1,.71143,1.41016,2.94556,2.94556,0,0,1-.21484,1.23535,2.49718,2.49718,0,0,1-.564.7793,2.09407,2.09407,0,0,1-1.36963.67089,3.9194,3.9194,0,0,1-1.5039-.21484,3.6587,3.6587,0,0,0-1.477-.376,2.69023,2.69023,0,0,0-1.63819,1.03418,11.621,11.621,0,0,0-1.90674,2.86036,21.30889,21.30889,0,0,0-2.229,9.668v11.4668H258.33838Z" transform="translate(-0.02658 0.00065)"/><path class="cls-11" d="M302.22021,403.86914a14.7789,14.7789,0,0,1-16.543-.51074,9.761,9.761,0,0,1-3.49121-7.97559,9.23782,9.23782,0,0,1,3.46435-7.41211,14.16538,14.16538,0,0,1,9.31885-2.92675,17.93015,17.93015,0,0,1,7.251,1.47656v-7.38477a15.94148,15.94148,0,0,0-4.31054-.69922,26.00791,26.00791,0,0,0-3.15528.16211,16.86148,16.86148,0,0,0-2.44384.48242,9.23651,9.23651,0,0,0-3.78662,1.88086,2.1384,2.1384,0,0,1-1.36963.69727,1.30592,1.30592,0,0,1-.93994-.30859.93013.93013,0,0,1-.32227-.68457,1.69233,1.69233,0,0,1,.13428-.68457,1.83108,1.83108,0,0,1,.51025-.63086,9.0547,9.0547,0,0,1,2.68555-1.39649,21.87782,21.87782,0,0,1,7.81494-1.47754q11.92383,0,15.22705,5.69336a13.24632,13.24632,0,0,1,1.4502,6.63379V405.6416H302.22021Zm0-15.25391a15.36464,15.36464,0,0,0-6.74072-1.63769,6.20329,6.20329,0,0,0-1.02051.08008V404.1377a1.53224,1.53224,0,0,0,.29541.02734h.32227a11.763,11.763,0,0,0,7.14355-2.60547Z" transform="translate(-0.02658 0.00065)"/><path class="cls-11" d="M354.69629,404.165a13.73156,13.73156,0,0,1-7.10352,1.98633,17.89586,17.89586,0,0,1-6.5791-1.11426,14.19105,14.19105,0,0,1-4.84765-3.10156,14.59088,14.59088,0,0,1-4.18946-10.82325,13.9036,13.9036,0,0,1,4.13574-10.28515,15.65029,15.65029,0,0,1,11.49415-4.35059,15.85834,15.85834,0,0,1,7.08984,1.6377V367.6416h11.06445v38H354.69629Zm-7.62695-25.72852a11.25011,11.25011,0,0,0-1.585.10743v25.459a12.75736,12.75736,0,0,0,2.09472.16211,12.23973,12.23973,0,0,0,7.11719-2.36328V380.50488A15.16841,15.16841,0,0,0,347.06934,378.43652Z" transform="translate(-0.02658 0.00065)"/><path class="cls-11" d="M380.18164,372.26074a6.78447,6.78447,0,0,1-4.32324-1.23633,3.94333,3.94333,0,0,1-1.55762-3.249,3.49513,3.49513,0,0,1,1.71875-2.90039,6.591,6.591,0,0,1,3.86719-1.28906,9.645,9.645,0,0,1,3.15527.40332,6.277,6.277,0,0,1,1.89356,1.04687,3.91707,3.91707,0,0,1,1.55761,3.06153,3.51547,3.51547,0,0,1-1.77246,2.9541A7.89337,7.89337,0,0,1,380.18164,372.26074ZM374.542,376.96h11.54785V405.6416H374.542Z" transform="translate(-0.02658 0.00065)"/><path class="cls-11" d="M400.72656,396.88672q-2.39062.7251-2.39062,1.585,0,.832,1.39648,1.1543a38.08818,38.08818,0,0,0,7.46582.76562,35.24,35.24,0,0,1,7.15723.72461,13.05477,13.05477,0,0,1,3.82715,1.51758,5.1501,5.1501,0,0,1,2.57812,4.48437,6.49762,6.49762,0,0,1-3.46484,5.667q-3.84083,2.39063-10.82227,2.38964a28.7499,28.7499,0,0,1-11.92383-2.14843q-1.69188-.832-1.69238-1.87891a.8806.8806,0,0,1,.33594-.72558,1.12286,1.12286,0,0,1,.71191-.26856,2.11721,2.11721,0,0,1,1.04688.34961q1.36962.77783,2.53808,1.30176a17.98031,17.98031,0,0,0,3.666,1.00683,25.36,25.36,0,0,0,4.82031.48438,28.686,28.686,0,0,0,3.78614-.20215,18.91819,18.91819,0,0,0,2.43066-.46973q1.90722-.564,1.90723-1.26172a1.12554,1.12554,0,0,0-.376-.94042,3.68384,3.68384,0,0,0-.98047-.52344,9.73634,9.73634,0,0,0-1.67871-.417,53.105,53.105,0,0,0-5.98828-.56348,32.46889,32.46889,0,0,1-5.98926-.73828,12.82663,12.82663,0,0,1-3.59863-1.41016,4.98409,4.98409,0,0,1-2.71192-4.43066q0-4.02832,5.45118-6.52637a10.98593,10.98593,0,0,1-3.97461-3.6123,8.66536,8.66536,0,0,1-1.47657-4.86036,9.8672,9.8672,0,0,1,.9795-4.53906,9.96979,9.96979,0,0,1,2.75293-3.3164,14.88641,14.88641,0,0,1,9.6416-3.00782,18.16577,18.16577,0,0,1,5.29.80567q3.813-3.6797,7.06347-3.67969a3.59,3.59,0,0,1,2.02735.457,1.36293,1.36293,0,0,1,.6582,1.1543,1.12779,1.12779,0,0,1-.457,1.00781,1.5529,1.5529,0,0,1-.85938.30859,4.135,4.135,0,0,1-1.23535-.16113,4.527,4.527,0,0,0-1.53027-.26855q-1.4502,0-3.65235,2.01367a10.54,10.54,0,0,1,5.71973,6.17773,10.9067,10.9067,0,0,1,.42969,3.28906,7.63753,7.63753,0,0,1-1.12793,3.88086,11.08052,11.08052,0,0,1-3.00781,3.33008,15.06463,15.06463,0,0,1-9.21094,2.90039A17.242,17.242,0,0,1,400.72656,396.88672Zm5.63965-1.15527a13.627,13.627,0,0,0,7.49219-2.1211,7.28587,7.28587,0,0,0,3.626-6.3916,7.56933,7.56933,0,0,0-3.57227-6.499,13.43866,13.43866,0,0,0-7.5459-2.33594Z" transform="translate(-0.02658 0.00065)"/><path class="cls-11" d="M425.29883,402.71387a6.36849,6.36849,0,0,1-.40235-2.25586,4.931,4.931,0,0,1,.46973-2.16113,5.37351,5.37351,0,0,1,1.3291-1.73243,6.58471,6.58471,0,0,1,4.56543-1.63769,5.98349,5.98349,0,0,1,4.56543,1.85254,5.57657,5.57657,0,0,1,1.61133,3.97461,4.77849,4.77849,0,0,1-1.82617,3.81347,6.76771,6.76771,0,0,1-4.51172,1.584Q426.64209,406.15137,425.29883,402.71387Zm18.63769,0a6.3687,6.3687,0,0,1-.40234-2.25586,4.931,4.931,0,0,1,.46973-2.16113,5.37337,5.37337,0,0,1,1.3291-1.73243,6.5847,6.5847,0,0,1,4.56543-1.63769,5.9835,5.9835,0,0,1,4.56543,1.85254,5.57657,5.57657,0,0,1,1.61133,3.97461,4.77847,4.77847,0,0,1-1.82618,3.81347,6.76769,6.76769,0,0,1-4.51172,1.584Q445.27978,406.15137,443.93652,402.71387Zm18.6377,0a6.36848,6.36848,0,0,1-.40234-2.25586,4.931,4.931,0,0,1,.46972-2.16113,5.37351,5.37351,0,0,1,1.3291-1.73243,6.58471,6.58471,0,0,1,4.56543-1.63769,5.98347,5.98347,0,0,1,4.56543,1.85254,5.57657,5.57657,0,0,1,1.61133,3.97461,4.77849,4.77849,0,0,1-1.82617,3.81347,6.76771,6.76771,0,0,1-4.51172,1.584Q463.91748,406.15137,462.57422,402.71387Z" transform="translate(-0.02658 0.00065)"/></g></g></g></g></svg>
