<svg xmlns="http://www.w3.org/2000/svg" width="477.354" height="579.296" viewBox="0 0 477.354 579.296">
  <g id="Group_22" data-name="Group 22" transform="translate(0.013 -0.062)">
    <path id="Path_55" data-name="Path 55" d="M131.072,416.576c-15.677,9.883-24.757,9.479-30.216,7.057-5.019-2.226-5.424-5.708-15.01-13.526-9.257-7.55-12.158-7.7-18.176-12.655-10.43-8.6-14.983-19.093-18.725-27.719-6.587-15.183-7.362-28.051-7.815-36.9-.983-19.253-1.643-32.175,7.381-42.11,8.595-9.463,21.327-11.1,24.508-11.506a44.786,44.786,0,0,1,21.509,2.589c21.749,8.556,27.754,33.131,28.353,35.763" transform="translate(-6.21 -44.069)" fill="none" stroke="#000" stroke-miterlimit="10" stroke-width="3"/>
    <path id="Path_56" data-name="Path 56" d="M74.838,298.408c12.138.925,22.674,9.428,29.132,19.747s9.5,22.355,12.359,34.189,5.7,23.888,11.837,34.4c-3.95,2.105-8.8-.331-12.155-3.295s-6.472-6.677-10.849-7.612c-2.721-.581-5.561.019-8.327-.286a25.209,25.209,0,0,1-7.451-2.448c-6.161-2.776-12.53-5.808-16.691-11.132a21.442,21.442,0,0,1,9.4-33.293" transform="translate(-10.594 -47.173)" fill="none" stroke="#000" stroke-miterlimit="10" stroke-width="3"/>
    <path id="Path_57" data-name="Path 57" d="M69.389,322.73c-3.636,1.255-6.308,4.375-8.338,7.642a42.415,42.415,0,0,0-5.078,32.2c1.688,6.8,5.285,13.356,11.03,17.372" transform="translate(-8.464 -51.038)" fill="none" stroke="#000" stroke-miterlimit="10" stroke-width="3"/>
    <path id="Path_58" data-name="Path 58" d="M100.631,330.176c4.252-3.578,10.416-3.289,15.8-4.682a49.064,49.064,0,0,0,8.069-3.141c3.944-1.808,7.957-3.662,11.17-6.58s5.557-7.12,5.176-11.443" transform="translate(-15.75 -48.114)" fill="none" stroke="#000" stroke-miterlimit="10" stroke-width="3"/>
    <path id="Path_59" data-name="Path 59" d="M180.793,330.658a64.7,64.7,0,0,1-9.139-21.879c-1.835-8.577-1.9-17.42-1.964-26.191-.146-21.1-.13-42.984,8.7-62.142,4.6-9.982,11.4-18.759,18.149-27.439l13.209-17c5.06-6.513,10.152-13.061,16.245-18.62,6.475-5.908,13.956-10.586,21.39-15.23l35.676-22.283c11.8-7.37,24.676-15.022,38.546-13.947,9.506.737,18.158,5.524,26.466,10.2l38.116,21.47" transform="translate(-26.718 -16.575)" fill="none" stroke="#000" stroke-miterlimit="10" stroke-width="3"/>
    <path id="Path_60" data-name="Path 60" d="M40.674,249.837c-2.141-15.54,1.457-32.232,11.633-44.168,5.281-6.194,12.058-10.893,18.754-15.52l27.666-19.115L126.1,152.121c26.944-18.617,54.041-37.323,83.669-51.276a106.809,106.809,0,0,1,19.538-7.423,120.55,120.55,0,0,1,15.18-2.477c21.6-2.517,43.607-4.169,64.97-.123s42.264,14.4,55.1,31.953" transform="translate(-6.13 -13.803)" fill="none" stroke="#000" stroke-miterlimit="10" stroke-width="3"/>
    <path id="Path_61" data-name="Path 61" d="M366.466,124.2l1.153-5.53c-5.539-3.418-9.861-8.44-14.574-12.93-19.537-18.611-46.617-28.31-73.586-29.215s-53.791,6.53-77.93,18.588c-31.714,15.841-59.018,39.385-90.367,55.933-22.58,11.919-34.926,14.3-53.8,29.071-24.858,19.461-34.17,37.652-36.679,42.847a108.747,108.747,0,0,0-10.419,39.072" transform="translate(-1.393 -11.908)" fill="none" stroke="#000" stroke-miterlimit="10" stroke-width="3"/>
    <path id="Path_62" data-name="Path 62" d="M369.085,132.613a74.915,74.915,0,0,0-26.335-36.53c-10.451-7.757-22.811-12.656-35.478-15.64a135.265,135.265,0,0,0-42.415-3.107c-4.879.416-9.729,1.1-14.577,1.777l-25.754,3.615c-16.8,2.358-33.882,4.8-49.253,11.971-12.018,5.608-22.539,13.9-33.728,21.024-37.925,24.133-84.122,35.131-117.6,65.125A76.815,76.815,0,0,0,9.48,197.456,54.718,54.718,0,0,0,3.328,239.9" transform="translate(0 -11.972)" fill="none" stroke="#000" stroke-miterlimit="10" stroke-width="3"/>
    <path id="Path_63" data-name="Path 63" d="M379.4,129.955c5.052-10.925,2.321-24.3-4.49-34.219S357.77,78.847,347.093,73.292a96.389,96.389,0,0,0-21.987-8.632c-8.516-2.029-17.34-2.386-26.095-2.321-52.245.394-103.342,15.55-151.823,35.027-10.918,4.386-21.744,9-32.568,13.607L79.756,125.821a97.765,97.765,0,0,0-12.883,6.248,49.436,49.436,0,0,0-22.027,30.4" transform="translate(-6.887 -9.665)" fill="none" stroke="#000" stroke-miterlimit="10" stroke-width="3"/>
    <path id="Path_64" data-name="Path 64" d="M344.784,61.8c-12.752-7.827-28.054-10.691-43.016-10.629s-29.76,2.881-44.456,5.69L187.5,70.208l-31.306,5.985c-12.306,2.353-24.643,4.713-36.6,8.454a165.968,165.968,0,0,0-89.28,68.134" transform="translate(-4.578 -7.891)" fill="none" stroke="#000" stroke-miterlimit="10" stroke-width="3"/>
    <path id="Path_65" data-name="Path 65" d="M372.294,75.211c-12.406-11.677-25.465-23.645-41.743-28.672-13.81-4.265-28.634-3.114-43.038-1.92L172.519,54.147c-10.6.878-21.248,1.765-31.576,4.3-12.6,3.089-24.493,8.578-35.776,14.972a241.975,241.975,0,0,0-74.2,65.621" transform="translate(-4.682 -6.676)" fill="none" stroke="#000" stroke-miterlimit="10" stroke-width="3"/>
    <path id="Path_66" data-name="Path 66" d="M444.4,130.37c4.42-.012,8.407-3.04,10.7-6.821s3.162-8.235,3.812-12.607c1.761-11.839,2.05-24.517-3.479-35.132-3.007-5.776-7.562-10.584-12.239-15.114-9.071-8.784-20.011-17.291-32.639-17.223" transform="translate(-64.992 -6.669)" fill="none" stroke="#000" stroke-miterlimit="10" stroke-width="3"/>
    <path id="Path_67" data-name="Path 67" d="M461.341,134.923c6.462-2.8,11.42-8.5,14.154-14.985s3.386-13.713,2.809-20.73a62.911,62.911,0,0,0-19.6-40.437" transform="translate(-72.642 -9.099)" fill="none" stroke="#000" stroke-miterlimit="10" stroke-width="3"/>
    <path id="Path_68" data-name="Path 68" d="M464.829,157.55c4.791,1.806,8.08,6.15,11.1,10.284q5.336,7.3,10.67,14.6c2.323,3.179,4.764,6.775,4.314,10.687" transform="translate(-73.615 -24.794)" fill="none" stroke="#000" stroke-miterlimit="10" stroke-width="3"/>
    <path id="Path_69" data-name="Path 69" d="M475.619,153.457c5.316-1.6,10.55,2.366,14.694,6.059,4.869,4.338,9.983,9.069,11.567,15.4" transform="translate(-75.329 -24.086)" fill="none" stroke="#000" stroke-miterlimit="10" stroke-width="3"/>
    <path id="Path_70" data-name="Path 70" d="M481.792,141.407a48.013,48.013,0,0,1,29.5,15.7" transform="translate(-76.31 -22.229)" fill="none" stroke="#000" stroke-miterlimit="10" stroke-width="3"/>
    <path id="Path_71" data-name="Path 71" d="M485.425,131.033c3.584-.707,6.04-4.271,6.625-7.877s-.3-7.271-1.186-10.816" transform="translate(-76.887 -17.61)" fill="none" stroke="#000" stroke-miterlimit="10" stroke-width="3"/>
    <path id="Path_72" data-name="Path 72" d="M373.934,146.332a104.24,104.24,0,0,1-58.4-2.844c-5.524-1.922-11.046-4.344-16.895-4.4-9.076-.081-17.109,5.487-24.452,10.824a13.767,13.767,0,0,0-2.9,2.95,30.411,30.411,0,0,0-3.906,6.249c-3.967,8.852,10.8,68.56,11.6,76.268a7.646,7.646,0,0,1-1.038,5.114,7.763,7.763,0,0,1-4.133,2.623c-14.865,4.94-34.151-1.816-44.948,9.534-4.6,4.838-6.141,11.765-9.523,17.522-4.031,6.864-10.564,11.876-15.36,18.228-14.384,19.047-10.746,45.908-4.139,68.845,2.5,8.68,5.372,17.364,10.143,25.035,7.346,11.812,18.695,20.476,29.789,28.866l32.476,24.561c17.605,13.316,25.809,20.742,33.284,30.682,21.148,28.123,14.665,55.557,23.415,56.845,10.473,1.543,16.517-38.23,52.531-74.1a165.518,165.518,0,0,1,27.061-21.781" transform="translate(-30.59 -21.861)" fill="none" stroke="#000" stroke-miterlimit="10" stroke-width="3"/>
    <path id="Path_73" data-name="Path 73" d="M408.815,468.064a66.889,66.889,0,0,0,20.4,1.3c7.863-.743,10.973-2.539,15.194-.435,5.554,2.77,7.45,9.511,8.683,13.893.966,3.436,2.852,10.139-.176,12.786-1.854,1.621-4.243.579-9.809.237-5.27-.323-6.216.421-15.166,1.2-11.916,1.038-15.1-.222-19.882.7-13.541,2.594-24.826,12.406-32.307,23.987s-11.694,24.918-15.823,38.072c-1.125,3.583-2.26,7.374-1.423,11.035,1.3,5.682,6.811,9.216,11.854,12.138,7.965,4.616,16.542,9.385,25.731,8.812,8.632-.538,18.979-7.177,21.43-16.2,3.171-11.67-8.685-22.352-4.543-26.771,1.909-2.036,4.684.336,12.513-.639,9.468-1.179,13.708-5.625,15.587-3.808,1.712,1.656-1.532,5.615-2.745,14.424-.5,3.609-.312,5.551,0,12.59.594,13.418.892,20.126.658,21.8-1.988,14.277-15.414,24.229-25.8,30.924-6.522,4.2-13.158,8.433-20.569,10.726-21.312,6.593-43.629-3.845-64.688-11.205-38-13.281-79.825-17.289-113.961-38.614A127.992,127.992,0,0,1,183.7,558.671c-2.969-3.547-5.784-7.324-7.4-11.659-1.935-5.2-2.031-10.876-2.1-16.424-.3-22.862,1.4-81.778-1.446-110.8a242.82,242.82,0,0,0-9.333-46.643" transform="translate(-25.726 -59.048)" fill="none" stroke="#000" stroke-miterlimit="10" stroke-width="3"/>
    <path id="Path_74" data-name="Path 74" d="M317.876,32.145c-37.215-13.918-78.29-11.462-117.905-8.407-25.159,1.94-50.549,4.09-74.624,11.649S78.3,56.461,63.833,77.136" transform="translate(-9.904 -3.157)" fill="none" stroke="#000" stroke-miterlimit="10" stroke-width="3"/>
    <path id="Path_75" data-name="Path 75" d="M422.432,95.84c-6.548-21.787-21.856-39.764-37.754-56.039-13.667-13.995-28.779-27.685-47.5-33.354-8.162-2.471-16.722-3.316-25.233-3.877-20.794-1.37-41.657-1.124-62.5-.877" transform="translate(-39.395 0)" fill="none" stroke="#000" stroke-miterlimit="10" stroke-width="3"/>
    <path id="Path_76" data-name="Path 76" d="M264.186,10.793c-17.153-.13-34.431-.272-51.243-3.673C205.8,5.675,198.7,3.64,191.421,3.629,185.4,3.621,179.48,5,173.634,6.418,133.168,16.248,91.139,29.842,63.4,60.9" transform="translate(-9.835 -0.338)" fill="none" stroke="#000" stroke-miterlimit="10" stroke-width="3"/>
    <path id="Path_77" data-name="Path 77" d="M280.361,37.719C256.682,33.7,232.73,40.9,208.836,43.325c-32.731,3.322-66.758-2.23-98.023,8.013-35.714,11.7-61.9,42.109-82.879,73.287a149.959,149.959,0,0,0-8.949,14.629,87.134,87.134,0,0,0-8.753,26.889" transform="translate(-1.387 -5.565)" fill="none" stroke="#000" stroke-miterlimit="10" stroke-width="3"/>
    <path id="Path_78" data-name="Path 78" d="M249.623,114.341c-37.311,2.17-70.407,23.508-101.552,44.167-31.785,21.084-63.579,42.174-94.54,64.45" transform="translate(-8.267 -17.928)" fill="none" stroke="#000" stroke-miterlimit="10" stroke-width="3"/>
    <path id="Path_79" data-name="Path 79" d="M30.018,256.72a194.428,194.428,0,0,0-6.926,65.213c.8,12.1,2.078,29.142,10.853,48.622,3.868,8.588,9.754,16.019,18.587,28.285,8.865,12.31,15.132,19.5,17.012,21.639a242.236,242.236,0,0,0,17.365,17.8" transform="translate(-3.366 -40.55)" fill="none" stroke="#000" stroke-miterlimit="10" stroke-width="3"/>
    <path id="Path_80" data-name="Path 80" d="M147.556,320.822c15.176-.224,28.025.273,37.769.868,37.851,2.313,64.938,8.331,70.051,9.492,3.614.82,9.277,2.173,14.535,3.472,13.312,3.288,24.216,6.277,31.729,8.406" transform="translate(-23.206 -50.726)" fill="none" stroke="#000" stroke-miterlimit="10" stroke-width="3"/>
    <path id="Path_81" data-name="Path 81" d="M157.878,300.187a575.448,575.448,0,0,1,74.7,9.8c8.05,1.622,17.874,3.8,33.643,6.607,19.357,3.44,35.368,5.627,46.186,6.964" transform="translate(-24.846 -47.456)" fill="none" stroke="#000" stroke-miterlimit="10" stroke-width="3"/>
    <path id="Path_82" data-name="Path 82" d="M425.591,441.915c-1.964,3.53-3.952,7.123-4.831,11.067s-.508,8.358,1.924,11.585a20.316,20.316,0,0,0,6.334,4.947q3.506,2.03,7.074,3.953" transform="translate(-66.544 -69.974)" fill="none" stroke="#000" stroke-miterlimit="10" stroke-width="3"/>
    <path id="Path_83" data-name="Path 83" d="M449.354,470.463c.654-1.994,2.684-3.146,4.55-4.1a37.557,37.557,0,0,1,9.505-3.819,12.919,12.919,0,0,1,9.876,1.572" transform="translate(-71.156 -73.198)" fill="none" stroke="#000" stroke-miterlimit="10" stroke-width="3"/>
    <path id="Path_84" data-name="Path 84" d="M428.33,557.265l14.251.579a31.822,31.822,0,0,1,7.454.895c1.649.469,3.213,1.2,4.855,1.7a29.343,29.343,0,0,0,5.834,1,87.145,87.145,0,0,0,16.132-.021,12.719,12.719,0,0,0,5.037-1.241,8.159,8.159,0,0,0,3.892-7.131,12.245,12.245,0,0,0-3.136-7.736" transform="translate(-67.816 -86.402)" fill="none" stroke="#000" stroke-miterlimit="10" stroke-width="3"/>
    <path id="Path_85" data-name="Path 85" d="M476.486,375.775c5.324,15.724,15.064,29.51,24.69,43.035,4,5.628,8.2,11.9,7.626,18.78-.458,5.5-4,10.356-8.333,13.775-3.6,2.837-8.378,6.226-7.275,10.671" transform="translate(-75.467 -59.466)" fill="none" stroke="#000" stroke-miterlimit="10" stroke-width="3"/>
    <path id="Path_86" data-name="Path 86" d="M345.26,351.81l2.1,49.924a11.18,11.18,0,0,0,.545,3.589,9.375,9.375,0,0,0,3.371,3.906c7.057,5.26,16.114,6.879,24.839,8.044,4.346.58,8.773,1.085,13.1.365,4.259-.709,8.227-2.572,12.132-4.416,5.482-2.588,11.151-5.319,15-10a41.167,41.167,0,0,0,3.92-6.123c5.279-9.432,10.693-19.32,11.127-30.12" transform="translate(-54.617 -55.658)" fill="none" stroke="#000" stroke-miterlimit="10" stroke-width="3"/>
    <path id="Path_87" data-name="Path 87" d="M332.589,350.3c3.142,14.667,1.091,29.973,3.16,44.83.544,3.9,1.525,8.044,4.452,10.683" transform="translate(-52.604 -55.418)" fill="none" stroke="#000" stroke-miterlimit="10" stroke-width="3"/>
    <path id="Path_88" data-name="Path 88" d="M347.337,324.624a126.744,126.744,0,0,1,38.631-2.16" transform="translate(-54.947 -50.9)" fill="none" stroke="#000" stroke-miterlimit="10" stroke-width="3"/>
    <path id="Path_89" data-name="Path 89" d="M353.629,338.276c7.645-6.038,17.372-8.972,27.07-9.9s19.465.032,29.152,1.056a49.858,49.858,0,0,1,8.594,1.755,66.339,66.339,0,0,1,12.343,5.108c2.537,1.246,11.658,5.725,18.234,6.946,9.235,1.714,11.4-3.381,31.257-9.551a98.738,98.738,0,0,1,29.955-4.775c11.748.033,15.545,2.343,17.673,4.741,3.441,3.878,4.033,9.285,3.851,13.359a90.931,90.931,0,0,1-2.26,14.611c-2.454,11.639-5.033,23.587-11.568,33.527-2.3,3.5-10.963,12.841-29.817,15.993" transform="translate(-55.947 -51.876)" fill="none" stroke="#000" stroke-miterlimit="10" stroke-width="3"/>
    <path id="Path_90" data-name="Path 90" d="M444.483,402.057c6.191-8.891,6.245-21.083,12.844-29.675a7.4,7.4,0,0,1,2-1.936c1.711-1.018,3.86-.762,5.83-.474" transform="translate(-70.382 -58.503)" fill="none" stroke="#000" stroke-miterlimit="10" stroke-width="3"/>
    <path id="Path_91" data-name="Path 91" d="M355.838,361.6a34.975,34.975,0,0,0,23.448,10.009,12.194,12.194,0,0,0,6.037-1.06c1.7-.895,2.976-2.411,4.535-3.529,2.4-1.719,5.477-2.516,7.441-4.718,1.7-1.91,3.035-5.036,5.573-4.714" transform="translate(-56.298 -56.572)" fill="none" stroke="#000" stroke-miterlimit="10" stroke-width="3"/>
    <path id="Path_92" data-name="Path 92" d="M357.785,349.07c5.329-2.586,11.228-3.74,17.079-4.672,4.965-.791,10.067-1.437,14.99-.423,6.325,1.3,11.755,5.206,16.972,9.011" transform="translate(-56.607 -54.331)" fill="none" stroke="#000" stroke-miterlimit="10" stroke-width="3"/>
    <path id="Path_93" data-name="Path 93" d="M374.656,363.908c-1.694.844-3.83-.4-4.632-2.113s-.642-3.7-.464-5.588a12.132,12.132,0,0,1,2.989-6.438" transform="translate(-58.455 -55.334)" fill="none" stroke="#000" stroke-miterlimit="10" stroke-width="3"/>
    <path id="Path_94" data-name="Path 94" d="M382.587,364.574a13.124,13.124,0,0,0,5.747-16.3" transform="translate(-60.548 -55.096)" fill="none" stroke="#000" stroke-miterlimit="10" stroke-width="3"/>
    <path id="Path_95" data-name="Path 95" d="M485.2,366.954a15.091,15.091,0,0,0,16.869-7.917" transform="translate(-76.852 -56.806)" fill="none" stroke="#000" stroke-miterlimit="10" stroke-width="3"/>
    <path id="Path_96" data-name="Path 96" d="M483.964,358.99a18.279,18.279,0,0,1,14.81-13.719" transform="translate(-76.655 -54.619)" fill="none" stroke="#000" stroke-miterlimit="10" stroke-width="3"/>
    <path id="Path_97" data-name="Path 97" d="M514.539,289.31c-4.89-31.313-9.978-63.249-24.5-91.418" transform="translate(-77.62 -31.203)" fill="none" stroke="#000" stroke-miterlimit="10" stroke-width="3"/>
    <path id="Path_98" data-name="Path 98" d="M312.663,310.272l31.992-8.108c9.579-2.428,19.455-4.875,29.241-3.5,6.051.852,11.795,3.137,17.471,5.4l17.733,7.081c7.3,2.914,15.349,5.863,22.808,3.4a12.652,12.652,0,0,1-7.828,10.7" transform="translate(-49.438 -47.151)" fill="none" stroke="#000" stroke-miterlimit="10" stroke-width="3"/>
    <path id="Path_99" data-name="Path 99" d="M473.592,331.855c1.887-5.532,6.992-9.223,11.824-12.514,3.951-2.691,7.975-5.394,12.5-6.937s9.684-1.813,13.964.315c4.158,2.066,7.274,6.236,11.822,7.168" transform="translate(-75.007 -49.203)" fill="none" stroke="#000" stroke-miterlimit="10" stroke-width="3"/>
    <path id="Path_100" data-name="Path 100" d="M476.85,334.789a47.849,47.849,0,0,1,14.513-7.538c7.081-2.244,14.568-2.8,21.975-3.348" transform="translate(-75.525 -51.224)" fill="none" stroke="#000" stroke-miterlimit="10" stroke-width="3"/>
    <path id="Path_101" data-name="Path 101" d="M111.342,514.888,106.653,485.1a77.5,77.5,0,0,0-1.848-9.264c-2.01-7.036-6.053-14.193-3.994-21.216" transform="translate(-15.688 -71.992)" fill="none" stroke="#000" stroke-miterlimit="10" stroke-width="3"/>
    <path id="Path_102" data-name="Path 102" d="M153.031,338.4c-3.762,5.106-9.847,8.105-16.056,9.4s-12.623,1.056-18.96.813" transform="translate(-18.512 -53.527)" fill="none" stroke="#000" stroke-miterlimit="10" stroke-width="3"/>
    <path id="Path_103" data-name="Path 103" d="M153.157,349.776c-3.168,3.7-6.526,7.53-11.067,9.285a25.763,25.763,0,0,1-9.91,1.246,96.328,96.328,0,0,1-11.549-.959c-3.125-.45-6.6-.977-9.193.831" transform="translate(-17.467 -55.335)" fill="none" stroke="#000" stroke-miterlimit="10" stroke-width="3"/>
    <path id="Path_104" data-name="Path 104" d="M165.078,366.464a55.978,55.978,0,0,1-13.954.148" transform="translate(-23.773 -57.986)" fill="none" stroke="#000" stroke-miterlimit="10" stroke-width="3"/>
    <path id="Path_105" data-name="Path 105" d="M485.229,525.348c1.031,3.69,1.841,8.355-.331,10.074-1.629,1.289-4.281.4-5.21.119-6.957-2.111-15.2.064-31.222,4.286a123.143,123.143,0,0,0-28.832,11.712" transform="translate(-66.434 -83.23)" fill="none" stroke="#000" stroke-miterlimit="10" stroke-width="3"/>
    <path id="Path_106" data-name="Path 106" d="M507.251,405.767c2.942-10.478,2.372-21.587,1.5-32.435a48.7,48.7,0,0,1-.149-9.844,23.675,23.675,0,0,1,7.785-14.729,11.414,11.414,0,0,0,2.32-2.835,12.465,12.465,0,0,0,1.606-5.222" transform="translate(-80.355 -53.893)" fill="none" stroke="#000" stroke-miterlimit="10" stroke-width="3"/>
  </g>
</svg>
