<svg id="Layer_1" data-name="Layer 1" xmlns="http://www.w3.org/2000/svg" width="350" height="750" viewBox="0 0 350 750">
  <defs>
    <style>
      .cls-1 {
        fill: #f3aca9;
        stroke: #f0b9b9;
        stroke-miterlimit: 10;
        stroke-width: 3px;
      }

      .cls-2 {
        fill: #c41e26;
      }
    </style>
  </defs>
  <path class="cls-1" d="M290.1,604.26c34.15-123.14,21.76-220.5-5.46-283.51-40-92.65-78-234.46-108.13-315.57-12.29-33.13-57.47,255.71-89.46,419C64.64,538.47,87.26,670,141.68,695.27S261.58,707.07,290.1,604.26Z"/>
  <g>
    <path class="cls-2" d="M228.66,594.6c.05-1.8.74-2.68,2.08-2.65a2,2,0,0,1,1.58,1.2,8.29,8.29,0,0,1,.6,4L231.84,642l-71.09-1.72q.51-20.84,1-41.67l0-4.34c.06-2.65.83-4,2.31-3.92a2.33,2.33,0,0,1,1.56.7,2,2,0,0,1,.69,1.53,14.67,14.67,0,0,1-.37,2.9,33.14,33.14,0,0,0-.6,6.23L165,613.38l15.32.37.23-9.63-.09-6.51a3.66,3.66,0,0,1,.57-2,1.66,1.66,0,0,1,1.5-.78c1.41,0,2.09,1,2,3l-.1,2.27c-.13,1.16-.21,2.13-.22,2.91L184,613.84l44.81,1.08.29-11.68a35.83,35.83,0,0,0-.17-5.56A18.68,18.68,0,0,1,228.66,594.6Z"/>
    <path class="cls-2" d="M226.32,572.9l5,0a2.64,2.64,0,0,1,2,.79,2.46,2.46,0,0,1,.66,1.79,2.37,2.37,0,0,1-.69,1.7,2,2,0,0,1-1.45.66,8.12,8.12,0,0,1-1.45-.17c-.45-.1-1-.19-1.53-.28a58.56,58.56,0,0,0-7.28-.44l-62.49-1.51L203.81,519l-29.94-.73a38.77,38.77,0,0,0-4.88.1,32.45,32.45,0,0,1-3.32.18c-1.68,0-2.5-.82-2.46-2.33a2.89,2.89,0,0,1,.65-1.71,2,2,0,0,1,1.77-.77l1.76,0,7.28.39,63,1.52L193.42,572.1Z"/>
    <path class="cls-2" d="M231.67,494.61a23,23,0,0,0,1.1-4.16,30,30,0,0,0,.44-4.4,20,20,0,0,0-.35-4.22l-68.22-1.65.65-27,44.26,1.07q13.22.33,19.92,7.53,7.5,8.06,7.09,24.77-.27,11-5.18,16.6l-.87.88c-1.31,1.24-2.42,1.79-3.36,1.66-1.57-.28-2.27-1-2.11-2.27a4,4,0,0,1,2-2.78,8.88,8.88,0,0,0,2.78-2.53A15.2,15.2,0,0,0,231.67,494.61Z"/>
    <path class="cls-2" d="M228,428.32a35.79,35.79,0,0,1-12,8,36.48,36.48,0,0,1-15.15,2.73,35.27,35.27,0,0,1-14.59-3.29,34.31,34.31,0,0,1-11.08-8.39q-9.88-11.36-9.48-28.12t10.66-27.05q10.41-10.53,26.59-10.15t26.25,11.7A37.47,37.47,0,0,1,237.67,391a50.82,50.82,0,0,1,.93,11.69,39.29,39.29,0,0,1-2.92,13.55A36.54,36.54,0,0,1,228,428.32Zm-58.59-28.89a34.19,34.19,0,0,0,.27,5.46l64.8,1.57A33.37,33.37,0,0,0,235,401q.34-14.11-8.37-24-9-10.32-23.76-10.68-14-.34-23.54,8.9T169.36,399.43Z"/>
    <path class="cls-2" d="M239.91,331.77a2,2,0,0,1-2.26,2.22,4.73,4.73,0,0,1-2.93-1.44,51.15,51.15,0,0,0-7.06-5.42l-4.5-2.8-55.47,30.08.75-30.83,30.65-14.39L176.57,295.1a42.4,42.4,0,0,0-5.24-2.67c-1.78-.75-2.65-1.7-2.62-2.87,0-1.44.74-2.15,2.11-2.12a5.48,5.48,0,0,1,2.74,1L234,326.12l1.63,1,1.79.94Q240,329.5,239.91,331.77Z"/>
  </g>
</svg>
