<svg id="Layer_1" data-name="Layer 1" xmlns="http://www.w3.org/2000/svg" width="300" height="510" viewBox="0 0 300 510">
  <defs>
    <style>
      .cls-1 {
        fill: #f3aca9;
        stroke: #f0b9b9;
        stroke-miterlimit: 10;
        stroke-width: 3px;
      }

      .cls-2 {
        fill: #16142e;
      }
    </style>
  </defs>
  <path class="cls-1" d="M5.7,111.13c15.53,93.68,54.36,155.4,92.43,189.34,56,49.91,126,133.57,171.67,178.81C288.45,497.76,228.47,289,198.93,169,178.23,84.88,121.81,3.34,77.22,3.34S-7.27,32.93,5.7,111.13Z"/>
  <g>
    <path class="cls-2" d="M75,112.15l-3.43,1.67a1.88,1.88,0,0,1-1.6.07,2,2,0,0,1-1-1,1.59,1.59,0,0,1,0-1.31,1.73,1.73,0,0,1,.94-.92,8.74,8.74,0,0,1,1.61-.51A34.52,34.52,0,0,0,76.84,108L101.7,96.84l-8.11-18L60.73,93.57,52.5,75.25l48.18-21.66,8.24,18.32L96.08,77.69,101.63,90c1.38,3.07,2.25,5,2.59,5.66L110.15,93c2-.89,3.24-1.5,3.8-1.84l1-.6c.31-.17.58-.3.8-.4A1.49,1.49,0,0,1,118,91a2.11,2.11,0,0,1,.09,1.29,1.71,1.71,0,0,1-1.11,1.19l-4.42,1.82-6.91,3.1,1.32,2.12a1.81,1.81,0,0,1,.12,1.24,1.23,1.23,0,0,1-.74.85c-.88.4-1.72-.12-2.5-1.55a7.74,7.74,0,0,1-.43-.73c-.12-.25-.25-.49-.39-.75Z"/>
    <path class="cls-2" d="M86.13,133.87c-2-4.37-3.27-7.37-3.93-9l-2.81,0c-.8,0-1.62,0-2.47.07-1.65.09-2.7-.36-3.14-1.34a1.7,1.7,0,0,1-.09-1.3,1.26,1.26,0,0,1,.66-.81,3.19,3.19,0,0,1,2-.07,21.63,21.63,0,0,0,4.7.43c-.74-2.13-.64-3.42.32-3.85s1.69-.05,2.22,1.12a12.11,12.11,0,0,1,.78,2.66l49.32-.66L94.32,168.29l-8.4-18.68,4.72-5.7Zm-.75-9.05q1.28,3.56,2.5,6.29l4.72,10.5,14.32-17.21Z"/>
    <path class="cls-2" d="M114.79,205.55c.57,1.26.34,2.13-.68,2.59a1.48,1.48,0,0,1-1.44-.28,6.16,6.16,0,0,1-1.71-2.53L97.88,176.22l48.19-21.66,8.21,18.28-45.94,20.65,3,6.7a16.8,16.8,0,0,0,2.17,3.7A18.2,18.2,0,0,1,114.79,205.55Z"/>
    <path class="cls-2" d="M132.53,245c.57,1.27.34,2.13-.68,2.59a1.48,1.48,0,0,1-1.44-.28,6.19,6.19,0,0,1-1.7-2.53l-13.09-29.11L163.81,194,172,212.31,126.09,233l3,6.7a17.45,17.45,0,0,0,2.17,3.7A16.31,16.31,0,0,1,132.53,245Z"/>
    <path class="cls-2" d="M141.9,257.71a26.3,26.3,0,0,1,5.43-9.23,27.08,27.08,0,0,1,9.27-6.69,26.12,26.12,0,0,1,10.84-2.48,25.35,25.35,0,0,1,10.12,2.07q10.26,4.43,15.37,15.8t1.54,21.54q-3.6,10.41-14.56,15.34t-21.35.59a28,28,0,0,1-11.22-8.84,37.58,37.58,0,0,1-4.37-7.54,29.13,29.13,0,0,1-2.39-10A27,27,0,0,1,141.9,257.71Zm48.53.55a26,26,0,0,0-1.93-3.57l-43.94,19.75a26,26,0,0,0,1.39,3.81,25.13,25.13,0,0,0,13.31,13.41q9.39,4,19.36-.47a23.27,23.27,0,0,0,12.92-13.52Q195,268.34,190.43,258.26Z"/>
  </g>
</svg>
