<svg id="Layer_1" data-name="Layer 1" xmlns="http://www.w3.org/2000/svg" width="700" height="440" viewBox="0 0 700 440">
  <defs>
    <style>
      .cls-1 {
        fill: #8ca8d8;
        stroke: #7c9fd3;
        stroke-miterlimit: 10;
        stroke-width: 3px;
      }

      .cls-2 {
        fill: #f3aca9;
      }
    </style>
  </defs>
  <path class="cls-1" d="M536.81,376.6C404.37,359.69,315.59,308.37,265.9,256.66c-73.07-76-194.3-170-260.27-231.84C-21.32-.42,275.22,72.9,445.42,108.11c119.22,24.67,236.77,99.67,239.11,162.32S647.39,390.71,536.81,376.6Z"/>
  <g>
    <path class="cls-2" d="M263.51,175l-2.09,5a3.55,3.55,0,0,1-1.36,1.71,1.56,1.56,0,0,1-1.44.17,1.24,1.24,0,0,1-.74-1.09,3.23,3.23,0,0,1,.33-1.75,16.42,16.42,0,0,1,1.13-2.1,77.34,77.34,0,0,0,3.55-7.36l15.66-35.17L261.93,127l-20.7,46.49-16.88-7.52L254.7,97.76l16.88,7.52-8.09,18.16,11.39,5.07q4.25,1.89,5.26,2.28l3.73-8.38c1.24-2.8,2-4.63,2.32-5.49l.51-1.5c.18-.46.34-.85.49-1.18.65-1.47,1.45-2,2.37-1.59a1.57,1.57,0,0,1,.77,1,3.1,3.1,0,0,1-.33,2.16L287.12,122l-4.35,9.78,2.27.49a1.36,1.36,0,0,1,.77.95,2.26,2.26,0,0,1-.2,1.5,2.17,2.17,0,0,1-3,1.21,3.69,3.69,0,0,1-.76-.2l-.75-.24Z"/>
    <path class="cls-2" d="M284.7,182.53q-6-2.7-8.2-3.83l-2.44,2.9c-.7.81-1.4,1.67-2.1,2.59q-2.08,2.64-3.44,2a1.29,1.29,0,0,1-.77-1,2.37,2.37,0,0,1,.14-1.38,6.11,6.11,0,0,1,1.68-2.08,37.88,37.88,0,0,0,4.31-4.44q-2.67-1.65-1.77-3.67c.6-1.35,1.44-1.78,2.52-1.3a7.57,7.57,0,0,1,2.1,1.51l42.48-51-9.12,81.31-17.22-7.66,1.08-9.8Zm-5.47-7.11a52.94,52.94,0,0,0,5.51,2.91l9.68,4.31L297.73,153Z"/>
    <path class="cls-2" d="M347.66,215.58c1.16.52,1.43,1.5.78,2.94a2.25,2.25,0,0,1-1.39,1.23,4,4,0,0,1-2.83-.45l-26.83-12,30.35-68.17,16.85,7.5-28.94,65,6.18,2.75a10.59,10.59,0,0,0,3.86,1A11.72,11.72,0,0,1,347.66,215.58Z"/>
    <path class="cls-2" d="M384,231.77c1.17.52,1.43,1.5.79,2.95a2.26,2.26,0,0,1-1.4,1.22,4,4,0,0,1-2.83-.45l-26.82-11.94,30.35-68.17,16.85,7.5-28.94,65,6.18,2.75a10.39,10.39,0,0,0,3.85,1A11.58,11.58,0,0,1,384,231.77Z"/>
    <path class="cls-2" d="M393.11,253.53c-.61-1.3.22-2.83,2.46-4.56a13.45,13.45,0,0,0,1.42-1.21l7.5-7.52.45,4-7,7.15q-3,2.93-3.77,2.88A1.12,1.12,0,0,1,393.11,253.53Zm5.79-20.31a41.45,41.45,0,0,1-.18-13.59,56.49,56.49,0,0,1,4.5-15.31,54.49,54.49,0,0,1,8.1-13.25,39.65,39.65,0,0,1,9.88-8.56q11.28-6.64,21.75-2t12.78,17.18q2.4,12.73-4.5,28.24T433,248.32a24.77,24.77,0,0,1-14.43,3.79,23,23,0,0,1-7.8-2.09,18.74,18.74,0,0,1-7.41-6.27A26.1,26.1,0,0,1,398.9,233.22ZM441.35,184a16,16,0,0,0-3.57-1.13l-27.67,62.15a15,15,0,0,0,3.23,1.9q8.82,3.93,18.69-1.95,10.28-6.1,16.56-20.22,6-13.44,4-25T441.35,184Zm12.06,9q2.34-2.13,4.15-4l3.17-3.21q2.89-2.92,3.42-2.87a1.27,1.27,0,0,1,.9.6,1.66,1.66,0,0,1,.16,1.37,5.36,5.36,0,0,1-1.9,2.62c-1,.85-1.82,1.56-2.39,2.12s-1.18,1.18-1.86,1.88l-4.4,4.62Z"/>
    <path class="cls-2" d="M448.24,261.31a11.54,11.54,0,0,0,2.18,2.12A13.42,13.42,0,0,0,453,265a8.53,8.53,0,0,0,2.82.74L485,200.28l16.88,7.52L483,250.24q-5.64,12.67-13,17.32-8.21,5.18-18.64.53-6.89-3.06-8.41-9.22l-.2-1.07a5.85,5.85,0,0,1,.33-3.67c.83-1.44,1.6-1.92,2.31-1.45a3.07,3.07,0,0,1,.93,2.66,8.93,8.93,0,0,0,.46,3.33A9.73,9.73,0,0,0,448.24,261.31Z"/>
    <path class="cls-2" d="M484.63,277.65a14.87,14.87,0,0,1-1.1-2.91,3.88,3.88,0,0,1,.17-2.64c.68-1.54,1.48-2.11,2.38-1.71.6.26,1,1,1.34,2.33a15.55,15.55,0,0,0,1.32,3.61,17,17,0,0,0,2.11,3.17,15.25,15.25,0,0,0,5.34,4.28,15.09,15.09,0,0,0,4.52,1.38,8.18,8.18,0,0,0,3.17-.33,7.1,7.1,0,0,0,4.43-4.08,11.46,11.46,0,0,0,.67-6.57,64.67,64.67,0,0,0-1.88-7.88l-2.77-9q-4.24-13.32-2.25-21.9a34.73,34.73,0,0,1,2.2-6.36,23.8,23.8,0,0,1,4-6.18,18.16,18.16,0,0,1,5.64-4.36q6.76-3.39,14.34,0a15.75,15.75,0,0,1,6.2,4.75,17,17,0,0,1,2.87,4.83,4.15,4.15,0,0,1,.08,2.86c-.66,1.48-1.41,2-2.25,1.66a2.44,2.44,0,0,1-1.08-1.75,11.68,11.68,0,0,0-1-2.67,14.19,14.19,0,0,0-1.67-2.45,13.5,13.5,0,0,0-4.85-3.77q-4.92-2.19-7,2.53a8.32,8.32,0,0,0-.74,4.06,61.33,61.33,0,0,0,2.45,11.16,130.87,130.87,0,0,1,3.14,12.86,52.44,52.44,0,0,1,1,9.26,28.43,28.43,0,0,1-2.46,11.75,32,32,0,0,1-5.54,8.85,22.22,22.22,0,0,1-6.72,5,17.57,17.57,0,0,1-15.24.26A20.89,20.89,0,0,1,484.63,277.65Z"/>
    <path class="cls-2" d="M534.48,293.73q-6-2.7-8.2-3.83l-2.43,2.9c-.71.81-1.41,1.67-2.11,2.59q-2.09,2.64-3.44,2a1.31,1.31,0,0,1-.77-1,2.37,2.37,0,0,1,.14-1.38,6.11,6.11,0,0,1,1.68-2.08,37.1,37.1,0,0,0,4.31-4.44c-1.78-1.09-2.37-2.32-1.77-3.67s1.44-1.78,2.52-1.3a7.57,7.57,0,0,1,2.1,1.51L569,234l-9.12,81.31-17.22-7.66,1.08-9.8ZM529,286.62a50.24,50.24,0,0,0,5.52,2.91l9.68,4.31,3.3-29.64Z"/>
  </g>
</svg>
