<svg id="Layer_1" data-name="Layer 1" xmlns="http://www.w3.org/2000/svg" width="800" height="635" viewBox="0 0 800 635">
  <defs>
    <style>
      .cls-1 {
        fill: #e5241e;
        stroke: #a01a16;
        stroke-miterlimit: 10;
        stroke-width: 3px;
      }

      .cls-2 {
        fill: #fff;
      }
    </style>
  </defs>
  <path class="cls-1" d="M483.41,622.44c-160.23-46.85-234.57-115-289.14-201.36C83.34,245.43,57.31,89.44,3.38,5.62-25-38.54,324.4,280.85,416.93,356.22c118.51,96.54,388.78,39.6,381.17,137.85S617.19,661.55,483.41,622.44Z"/>
  <g>
    <path class="cls-2" d="M327.91,448.71c-.47.66-.94,1.3-1.42,1.91-.28.3-.79.36-1.54.19a8.88,8.88,0,0,1-2.28-.89,5.91,5.91,0,0,1-1.64-1.2c-.32-.38-.37-.66-.15-.86a2.82,2.82,0,0,1,1-.55,7.56,7.56,0,0,0,2.83-2.46A54.15,54.15,0,0,0,334,427.36c-9.3-2.16-18.58-4.38-27.87-6.74-4.18,6.24-9.4,10.17-15.19,12q-15.3-8.2-30.68-16.46c9.42,1.33,17.81-1.37,24.12-8.86,9,1.28,17.92,2.3,26.8,3.16a47.51,47.51,0,0,1-4.13,8.74c7.92,1.81,14.22,3.17,18.93,4.17s7.61,1.59,8.71,1.79q.8-2.65,1.41-5.54a21.27,21.27,0,0,0,.57-3.86c0-.36,0-.71,0-1.07a8.24,8.24,0,0,1,.08-.85c.16-1.09.95-1.6,2.39-1.5a3.24,3.24,0,0,1,1.55.55,1.51,1.51,0,0,1,.67,1.56c-.26,1.57-.55,3.11-.89,4.61q-.62,3.57-1.47,6.84l3.53.4a3.31,3.31,0,0,1,1.56.69,1,1,0,0,1,.45,1.07c-.21.88-1.48,1.12-3.8.7-.42-.05-.82-.11-1.22-.19l-1.2-.23A57.46,57.46,0,0,1,327.91,448.71Z"/>
    <path class="cls-2" d="M400.54,488.5c2,1.07,2.79,2.21,2.39,3.4q-.27.81-1.77.69a13.2,13.2,0,0,1-4.64-1.94q-24.7-14.14-49.9-27.95c7.2-11,12.8-27.52,12.88-48.65,13.52.85,27,1.66,40.48,2.67l4.17.14c2.56.19,4,1.21,4.35,3a2.64,2.64,0,0,1-.33,1.89,1.34,1.34,0,0,1-1.36.73,14.26,14.26,0,0,1-2.93-.66,29,29,0,0,0-6.24-1.15q-5.77-.56-11.54-1.09a135,135,0,0,1,.37,15.85l10.07,2,6.81,1.08a4.37,4.37,0,0,1,2.08,1,2.43,2.43,0,0,1,.88,1.86c0,1.6-1.05,2.15-3.14,1.67l-2.41-.6c-1.23-.39-2.25-.67-3.07-.86l-11.4-2.54a121.52,121.52,0,0,1-8.44,37.82q6.5,3.5,13,7a60.47,60.47,0,0,0,6.23,3.08A31.1,31.1,0,0,1,400.54,488.5Z"/>
    <path class="cls-2" d="M421.05,500.37a41.94,41.94,0,0,0,4.24,3.59A48.9,48.9,0,0,0,430,507a24,24,0,0,0,4.7,2.08c7.42-25.49,10.45-56.54,1.41-89.15q13.11,1.4,26.25,3.21a158.47,158.47,0,0,1,7.82,68.61c-1.32,13-6.12,21.24-12.67,24.52-7.41,3.7-17.07,1.3-29.06-5.9-7.91-4.75-13.45-9.93-16.68-15.25-.25-.45-.49-.91-.74-1.35-1-2-1.35-3.36-1-4.2a1.89,1.89,0,0,1,3-.87,6.36,6.36,0,0,1,2.59,3.54,14.58,14.58,0,0,0,2.07,4.23A26.77,26.77,0,0,0,421.05,500.37Z"/>
    <path class="cls-2" d="M503.85,430q10.71,2,21.43,4.3c10,2.12,18,5.09,24.07,8.82a83.5,83.5,0,0,1,18.29,15.11,101.27,101.27,0,0,1,12.73,17.51,80,80,0,0,1,10.76,39.86c-.15,22.62-9.84,39.09-22.59,48.87-9.19,7.05-18.28,9.6-26.67,7.94-4.69-.91-10.78-3.35-18.46-7.52q-8.65-4.7-17.51-9.8C519.69,517.17,523.15,472.19,503.85,430Zm31.22,132.24c.53.33,1,.6,1.47.83l1.19.58c9.25,4.53,19.37,3,29.74-5.33,10.78-8.71,18.82-23.47,19-43.85a75.53,75.53,0,0,0-9.16-36C568.67,462.34,557,452,546,446.72a66.67,66.67,0,0,0-12.36-4.28C551.57,482.26,549,525.15,535.07,562.19Z"/>
    <path class="cls-2" d="M647.78,468.27a116,116,0,0,1,8,11.83c11.83,19.44,16.67,40,15.51,59.27-1.19,19.1-10.76,33-23,43.44-12.75,10.56-25.34,15.9-34.7,15.38-10.24-.66-13.55-7.65-13.65-21.28-.28-12.53,2-28.47,3.62-47.64A127.86,127.86,0,0,0,583,448c8.55,2.2,17,4.44,25.33,6.65,31.65,43.95,29.14,96.13,3.93,135.63a23.08,23.08,0,0,0,7.9,1.83c3.11.22,7-.7,11.73-2.71a55.73,55.73,0,0,0,14.83-9.76c10.81-9.72,20.42-24.36,20.76-45.9.13-17.83-4.7-36.51-15.24-54.25-1.17-2-2.69-4.28-4.66-7s-3.4-4.47-4.13-5.42c-2.55-3.29-3.24-4.69-1.74-4.29C643,463.14,645.14,464.94,647.78,468.27Z"/>
  </g>
</svg>
