<svg id="Layer_1" data-name="Layer 1" xmlns="http://www.w3.org/2000/svg" width="370" height="550" viewBox="0 0 370 550">
  <defs>
    <style>
      .cls-1 {
        fill: #f3aca9;
        stroke: #f0b9b9;
        stroke-miterlimit: 10;
        stroke-width: 3px;
      }

      .cls-2 {
        fill: #fff;
      }
    </style>
  </defs>
  <path class="cls-1" d="M209.92,40.43C128.35,113.35,92.26,189.23,82.73,247.22c-14,85.27-52.21,205-68,277.39C8.22,554.17,174.36,367,272.91,264.12c69-72,113.56-177.25,86-220.63S278-20.46,209.92,40.43Z"/>
  <g>
    <path class="cls-2" d="M179.92,285.65l3.82,2.17a2.24,2.24,0,0,1,1.11,1.48,2.36,2.36,0,0,1-.3,1.65,1.84,1.84,0,0,1-1.22.9,2,2,0,0,1-1.48-.29,9.06,9.06,0,0,1-1.53-1.21,41.27,41.27,0,0,0-5.52-3.75L148,270.2l-11.9,19.43,35.4,21.68-12.09,19.74-51.91-31.8,12.09-19.73L133.44,288l8.15-13.31c2-3.31,3.26-5.36,3.71-6.14l-6.38-3.91c-2.13-1.31-3.54-2.11-4.22-2.43l-1.2-.52c-.35-.18-.65-.35-.9-.5a1.71,1.71,0,0,1-.69-2.65,2.34,2.34,0,0,1,1.17-.93,2,2,0,0,1,1.85.28l4.6,3,7.44,4.56,1.16-2.63a2.09,2.09,0,0,1,1.1-.93,1.44,1.44,0,0,1,1.29.16q1.44.87.15,3.38a6.6,6.6,0,0,1-.42.89c-.15.28-.3.56-.45.86Z"/>
    <path class="cls-2" d="M211.58,238.81c.81-1.31,1.7-1.67,2.68-1.07a1.67,1.67,0,0,1,.65,1.57,7.07,7.07,0,0,1-1.28,3.25l-20,32.71-51.91-31.79L160.32,213l1.83-3.23q1.77-2.9,3.39-1.91a2,2,0,0,1,.86,1.19,1.72,1.72,0,0,1-.15,1.43,12.68,12.68,0,0,1-1.52,2,28.33,28.33,0,0,0-3.12,4.35l-5.23,8.54,11.19,6.85,4.31-7,2.72-4.86a3.17,3.17,0,0,1,1.28-1.22,1.42,1.42,0,0,1,1.45.07c1,.63,1.09,1.66.21,3.11l-1,1.63c-.59.81-1.07,1.49-1.41,2.06l-4.83,7.88,32.73,20,5.23-8.53a30.55,30.55,0,0,0,2.26-4.19A15.7,15.7,0,0,1,211.58,238.81Z"/>
    <path class="cls-2" d="M220.43,225.32a20,20,0,0,0,2.6-2.6,26.8,26.8,0,0,0,2.21-3.08,15.52,15.52,0,0,0,1.55-3.28L177,185.85l12.09-19.74,32.32,19.8Q231,191.82,232.91,200q2.09,9.19-5.39,21.4-4.92,8-11,10.07l-1,.28c-1.5.35-2.57.28-3.2-.21-1-.89-1.24-1.75-.59-2.59a3.44,3.44,0,0,1,2.7-1.19,7.61,7.61,0,0,0,3.14-.68A12.81,12.81,0,0,0,220.43,225.32Z"/>
    <path class="cls-2" d="M247.39,181.28a18.84,18.84,0,0,0,2.61-2.6,25.17,25.17,0,0,0,2.21-3.08,16,16,0,0,0,1.55-3.27l-49.82-30.51L216,122.08l32.32,19.8q9.65,5.9,11.53,14.12,2.08,9.19-5.39,21.4-4.92,8-11,10.07l-1,.27c-1.49.36-2.56.29-3.2-.2-1-.89-1.23-1.75-.58-2.59a3.42,3.42,0,0,1,2.7-1.19,7.77,7.77,0,0,0,3.14-.68A12.81,12.81,0,0,0,247.39,181.28Z"/>
    <path class="cls-2" d="M274.36,137.25a20,20,0,0,0,2.6-2.6,25.25,25.25,0,0,0,2.22-3.08,16.76,16.76,0,0,0,1.55-3.27L230.91,97.79,243,78.05l32.33,19.79Q285,103.75,286.84,112q2.1,9.19-5.38,21.4-4.92,8-11,10.07l-1,.27c-1.49.36-2.56.29-3.2-.21-1-.88-1.23-1.74-.58-2.58a3.42,3.42,0,0,1,2.69-1.2,7.56,7.56,0,0,0,3.14-.67A13,13,0,0,0,274.36,137.25Z"/>
  </g>
</svg>
