<svg id="Layer_1" data-name="Layer 1" xmlns="http://www.w3.org/2000/svg" width="500" height="280" viewBox="0 0 500 280">
  <defs>
    <style>
      .cls-1 {
        fill: #8ca8d8;
        stroke: #7c9fd3;
        stroke-miterlimit: 10;
        stroke-width: 3px;
      }

      .cls-2 {
        fill: #fff;
      }
    </style>
  </defs>
  <path class="cls-1" d="M161.75,277C240.93,264.11,280.39,236,311.49,198c63.22-77.27,84.8-150.14,115.45-187C443.08-8.37,257.66,123.45,209.1,154,146.9,193.05,21.33,150,19.19,197.33S95.65,287.84,161.75,277Z"/>
  <g>
    <path class="cls-2" d="M89.41,240.49l.57,3.16a1.73,1.73,0,0,1-.1,1.17.56.56,0,0,1-.64.27,1.21,1.21,0,0,1-.69-.56,2.74,2.74,0,0,1-.4-1.07A10.83,10.83,0,0,1,88,242.1c0-.61-.22-2.19-.63-4.71q-1.85-11.12-3.7-21.8a94.94,94.94,0,0,1-10-2q2.49,13.5,4.89,27.87a80,80,0,0,1-9.7-4.44c-2.36-13.44-4.79-26.23-7.35-38.28a89.18,89.18,0,0,0,9.82,2.45q1,5.12,2,10.36c2.81.69,5.1,1.12,6.82,1.41s2.79.42,3.19.46c-.3-1.69-.59-3.37-.89-5.05s-.51-2.75-.64-3.25l-.24-.86c-.06-.27-.11-.5-.14-.69-.16-.88,0-1.29.61-1.24a1.28,1.28,0,0,1,.7.39,2.2,2.2,0,0,1,.53,1.18l.57,3.68c.35,2,.7,3.94,1,5.92l1.23-.12a1.06,1.06,0,0,1,.67.37,1.72,1.72,0,0,1,.39.84c.13.77-.22,1.16-1.05,1.16a2,2,0,0,1-.42,0h-.43Q87.35,227.86,89.41,240.49Z"/>
    <path class="cls-2" d="M116.11,244.64c.74,0,1.19.4,1.33,1.28a1.26,1.26,0,0,1-.31,1.06,2.06,2.06,0,0,1-1.58.5,110.75,110.75,0,0,1-18.12-1.14C95,231.43,92.64,217,90.21,203a139.82,139.82,0,0,0,16.63-.81l1.74-.29c1.08-.12,1.69.27,1.84,1.19a1.89,1.89,0,0,1-.1,1c-.13.32-.31.5-.54.52a4.19,4.19,0,0,1-1.21-.05,9.61,9.61,0,0,0-2.57,0q-2.37.22-4.71.36c.53,3.12,1,6.27,1.58,9.43,1.29,0,2.58-.1,3.88-.18.87-.1,1.74-.22,2.61-.34a1.16,1.16,0,0,1,.86.27,1.38,1.38,0,0,1,.49.9c.15.89-.18,1.37-1,1.43l-.93,0a10.22,10.22,0,0,0-1.19,0c-1.46.09-2.91.15-4.36.19q2.31,13.92,4.63,28.36,2.37.09,4.77.09a8.23,8.23,0,0,0,2.25-.21A4.53,4.53,0,0,1,116.11,244.64Z"/>
    <path class="cls-2" d="M130.39,246.79c-.64.08-1-.38-1.2-1.36a4.09,4.09,0,0,1,.25-2,36.08,36.08,0,0,0,1.4-5.08l.63-3.21c-6.41-11.42-12.67-22.71-18.85-33.58q6.28-.89,12.65-2.23,4.74,9.12,9.58,18.5,1.56-8.17,3.11-16.44c.21-1.26.37-2.52.46-3.77s.38-2,.87-2.1,1,.21,1.13,1.11a5.48,5.48,0,0,1-.09,1.94q-4.1,22.32-8.3,43.89c-.09.47-.16.86-.22,1.16l-.18,1.26C131.44,246.06,131,246.71,130.39,246.79Z"/>
    <path class="cls-2" d="M177.55,183.58q.28,1.54-1.83,2.4c-1.7.67-3.39,1.34-5.09,2q4.13,22.65,8.48,45.32-5.76,2.27-11.53,4.24-4.22-22.77-8.2-45.43l-3.3,1.13a9.36,9.36,0,0,0-2.29,1,5.42,5.42,0,0,1-1.17.66c-.75.24-1.2-.09-1.35-1-.18-1.05.45-1.81,1.9-2.29,6.54-2.16,13.07-4.55,19.58-7.1a10.39,10.39,0,0,0,2.2-1.08,7.21,7.21,0,0,1,1.26-.76C176.94,182.41,177.39,182.7,177.55,183.58Z"/>
    <path class="cls-2" d="M214.34,211.75l.78,3.22a2.51,2.51,0,0,1-.05,1.45,1.5,1.5,0,0,1-.65.85.64.64,0,0,1-.77-.06,1.65,1.65,0,0,1-.49-.93,10.75,10.75,0,0,1-.2-1.5,46.71,46.71,0,0,0-.92-5.06Q209.51,198,207,186q-5.45,2.57-10.94,5,3.21,16,6.51,31.82-5.66,2.77-11.36,5.31c-3.15-15.69-6.22-31.52-9.22-47.38q5.58-2.31,11.11-4.73,1.23,6.28,2.48,12.56c3.14-1.4,5.63-2.55,7.49-3.4s3-1.4,3.43-1.63q-.6-2.85-1.18-5.7c-.39-1.91-.67-3.14-.83-3.69-.09-.32-.19-.63-.28-.95s-.14-.56-.19-.78q-.3-1.52.6-1.92a.8.8,0,0,1,.75.09,1.68,1.68,0,0,1,.61,1.16l.78,4.24,1.38,6.64,1.3-.93a.69.69,0,0,1,.72,0,1.14,1.14,0,0,1,.44.77,1.84,1.84,0,0,1-1,2.06,5.14,5.14,0,0,1-.44.31l-.46.26Q211.49,198.6,214.34,211.75Z"/>
    <path class="cls-2" d="M241.61,198.64c.72-.42,1.17-.24,1.36.54a1.77,1.77,0,0,1-.24,1.21,3.88,3.88,0,0,1-1.51,1.37c-6,3.57-12.05,7.07-18.18,10.45q-5-22.12-9.83-45.15,8.43-3.85,16.76-7.7l1.72-.89c1.06-.48,1.69-.26,1.89.64a2.17,2.17,0,0,1,0,1.1,1.07,1.07,0,0,1-.5.73,4.25,4.25,0,0,1-1.21.35,10.21,10.21,0,0,0-2.56.88l-4.69,2.18q1.06,4.83,2.13,9.62l3.87-1.89,2.58-1.43a1,1,0,0,1,.87-.07,1,1,0,0,1,.53.75,1.51,1.51,0,0,1-.89,1.87l-.92.42c-.48.18-.87.34-1.19.49l-4.34,2.15q3.14,14,6.3,27.51l4.71-2.72a14.11,14.11,0,0,0,2.19-1.48A7.76,7.76,0,0,1,241.61,198.64Z"/>
    <path class="cls-2" d="M259.63,175.35l1.75-.77a11.94,11.94,0,0,0,5.36-6.64,15.43,15.43,0,0,0,.45-9.44q-1.65-6.42-6.88-7.77a10,10,0,0,0-5.71.14,18.44,18.44,0,0,0-2.22.81l-1.42.62c-.3.13-.55.26-.77.38,3.15,13.09,6.3,25.76,9.41,37.91q-5.3,3.27-10.65,6.53c-3.33-13.48-6.68-27.46-10-41.84,3.29-1.48,5.94-2.66,8-3.55s3.36-1.45,4-1.69,1.17-.46,1.66-.64l1.38-.47a22.77,22.77,0,0,1,2.74-.56,9.37,9.37,0,0,1,3.74.2,10.1,10.1,0,0,1,3.57,1.68,12.62,12.62,0,0,1,4.74,7.35,17.73,17.73,0,0,1-.19,9.58,17.51,17.51,0,0,1-5.21,8.33c2.61,4.46,5,6.45,7.24,6.2a4.63,4.63,0,0,0,1.92-.66l1.49-1.46c.5-.31.84-.15,1,.48.23.88-.49,1.84-2.18,2.89a5.1,5.1,0,0,1-3.72.82c-1.92-.21-3.9-1.75-6-4.73-.36-.52-.73-1-1.09-1.57-.18-.25-.31-.4-.41-.43a.62.62,0,0,0-.42.11,2.73,2.73,0,0,0-.47.33l-.5.31c-.55.31-1,.38-1.23.22a1,1,0,0,1-.52-.69C258.28,176.54,258.66,175.88,259.63,175.35Z"/>
    <path class="cls-2" d="M297.11,165.56q1-.59,1.26.24a1.13,1.13,0,0,1-.25.91,4.36,4.36,0,0,1-1.45,1.18c-5.66,3.33-11.34,6.79-17.08,10.32-3.07-11.33-6.26-23.37-9.5-36,5.5-2.08,11-4,16.56-5.73l1.71-.61c1.06-.32,1.68-.12,1.87.57a1.33,1.33,0,0,1-.06.83.84.84,0,0,1-.51.53,5.56,5.56,0,0,1-1.2.22,11.77,11.77,0,0,0-2.54.59q-2.32.76-4.65,1.58,1,3.83,2,7.55c1.26-.51,2.53-1,3.79-1.49l2.54-1.1a1.32,1.32,0,0,1,.85,0,.75.75,0,0,1,.51.56c.18.65-.12,1.12-.9,1.43l-.9.32c-.48.14-.86.27-1.17.39-1.41.56-2.83,1.14-4.24,1.72q2.91,10.83,5.68,20.8l4.46-2.59a18.47,18.47,0,0,0,2.08-1.34A8.29,8.29,0,0,1,297.11,165.56Z"/>
  </g>
</svg>
