<svg id="Layer_1" data-name="Layer 1" xmlns="http://www.w3.org/2000/svg" width="1460" height="650" viewBox="0 0 1460 650">
  <defs>
    <style>
      .cls-1 {
        fill: #250b0e;
      }

      .cls-2, .cls-4 {
        fill: #fff;
      }

      .cls-3 {
        fill: #c41e26;
      }

      .cls-4 {
        stroke: #1d1d1b;
        stroke-miterlimit: 10;
        stroke-width: 0.25px;
      }

      .cls-5 {
        fill: #e5241e;
      }

      .cls-6 {
        fill: #671411;
      }

      .cls-7 {
        fill: #ef7c7d;
      }

      .cls-8 {
        fill: #eb5b5a;
      }
    </style>
  </defs>
  <path class="cls-1" d="M151.8,258.41c232.7-81.79,146.85-94.62,396.58-126.08s283.78-51.82,385.94,5.55,372.32,120.53,372.32,120.53L1030.81,448.74,673.24,497.28l-239.46-81.8Z"/>
  <path class="cls-2" d="M719.69,467.25c-31,34.44-49.62,29.18-53.07,28-35.8-12-44.64-118.1-15.19-137.62,9.2-6.1,21.66-3.44,39.15.29,16.16,3.45,34.28,7.32,43.71,20.76C747.74,397.89,742,434.42,719.69,467.25Z"/>
  <path class="cls-2" d="M746.28,461.06c26.71,38.65,45.74,36.15,49.3,35.51,36.91-6.66,58.23-110.59,31.34-134.23-8.4-7.38-21.06-6.56-38.84-5.4-16.43,1.07-34.85,2.27-45.79,14.23C726.69,388.22,728,425.27,746.28,461.06Z"/>
  <path class="cls-2" d="M633.13,462.92c-27.81,37.68-46.77,34.5-50.3,33.74-36.7-8-55-112.6-27.45-135.27,8.6-7.08,21.24-5.81,39-4,16.39,1.65,34.77,3.5,45.36,15.84C654.81,390.81,652.41,427.79,633.13,462.92Z"/>
  <path class="cls-2" d="M837.16,455c25,40,44.12,38.53,47.7,38.08C922,488.36,947.81,385.68,922,360.64c-8.06-7.82-20.75-7.67-38.56-7.45-16.46.19-34.91.41-46.35,11.77C820.73,381.16,820.47,418.24,837.16,455Z"/>
  <path class="cls-2" d="M1150.74,193c18.36,22.24,15.55,29.09-65.29,68.73-35.76,17.54-62-6.41-81-34.32-15.83-23.34,25.23-54.83,65.74-62.65S1130.41,168.37,1150.74,193Z"/>
  <path class="cls-2" d="M1034,211.53c-2.8,47.22-10.28,55.46-103.85,54.91-41.39-.24-43.41-55.93-36.68-112.15,5.63-47,61.9-63.84,99.51-45.4S1037.08,159.28,1034,211.53Z"/>
  <path class="cls-2" d="M917,192.48c-2.8,59.89-12.42,70.18-134.67,67.39-54.08-1.24-57.74-72-50-143.21C738.82,57.12,812,37,861.51,61.25S920.08,126.22,917,192.48Z"/>
  <path class="cls-2" d="M466.46,167c22,40.88,19.69,52.36-62.07,110.21-36.17,25.59-66.7-19.29-89.87-70.08-19.37-42.45,20.94-91.47,63.21-99.63S442.18,121.79,466.46,167Z"/>
  <path class="cls-2" d="M568.8,211.53C566,258.75,558.52,267,465,266.44c-41.39-.24-43.41-55.93-36.68-112.15,5.63-47,61.9-63.84,99.51-45.4S571.9,159.28,568.8,211.53Z"/>
  <path class="cls-2" d="M745.65,192.48c-2.8,59.89-12.41,70.18-134.67,67.39-54.08-1.24-57.74-72-50-143.21C567.5,57.12,640.72,37,690.19,61.25S748.75,126.22,745.65,192.48Z"/>
  <path class="cls-3" d="M1414.55,267c-8,7.5-14-.38-31.57,12.94-41.2,31.34-131.4,80.21-194,153.66C1039.61,608.87,729.24,626.79,729.24,626.79s-326.11-3-459.63-193.15c-57.88-82.36-140.55-130-200.71-154.78a427.34,427.34,0,0,0-43.41-15.29c5.16-2.16,11.34-4.6,18.45-7.32,38.33-3.94,96.71-10.13,107.88-10.13A441.32,441.32,0,0,1,231.11,253c15,2.72,33.08,3.28,53,2.25,9.47,3.56,18.27,7.6,25.21,12.1,5.08,3.28,9.14,6.75,11.76,10.6,19.38,27.58,87.16,55.35,170.42,71.29,0,0,28.09,8.63,66.34,18.11,53.9,13.23,128,28.05,171.43,22C803.36,399.68,967,349.21,967,349.21c83.26-15.94,138.52-47.84,165.68-65.75a169.59,169.59,0,0,1,27.92-15.11c10.16-4,18.79-6.19,27.16-8.44l38.5-6.75c.43-.1.77-.1,1.1-.19a441.93,441.93,0,0,1,79.29-6.85c12.52,0,53.73-.94,77.25-.66C1387.64,246.68,1411.08,265.82,1414.55,267Z"/>
  <path class="cls-4" d="M1200.72,246.68l51.87-2.15C1237.87,247.15,1220.1,247.72,1200.72,246.68Z"/>
  <path class="cls-5" d="M518.93,497.28S586.7,612.75,718.8,565.51,894.12,464.22,894.12,464.22l255.73-190.79L844.59,379.69c-.07-3.94-140.12,34.3-315.27-18.62C353.56,308,518.93,497.28,518.93,497.28Z"/>
  <path class="cls-5" d="M1152.15,216.57c-31.31-1-208.24-38.18-208.24-38.18l-83.85-35.27c-83.86-35.27-130.82,19.7-130.82,19.7C600,120.14,448.4,205,448.4,205s-26.14,8.82-65.32,18.11c-21,5.06-47-.57-66.59-6.85-17.69-5.63-31.31-21.2-35.63-40.9l-.42-2.06c9.05-5.16,19.29-11.07,30.12-17.36,59.32-34.52,135.9-81.33,139.2-83l96.8-57.6s112.87-40.8,182.68,38.84c69.81-79.64,182.69-38.84,182.69-38.84l96.8,57.6c6.68,3.47,122.94,94.94,206,119.14,14.3,4.12,36.56,10.79,61.69,18.57.08.28.17.47.25.75C1288.64,247.25,1192,217.79,1152.15,216.57Z"/>
  <path class="cls-3" d="M1447.29,273.61c-8.63,2.62-8.63,2.62-64.31,6.37-13.64.92-12.52,0-27.33.1h-.93c-24.71,0-99.51-18.2-127.35-13l-53,2.34c-4.48-.18-9.05-.56-13.79-1-56-4.59-123.37-20.35-177.61-35.93-161.19-46.34-253.76-30.67-253.76-30.67s-92.57-15.67-253.76,30.67c-50.6,14.54-112.71,29.18-166.19,34.9-8.71.94-17.09,1.69-25.21,2.06-19.89,1-38,.47-53-2.34-27.76-5.16-54.58,5.25-79.29,5.25-15.82,0-24.87,3.75-38.75,5a430.68,430.68,0,0,1-44.17,1.6c-29.7-.28-51.7-3.47-57.71-5.25-3.81-1.22,2.12-4.88,14.3-10,5.16-2.16,11.34-4.6,18.45-7.32C98.35,236,203.18,203.91,243.8,192.09c4.82-1.41,18.53-8.63,36.64-18.76l.42,2.06c4.32,19.7,17.94,35.27,35.63,40.9,19.63,6.28,45.6,11.91,66.59,6.85C422.26,213.85,448.4,205,448.4,205S600,120.14,729.24,162.82c0,0,47-55,130.82-19.7l83.85,35.27s176.93,37.15,208.24,38.18c39.86,1.22,136.49,30.68,124.47-5.16-.08-.28-.17-.47-.25-.75,34.61,10.7,74.71,23.45,107.54,34.8,3.73,1.22,7.37,2.44,10.83,3.66C1430.2,261.6,1454.15,271.54,1447.29,273.61Z"/>
  <path class="cls-6" d="M345.69,299.42c-61.61-30-166.94-26-166.94-26l130.54-6.11Z"/>
  <path class="cls-6" d="M1139.34,281.27c10.51-7.84,31.7-9.56,45.45-11.17,15.1-1.76,29.34-2.7,42.58-3.06l-66.76,1.31C1152.08,271.44,1141,279,1139.34,281.27Z"/>
  <path class="cls-7" d="M678.58,477.88c4.88,38.08-16.61,81.5-48.34,78-33-3.7-84.26-52.5-117.53-110.83h0c-38.55-87.59,76.19-23.34,99.87-27.07C644.15,413,673.7,439.8,678.58,477.88Z"/>
  <ellipse class="cls-7" cx="672.69" cy="523.93" rx="24.04" ry="26.65"/>
  <path class="cls-7" d="M476,102.52C495.53,74.76,508.87,55.3,539.19,39S639.29,3.8,651,44.05c10.65,36.6-61.93,8.12-87.83,9.06C531.07,54.27,503.54,84.7,476,102.52Z"/>
  <ellipse class="cls-8" cx="672.69" cy="56.91" rx="14.92" ry="16.54"/>
</svg>
