<svg id="Layer_1" data-name="Layer 1" xmlns="http://www.w3.org/2000/svg" width="710" height="250" viewBox="0 0 710 250">
  <defs>
    <style>
      .cls-1 {
        fill: #e5b809;
        stroke: #d3a40e;
        stroke-miterlimit: 10;
        stroke-width: 3px;
      }

      .cls-2 {
        fill: #16142e;
      }
    </style>
  </defs>
  <path class="cls-1" d="M164.71,217c120.61,42.07,193.9,36.47,261.3,12.62,137-48.49,212.07-122,278.09-144.77,34.78-12-309.42,14-397.13,15.88C194.64,103.16,42-41.48,10.18,15S64,181.89,164.71,217Z"/>
  <g>
    <path class="cls-2" d="M177,185.54c1.92.25,2.4,1.26,1.41,3a4.24,4.24,0,0,1-2.28,1.73,10.14,10.14,0,0,1-4.84.25c-15.34-2-29.73-3.24-43-3.73,25.14-27.37,48-51.93,72.95-74A100,100,0,0,0,215,114.78c-20.42,21.64-38.28,44.49-57.56,70.09q4.9.48,10,1.07a25,25,0,0,0,6.36,0A31.19,31.19,0,0,1,177,185.54Z"/>
    <path class="cls-2" d="M201.12,183.19a24.88,24.88,0,0,1-1.81-14.66c.81-5.37,3.13-10.91,6.64-16.69a84.23,84.23,0,0,1,11.85-15.17A104.16,104.16,0,0,1,231,125.29c9.49-6.83,17.56-10.64,24.59-10.61s10.55,4.09,12.41,12.26,2.12,18.79,1.63,32.15-2,25.14-9.28,33.74c-4.52,5.31-11,8.45-19.18,9.23a52.06,52.06,0,0,1-14.23-1,42.94,42.94,0,0,1-15.45-6.43A28.17,28.17,0,0,1,201.12,183.19Zm52.08-64.35a16,16,0,0,0-3.76.37c-13.66,24-21.8,46.43-26.35,75.41a35.27,35.27,0,0,0,6.24,1.69c11,2.07,20.62-.45,27.06-7.67,6.86-7.46,8.79-17.92,9.59-30,.76-11.49.48-20.78-1.3-28.32S259.62,119,253.2,118.84Z"/>
    <path class="cls-2" d="M298.67,199.51a73.5,73.5,0,0,1-13.95-19A48.81,48.81,0,0,1,279.33,160a43,43,0,0,1,3-17.87,47.71,47.71,0,0,1,8-13.14c6.77-7.77,13.73-11.49,20.23-10.34s10.52,6.55,15.23,15.44c4.84,9.1,9.84,19.71,17.44,33.77s14.79,27,15.56,38.39c.45,7-2.05,12.15-8.13,14.48-3,1.13-7.33,1.4-12.82.71s-12.17-3.14-19.38-7.1A88.5,88.5,0,0,1,298.67,199.51Zm11-76.25a10.39,10.39,0,0,0-3.43,0c-5.15,27,1.56,51.78,22.71,90.18a35.47,35.47,0,0,0,6.9,1.54c11.33,1.42,16.81-3.6,16.58-13-.05-9.79-5.9-21.51-12.51-34.4-6.27-12.28-11-21.86-15.64-30.15S315.7,124.25,309.63,123.26Z"/>
    <path class="cls-2" d="M339.76,127.25a135.06,135.06,0,0,1,13,5.29,73.6,73.6,0,0,0,9.48,20.93c.73-4.2,1.44-7.84,2-10.64a8.77,8.77,0,0,0,.17-2.72c-.09-.68-.13-1-.13-1.15a.39.39,0,0,1,.05-.23c0-.09.18-.06.43.1a5.84,5.84,0,0,1,.84.76,11.57,11.57,0,0,1,.8.94c.21.3.38.53.48.71a2.48,2.48,0,0,1,.27.57,4.6,4.6,0,0,1,.18,1.76c-.12,1.54-.32,3.45-.55,5.65a104.46,104.46,0,0,0,65.09,33.15c1.67.15,3.18.22,4.52.23q1.78.06,3.6,0c1.16,0,2.34-.14,3.52-.25l2.77-.21a9.88,9.88,0,0,1,2.41.11,5.86,5.86,0,0,1,1.88.64c1.14.69,1.57,1.43,1.21,2.18a3.65,3.65,0,0,1-2.67,2,20.07,20.07,0,0,1-5.39.32c-1.9-.15-3.79-.34-5.64-.58s-4.07-.53-6.61-1a114.25,114.25,0,0,1-64.93-34.6c-.24,2.22-.5,4.67-.76,7.32,11.73,16.19,31,33.51,59.71,53a81.87,81.87,0,0,1-25.65,8.66C358.94,180.69,341.12,153.91,339.76,127.25Z"/>
  </g>
</svg>
