<svg id="Layer_1" data-name="Layer 1" xmlns="http://www.w3.org/2000/svg" width="770" height="650" viewBox="0 0 770 650">
  <defs>
    <style>
      .cls-1 {
        fill: #e5241e;
        stroke: #a01a16;
        stroke-miterlimit: 10;
        stroke-width: 3px;
      }

      .cls-2 {
        fill: #fab312;
      }
    </style>
  </defs>
  <path class="cls-1" d="M45.39,340.56c85.84,143,170.48,197.54,267.78,228.38C511,631.64,668.3,617.3,762.94,648.18,812.8,664.45,357,465.8,263,325.1,178.18,198.16,182.74-28.24,89.74,4S-26.28,221.2,45.39,340.56Z"/>
  <g>
    <path class="cls-2" d="M119.69,115.6a2.82,2.82,0,0,1-1.07,3.08,3,3,0,0,1-1.82.49c-.72,0-1.31,0-1.76,0q-25.08,2-50.59,5.66,22.17-37.65,46.34-71.55,1.42,14.69,3.33,29Q102.35,99.09,91,116.83q10.5-1.18,20.93-2.06a31.55,31.55,0,0,0,4.81-.64,3.39,3.39,0,0,1,2.09-.06C119.27,114.27,119.55,114.78,119.69,115.6Z"/>
    <path class="cls-2" d="M88.6,206.37c.48,1.67.29,2.88-.56,3.63-.39.34-.83.29-1.34-.17a7.65,7.65,0,0,1-1.52-3.33q-6-20.83-10.85-42.66,23.53-19.65,47.19-36.15,3.84,19.81,8.62,38.81c.36,1.29.73,2.58,1.1,3.87q.93,3.6-.49,4.66a1.15,1.15,0,0,1-1.17.17,1.4,1.4,0,0,1-.83-1,20.62,20.62,0,0,1-.49-2.79,44,44,0,0,0-1.15-5.92q-1.32-5.34-2.58-10.76-5,3.66-10,7.46c.71,3,1.44,6,2.18,8.92q.84,2.94,1.7,5.86a5.27,5.27,0,0,1,.13,2.08,2.14,2.14,0,0,1-.75,1.49c-.91.71-1.6.17-2.07-1.64-.18-.71-.35-1.41-.52-2.12-.21-1.11-.41-2-.59-2.75q-1.26-5-2.47-10Q97.54,175.25,83,187.71q1.42,5.53,2.94,11a38.46,38.46,0,0,0,1.63,5A20,20,0,0,1,88.6,206.37Z"/>
    <path class="cls-2" d="M107.19,261.88q.91,2.42-.46,3.73c-.36.35-.81.34-1.35,0a7.24,7.24,0,0,1-1.75-3.09q-7-18.59-13.13-38.16,22.41-20.35,45-37.58,3.39,12,7.15,23.63-21.14,16.69-42.1,36.23,1.53,4.36,3.1,8.67a21.93,21.93,0,0,0,2.23,4.62A18.27,18.27,0,0,1,107.19,261.88Z"/>
    <path class="cls-2" d="M151.86,236.83q4.15,11.19,8.64,22-6.23,5.3-12.43,10.85,7.25,4,14.54,7.82a26.71,26.71,0,0,0,4.79,2.06c1.14.3,1.83.5,2.09.61a3.07,3.07,0,0,1,.63.33,2.25,2.25,0,0,1,.81,1,2.59,2.59,0,0,1,.25,1.47,1.64,1.64,0,0,1-.47,1,1.92,1.92,0,0,1-.67.43,1.89,1.89,0,0,1-.8,0,14.14,14.14,0,0,1-3.42-1.34q-4.62-2.36-9.24-4.76-10.11,20.07-19.53,41.45c-.35.82-.64,1.57-.89,2.24l-.71,1.74-.6,1.76c-.17.48-.35.92-.53,1.32a2.86,2.86,0,0,1-.63.92,1.58,1.58,0,0,1-.78.38,1.26,1.26,0,0,1-1.35-.73,3.55,3.55,0,0,1-.41-2.22,9.68,9.68,0,0,1,.85-2.6l1.25-2.44c.42-.81.9-1.81,1.45-3q9.18-20.79,19.06-40.32-4.31-2.28-8.6-4.6-13.53,12.27-26.94,25.82-4.91-11.07-9.5-22.53Q130.14,254.65,151.86,236.83Z"/>
    <path class="cls-2" d="M145.77,338.07a43.39,43.39,0,0,1,3.33-13.25,33.91,33.91,0,0,1,7.41-11,22.47,22.47,0,0,1,9.57-5.92,17.79,17.79,0,0,1,9.6,0c6.73,1.87,12.25,6.87,16.75,14.76a41.37,41.37,0,0,1,5.77,24.24A35.32,35.32,0,0,1,188.54,369c-5.82,6.26-12.24,9.17-19.31,8.34-4.39-.55-8.55-2.66-12.42-6.43a38.48,38.48,0,0,1-5.76-7.62,39.14,39.14,0,0,1-4.38-11.57A44.64,44.64,0,0,1,145.77,338.07Zm44.58-13.54a32.28,32.28,0,0,0-2.43-3.66q-18.3,17.26-36.27,37.11a31.16,31.16,0,0,0,2.12,4.19c4.08,6.8,9.24,10.53,15.35,11.36,6.38.88,12.21-1.69,17.54-7.39a32.18,32.18,0,0,0,8.64-19.6A36.5,36.5,0,0,0,190.35,324.53Z"/>
    <path class="cls-2" d="M172.61,395.1a2.33,2.33,0,0,1,.68-1.33,5.66,5.66,0,0,1,2-1.11c.69-.21,1.2-.38,1.54-.5s.71-.26,1.11-.42l3.28-1.4q21.48-11.77,43-21.77-6.18,18.87-11.61,38.75,16.6-6,33.19-11.45Q233.09,424,222.08,455.42q-7.52-7.71-14.78-16,6.22-16.12,12.93-31.36-15.31,5.92-30.64,12.42,4-18.19,8.71-35.7-7.55,4.1-15.1,8.41a27.58,27.58,0,0,0-4.46,2.21q-1.69,1.11-2.67,1.68-2.16,1.28-3.2-.46A2.19,2.19,0,0,1,172.61,395.1Z"/>
    <path class="cls-2" d="M223.38,456.65a2.21,2.21,0,0,1,.59-1.3A6.47,6.47,0,0,1,225.9,454c.68-.29,1.19-.51,1.52-.67s.7-.34,1.09-.55l3.22-1.73q20.85-13.8,41.82-25.77-4.65,17.79-8.55,36.55,16.38-7.92,32.79-15.19c-7,18-13.55,37.08-19.4,57.24q-8.19-5.81-16.21-12.16,5.08-15.6,10.66-30.32-15.09,7.6-30.13,15.82,2.64-17.14,5.92-33.63-7.32,4.77-14.63,9.79a29.67,29.67,0,0,0-4.35,2.65c-1.09.84-2,1.47-2.58,1.91q-2.08,1.49-3.29,0A1.87,1.87,0,0,1,223.38,456.65Z"/>
    <path class="cls-2" d="M313.67,522.09c1.07.59,1.32,1.33.75,2.23a1.72,1.72,0,0,1-1.38.7,5,5,0,0,1-2.69-.86Q297,516.67,284,507.81q15.74-23.67,32.37-44.22,11.55,8,23.43,14.87c.85.44,1.7.89,2.55,1.32,1.51.85,1.93,1.7,1.27,2.57a2.18,2.18,0,0,1-1.09.72,1.5,1.5,0,0,1-1.19-.05,8.31,8.31,0,0,1-1.53-1.12,20.2,20.2,0,0,0-3.36-2.32c-2.22-1.3-4.43-2.62-6.64-4q-3.49,4.48-7,9.13c1.83,1.13,3.67,2.23,5.51,3.32l3.86,2a1.93,1.93,0,0,1,.91,1,1.14,1.14,0,0,1-.19,1.17c-.62.86-1.5,1-2.65.32l-1.29-.79a18.83,18.83,0,0,0-1.61-1.06q-3.11-1.83-6.19-3.72-10.1,13.67-19.83,28.58c2.3,1.39,4.6,2.76,6.91,4.09a20.58,20.58,0,0,0,3.42,1.68A11.92,11.92,0,0,1,313.67,522.09Z"/>
    <path class="cls-2" d="M327.81,527l-2,3.41a2.51,2.51,0,0,1-1.28,1.14,1.77,1.77,0,0,1-1.36-.06,1.39,1.39,0,0,1-.77-1,1.55,1.55,0,0,1,.19-1.18,7,7,0,0,1,.69-.93c.24-.28.5-.6.79-1,.51-.59,1.58-2.19,3.23-4.76Q340.51,502,354.48,483.8q6.9,21.17,15.4,41.49,6.15-9.64,12.49-18.74a35.33,35.33,0,0,0,1.94-3c.56-1,1-1.66,1.25-2a2,2,0,0,1,2.42-1,1.27,1.27,0,0,1,.76.73,1.23,1.23,0,0,1-.26,1.22l-.75,1.05c-1.07,1.44-2.14,2.9-3.2,4.36Q371.26,527,358.8,548.66q-9.3-21-17-42.94Q334.72,516,327.81,527Z"/>
  </g>
</svg>
