<svg id="Layer_1" data-name="Layer 1" xmlns="http://www.w3.org/2000/svg" width="500" height="255" viewBox="0 0 500 255">
  <defs>
    <style>
      .cls-1 {
        fill: #8ca8d8;
        stroke: #7c9fd3;
        stroke-miterlimit: 10;
        stroke-width: 3px;
      }

      .cls-2 {
        fill: #16142e;
      }
    </style>
  </defs>
  <path class="cls-1" d="M154.07,20c88.26,2.9,134.54,26,172.69,59.91,77.56,69,108.94,139,146.47,171.79C493,269,275.56,161,219,136.71c-72.39-31.1-181.12,84.54-213-19.25C-7.89,72.09,80.38,17.59,154.07,20Z"/>
  <g>
    <path class="cls-2" d="M46,83.21c.49-.08.82.29,1,1.12a4.93,4.93,0,0,1,0,1.5c-.06.58-.11,1-.15,1.42L44,127.83,24.47,87.41l9.87-1.77L44,106.26l1.14-16.88c.12-1.81.18-3.12.18-3.91a6.22,6.22,0,0,1,.14-1.69A.76.76,0,0,1,46,83.21Z"/>
    <path class="cls-2" d="M73.37,118.35c.62-.11,1,.22,1.13,1a1.29,1.29,0,0,1-.23,1A1.89,1.89,0,0,1,73,121l-15.32,2.75-7.34-41,14.25-2.56L66,79.87a1.18,1.18,0,0,1,1.58,1,1.91,1.91,0,0,1-.06.95c-.1.31-.25.48-.44.51a3.21,3.21,0,0,1-1,0,7.15,7.15,0,0,0-2.18.12l-4,.72L61.49,92l3.29-.59L67,90.9a.93.93,0,0,1,.73.19,1.18,1.18,0,0,1,.43.8c.15.81-.12,1.28-.79,1.4l-.78.11a6.38,6.38,0,0,0-1,.09l-3.69.66L66.5,120l4-.71a7,7,0,0,0,1.87-.52A4.36,4.36,0,0,1,73.37,118.35Z"/>
    <path class="cls-2" d="M94.61,114.4c.64-.12,1,.26,1.2,1.13a1.33,1.33,0,0,1-.23,1,1.91,1.91,0,0,1-1.31.66l-14.68,2.63-7.34-41,9.22-1.65,7,39.05,3.38-.6a5.2,5.2,0,0,0,1.9-.71A5.18,5.18,0,0,1,94.61,114.4Z"/>
    <path class="cls-2" d="M92.16,75.28l9.22-1.66,2.15,12,5-8.94a22.59,22.59,0,0,0,1.49-3c.29-.77.47-1.23.54-1.4a2.41,2.41,0,0,1,.22-.38.75.75,0,0,1,.51-.33.62.62,0,0,1,.59.21,1.19,1.19,0,0,1,.32.63,2.9,2.9,0,0,1,.05.62,2.13,2.13,0,0,1-.11.6,12.87,12.87,0,0,1-1,2.19L108,81.4l11.54,25.33c.23.48.43.9.62,1.27l.48,1,.5.92q.19.39.36.75a2.81,2.81,0,0,1,.2.71,2.42,2.42,0,0,1,0,.66c-.1.45-.26.7-.5.74a.82.82,0,0,1-.85-.32,5.86,5.86,0,0,1-.74-1.33l-.62-1.57q-.3-.78-.78-1.86L107,83.13l-3,5.29,4.69,26.17-9.22,1.65Z"/>
    <path class="cls-2" d="M127.52,105.82a23.94,23.94,0,0,1-4.07-6.26,34.31,34.31,0,0,1-2.61-8.49,33.44,33.44,0,0,1-.51-8.64,23.14,23.14,0,0,1,1.61-7c1.83-4.36,4.66-6.87,8.48-7.56s7.25.68,10.37,4.09,5.29,8.29,6.4,14.51.77,11.51-1,16a12.85,12.85,0,0,1-4.9,6.17,10.69,10.69,0,0,1-3.86,1.41,8.94,8.94,0,0,1-4.93-.66A13.68,13.68,0,0,1,127.52,105.82ZM130.78,70a6.91,6.91,0,0,0-1.82.56l6.69,37.35a7,7,0,0,0,1.91-.11q4.83-.85,7.21-6.61,2.5-6,1-14.45-1.45-8.08-5.65-12.86T130.78,70Z"/>
    <path class="cls-2" d="M153.22,106.55a2.19,2.19,0,0,1-.32-.93,8,8,0,0,1,0-1.71c.08-.53.14-.93.17-1.19s.06-.56.09-.89l.23-2.67,1.05-37,12.42,23.29,3.33-26.11,16.95,41.15-9.71,1.74L169,81l-2.79,24.4-11-19.53-.27,13.11a36.89,36.89,0,0,0-.2,3.74c0,1,0,1.8,0,2.36,0,1.26-.32,1.9-.89,1.92A.72.72,0,0,1,153.22,106.55Z"/>
    <path class="cls-2" d="M188,100.32a2.06,2.06,0,0,1-.32-.93,7.39,7.39,0,0,1,0-1.71c.08-.53.13-.93.17-1.2s.06-.56.09-.88l.23-2.67,1.05-37,12.42,23.29L205,53.14,222,94.29,212.26,96l-8.45-21.31L201,99.12,190,79.59l-.26,13.1c-.15,1.48-.21,2.73-.21,3.74s0,1.81,0,2.37c0,1.26-.32,1.9-.89,1.92A.72.72,0,0,1,188,100.32Z"/>
    <path class="cls-2" d="M241,88.31c.62-.11,1,.22,1.13,1a1.31,1.31,0,0,1-.23,1,1.89,1.89,0,0,1-1.3.65L225.28,93.7l-7.34-41,14.25-2.55,1.47-.35a1.17,1.17,0,0,1,1.58,1,1.91,1.91,0,0,1-.06,1c-.1.31-.25.48-.44.51a3.22,3.22,0,0,1-1,0,7.15,7.15,0,0,0-2.18.12l-4,.71L229.12,62l3.29-.59,2.2-.54a.89.89,0,0,1,.73.18,1.23,1.23,0,0,1,.43.81c.15.81-.12,1.27-.79,1.39l-.78.12a6.38,6.38,0,0,0-1,.09l-3.69.66,4.62,25.82,4-.72A7.48,7.48,0,0,0,240,88.7,4.36,4.36,0,0,1,241,88.31Z"/>
    <path class="cls-2" d="M248.1,85.33l.58,2.89a2.21,2.21,0,0,1-.05,1.2.76.76,0,0,1-.53.52.71.71,0,0,1-.66-.27,1.58,1.58,0,0,1-.38-.79A6.84,6.84,0,0,1,247,88c0-.26,0-.56-.07-.89,0-.57-.26-2-.67-4.22l-6.45-36,24.13,21.43L260.8,51.09c-.24-1.32-.43-2.25-.58-2.8-.22-.89-.36-1.52-.43-1.89-.17-1,0-1.5.52-1.59a.81.81,0,0,1,.65.24,1.61,1.61,0,0,1,.46,1l.18,1,.68,4.21,6.51,36.3L244.7,66.37Z"/>
  </g>
</svg>
