<svg id="Layer_1" data-name="Layer 1" xmlns="http://www.w3.org/2000/svg" width="975" height="660" viewBox="0 0 975 660">
  <defs>
    <style>
      .cls-1 {
        fill: #e5b809;
        stroke: #d3a40e;
        stroke-miterlimit: 10;
        stroke-width: 3px;
      }

      .cls-2 {
        fill: #e5241e;
      }
    </style>
  </defs>
  <path class="cls-1" d="M677.9,47.76c-178.1.35-274.52,48-356.12,120.32C155.9,315.06,82.84,467.14,2.66,537c-42.23,36.79,410.75-186.53,528-236.24,150.12-63.66,410.1,75,431.51-27.88S826.59,47.47,677.9,47.76Z"/>
  <g>
    <path class="cls-2" d="M550.59,130.53a18.13,18.13,0,0,1-1.65,1.86c-2.25,2.25-4.41,4.22-6.32,5.91-26.78,22.08-65.61,48.41-130.89,65.63,24.79-12.79,43.24-27,60.59-39.8-30.58,13.53-69.18,26.79-118.16,35.33,52.72-16.79,92.87-40.43,127-60,6.92-.47,13.81-1.09,20.63-1.85-14.42,10-30.43,21.12-48.65,32.48,32.53-12.77,57.62-26.27,76.5-38.69-10.3,10.86-22.13,23.47-35.51,37.35,19-10.38,34.37-20.9,46.59-31.1,1.34-1.15,2.58-2.26,3.7-3.34s2.12-2.06,3.12-3.08c1.44-1.49,2.52-2.33,3.37-2.53S551.67,129.11,550.59,130.53Z"/>
    <path class="cls-2" d="M556.2,196.81c1.63.08,1.79,1.06.34,2.93-1.08,1.39-3.16,3-6.38,4.74a74.23,74.23,0,0,1-42.72,8.18c-11.44-1.39-15.88-5.5-14.69-12.17,1.19-7,8.14-14.88,18.67-24.15A257.28,257.28,0,0,1,542,153c10.37-6.73,18.21-10.8,25.72-12.13,6-1,9.81.62,12.08,5.71,2.34,5.47,2.33,13.76-2.61,25.41-.73,1.68-1.57,3.47-2.54,5.39q-18.32.32-37.27.37c-7.8,9.34-16.93,19.32-29.61,28.52a35.18,35.18,0,0,0,9.17,2c8.08.86,18.74-1,29.58-6.54,2.28-1.22,3.93-2.2,5-2.93C553.69,197.41,555.2,196.75,556.2,196.81Zm15.21-51.52a12.57,12.57,0,0,0-5.71-.19,29.51,29.51,0,0,0-6,1.45A288.75,288.75,0,0,1,541.25,173q7.66-.18,15.22-.39A259,259,0,0,0,571.41,145.29Z"/>
    <path class="cls-2" d="M597.21,114.81q5.53-2.15,10.48-4.22c9,14,7.76,29.42,6.65,48.44-2.21,18.72-4.32,41-22.65,61.46q-14-1.32-28.27-2.86c19.78-18.71,25.32-39.21,30.33-56.64C597.89,143.27,601.5,128.61,597.21,114.81Z"/>
    <path class="cls-2" d="M642.34,218.27a16,16,0,0,0,5.39,1.17,24.72,24.72,0,0,0,6.06-.49,29.31,29.31,0,0,0,6.14-2,27.86,27.86,0,0,0,10.46-8c1.86-2.33,3-3.53,3.64-3.53,1.44,0,2.06,1.25,1.66,3.76s-2.23,5.5-5.92,8.74a39.81,39.81,0,0,1-26.88,8.35c-11.32-.75-15.6-5.83-17.55-16.37-1.93-10.36-1.76-23.7-.64-38.25,1-13.77,3.32-24.09,6.44-32.79,3.11-8.52,6-13.36,11.45-14.85,3.08-.82,6.75-.18,11.28,2.16,3.4,1.7,5.8,3.84,7,6.4a6,6,0,0,1,.7,2.59c0,.63-.23,1-.57,1.06-.51.11-1.43-.4-2.74-1.48a17.4,17.4,0,0,0-9.65-5.37,9.31,9.31,0,0,0-3.75.14,8,8,0,0,0-3.09,1.39c4,12.1,6.29,24.91,7.58,39.89C650.28,185.62,650.29,202.57,642.34,218.27Z"/>
    <path class="cls-2" d="M679.46,167.46c-2.07-8.08-3.68-15-4.83-21.14s-2-11.31-2.56-15.74c-1.11-9.46-1.14-14.27,3.39-15.49s12.68,1.7,23.6,10.12c10.25,8,20.59,19.42,29.65,36.1S741.87,195,738,208.54c-4,14.1-15.43,20-25.51,20.05s-15.13-5.23-19.75-17C687.88,199.47,683.67,183.86,679.46,167.46Zm33.73,52.9a3.43,3.43,0,0,0,.91.1l.82,0c7.78-.17,15.5-5.29,18.64-16.05,3.38-11.54.16-26.62-7.95-42.26-8-15.28-17-25.62-25.71-32.79s-15.28-9.59-19.45-8.59l-.45.11a.78.78,0,0,0-.35.18c10.22,13,17.51,27.15,24.31,44.14C710.31,182,716.17,201.52,713.19,220.36Z"/>
    <path class="cls-2" d="M756.78,129.46c1.54,1.36,3.06,2.73,4.54,4.13,22.1,21.33,46.65,49.13,61.89,80.66Q812.8,217,801.59,219c-5.94-20.78-18.88-41-31.67-58.29-13.2-17.44-26.25-31.95-42.18-44.8a2.56,2.56,0,0,0-1.2-.32l-.86.09c-1.44.18.58,3,4.8,9.41,1.3,2,2.76,4.21,4.35,6.71,20.28,23.19,43.9,55.42,50.73,89.81q-11.68,1.65-23.94,2.71c-.14-22.32-11.48-45.17-22.59-64.29-11.81-19.38-23.4-35-40.28-48.7q5.57-1.08,11.06-1.84a127,127,0,0,1,15.47,12.56c-7.38-10.42-11.44-14.49-7.77-14.78,4.54-.21,15.52,3.92,29.77,14.45-4.88-5.36-8.52-8.93-10.37-11.18s-1.95-3.12,0-2.92c3.29.37,9.06,2.52,16.65,6.51A199.94,199.94,0,0,1,782,132.89c24.18,19,50.48,42.57,73.89,70.38q-8.74,3.73-18.53,6.88a355.25,355.25,0,0,0-90-94.89,4.39,4.39,0,0,0-1.65-.34c-.65,0-.77.27-.38.93a25.16,25.16,0,0,0,2.16,2.8C749.68,121.26,752.82,124.78,756.78,129.46Z"/>
    <path class="cls-2" d="M868.23,164.93c.63-.22,2.31.27,5.09,1.47a40.29,40.29,0,0,1,6.62,3.7c10.17,6.94,13.24,14.08,7.58,18.36-5,3.84-15.63,2.56-30-5.09-15-7.86-30.5-20-46.68-33-16.48-13.19-28.26-22.49-35.86-28.16-8.14-6-9.08-6.73-3.55-3.39a243.86,243.86,0,0,0,22.23,12.68C805,137.26,818.28,142.22,835,149q3.59,1.46,7.64,3.16a94.05,94.05,0,0,0-16.32-.72c15.17,9.9,31.09,20.84,47.5,32.43a11.52,11.52,0,0,0,6.16-1.71c3.48-2.28,1.38-7-5.78-12.55-1.58-1.2-2.86-2.08-3.84-2.71C868.54,165.7,867.85,165.07,868.23,164.93ZM784,125.64c-2.32-1.32-4.24-2.47-5.76-3.34a23.53,23.53,0,0,0-2.59-1.38c13.69,7.4,27.92,15.94,42.92,25.54,2.39.13,4.72.33,7,.64C810.79,138.94,796.82,131.7,784,125.64Z"/>
  </g>
</svg>
