<svg xmlns="http://www.w3.org/2000/svg" width="369.87" height="205.587" viewBox="0 0 369.87 205.587">
  <g id="knap1" transform="translate(0.001)">
    <g id="Group_44" data-name="Group 44" transform="translate(-0.001 21.554)" opacity="0.43">
      <g id="Group_43" data-name="Group 43">
        <path id="Path_100" data-name="Path 100" d="M1.07,63.794Q96.23,89.234,91.434,34.46A51.646,51.646,0,0,0,65.784,6.03,58.945,58.945,0,0,0,18.1,22.087,47.128,47.128,0,0,0,8.577,43.844a39.274,39.274,0,0,0,2.572,12.234c1.668,5.769,3.476,11.469,5.422,17.169,1.182,3.476,3.754,17.934,8.55,18.073,18.7.626,14.945-.9,33.365-10.5-.417,0,8.341-4.935,3.615-5.561L20.811,62.334,38.745,91.6l52.9-57.346-2.78-.417a136.1,136.1,0,0,0-32.67,9.106c-13,4.1-26,8.341-38.856,12.859A65.2,65.2,0,0,0,6.561,59.97,9.871,9.871,0,0,0,1.07,63.794Z" transform="translate(3.935 9.465)" fill="#c44a38" opacity="0.11"/>
        <path id="Path_101" data-name="Path 101" d="M91.482,45.031a25.3,25.3,0,0,0-9.453-23.7,34.755,34.755,0,0,0-44.765-9.8C14.533,19.729,15.089,26.193,6.957,46c-1.182,2.85,11.678,32.948,15.779,31.349l37.4-5.839c1.043,0-.834-4.31-.9-4.449A77.573,77.573,0,0,0,47.412,51.147c-.7-.834-11.122-13.9-11.539-8.55L18.634,63.451l16.126,8.828L9.181,44.961,22.736,77.353,89.049,37.176l-83.83,13.9L2.23,53.094a13.9,13.9,0,0,0,9.523,1.39c11.817-.626,23.564-1.529,35.311-2.711C47.064,51.7,91.621,49.41,91.482,45.031Z" transform="translate(10.838 18.775)" fill="#c44a38" opacity="0.11"/>
        <path id="Path_102" data-name="Path 102" d="M84.178,48.915c8.828-17.308-9.036-39.273-25.51-44A37.049,37.049,0,0,0,23.912,12.7L13.555,19.651c-20.3,20.853,6.951,29.959-4.8,51.785C6.6,75.4,21.618,78.944,19.95,73.244Q8.759,40.643,43.514,50.166q33.226-11.191,21.548,1.39c-2.711,3.406,5.422,2.363,5.63,2.363C73.751,53.433,82.51,52.113,84.178,48.915Z" transform="translate(31.974 -3.461)" fill="#c44a38" opacity="0.11"/>
        <path id="Path_103" data-name="Path 103" d="M91.354,56.432a20.853,20.853,0,0,0,1.807-15.987A85.984,85.984,0,0,0,85.237,25.43a100.581,100.581,0,0,0-16.891-13.9A107.741,107.741,0,0,0,45.616,9.3a131.234,131.234,0,0,0-21.9,8.619C1.2,32.172,14.406,52.678,5.578,73.531c-2.363,5.491,15.153,9.87,13.9,5.283Q.782,14.378,82.04,53.1C79.676,57.683,90.311,59,91.354,56.432Z" transform="translate(29.455 31.285)" fill="#c44a38" opacity="0.11"/>
        <path id="Path_104" data-name="Path 104" d="M.35,49.134Q102.183,93.551,94.606,37.248A37.883,37.883,0,0,0,77.159,16.395c-8.967-9.8-20.436-11.4-34.269-4.657a73.195,73.195,0,0,0-20.853,12.3c-5.144,3.128-9.245,44.209-4.657,45.182,34.269,6.951,0,.417,47.059,1.39.973,0-1.6-5.7-1.738-5.908A206.026,206.026,0,0,0,46.644,41.766a62.976,62.976,0,0,0-10.983-13.9c-1.321-.973-3.823-3.754-3.545,0l1.738,25.163.9-2.919L23.288,63.592l13.346,5.769L14.947,44.894l9.384,31.488c2.711-.973,67.425-26,69.024-25.093a40.316,40.316,0,0,0-17.725-2.5c-13.9-.487-27.387-.556-41.081-.626C25.165,48.092,9.386,45.659.35,49.134Z" transform="translate(-0.35 21.414)" fill="#c44a38" opacity="0.11"/>
        <path id="Path_105" data-name="Path 105" d="M.78,58.2q97.315,33.435,94.048-18.42a21.687,21.687,0,0,0-8.55-19.115L68.692,6.764A58.111,58.111,0,0,0,20.869,22.473c-6.256,3.893-8.341,57.346-4.935,57.694A55.609,55.609,0,0,0,34.7,81.835l25.163-5c3.754-1.6,4.518-.9,1.668-3.615s-14.667-2.224-19.324-2.5a78.547,78.547,0,0,0-9.87,0c-4.866,1.946-7.855-.834-8.828-8.341L27.82,68l-13.9-24.4,8.55,44.765c2.572-1.877,70.206-53.732,72.291-53.384a45.53,45.53,0,0,0-18.49,2.5c-13.9,3.2-27.8,6.951-41.706,10.5-6.325,1.6-12.651,3.337-18.907,5.213A96.689,96.689,0,0,0,.78,58.2Z" transform="translate(2.209 13.25)" fill="#c44a38" opacity="0.11"/>
        <path id="Path_106" data-name="Path 106" d="M79.688,46.488a20.853,20.853,0,0,0-6.325-26.275L55.707,9.3a99.207,99.207,0,0,0-12.025,1.182C31.8,11.733,22.828,12.08,14.07,23.9L4.13,43.152a32.044,32.044,0,0,0,8.133,16.891,2.433,2.433,0,0,0,2.572,1.6l24.329.973c2.85,0-11.747-31.975-15.223-25.3V62.2l3.754-13.9-13.9,9.384,18.42-2.5c.765-17.03,2.989-22.313,6.534-15.848,1.529,1.529,1.043,2.989-1.529,4.31L41.8,41.414,35.9,42.665c-2.085.417-.487,1.6,0,2.433,1.043,2.711,13.416,2.155,15.987,2.294C56.332,47.6,77.047,51.7,79.688,46.488Z" transform="translate(22.145 31.289)" fill="#c44a38" opacity="0.11"/>
        <path id="Path_107" data-name="Path 107" d="M87.246,47.1a26,26,0,0,0-7.924-27.8L60,7.2a30.307,30.307,0,0,0-26.414,2.919c-11.261,4.171-27.8,15.64-27.8,30.376C5.78,52.1,17.11,56.759,17.6,67.116c0,2.572,8.272,5.769,9.94,5.769s5.769-.9,2.85-3.476l-8.758-7.994,1.529,2.989L20.447,52.728C32.4,30.971,43.524,25.48,53.881,36.115c2.78,2.363,9.245,9.8,4.8,13.9s10.774,2.155,10.983,2.155C73.692,51.824,85.578,51.824,87.246,47.1Z" transform="translate(31.964 8.228)" fill="#c44a38" opacity="0.11"/>
        <path id="Path_108" data-name="Path 108" d="M14.315,40.642l71.109,2.989A16.265,16.265,0,0,0,79.933,27.3,44.626,44.626,0,0,0,54.978,9.431a85.985,85.985,0,0,0-23.773,3.2c-19.185,6.117-20.3,16.126-27.8,32.114-1.6,3.545,8.9,8.689,10.357,9.592a30.446,30.446,0,0,0,38.856,9.94c3.476-.417-6.951-27.8-6.951-27.8a40.038,40.038,0,0,0-5.839-13.9c-.7-.7-2.85-4.449-3.267-.834L32.179,59.479l4.935-18.212L13.619,62.12l24.468-5.213-31-12.095,18.559,15.64L81.67,49.33c9.036-1.738-21.757-5.839-16.891-5.283-11.052-1.182-22.1-2.224-33.157-3.058a72.152,72.152,0,0,0-17.308-.348Z" transform="translate(16.826 32.061)" fill="#c44a38" opacity="0.11"/>
        <path id="Path_109" data-name="Path 109" d="M.68,54.155Q99.107,91.829,92.434,36.638A37.6,37.6,0,0,0,75.265,15.785Q61.78.7,40.718,11.2A212.21,212.21,0,0,0,19.865,23.709C12.914,27.88,14.721,75.634,15.9,75.495a137.839,137.839,0,0,1,45.321-1.877c6.534.348-13.9-15.64-12.581-14.6-1.39-1.112-17.934-14.458-17.239-8.55L33.35,67.292l2.363-2.363L22.228,62.635l11.4,11.678L12.775,44.145,22.923,83.071c2.433-1.6,67.981-46.92,69.511-46.433A42.4,42.4,0,0,0,74.5,37.959c-13.9,2.363-27.04,5.144-40.525,7.994C27.789,47.2,21.6,48.524,15.486,49.984A89.946,89.946,0,0,0,.68,54.155Z" transform="translate(1.614 16.949)" fill="#c44a38" opacity="0.11"/>
        <path id="Path_110" data-name="Path 110" d="M20.211,43.676q73.125,32.531,65.409-9.94L76.1,20.251c-12.373-13.9-27.8-13.9-44.487-7.577S13.26,23.1,7.629,36.03C.678,51.67,3.32,46.943,14.024,65.155c1.738,2.919,13.346,1.182,15.918,1.043l21.27-1.043c4.24,0-17.586-38.231-18.837-36.006L30.5,62.027,33.14,48.472,13.955,62.722H35.364L7.143,45.692,23.269,63.973,82.562,49.028c6.951-1.668-10.566-3.823-11.4-3.823a346.721,346.721,0,0,0-50.951-1.529Z" transform="translate(20.036 27.15)" fill="#c44a38" opacity="0.11"/>
        <path id="Path_111" data-name="Path 111" d="M90.539,57.74c6.951-17.586-6.951-38.022-23.425-45.182A50.743,50.743,0,0,0,21.862,18.4C-.1,34.8,10.532,52.387,6.222,75.882c-1.112,5.978,13.346,8.063,12.025,4.24Q1.982,49.677,28.535,32.021,53.142-13.23,81.5,53.569C79.208,58.782,89.5,60.52,90.539,57.74Z" transform="translate(34.233 33.592)" fill="#c44a38" opacity="0.11"/>
      </g>
    </g>
    <g id="Group_45" data-name="Group 45" transform="translate(35.102 0.742)">
      <path id="Path_112" data-name="Path 112" d="M70.4,33.737l.973-28.708L8.809,89.068a820.222,820.222,0,0,1,76.462,34.755A33.018,33.018,0,0,0,99.59,107.835a46.155,46.155,0,0,0,8.48-25.58A129.846,129.846,0,0,0,99.1,41.314L25.422,52.435A110.591,110.591,0,0,1,68.658,88.372a187.678,187.678,0,0,0,85.776,42.818h2.294a596.546,596.546,0,0,0,50.6-45.877A76.948,76.948,0,0,0,178,48.682c-3.893-3.615-24.537,8.828-26.692,9.871s-24.885,9.384-24.537,14.6a153.339,153.339,0,0,0,6.951,40.525c1.182,3.476,17.03,4.866,16.683,4.8,23.564,3.893,54.844,12.373,81.049,9.523a237.1,237.1,0,0,0,39.76-9.8,10.357,10.357,0,0,0-5.769-5.839c-8.272-5.422-16.752-10.635-25.371-15.64S222.9,86.7,214.144,81.977a10.357,10.357,0,0,0-7.855-2.224,238.491,238.491,0,0,1-70.762,32.879l61.795,9.731a82.161,82.161,0,0,1-16.891-43.722L133.65,89.554l70.9-3.893L137.265,57.51A90.364,90.364,0,0,1,70.257,87.052l69.928,11.817a288.191,288.191,0,0,0-41.706-57.9c-1.6-1.738-6.047-.973-7.994-.834-12.651.765-25.3,3.2-37.744,5.213a126.927,126.927,0,0,0-23.356,4.379c-.765,0-7.924,2.433-2.433,3.267l29.125,4.588L38.768,52.922,79.154,117.15,49.89,54.59l-6.951.348L77.694,119.93c2.572-9.314,8.341-16.2,11.122-25.441a90.364,90.364,0,0,0,2.711-31.905,320.806,320.806,0,0,0-2.641-33.713c-1.668-10.913-3.615-22.8-15.5-25.371a17.656,17.656,0,0,0-8.48,6.951Q51.419,26.021,38.56,42.078C29.941,52.713,21.391,63.488,13.119,74.4a17.864,17.864,0,0,0-5.213,9.8,60.891,60.891,0,0,1-2.016,31.28,18.976,18.976,0,0,0,8.411-7.16c8.828-10.566,17.447-20.853,25.858-32.044S57.119,54.66,65.252,43.608a18.142,18.142,0,0,0,5.144-9.87Z" transform="translate(-2.484 17.584)" fill="#c44a38" opacity="0.11"/>
      <path id="Path_113" data-name="Path 113" d="M68.019,35.6,75.734,5.569,8.865,62.984a813.3,813.3,0,0,0,72.708,59.362c6.6,7.577,12.651,5.978,18.142-4.588,20.367-23.7,10.566-51.438,0-76.462L37.99,44.7a261.012,261.012,0,0,0,107.741,67.008L98.673,82.1l54.288,46.016a9.94,9.94,0,0,0,6.951,4.171A549.136,549.136,0,0,0,209.89,86.409l-1.182-1.946c-16.683-25.927-8.411-17.03-31.349-35.242-4.379-3.476-19.046,3.545-22.73,4.8-1.321.417-21.687,5.352-20.853,9.662,1.321,9.592,1.668,22.521,9.314,29.89a101.416,101.416,0,0,0,26.623,13.9,203.459,203.459,0,0,0,45.668,17.517c20.3,3.267,40.872-1.807,60.474-5.978a10.7,10.7,0,0,0-5.144-6.951c-7.785-6.951-15.709-13.207-23.842-19.532-2.433-1.877-26.275-24.676-32.183-22.035a208.532,208.532,0,0,1-70.553,20.853l54.357,25.3-17.447-39.2H140.1l67.7,8.967L143.994,51.654a176,176,0,0,1-34.755,26.692l50.256,51.438a208.532,208.532,0,0,0-59.362-88.417,10.288,10.288,0,0,0-6.951-1.807,268.738,268.738,0,0,0-32.6.765,82.092,82.092,0,0,0-20.228,1.668c-.7,0-6.951,1.6-2.433,2.989L64.4,52.558,50.5,47.831,71.911,61.316,59.747,52.627l.765,3.267,5.839,5.352c-6.951-8.411-4.866-8.411-14.736-9.592l29.751,70.762,2.363-9.245,6.951-11.122a62.559,62.559,0,0,0,2.433-34.338c-1.529-10.218-2.989-20.436-4.31-30.654a56.025,56.025,0,0,0-3.615-16.891,16.752,16.752,0,0,0-9.453-14.6C72.12,2.441,40.979,31.983,40.562,32.261Q27.286,43.521,14.5,55.338a13.416,13.416,0,0,0-5.63,7.646A98.774,98.774,0,0,1,6.78,97.322a13.9,13.9,0,0,0,7.855-5Q27.216,80.5,39.241,68.267T63.084,43.521A13.485,13.485,0,0,0,68.019,35.6Z" transform="translate(2.812 28.514)" fill="#c44a38" opacity="0.11"/>
      <path id="Path_114" data-name="Path 114" d="M35.506,30.031l.626-26.97-13,23.912L34.394,9.178l-15.779,21.2,5.561-4.24-4.032,1.529L43.43,41.57A252.667,252.667,0,0,1,53.44,74.726,105.03,105.03,0,0,1,57.68,96.9a69.511,69.511,0,0,1-6.325,47.2c-3.754,10.7-5.7,10.01,0,19.115.973,1.529,2.155,2.016,3.754.9C67.968,155.011,70.54,154.8,76.726,137.7c9.384-26.205-1.807-50.743-10.844-75L55.456,77.02a140.341,140.341,0,0,1,45.182,17.517,87.236,87.236,0,0,1,25.719,65.548c0,1.668,3.128,2.224,4.1,1.251a507.433,507.433,0,0,0,53.593-58.25,2.989,2.989,0,0,0,.626-3.336c-15.779-26.97-7.507-15.918-29.681-38.231-.973-.973-4.032,0-3.893,1.46,1.46,19.115.417,47.545,12.651,64.853,3.893,5.422,41.706,16.891,22.938,11.469a207.976,207.976,0,0,0,64.923,5.491c4.727,0,1.251-6.951-2.224-6.951a253.784,253.784,0,0,1-52.341-3.545q-20.089,0-24.676-23.286a42.958,42.958,0,0,1-14.736-42.819l-3.893,1.46,22.869,31,.626-3.267A533.423,533.423,0,0,1,127.26,157.1l4.032,1.182a183.577,183.577,0,0,0-8.411-52.759A54.914,54.914,0,0,0,106.129,89.81,280.474,280.474,0,0,0,65.048,61.658c-3.406-2.085-11.539,11.886-10.357,14.319q25.51,38.787-3.615,84.247h4.657c-6.395-10.357,5.213-20.853,8.9-28.777,8.341-18.073,2.363-48.657-1.043-67.008L59.279,42.4A94.742,94.742,0,0,0,49.825,7.649C43.987.142,42.874-.554,34.047,1.393c-3.267.7-9.94,13.9-10.635,14.875A44.07,44.07,0,0,0,15.14,32.95L13.471,57.279c-.417,6.186,9.106-6.464,8.133-5.144C25.5,47.061,35.3,36.982,35.506,30.031Z" transform="translate(42.554 -0.467)" fill="#c44a38" opacity="0.11"/>
      <path id="Path_115" data-name="Path 115" d="M32.088,32.779,26.318,10.4l-6.951,3.962a24.607,24.607,0,0,1,14.458,16.2A292.847,292.847,0,0,1,45.5,89.777a150.838,150.838,0,0,1-2.5,45.39A64.227,64.227,0,0,0,32.435,153.8a18.212,18.212,0,0,0,1.529,11.33l5.352,5.561a2.224,2.224,0,0,0,2.5.9c14.458-11.33,18.351-12.442,24.4-31.975C74,114.454,64.479,93.183,54.261,70.106l-5.63,5a140.9,140.9,0,0,1,57.763,43.305l-3.267-5.144a172.665,172.665,0,0,1,7.3,47.823c0,1.946,4.588,9.87,7.3,7.368a499.159,499.159,0,0,0,55.608-56.234,2.224,2.224,0,0,0,.765-2.294A77.087,77.087,0,0,0,145.32,70.593c-1.39-1.251-4.449,0-4.379,2.224.556,19.95-1.738,46.294,10.983,63.811,5.352,7.368,11.747,9.175,23.008,12.3a185.107,185.107,0,0,0,63.116,3.2c5.839-.417-2.433-13.9-5.63-13.9a315.293,315.293,0,0,1-40.525.765,94.464,94.464,0,0,1-38.856-9.8l3.893,5.769a109.41,109.41,0,0,1-10.983-63.116l-4.379,2.224c19.324,8.272,21.687,20.228,6.951,36.076A76.462,76.462,0,0,1,111.26,158.8l6.951,7.368c-1.39-16.752-1.182-37.4-10.01-52.48C95.9,92.836,71.987,79.768,51.69,68.368c-1.946-1.112-6.464,2.919-5.63,4.935,13.9,35.52,16.891,57.694-11.678,83.413h3.545l-2.5-3.823,1.668,11.33c3.962-8.689,9.314-14.389,13.9-22.521,10.079-17.517,5.144-50.4,1.877-68.815L48.214,49.322A79.937,79.937,0,0,0,37.092,14.567,18.212,18.212,0,0,0,25.415,5.6c-2.78-.7-6.951,3.2-8.411,5.352C11.651,18.807,20.34,24.3,25,34.725,27.569,38.687,32.922,36.115,32.088,32.779Z" transform="translate(53.619 29.594)" fill="#c44a38" opacity="0.11"/>
      <path id="Path_116" data-name="Path 116" d="M69.35,36.666l13.9-21.479L7.9,63.845A470.166,470.166,0,0,0,90.829,125.64a38.022,38.022,0,0,0,14.528-19.533,53.245,53.245,0,0,0,6.951-28.36,113.51,113.51,0,0,0-11.539-39.412L29.451,32.843A82.509,82.509,0,0,1,58.228,51.889l-1.6-1.738a33.921,33.921,0,0,0,15.5,16.4c24.815,13.9,49.7,27.457,74.863,40.664L93.47,69.2l66.73,58.945,2.294.973a625.6,625.6,0,0,0,50.117-46.781l-1.46-1.877c-16.057-25.788-7.994-17.1-31.349-35.589-3.476-2.78-52.48.9-51.994,2.989a36.493,36.493,0,0,0,15.014,24.954c12.72,9.94,26.623,19.393,40.038,28.5a96.55,96.55,0,0,0,34.755,16.613c20.436,4.657,41.706,0,61.795-3.615a13.9,13.9,0,0,0-5.7-7.855c-8.2-8.55-16.613-16.822-25.163-24.954s-17.1-16.335-25.927-24.19a13.485,13.485,0,0,0-8.063-4.657A288.54,288.54,0,0,1,176.4,63.289a137.631,137.631,0,0,1-38.856,2.78l62.907,43.375A108.228,108.228,0,0,1,181.47,45.7l-51.994,2.989,80.563,33.5L140.529,36.249A185.871,185.871,0,0,1,104.522,63.5l57.485,63.116a218.541,218.541,0,0,0-61.169-88.556,13.9,13.9,0,0,0-7.438-2.78c-12.3-2.224-25.024-2.85-37.4-3.823A126.09,126.09,0,0,0,32.579,30.2s-8.689.765-3.128,2.641L89.577,52.654,41.615,33.469l43.166,83.413L53.015,37.639H46.064l37.605,83.413,2.363-9.175,6.951-11.191a66.1,66.1,0,0,0,2.85-34.13c-1.251-9.94-2.572-19.811-4.449-29.681a55.609,55.609,0,0,0-4.379-16.4,16.2,16.2,0,0,0-10.218-13.9c-3.962-3.2-36.076,27.8-36.563,27.8C30.98,42.157,21.874,50.221,12.977,58.423A14.389,14.389,0,0,0,7,66.556a80.354,80.354,0,0,1-1.6,34.755,13.9,13.9,0,0,0,8.133-5.283Q26.67,83.794,39.252,71T64.136,45.216A13.9,13.9,0,0,0,69.35,36.666Z" transform="translate(-5.4 34.465)" fill="#c44a38" opacity="0.11"/>
      <path id="Path_117" data-name="Path 117" d="M73.253,34.816l.973-28.638L8.26,86.879A808.132,808.132,0,0,1,89.1,123.859a34.269,34.269,0,0,0,13.9-17.03,48.657,48.657,0,0,0,8.063-26.275,130.054,130.054,0,0,0-9.384-40.386L24.039,45.59,42.251,55.6l-2.016-1.251A115.11,115.11,0,0,1,67.066,80.415a116.778,116.778,0,0,0,78.894,31.071L91.6,83.682l61.656,42.54a11.469,11.469,0,0,0,7.646,3.962A590.828,590.828,0,0,0,211.579,83.96a75.836,75.836,0,0,0-29.542-36.632c-4.588-4.1-25.441,4.866-28.916,5.908-1.39.417-27.8,6.256-27.457,10.983.7,10.149,0,24.537,5.908,33.574,4.657,6.951,18.351,8.133,25.719,10.357,22.174,6.951,45.182,16.474,68.468,16.335a206.585,206.585,0,0,0,50.673-8.411,12.164,12.164,0,0,0-5.978-6.951c-8.689-6.534-17.586-12.929-26.553-19.115s-18-11.747-27.248-17.725a11.956,11.956,0,0,0-8.341-3.267,262.4,262.4,0,0,1-74.585,28.36l66.8,21.34A76.462,76.462,0,0,1,184.4,77.009L132.684,80l76.462,4.657L137.55,49.9a193.934,193.934,0,0,1-36.7,27.8l59.293,50.326a254.965,254.965,0,0,0-34.755-61.1A141.176,141.176,0,0,0,101.961,40.1a10.913,10.913,0,0,0-8.341-1.46c-10.288,0-20.853.765-30.793,1.529s-20.853,1.6-30.724,2.711a11.052,11.052,0,0,0-8.063,2.641L87.016,122.4,50.245,48.023l-6.951.487,39,71.8,2.433-8.48,6.951-10.5a68.607,68.607,0,0,0,4.449-32.809c-.556-10.357-1.043-20.853-2.433-30.793a64.3,64.3,0,0,0-3.476-17.378A15.987,15.987,0,0,0,76.314,4.51c-4.173-2.781-36.148,36.91-36.356,37.118Q26.055,56.851,13.2,72.7a17.8,17.8,0,0,0-5.63,9.453A58.389,58.389,0,0,1,5.48,113.015a17.864,17.864,0,0,0,8.689-6.951c9.245-10.01,18.351-20.228,27.179-30.585S59.142,54.626,67.761,44.2a18.212,18.212,0,0,0,5.491-9.384Z" transform="translate(-4.924 22.761)" fill="#c44a38" opacity="0.11"/>
      <path id="Path_118" data-name="Path 118" d="M39.037,37.023,45.988,7.759,16.654,29.446a81.815,81.815,0,0,1,14.875,0l-8.55-1.39L49.255,79.563,48.629,87.9a213.613,213.613,0,0,0,1.321,24.051c.556,6.951,1.043,13.9,2.224,20.506s1.529,7.368,8.063,13.555l1.39,1.182a43.514,43.514,0,0,0,22.591-27.8,55.191,55.191,0,0,0,3.2-20.853c-.765-16.057-9.036-27.8-16.474-41.289l-17.517,13.9a109.9,109.9,0,0,1,71.665,51.577l-17.586-22.1,22.869,40.316A4.379,4.379,0,0,0,134.058,144a423.239,423.239,0,0,0,48.657-43.1V99.374a68.051,68.051,0,0,0-33.226-33.5c-2.85-1.946-9.175,13.9-7.3,15.987l10.7,11.4,11.4,16.613a68.537,68.537,0,0,0,32.044,24.051c17.934,4.935,35.381,2.5,53.523,0,2.433,0-13.9-18.559-13.9-17.934-2.224-2.363-12.3-15.779-17.378-14.319a99.192,99.192,0,0,1-21.618,4.727q-36.146.487-46.781-39.552l-7.3,15.918,8.48,1.321-2.294-1.738A82.509,82.509,0,0,1,116.75,106.6l14.806,26.414a115.8,115.8,0,0,0-25.093-47.2A130.262,130.262,0,0,0,71.151,57.111C66.7,54.122,50.3,68.372,52.452,70.179q17.239,7.716,8.272,26.692a9.106,9.106,0,0,1-9.662-3.406l5.491,46.364A34.269,34.269,0,0,1,63.5,123.077a27.319,27.319,0,0,0,4.31-6.951c5.561-14.667,2.711-32.253-1.182-46.781a230.777,230.777,0,0,1-5.839-25.58A128.525,128.525,0,0,0,52.661,13.25,15.848,15.848,0,0,0,40.218,5.812c-5-.487-13.9,11.33-17.03,14.458s-9.453,6.951-8.758,11.886a52.411,52.411,0,0,1-2.711,27.8c-.7,5.839,9.523-3.962,9.036-3.615,4.31-3.823,8.48-7.855,12.512-11.956a21.409,21.409,0,0,0,5.769-7.368Z" transform="translate(32.003 31.259)" fill="#c44a38" opacity="0.11"/>
      <path id="Path_119" data-name="Path 119" d="M38.376,32.511,38.932,5.68l-4.518,8.272,5.213-7.438L20.3,29.731l6.951-6.047-7.368,5.352C40.739,31.19,48.8,66.363,52.765,81.585a91.129,91.129,0,0,1,4.588,31.071,29.959,29.959,0,0,1-5.144,24.12c-3.754,12.164-3.754,15.223,4.1,24.885a2.363,2.363,0,0,0,2.433,0,83.412,83.412,0,0,0,12.581-8.828,54.566,54.566,0,0,0,11.817-28.36c2.433-14.25,2.363-8.689-.765-23.912-4.1-19.6-2.224-11.608-12.512-36.145L58.951,80.543A87.374,87.374,0,0,1,89.883,87.98,75.28,75.28,0,0,1,120.051,105.5l-5.283-5.769a256.216,256.216,0,0,1,11.747,56.79c.417,2.85,5.422,4.935,7.438,2.989A516.464,516.464,0,0,0,187.2,104.315a2.433,2.433,0,0,0,.487-3.406c-16.752-27.8-8.133-16.961-29.89-38.578-2.224-2.224-3.962,1.251-3.893,2.85,1.182,17.517-.834,48.657,13.9,62.56,9.8,9.314,29.681,13.9,42.332,15.57a229.385,229.385,0,0,0,41.706.834c6.951,0-2.919-9.453-6.117-9.523a129.151,129.151,0,0,1-79.242-15.014l5.63,6.395A102.875,102.875,0,0,1,159.95,69.491l-3.893,1.321-29.125,83.413,7.368,2.989c-1.738-16.265-1.807-42.61-11.956-56.443-12.3-16.961-35.728-27.8-53.315-37.605C65.555,61.149,55.545,76.511,56.8,79.014q29.959,49.978-3.962,73.334l4.518.834-4.032-6.951,1.6,7.924,11.956-23.842a17.239,17.239,0,0,0,2.155-11.886,144.1,144.1,0,0,0-4.24-53.315c-2.78-12.859-4.379-25.858-6.951-38.717-1.946-9.731-6.186-22.521-17.1-24.329-4.588-.765-8.828,6.951-11.33,9.592-4.1,4.727-12.373,11.608-13.416,18.142a152.366,152.366,0,0,0-2.085,27.8c-.417,5.908,9.175-5,8.619-4.379,3.823-4.171,7.577-8.55,11.122-13a20.019,20.019,0,0,0,4.727-7.716Z" transform="translate(45.106 8.731)" fill="#c44a38" opacity="0.11"/>
      <path id="Path_120" data-name="Path 120" d="M53.7,35.893l25.232,50.4L43.2,42.08,62.523,77.53,47.578,47.571a369.172,369.172,0,0,0,20.853,78.547,6.464,6.464,0,0,0,2.711,4.449l6.951,5.908a33.157,33.157,0,0,0,16.683-19.811,60.2,60.2,0,0,0,6.951-32.183,111.773,111.773,0,0,0-15.57-38.717l-39.9,5.7a69.511,69.511,0,0,1,28.43,18.559c16.2,18.42,44.417,33.3,60.891,44.834L99.294,81.7l43.166,50.048a9.106,9.106,0,0,0,5.7,4.866,563.791,563.791,0,0,0,49.213-45.46l-.765-1.946a71.248,71.248,0,0,0-33.991-34.755c-4.1-2.78-26.483,8.758-24.468,12.095a113.164,113.164,0,0,0,13.416,17.239l34.755,33.3a32.113,32.113,0,0,0,12.025,6.256c21.687,9.523,44.626,5.978,67.495,2.5a9.662,9.662,0,0,0-3.823-6.951c-6.4-6.951-13-13.9-19.741-20.853-2.016-2.016-21.548-26.136-27.387-24.12a123.589,123.589,0,0,1-55.608,8.133l30.446,32.392L163.1,54.452,139.819,67.312,195.775,91.5,144.2,56.746A155.286,155.286,0,0,1,111.181,80.31l29.472,40.316c-38.717-62.56-20.089-45.251-55.261-75.28a25.51,25.51,0,0,0-10.01,0C68.988,45.9,62.593,46.6,56.267,47.5c2.433-.417-15.848,2.5-9.523,4.8L73.3,68.146l-8.689-8.48A11.608,11.608,0,0,1,54.46,57.789L71.977,128.62c3.615-14.875,13.068-22.591,12.651-39.482A92.868,92.868,0,0,0,82.612,72.8c-2.085-9.314-5.561-18.351-7.785-27.8a66.243,66.243,0,0,0-4.935-24.676,16.126,16.126,0,0,0-9.662-13C56.476,4.127,34.858,22.2,33.676,23.1c-2.85,2.016-24.12,13.9-23.564,20.019A91.407,91.407,0,0,1,9,74.541a6.951,6.951,0,0,0,6.047-2.433c6.186-4.8,12.234-9.731,18.073-14.875C36.8,53.757,53.556,42.983,53.7,35.893Z" transform="translate(16.024 38.088)" fill="#c44a38" opacity="0.11"/>
      <path id="Path_121" data-name="Path 121" d="M70.194,36.16l.973-28.5L8.121,81.411q40.8,20.853,80.771,42.749a36.632,36.632,0,0,0,13.9-18.281A50.812,50.812,0,0,0,110.44,78.7,120.6,120.6,0,0,0,100.014,39.01H26.75l15.5,8.48-1.877-1.46L56.083,59.168l-1.738-1.6c4.24,5.213,8.689,10.357,13.277,15.292q39.2,18.212,77.643,36.145L91.6,76.059l61.447,48.657a12.164,12.164,0,0,0,7.646,4.8l26.344-23.078q37.119-13.416,17.447-34.269c-9.731-16.265-5.978-10.774-23.634-25.51-5.283-4.449-55.052,4.657-54.566,8.828.973,9.384,1.043,19.811,7.716,27.318a81.745,81.745,0,0,0,15.57,9.314c7.716,4.1,15.5,8.063,23.286,11.886A240.163,240.163,0,0,0,206.5,117.9c23.495,7.716,46.85,1.877,70.275-3.2a12.86,12.86,0,0,0-5.491-7.577q-12.512-11.4-25.51-22.243c-8.619-7.3-17.308-14.458-26.205-21.409a13.207,13.207,0,0,0-8.2-4.171,264.834,264.834,0,0,1-78.616,21.2l65.757,32.044A67.008,67.008,0,0,1,183.288,74.46l-41.706-3.823L208.1,82.871,138.592,42.416a193.449,193.449,0,0,1-36.563,27.8L160,127.149a228.412,228.412,0,0,0-59.64-88.139,13,13,0,0,0-7.855-2.224c-12.72-1.321-25.719-.9-38.439-.973a125.6,125.6,0,0,0-23.7.626c-.417,0-8.689,1.321-2.989,2.78l45.112,12.3L39.262,39.844l43.722,76.948L51.217,42.555H44.266l38.092,77.5,2.363-8.9,6.951-10.844a66.452,66.452,0,0,0,3.615-33.365c-.9-10.01-1.807-20.019-3.476-29.959A57.346,57.346,0,0,0,87.85,20.311,15.5,15.5,0,0,0,73.53,5.505C68.943,2.795,39.262,38.592,38.775,39.149q-13,13.9-25.58,28.43a15.64,15.64,0,0,0-5.422,8.828A57.763,57.763,0,0,1,5.41,107.13a15.988,15.988,0,0,0,8.341-6.047q13.277-13.9,26-27.8T65.12,45.057a15.779,15.779,0,0,0,5.074-8.9Z" transform="translate(-5.34 28.647)" fill="#c44a38" opacity="0.11"/>
      <path id="Path_122" data-name="Path 122" d="M56.11,35.22l13.207-20.3-57,29.194,62.56,16.2-46.572-22.1,42.4,30.376L37.968,42.866,63.9,70.67,45.405,48.635l11.469,19.95-6.951-13.9,16.4,59.084a52.341,52.341,0,0,0,4.1,12.859c6.534,10.566,11.469,13.9,21.687.417a63.463,63.463,0,0,0,12.095-38.231c-.626-13.9-9.94-29.612-15.848-41.011l-39.2,12.373a73.959,73.959,0,0,1,29.681,18c15.779,16.544,42.749,28.569,58.945,38.578l-34.755-27.8,41.289,43.931a7.368,7.368,0,0,0,5.491,3.962A500.06,500.06,0,0,0,199.3,92.357l-.765-1.807a73.959,73.959,0,0,0-33.921-34.755c-3.962-2.78-25.371,13.9-23.217,17.725a93.422,93.422,0,0,0,12.025,19.463,62.143,62.143,0,0,0,15.848,12.929c6.395,5.352,12.929,10.357,19.741,15.153,24.537,15.223,51.785,10.01,78.338,5.352a8.2,8.2,0,0,0-3.823-6.186c-6.256-6.186-12.72-12.164-19.324-17.934-2.155-1.738-21.27-22.521-26.831-19.811-18.837,8.411-32.809,13.9-54.635,13.346l28.638,22.382a49.769,49.769,0,0,1-16.4-24.607,105.517,105.517,0,0,1-10.288-37.188l-21.9,18.212,50.117,17.03L146.891,64.275a159.458,159.458,0,0,1-32.879,23.564l33.782,43.027c-10.774-20.575-19.532-41.428-34.338-58.945a140.48,140.48,0,0,0-25.093-24.19c-5-4.31-21.27,3.267-25.649,4.588-.7,0-18.907,6.047-13.416,7.716L70.012,70.323l-2.85-4.171a6.951,6.951,0,0,1-10.079,0l16.961,62.56c3.476-14.6,12.859-22.243,12.442-38.717A120.532,120.532,0,0,0,81.2,61.147c-2.919-11.191-3.962-21.965-6.047-33.226S70.012,7.207,58.543,6.025c-7.368-.834-21.757,16.2-25.719,19.741C29.9,28.408,9.608,42.935,10.65,49.4A59.292,59.292,0,0,1,9.26,77.9a7.716,7.716,0,0,0,6.325-2.919C22.05,69.7,28.375,64.206,34.492,58.506,38.663,54.683,56.11,42.727,56.11,35.22Z" transform="translate(17.571 32.436)" fill="#c44a38" opacity="0.11"/>
      <path id="Path_123" data-name="Path 123" d="M32.42,32.987,25.469,10.6l-5.283,3.058c23.286,2.016,26.136,94.882,25.58,76.462v22.243A172.734,172.734,0,0,1,31.03,154.422a17.864,17.864,0,0,0,2.5,11.191l5.491,5.561a2.294,2.294,0,0,0,2.572.834c14.528-11.469,18.559-12.72,24.607-32.531,7.785-25.3-1.738-46.711-12.025-69.511L49.52,73.512A69.024,69.024,0,0,1,89.627,112.02a53.593,53.593,0,0,1,20.853,49.561c0,2.085,4.588,9.8,7.3,7.3a490.949,490.949,0,0,0,55.608-55.608,2.155,2.155,0,0,0,.834-2.224,76.462,76.462,0,0,0-29.4-39.969c-1.39-1.251-4.171,1.738-4.171,3.058,0,18.42-2.433,48.032,11.608,64.228a46.016,46.016,0,0,0,22.382,11.747c20.853,6.951,42.54,5.074,64.089,3.615,5.769-.348-2.016-13.277-5.144-13.068a321.838,321.838,0,0,1-40.942.9,92.1,92.1,0,0,1-39.065-10.7L157.331,136A122.13,122.13,0,0,1,145.305,70.94L141.2,74q29.055,12.3,7.785,36.493A73.056,73.056,0,0,1,111.8,159.149l6.951,6.951c-1.529-16.4-1.668-35.589-9.731-50.534C96.926,93.253,73.292,79.7,52.37,67.395c-1.738-1.043-5.491,1.46-4.657,3.545A66.522,66.522,0,0,1,53.482,133.5a53.662,53.662,0,0,1-19.393,23.425h3.545l-2.641-3.754,2.294,10.983,4.379-9.523a149.378,149.378,0,0,0,9.384-12.442,89.808,89.808,0,0,0,5.63-34.755,310.087,310.087,0,0,0-9.87-68.607c-2.363-10.218-15.084-45.738-29.751-27.8-1.182,1.39-1.39,1.877-.556,3.476l9.94,19.741C28.319,37.366,33.532,36.462,32.42,32.987Z" transform="translate(57.665 32.723)" fill="#c44a38" opacity="0.11"/>
    </g>
    <g id="Group_46" data-name="Group 46" transform="translate(30.862 87.892)">
      <path id="Path_124" data-name="Path 124" d="M5.51,73.268q95.16,25.441,90.364-29.4A51.16,51.16,0,0,0,70.294,15.5a58.6,58.6,0,0,0-47.476,16.4A47.684,47.684,0,0,0,13.226,53.6a39.343,39.343,0,0,0,2.641,12.3c1.668,5.769,3.476,11.469,5.422,17.169,1.182,3.406,3.754,17.934,8.48,18.073,18.768.556,14.945-.973,33.435-10.5-.487,0,8.272-4.935,3.545-5.561l-41.5-13.068,17.934,29.542L96.013,43.865,93.3,43.448a139.856,139.856,0,0,0-32.809,9.245c-13,4.171-26,8.341-38.856,12.929a66.592,66.592,0,0,0-10.7,4.1A9.592,9.592,0,0,0,5.51,73.268Z" transform="translate(-0.505 -0.243)" fill="#c44a38" opacity="0.11"/>
      <path id="Path_125" data-name="Path 125" d="M95.614,54.629a25.024,25.024,0,0,0-9.453-23.634,34.338,34.338,0,0,0-44.7-9.871C18.8,29.327,19.291,35.791,11.159,55.88,9.977,58.73,22.836,88.9,26.938,87.3l37.4-6.047c1.112,0-.765-4.31-.834-4.449A75,75,0,0,0,51.614,60.954c-.7-.834-11.052-13.9-11.469-8.55L22.628,73.118l16.126,8.828L13.383,54.629,26.938,87.021,93.181,46.5,9.768,60.4,6.71,62.414a13.9,13.9,0,0,0,8.967,1.6c11.747-.626,23.564-1.529,35.311-2.641C51.2,61.371,95.823,59.077,95.614,54.629Z" transform="translate(6.636 9.082)" fill="#c44a38" opacity="0.11"/>
      <path id="Path_126" data-name="Path 126" d="M88.582,58.434c8.828-17.308-8.967-39.2-25.51-44a37.119,37.119,0,0,0-34.755,7.855L17.959,29.239c-20.228,20.853,6.951,29.89-4.8,51.716-2.155,3.962,12.929,7.507,11.261,1.877q-11.191-32.6,23.564-23.077,33.157-11.191,21.548,1.321c-2.711,3.406,5.422,2.433,5.561,2.363C78.225,62.883,86.983,61.631,88.582,58.434Z" transform="translate(27.501 -13.004)" fill="#c44a38" opacity="0.11"/>
      <path id="Path_127" data-name="Path 127" d="M95.914,65.915a21.687,21.687,0,0,0,1.738-16.057A85.013,85.013,0,0,0,89.8,34.913a101.485,101.485,0,0,0-16.961-13.9,107.047,107.047,0,0,0-22.66-2.155,128.946,128.946,0,0,0-22.035,8.55C5.55,41.656,18.827,62.161,10,83.015c-2.363,5.491,15.084,9.8,13.9,5.283Q5.133,23.861,86.46,62.578C84.166,67.1,94.732,68.556,95.914,65.915Z" transform="translate(24.896 21.777)" fill="#c44a38" opacity="0.11"/>
      <path id="Path_128" data-name="Path 128" d="M4.79,58.731q101.972,44.626,94.256-11.956A37.883,37.883,0,0,0,81.6,25.922Q67.7,11.186,47.33,21.265a76.462,76.462,0,0,0-20.853,12.3c-5.144,3.2-9.314,44.278-4.657,45.182,34.2,6.951,0,.487,46.989,1.39,1.043,0-1.6-5.7-1.668-5.839A219.651,219.651,0,0,0,51.084,51.293,66.591,66.591,0,0,0,40.1,37.739c-1.39-.973-3.823-3.754-3.615,0l1.738,25.232.973-2.919L27.381,72.981,40.8,78.75,19.318,54.074l9.453,31.905c2.711-.973,67.356-26,69.024-25.163A41.706,41.706,0,0,0,80,58.383c-13.9-.487-27.387-.626-41.081-.7C29.536,57.688,13.826,55.186,4.79,58.731Z" transform="translate(-4.79 11.792)" fill="#c44a38" opacity="0.11"/>
      <path id="Path_129" data-name="Path 129" d="M5.22,67.785q97.315,33.435,94.048-18.49a21.757,21.757,0,0,0-8.55-19.115l-17.656-13.9A58.319,58.319,0,0,0,25.239,32.056c-6.256,3.823-8.272,57.277-4.866,57.624a55.053,55.053,0,0,0,18.7,1.738l25.163-4.727c3.823-1.529,4.588-.834,1.738-3.545s-14.736-2.224-19.393-2.572a93.006,93.006,0,0,0-9.87-.834c-4.866,1.946-7.785-.765-8.828-8.341l4.379,5.7-13.9-24.4,8.9,45.043c2.5-1.807,70.206-53.662,72.221-53.315a46.5,46.5,0,0,0-18.42,2.433c-13.9,3.267-27.8,6.951-41.706,10.5-6.395,1.6-12.651,3.337-18.976,5.213A89.528,89.528,0,0,0,5.22,67.785Z" transform="translate(-2.231 3.642)" fill="#c44a38" opacity="0.11"/>
      <path id="Path_130" data-name="Path 130" d="M84.267,56.028a20.853,20.853,0,0,0-6.256-26.344L60.216,18.84a101.741,101.741,0,0,0-12.095,1.182C36.3,21.2,27.268,21.62,18.58,33.368L8.57,52.692a31.488,31.488,0,0,0,8.063,16.822,2.5,2.5,0,0,0,2.641,1.6L43.6,72.155c2.85,0-11.747-31.975-15.292-25.3V71.668l3.823-13.9-13.9,9.384,18.351-2.572c.834-16.961,3.058-22.243,6.6-15.848,1.529,1.529.973,2.989-1.529,4.31l4.588-2.155-5.908,1.182c-2.155.417-.487,1.668,0,2.433,1.043,2.78,13.416,2.155,15.987,2.363C60.772,57.14,81.487,61.172,84.267,56.028Z" transform="translate(17.705 21.724)" fill="#c44a38" opacity="0.11"/>
      <path id="Path_131" data-name="Path 131" d="M91.805,56.918a26,26,0,0,0-7.994-27.8L64.418,16.741A30.515,30.515,0,0,0,38,19.591C26.744,23.831,10.2,35.3,10.2,50.037c0,11.539,11.33,16.265,11.817,26.623,0,2.572,8.272,5.7,9.87,5.7s5.839-.834,2.919-3.476L26.187,70.82l1.529,2.989L25.006,62.062Q42.939,29.531,58.371,45.449c2.85,2.363,9.314,9.871,4.866,13.9s10.7,2.224,10.983,2.224C78.32,61.3,90.068,61.367,91.805,56.918Z" transform="translate(27.405 -1.34)" fill="#c44a38" opacity="0.11"/>
      <path id="Path_132" data-name="Path 132" d="M18.755,49.932l71.109,3.058A16.474,16.474,0,0,0,84.3,36.864,44.487,44.487,0,0,0,59.349,19a91.407,91.407,0,0,0-23.7,3.2c-19.254,6.186-20.367,16.2-27.8,32.183-1.6,3.545,8.9,8.619,10.288,9.592a30.654,30.654,0,0,0,38.926,9.94c3.476-.487-6.951-27.8-6.951-27.8a41.706,41.706,0,0,0-5.839-13.9c-.7-.626-2.919-4.449-3.337-.765L36.549,69.187l5-18.212L18.06,71.828l24.468-5.144L11.456,54.172l18.629,15.57L85.693,58.691c9.106-1.807-21.757-5.908-16.822-5.283Q52.259,51.531,35.715,50.28a75.906,75.906,0,0,0-16.961-.348Z" transform="translate(12.386 22.676)" fill="#c44a38" opacity="0.11"/>
      <path id="Path_133" data-name="Path 133" d="M5.11,63.664q98.566,37.605,91.823-17.517A37.883,37.883,0,0,0,79.764,25.294Q66.349,10.211,45.009,20.776A190.942,190.942,0,0,0,24.156,33.218C17.2,37.459,18.943,85.143,20.194,85a137.84,137.84,0,0,1,45.529-2.016c6.534,0-13.9-15.64-12.581-14.6-1.39-1.112-17.934-14.458-17.308-8.55L37.78,76.663,40.213,74.3,26.658,71.936,38.128,83.683,17.274,53.446l10.079,39c2.433-1.668,68.051-46.92,69.858-46.5a45.252,45.252,0,0,0-18,1.321c-13.485,2.433-26.97,5.213-40.455,7.994-6.186,1.251-12.373,2.641-18.49,4.1A92.517,92.517,0,0,0,5.11,63.664Z" transform="translate(-2.886 7.345)" fill="#c44a38" opacity="0.11"/>
      <path id="Path_134" data-name="Path 134" d="M24.654,53.263Q97.64,85.655,90.063,43.253L80.54,29.768c-12.373-13.9-27.8-13.9-44.487-7.507S17.7,32.688,12.073,45.617C5.121,61.187,7.763,56.53,18.4,74.672c1.738,2.989,13.416,1.182,15.987,1.112l20.992-1.112c4.171,0-17.586-38.231-18.837-36.006L34.594,71.614l2.78-13.9L18.4,72.239H39.807L11.586,55.279,27.573,73.56,86.935,58.893C93.886,57.155,76.37,55.07,75.605,55a356.6,356.6,0,0,0-50.951-1.738Z" transform="translate(15.593 17.538)" fill="#c44a38" opacity="0.11"/>
      <path id="Path_135" data-name="Path 135" d="M94.979,67.32c6.951-17.656-6.951-38.092-23.425-45.182A50.534,50.534,0,0,0,26.3,27.908C4.267,44.382,14.9,61.9,10.662,85.393c-1.112,5.978,13.346,8.133,12.025,4.24Q6.422,59.4,32.975,41.6,57.582-3.789,85.8,63.358C83.648,68.293,93.936,69.822,94.979,67.32Z" transform="translate(29.793 23.986)" fill="#c44a38" opacity="0.11"/>
    </g>
    <g id="Group_47" data-name="Group 47" transform="translate(158.831 0)">
      <path id="Path_136" data-name="Path 136" d="M92.207,28.3A76.461,76.461,0,0,1,94.849,5.919L27.354,85.092c26.345-4.657,95.16,7.438,113.163-29.959,6.464-13.416,10.566-27.04,18.42-39.969L156.991,16.9l7.577-4.935L82.059,35.183,181.876,29.9l-74.168-1.251A172.317,172.317,0,0,0,203.841,62.64c1.807.417,1.807,0,0-2.085a63.533,63.533,0,0,0-10.079-7.716c-6.951-4.727-13.9-9.245-20.853-13.9l-15.292-9.523q-29.82-17.308,15.918,7.507,37.744,31.28,22.591,2.016a45.461,45.461,0,0,0-8.9-15.779c-12.651-16.683-26.345-13.207-44.7-8.758a542.795,542.795,0,0,0-54.5,15.709A38.856,38.856,0,0,0,72.258,41.717l8.48-4.727a86.471,86.471,0,0,0-21.687,8.341l-3.128,5.213A17.8,17.8,0,0,1,45.149,57.5l80.563,12.72a12.72,12.72,0,0,1-8.619-11.608,68.328,68.328,0,0,1-3.754-21.9L110.7,19.4C111.114,9.951,107.013,4.251,98.6,3a17.8,17.8,0,0,0-8.967,6.951Q75.247,24.34,61.414,39.354c-9.384,9.94-18.559,20.089-27.8,30.307a17.725,17.725,0,0,0-5.839,9.384c-1.043,9.106-2.989,18-4.1,27.109A18.212,18.212,0,0,0,32.428,99.2q13.9-14.875,27.387-30.376T86.647,37.755A17.169,17.169,0,0,0,92.207,28.3Z" transform="translate(-20.403 15.351)" fill="#c44a38" opacity="0.11"/>
      <path id="Path_137" data-name="Path 137" d="M89.642,30.34l.626-11.608L74.628,36.526l27.8-27.04L31.254,58.144l80.771,5.7-57.138-11.4a432.355,432.355,0,0,0,70.206,17.864,23.425,23.425,0,0,0,10.7-4.657,61.517,61.517,0,0,0,12.3-24.4,79.8,79.8,0,0,1,11.539-26.066l-1.946,1.668,7.646-5.144L91.8,25.335l75.836-10.357L93.118,21.234,189.6,39.1,122.451,16.855,205.169,64.4c2.363,1.112,3.058.9,2.016-.7a64.089,64.089,0,0,0-15.362-14.6L176.809,37.082,161.655,25.266c23.286-.765,30.724-3.2,22.382-7.438a102.806,102.806,0,0,0-16.683-7.507,12.79,12.79,0,0,0-9.245-.487c-11.261,1.46-22.452,3.2-33.643,5.144S102.154,18.94,91.1,21.234a12.929,12.929,0,0,0-8.411,3.545L75.74,31.73l8.48-3.754a75.836,75.836,0,0,0-20.158,6.395l-3.128,4.866a15.709,15.709,0,0,1-10.7,5.769L127.8,69.544,116.056,50.776c-1.112-8.063-2.572-16.057-4.449-23.981a30.724,30.724,0,0,0-4.727-13.9A8.9,8.9,0,0,0,96.385,4.9a13.416,13.416,0,0,0-8.411,4.449C78.868,16.3,69.9,24.084,61.074,31.73S43.14,47.092,34.521,55.155a13.9,13.9,0,0,0-5.7,7.646C27.569,71.56,25.693,80.04,24.65,88.868a13.416,13.416,0,0,0,8.2-4.588c8.828-7.368,17.447-14.875,26-22.66S75.74,46.049,84.082,38.056A13.485,13.485,0,0,0,89.642,30.34Z" transform="translate(-14.571 25.755)" fill="#c44a38" opacity="0.11"/>
      <path id="Path_138" data-name="Path 138" d="M54.539,22.534A59.571,59.571,0,0,1,56.693,2.1l-13.9,22.313,13.9-17.656L39.107,25.662l8.133-3.754-3.962.834a56.1,56.1,0,0,1,30.1,32.183A42.749,42.749,0,0,0,89.085,74.319,23.5,23.5,0,0,0,97.5,77.795c9.036,1.6,13-1.946,18.212-8.619a24.12,24.12,0,0,0,6.951-12.581A201.028,201.028,0,0,1,133.85,18.711l-3.406,3.476,10.149-6.951-13.9,6.951c30.446-3.476,35.52,42.749,39.76,60.752.7,3.058,10.5,6.325,9.662,1.182-3.267-20.089-3.267-48.657-18.281-64.3a23.7,23.7,0,0,0-18.976-8.411,36.007,36.007,0,0,0-13.9,6.951c-18.49,12.79-8.758,40.038-28.221,53.176l3.406-.7-9.592-.417L100,74.041A187.679,187.679,0,0,1,79.145,25.384,58.668,58.668,0,0,0,67.537.36h-1.46l-9.8.209c-4.8,0-7.855,6.951-10.357,10.288A55.609,55.609,0,0,0,34.311,29.624a64.506,64.506,0,0,0-2.433,18.142c-.348,5.978,8.967-5.422,8.2-4.518C43.9,38.8,54.33,29,54.539,22.534Z" transform="translate(28.388 -0.36)" fill="#c44a38" opacity="0.11"/>
      <path id="Path_139" data-name="Path 139" d="M47.324,27.963A28.5,28.5,0,0,1,46.073,8.778L36.9,13.3c13.9,5.352,17.169,23.634,20.853,36.98a144.233,144.233,0,0,0,13.9,34.755c1.39,2.363,8.063,7.368,11.191,6.534C93.062,88.855,93.41,89.55,99.735,79.679c10.01-15.709,6.464-43.861,24.19-54.774l-8.619.487c26.066,3.337,26.831,38.509,30.446,58.667a20.019,20.019,0,0,0,7.994,9.8s6.256,4.449,5.7.417c-3.337-23.147-4.727-69.511-36.7-73.751a18.768,18.768,0,0,0-16.544,5c-3.476,3.128-6.951,16.265-8.55,20.853C92.3,61.4,91.95,79.054,72.487,81.9l11.191,6.464A50.534,50.534,0,0,1,71.722,61.4,241.686,241.686,0,0,0,60.67,22.82C55.457,12.324,53.719,9.543,44.961,5.3c-2.294-1.112-7.924,2.641-9.175,4.588-4.171,6.047,2.155,13.9,4.866,19.741C42.528,33.385,48.158,31.508,47.324,27.963Z" transform="translate(43.457 27.854)" fill="#c44a38" opacity="0.11"/>
      <path id="Path_140" data-name="Path 140" d="M91.32,39.457V27.918l-5.63,7.994L103.485,18.4,29.178,69.207l112.4-6.951,2.641-.7A199.15,199.15,0,0,1,160.831,21.94l-88.974,14.6,119.906-1.251L110.922,22.635l80.007,21.409L123.156,19.716,196.281,55.1l-62.56-36.354q36.285,26.692,73.89,51.438c3.058,1.529,3.615.9,1.6-1.807a124.076,124.076,0,0,0-16.822-15.709c-8.341-6.951-16.822-14.319-25.3-21.34q-9.87-8.689-20.158-16.683Q108.559-14,59.763,37.233A7.368,7.368,0,0,0,53.924,43a18.49,18.49,0,0,1-10.913,6.325l86.749,27.8L117.8,58.294a218.948,218.948,0,0,0-5-23.217A30.446,30.446,0,0,0,107.933,21.8a8.48,8.48,0,0,0-10.5-6.951,14.736,14.736,0,0,0-8.689,4.657Q74.36,30.212,60.527,42.1T33.071,66.079a14.389,14.389,0,0,0-6.047,7.855C26.05,82.692,24.173,91.242,23.2,100a14.389,14.389,0,0,0,8.48-4.8q13.9-11.469,27.179-23.495t26.484-24.4a14.389,14.389,0,0,0,5.978-7.855Z" transform="translate(-23.2 23.52)" fill="#c44a38" opacity="0.11"/>
      <path id="Path_141" data-name="Path 141" d="M95.015,29.143A73.263,73.263,0,0,1,97.8,6.83L26.617,82.666,142.143,55.279c3.545-.765,5.283-3.337,5.074-7.785a199.286,199.286,0,0,1,15.362-33.157l-2.085,1.738L168,11.14,87.577,29.908,169.53,14.685,88.342,26.154l81.883,2.155-64.784-4.727L206.927,62.161c2.572.973,3.2.7,1.946-.9a68.953,68.953,0,0,0-17.308-13.9q-16.683-11.678-33.643-22.73-27.8-13.346,8.828-6.951,39.9,4.8,3.406-7.785a15.431,15.431,0,0,0-9.8-.348c-12.373,2.294-24.607,4.866-36.841,7.646s-24.4,5.561-36.493,8.689a15.57,15.57,0,0,0-9.314,4.171L70.756,37l9.175-4.379A87.584,87.584,0,0,0,57.479,40.2l-3.267,5A18.42,18.42,0,0,1,43.23,52.151L129.7,69.668l-11.052-18q-1.39-12.234-3.545-24.19a37.952,37.952,0,0,0-4.032-14.806A8.48,8.48,0,0,0,101.34,3.98a17.8,17.8,0,0,0-9.175,6.186q-15.084,13.9-29.681,28.291T33.637,67.582a17.864,17.864,0,0,0-6.325,9.036c-.973,9.036-2.919,17.795-4.032,26.831a18,18,0,0,0,9.036-6.395q14.6-13.9,28.708-28.916c9.523-9.8,18.837-19.671,27.8-29.751A18,18,0,0,0,95.015,29.143Z" transform="translate(-22.724 20.627)" fill="#c44a38" opacity="0.11"/>
      <path id="Path_142" data-name="Path 142" d="M58.728,31.555a69.929,69.929,0,0,1,3.2-21.548l-5.839,6.951,6.951-6.951L39.126,28.983l8.828-4.449-8.967,3.615C52.889,30.79,55.6,42.051,63.8,50.392q12.581,9.384,25.441,18.559a26.414,26.414,0,0,0,8.9,5.074,19.115,19.115,0,0,0,17.239-11.747,134.714,134.714,0,0,0,9.175-26.205A24.537,24.537,0,0,1,137,20.85L107.872,29.47l34.755-6.951L105.37,25.577l52.272,9.662L124,25.369l33.643,18-23.7-13.9,29.194,24.954L142.28,35.239l30.863,36.424c-.7-.834,6.951,5.978,4.935,1.043A192.4,192.4,0,0,0,165.01,39.2a47.823,47.823,0,0,0-19.393-20.158c-3.823-2.085-17.725.417-20.436.7a52.272,52.272,0,0,0-20.089,3.545c-8.55,5.352-15.5,12.164-23.564,18.212-3.754,2.78-9.175,7.438-13.9,6.951l29.82,21.2L84.377,35.517a40.455,40.455,0,0,0-8.758-21.965C70.892,6.6,72.491,8.2,64.984,5.558,60.535,4.029,54.9,10.493,51.777,12.926s-16.2,9.731-17.1,15.431c-1.321,8.2-3.545,16.057-4.727,24.4-.834,5.7,9.592-3.267,9.314-3.058,4.588-3.615,9.036-7.438,13.346-11.33a22.035,22.035,0,0,0,6.117-6.812Z" transform="translate(16.691 29.197)" fill="#c44a38" opacity="0.11"/>
      <path id="Path_143" data-name="Path 143" d="M57.851,27.021A60.128,60.128,0,0,1,59.936,6.516L38.944,32.235,64.246,12.7,41.1,26.6c22.869,11.747,29.681,44.9,56.1,51.507C129.169,86.105,125,33,142.306,20.209L123.4,30.08l11.747-2.919-6.325.7C152.316,31.4,160.24,60.664,167.538,78.39c.834,2.155,14.319,10.218,13.137,5.422C176.3,65.878,169.068,8.323,138.414,17.568A60.335,60.335,0,0,0,121.244,26.4a40.245,40.245,0,0,0-7.994,8.48,46.086,46.086,0,0,1-27.8,33.157l14.875,6.951A237.935,237.935,0,0,1,78.912,18.332a18.073,18.073,0,0,0-15.5-16.544C59.241.26,53.75,8.045,51.317,10.478A56.721,56.721,0,0,0,36.442,27.716a70.067,70.067,0,0,0-4.24,22.73c-.417,5.769,9.106-4.171,8.758-3.823,4.032-4.032,7.924-8.133,11.747-12.373a20.853,20.853,0,0,0,5.144-7.229Z" transform="translate(30.289 6.969)" fill="#c44a38" opacity="0.11"/>
      <path id="Path_144" data-name="Path 144" d="M74.535,30.35A67.635,67.635,0,0,1,76.551,9.5L35.609,45.92,82.668,13.459,34.011,39.873l49.7-3.058L44.785,36.4a438.751,438.751,0,0,0,67.147,33.574,17.03,17.03,0,0,0,11.122-3.962,52.689,52.689,0,0,0,12.025-23.286,42.123,42.123,0,0,1,15.779-28.152L86,20.757l85.15,10.5-61.1-17.169,78.2,41.706L137.373,18.255a633.1,633.1,0,0,0,55.609,50.326c2.433,1.39,2.989.834,1.807-1.668l-3.476-5c-6.6-7.646-13.346-15.223-20.228-22.591C138.207,3.936,149.676,12.694,73.771,25.9a18.907,18.907,0,0,0-6.951,1.668,11.678,11.678,0,0,1-11.956,6.464l58.945,33.852L102.131,49.6A177.808,177.808,0,0,0,96.57,26.318a23.425,23.425,0,0,0-5.561-12.79A9.662,9.662,0,0,0,80.235,6.577C73.284,4.77,57.505,19.993,53.613,22.843S30.883,35.98,30.048,43.279s-2.363,15.57-3.058,23.564a6.951,6.951,0,0,0,6.256-2.155c6.534-4.449,12.929-9.036,19.185-13.9C56.045,47.727,74.466,37.162,74.535,30.35Z" transform="translate(-0.645 35.755)" fill="#c44a38" opacity="0.11"/>
      <path id="Path_145" data-name="Path 145" d="M91.946,30.279l.487-11.608L91.32,21.312l5.7-13.9L27.162,71.151,140.6,54.329l2.5-.9a212.974,212.974,0,0,1,17.239-39.552l-2.155,1.668,7.438-5-79.173,14.6,89.6-6.395-72.917.417,44.278,4.727L104.18,17.767l97.315,31.7L133.652,15.195l66.522,42.471a12.3,12.3,0,0,0,7.507,3.823c1.529.7,1.738.348.765-.9a12.3,12.3,0,0,0-5.908-6.256c-8.828-7.855-18.629-14.875-27.8-22.1-7.577-5.7-15.153-11.469-22.869-16.961-12.442-6.951-6.951-9.036,15.918-6.534a14.528,14.528,0,0,0-9.87-.348q-18.142,2.5-36.215,5.769T85.76,21.1a14.736,14.736,0,0,0-9.245,3.754l-6.951,7.3,9.106-3.962a82.439,82.439,0,0,0-21.618,6.951L53.715,40.08a18.907,18.907,0,0,1-10.983,6.534l86.054,22.1-11.33-18.212c-1.112-7.855-2.572-15.709-4.379-23.495a33.713,33.713,0,0,0-4.449-13.9A8.411,8.411,0,0,0,98.271,5.116a15.362,15.362,0,0,0-8.828,5.352q-14.458,12.651-28.5,25.719T33.14,62.671a15.57,15.57,0,0,0-5.978,8.48c-.973,8.9-2.919,17.517-3.962,26.414A15.153,15.153,0,0,0,31.889,92Q45.86,79.179,59.693,65.8C68.938,56.9,77.766,48,86.455,38.759A15.153,15.153,0,0,0,91.946,30.279Z" transform="translate(-23.2 26.581)" fill="#c44a38" opacity="0.11"/>
      <path id="Path_146" data-name="Path 146" d="M77.218,29.9a66.661,66.661,0,0,1,2.016-21.27L36.554,48.459l48.657-35.1L35.164,42.9,68.807,31.29,41,39.353c23.912,2.85,45.46,21.34,67.634,29.4a12.164,12.164,0,0,0,11.539,0,29.264,29.264,0,0,0,14.389-18.281c5.213-12.929,6.117-26.205,18.907-35.172L89.452,24.478,173.7,31.429l-59.779-13,80.632,50.187c2.016,1.043,2.641.834,1.946-.7a36.146,36.146,0,0,0-7.507-9.8c-8.9-9.314-18.073-18.49-27.457-27.248C157.642,27.189,151.8,19.89,146.8,18.222a27.8,27.8,0,0,0-11.956.487C122.469,20.516,110.236,22.879,98,25.242A114.9,114.9,0,0,0,71.8,30.734c-5.561,2.711-3.476,6.951-12.164,7.438l55.608,29.89L104.119,50.336A210.486,210.486,0,0,0,98.975,26.7a26.414,26.414,0,0,0-5.352-13.485A9.662,9.662,0,0,0,82.848,5.64C75.9,3.694,58.728,21,55.044,23.713c-4.8,3.754-23.425,14.458-24.468,22.313S27.935,61.8,27.24,69.868A8.063,8.063,0,0,0,33.774,67.3q10.218-7.438,20.019-15.431C57.825,48.667,77.079,36.851,77.218,29.9Z" transform="translate(0.842 30.158)" fill="#c44a38" opacity="0.11"/>
      <path id="Path_147" data-name="Path 147" d="M48.341,28.7A26.205,26.205,0,0,1,46.047,9.585l-8.2,3.406,13.137,13A149.445,149.445,0,0,1,60.366,51.5,139.788,139.788,0,0,0,75.1,87.437c1.321,2.155,6.951,6.951,10.149,6.047C95.33,90.426,95.677,91.121,101.586,80.9c8.967-15.431,5.978-45.6,23.495-55.608h-8.2c24.954,5.213,26.275,39.969,30.029,59.988a20.3,20.3,0,0,0,8.063,9.871s6.256,4.379,5.63.417c-3.545-23.425-5.491-68.746-36.284-74.585a16.335,16.335,0,0,0-15.848,3.684,79.73,79.73,0,0,0-8.55,20.853c-4.866,13.9-5.769,34.13-23.842,38.37L86.293,89.94a53.106,53.106,0,0,1-12.79-27.8,183.23,183.23,0,0,0-8.828-30.376c-4.032-11.33-8.063-21.34-19.532-26-2.363-.973-6.951,1.6-8.133,3.476l-1.738,2.989a2.224,2.224,0,0,0,0,2.294,111.845,111.845,0,0,0,7.855,16.265C44.448,33.358,49.175,31.273,48.341,28.7Z" transform="translate(46.75 30.522)" fill="#c44a38" opacity="0.11"/>
    </g>
    <g id="Group_49" data-name="Group 49" transform="translate(240.853 56.905)" opacity="0.43">
      <g id="Group_48" data-name="Group 48">
        <path id="Path_148" data-name="Path 148" d="M35.71,68.833q95.229,25.441,90.364-29.4a51.646,51.646,0,0,0-25.58-28.36A58.875,58.875,0,0,0,52.6,27.474a47.962,47.962,0,0,0-9.592,21.757,39.344,39.344,0,0,0,2.78,12.3C47.457,67.3,49.265,73,51.211,78.7c1.182,3.476,3.754,17.934,8.48,18.073,18.768.626,14.945-.9,33.435-10.5-.487,0,8.272-4.935,3.545-5.561L55.451,67.652,73.385,97.193,126.213,39.5l-2.711-.348A133.529,133.529,0,0,0,90.693,48.4c-13,4.1-26,8.341-38.856,12.859a60.961,60.961,0,0,0-10.7,4.171,9.453,9.453,0,0,0-5.422,3.406Z" transform="translate(-30.775 4.177)" fill="#c44a38" opacity="0.11"/>
        <path id="Path_149" data-name="Path 149" d="M125.814,50.13a25.232,25.232,0,0,0-9.453-23.7,34.755,34.755,0,0,0-44.7-9.87C49,24.828,49.491,31.292,41.359,51.311c-1.182,2.85,11.678,32.948,15.779,31.349l37.327-5.839c1.112,0-.765-4.31-.834-4.449A75.42,75.42,0,0,0,81.744,56.455c-.7-.834-11.052-14.25-11.469-8.55L52.967,68.758l16.2,8.828L43.583,50.2l13.9,32.392,66.244-40.177-83.76,13.9L36.91,58.262a13.9,13.9,0,0,0,9.523,1.251C58.25,58.888,70,57.984,81.814,56.8,81.4,56.8,125.953,54.509,125.814,50.13Z" transform="translate(-23.634 13.635)" fill="#c44a38" opacity="0.11"/>
        <path id="Path_150" data-name="Path 150" d="M118.927,54.03c9.106-17.308-9.036-39.273-25.649-44.07a37.258,37.258,0,0,0-34.755,7.855L48.165,24.766c-20.3,20.853,6.951,29.89-4.8,51.785C41.214,80.514,56.3,84.059,54.63,78.359q-11.191-32.6,23.564-23.077,33.157-11.191,21.479,1.39c-2.641,3.337,5.491,2.363,5.63,2.363C108.5,58.409,117.328,57.158,118.927,54.03Z" transform="translate(-2.914 -8.547)" fill="#c44a38" opacity="0.11"/>
        <path id="Path_151" data-name="Path 151" d="M126.114,61.516a21.548,21.548,0,0,0,1.738-15.987A85.636,85.636,0,0,0,120,30.514a101.069,101.069,0,0,0-16.961-13.9,102.736,102.736,0,0,0-22.66-2.224,128.943,128.943,0,0,0-22.035,8.55C35.75,37.187,49.027,57.693,40.2,78.546c-2.363,5.491,15.084,9.87,13.9,5.283Q35.472,19.392,116.66,58.11C114.366,62.7,125,64.088,126.114,61.516Z" transform="translate(-5.374 26.161)" fill="#c44a38" opacity="0.11"/>
        <path id="Path_152" data-name="Path 152" d="M35,54.1q101.9,44.626,94.187-11.747a37.745,37.745,0,0,0-17.725-20.853c-9.036-9.8-20.436-11.4-34.269-4.657A74.655,74.655,0,0,0,56.34,29.071c-5.144,3.2-9.314,44.278-4.657,45.251,34.2,6.951,0,.417,46.989,1.39,1.043,0-1.6-5.7-1.668-5.908A218.759,218.759,0,0,0,80.946,46.866a67.427,67.427,0,0,0-10.983-13.9c-1.39-.973-3.823-3.754-3.615,0L68.087,58.2l1.668-2.641-11.817,13,13.416,5.769L49.458,49.3,58.912,81.2c2.711-.973,67.356-26,69.024-25.093a40.594,40.594,0,0,0-17.795-2.5c-13.9-.487-27.387-.626-41.081-.626C59.676,53.053,43.9,50.62,35,54.1Z" transform="translate(-35 16.412)" fill="#c44a38" opacity="0.11"/>
        <path id="Path_153" data-name="Path 153" d="M35.42,63.266q97.315,33.5,94.048-18.49a21.687,21.687,0,0,0-8.55-19.046l-17.656-13.9A58.458,58.458,0,0,0,55.439,27.537C49.183,31.36,47.1,84.884,50.573,85.231a56.791,56.791,0,0,0,18.7,1.668l25.163-5c3.823-1.6,4.588-.9,1.738-3.615s-14.736-2.224-19.393-2.572c-3.267,0-6.534-.348-9.87-.348-4.866,2.016-7.785-.765-8.828-8.272l4.379,5.63-14.25-24.4,8.9,45.112c2.5-1.877,70.206-53.732,72.221-53.384a46.85,46.85,0,0,0-18.49,2.433c-13.9,3.267-27.8,6.951-41.706,10.566-6.395,1.6-12.651,3.337-18.976,5.144A104.264,104.264,0,0,0,35.42,63.266Z" transform="translate(-32.501 8.145)" fill="#c44a38" opacity="0.11"/>
        <path id="Path_154" data-name="Path 154" d="M114.467,51.568a20.436,20.436,0,0,0-6.256-26.275L90.347,14.38a101.743,101.743,0,0,0-12.095,1.182C66.435,16.813,57.4,17.16,48.64,28.908L38.77,48.232a31,31,0,0,0,8.063,16.822,2.572,2.572,0,0,0,2.572,1.668l24.4.973c2.85,0-11.747-31.975-15.292-25.3V67.278l3.823-13.9-13.9,9.384L67.061,60.4c.834-16.961,3.058-22.243,6.6-15.779,1.46,1.529.973,2.919-1.6,4.31L76.723,46.7l-5.908,1.182c-2.155.487-.487,1.668,0,2.433C71.927,53.1,84.23,52.472,86.8,52.68,90.9,52.68,111.687,56.781,114.467,51.568Z" transform="translate(-12.565 26.168)" fill="#c44a38" opacity="0.11"/>
        <path id="Path_155" data-name="Path 155" d="M121.886,52.243a26.205,26.205,0,0,0-7.994-27.8L94.638,12.275a30.237,30.237,0,0,0-26.414,2.919c-11.261,4.171-27.8,15.64-27.8,30.376,0,11.539,11.33,16.265,11.886,26.623,0,2.572,8.272,5.7,9.87,5.7s5.839-.834,2.919-3.406l-8.828-7.924,1.46,2.989L55.017,57.874q18-32.6,33.435-16.613c2.85,2.294,9.314,9.8,4.866,13.9s10.7,2.155,10.983,2.155C108.262,56.97,120.149,56.97,121.886,52.243Z" transform="translate(-2.745 3.041)" fill="#c44a38" opacity="0.11"/>
        <path id="Path_156" data-name="Path 156" d="M49.025,45.482l71.109,3.058a16.265,16.265,0,0,0-5.561-16.057A44.626,44.626,0,0,0,89.619,14.55a89.53,89.53,0,0,0-23.773,3.267c-19.185,6.117-20.3,16.126-27.8,32.114-1.668,3.545,8.9,8.619,10.288,9.592a30.585,30.585,0,0,0,39.134,9.871c3.406-.487-6.951-27.8-6.951-27.8a42.4,42.4,0,0,0-5.839-13.9c-.7-.626-2.919-4.449-3.336-.765L66.611,64.6l5-18.212L48.122,67.239l24.468-5.213L41.727,49.653l18.629,15.57,55.608-11.052c9.036-1.807-21.757-5.839-16.891-5.283C88.09,47.707,77.038,46.664,65.986,45.76A80.076,80.076,0,0,0,49.025,45.482Z" transform="translate(-17.954 27.18)" fill="#c44a38" opacity="0.11"/>
        <path id="Path_157" data-name="Path 157" d="M35.31,59.282q98.427,37.744,91.823-17.517a37.953,37.953,0,0,0-17.169-20.853Q96.479,5.69,75.209,16.325A203.326,203.326,0,0,0,54.356,28.837c-6.951,4.171-5.213,51.924-4.032,51.785a138.327,138.327,0,0,1,45.39-1.807c6.534.348-13.9-15.64-12.581-14.6-1.46-1.112-17.934-14.458-17.308-8.55L67.91,72.489l2.433-2.363-13.9-2.294L67.91,79.51,47.057,49.342,57.136,88.268c2.433-1.6,68.051-46.92,69.858-46.5a44,44,0,0,0-18,1.39c-13.9,2.363-26.97,5.144-40.455,7.994C62.35,52.4,56.163,53.722,49.977,55.181a99.4,99.4,0,0,0-14.667,4.1Z" transform="translate(-33.155 11.712)" fill="#c44a38" opacity="0.11"/>
        <path id="Path_158" data-name="Path 158" d="M54.854,48.756q72.986,32.531,65.409-9.94l-9.592-13.485c-12.373-13.9-27.8-13.9-44.417-7.577S47.9,28.181,42.273,41.11c-6.951,15.64-4.31,10.913,6.325,29.125,1.738,2.919,13.416,1.182,15.987,1.043l21.27-1.043c4.171,0-17.586-38.231-18.837-36.006L65.072,67.107l2.78-13.555L48.6,67.454h21.34L41.786,50.633,57.912,68.914l59.223-14.945c6.951-1.668-10.566-3.823-11.33-3.893a356.6,356.6,0,0,0-50.951-1.321Z" transform="translate(-14.677 22.03)" fill="#c44a38" opacity="0.11"/>
        <path id="Path_159" data-name="Path 159" d="M125.162,62.84c6.951-17.586-6.951-38.022-23.356-45.182A50.534,50.534,0,0,0,56.555,23.5c-22.035,16.4-11.4,33.921-15.709,57.416-1.043,6.047,13.416,8.133,12.095,4.31Q36.606,54.776,63.09,37.26q24.746-45.321,52.9,21.826C113.9,63.882,124.189,65.411,125.162,62.84Z" transform="translate(-0.53 28.451)" fill="#c44a38" opacity="0.11"/>
      </g>
    </g>
    <g id="Group_51" data-name="Group 51" transform="translate(108.783 25.124)" opacity="0.43">
      <g id="Group_50" data-name="Group 50">
        <path id="Path_160" data-name="Path 160" d="M16.7,64.263q95.16,25.441,90.364-29.4A51.438,51.438,0,0,0,81.345,6.5,58.875,58.875,0,0,0,33.452,22.9,47.267,47.267,0,0,0,23.86,44.592a41.706,41.706,0,0,0,2.572,12.3c1.738,5.769,3.545,11.469,5.491,17.169C33.035,77.47,35.607,92,40.4,92.137c18.768.556,14.945-.9,33.365-10.5-.417,0,8.341-4.935,3.615-5.561L36.441,63.012,54.305,92.554,107.2,34.86l-2.711-.348a135.546,135.546,0,0,0-32.809,9.175c-13,4.171-26,8.341-38.856,12.929a64.229,64.229,0,0,0-10.7,4.1A9.593,9.593,0,0,0,16.7,64.263Z" transform="translate(-11.834 8.762)" fill="#c44a38" opacity="0.11"/>
        <path id="Path_161" data-name="Path 161" d="M106.8,45.56a25.232,25.232,0,0,0-9.453-23.7,34.755,34.755,0,0,0-44.7-9.87c-22.66,8.2-22.174,14.667-30.376,34.755-1.112,2.78,11.678,32.948,15.848,31.349l37.327-5.769c1.043,0-.834-4.379-.9-4.518A74.655,74.655,0,0,0,62.734,51.468c-.7-.834-11.052-13.9-11.539-8.55L33.957,63.771,50.083,72.6,24.5,45.282l13.9,32.392,65.966-40.108-83.413,13.9L17.9,53.484a13.9,13.9,0,0,0,9.523,1.251c11.817-.7,23.564-1.529,35.311-2.711C62.387,52.233,106.943,49.939,106.8,45.56Z" transform="translate(-4.693 18.221)" fill="#c44a38" opacity="0.11"/>
        <path id="Path_162" data-name="Path 162" d="M99.857,49.4c9.175-17.447-9.036-39.2-25.58-44a37.119,37.119,0,0,0-34.755,7.855L29.165,20.209c-20.3,20.853,6.951,29.89-4.8,51.785C22.214,75.887,37.228,79.5,35.63,73.8Q24.438,41.132,59.194,50.725,92.35,39.533,80.672,52.045c-2.641,3.406,5.491,2.433,5.63,2.363C89.431,53.853,98.259,52.81,99.857,49.4Z" transform="translate(16.086 -3.974)" fill="#c44a38" opacity="0.11"/>
        <path id="Path_163" data-name="Path 163" d="M107.153,56.945a21.687,21.687,0,0,0,1.738-16.057,80.911,80.911,0,0,0-7.924-14.945,100.58,100.58,0,0,0-16.891-13.9,103.155,103.155,0,0,0-22.66-2.224,132.069,132.069,0,0,0-22.1,8.55C16.789,32.269,30,53.122,21.168,73.975c-2.294,5.491,15.153,9.87,13.9,5.283Q16.441,14.822,97.63,53.539C95.406,58.127,106.041,59.8,107.153,56.945Z" transform="translate(13.518 30.747)" fill="#c44a38" opacity="0.11"/>
        <path id="Path_164" data-name="Path 164" d="M16,49.7q101.972,44.626,94.256-11.956A38.3,38.3,0,0,0,92.74,16.892Q79.324,2.156,58.54,12.235a77.018,77.018,0,0,0-20.853,12.3c-5.144,3.2-9.245,44.278-4.657,45.251,34.269,6.951,0,.417,47.059,1.321,1.043,0-1.6-5.7-1.668-5.839A218.753,218.753,0,0,0,62.364,42.333a67.426,67.426,0,0,0-10.983-13.9c-1.39-.973-3.893-3.754-3.615,0L49.5,53.663l.9-2.919L38.73,64.159l13.346,5.7L30.389,45.044l9.384,31.627c2.711-.973,67.425-26,69.024-25.163a41.15,41.15,0,0,0-17.725-2.433c-13.9-.487-27.387-.626-41.081-.626C40.607,48.867,24.828,46.225,16,49.7Z" transform="translate(-16 20.822)" fill="#c44a38" opacity="0.11"/>
        <path id="Path_165" data-name="Path 165" d="M16.41,58.755q97.315,33.5,94.048-18.49a22.035,22.035,0,0,0-8.55-19.115L84.252,7.248A58.458,58.458,0,0,0,36.429,22.957c-6.256,3.823-8.341,57.277-4.866,57.694a56.79,56.79,0,0,0,18.7,1.668l25.163-5c3.823-1.6,4.588-.9,1.668-3.615s-14.875-2.155-19.324-2.78a93.7,93.7,0,0,0-9.871,0c-4.866,2.016-7.785-.765-8.828-8.272l4.379,5.63L29.2,43.81l8.9,45.112c2.5-1.877,70.206-53.732,72.221-53.384a46.85,46.85,0,0,0-18.49,2.433c-13.9,3.267-27.8,6.951-41.706,10.5-6.325,1.6-12.651,3.337-18.907,5.213A89.53,89.53,0,0,0,16.41,58.755Z" transform="translate(-13.56 12.671)" fill="#c44a38" opacity="0.11"/>
        <path id="Path_166" data-name="Path 166" d="M95.457,47a20.853,20.853,0,0,0-6.325-26.345L71.337,9.81a101.743,101.743,0,0,0-12.095,1.182c-11.886,1.182-20.853,1.6-29.611,13.346L19.76,43.662a31,31,0,0,0,8.063,16.822A2.572,2.572,0,0,0,30.4,62.151l24.329.973c2.85,0-11.678-31.975-15.223-25.3V62.708l3.754-13.9-13.9,9.384,18.42-2.572c.834-16.961,2.989-22.243,6.534-15.848,1.529,1.529,1.043,2.989-1.529,4.379l4.657-2.224-5.978,1.182c-2.085.417-.417,1.668,0,2.433,1.043,2.78,13.416,2.155,15.987,2.363C71.893,48.11,92.677,52.142,95.457,47Z" transform="translate(6.376 30.754)" fill="#c44a38" opacity="0.11"/>
        <path id="Path_167" data-name="Path 167" d="M102.936,47.607a26.205,26.205,0,0,0-7.994-27.8L75.618,7.708A30.307,30.307,0,0,0,49.2,10.628C37.944,14.8,21.4,26.268,21.4,41c0,11.539,11.33,16.265,11.817,26.623,0,2.572,8.341,5.7,9.94,5.7s5.769-.834,2.85-3.476L37.318,62l1.46,2.989L36.067,53.238C48.023,31.55,59.214,25.99,69.5,36.694c2.78,2.294,9.314,9.8,4.8,13.9s10.774,2.224,11.052,2.224C89.312,52.334,101.2,52.334,102.936,47.607Z" transform="translate(16.136 7.693)" fill="#c44a38" opacity="0.11"/>
        <path id="Path_168" data-name="Path 168" d="M29.947,40.724l71.109,3.058a16.4,16.4,0,0,0-5.491-16.126A44.487,44.487,0,0,0,70.61,10a89.113,89.113,0,0,0-23.773,3.267c-19.185,6.117-20.3,16.126-27.8,32.114C17.365,48.926,27.861,54,29.321,54.973a30.585,30.585,0,0,0,39.2,9.731c3.406-.487-6.951-27.8-6.951-27.8A43.305,43.305,0,0,0,55.735,23c-.7-.626-2.919-4.449-3.336-.765L47.672,59.909,52.607,41.7,29.112,62.55,53.65,57.337,22.717,44.755l18.559,15.57L97.3,49.273c9.036-1.807-21.757-5.908-16.891-5.283C69.429,42.739,58.376,41.7,47.324,40.863a76.461,76.461,0,0,0-17.378-.139Z" transform="translate(0.986 31.884)" fill="#c44a38" opacity="0.11"/>
        <path id="Path_169" data-name="Path 169" d="M16.3,54.681q98.427,37.675,91.754-17.517A37.327,37.327,0,0,0,90.885,16.312C81.918,6.233,70.449,4.7,56.338,11.654A202.762,202.762,0,0,0,35.485,24.1c-6.951,4.24-5.213,51.924-4.032,51.785a137.91,137.91,0,0,1,45.321-1.668c6.534,0-13.9-15.64-12.512-14.6-1.46-1.112-18-14.458-17.308-8.55L48.97,67.888,51.4,65.525,37.5,63.162,48.97,74.909,28.117,44.741,38.2,83.667c2.433-1.668,67.981-46.92,69.511-46.5a43.722,43.722,0,0,0-17.934,1.39c-13.9,2.363-27.04,5.144-40.455,7.994-6.256,1.182-12.373,2.572-18.559,4.032a89.738,89.738,0,0,0-14.458,4.1Z" transform="translate(-14.215 16.328)" fill="#c44a38" opacity="0.11"/>
        <path id="Path_170" data-name="Path 170" d="M35.606,44.53q72.986,32.392,65.409-9.94l-9.592-13.9c-12.373-13.9-27.8-13.9-44.487-7.507S28.585,23.955,23.3,36.884c-6.951,15.57-4.31,10.913,6.325,29.055,1.738,2.989,13.346,1.251,15.918,1.112l21.34-1.112c4.171,0-17.656-38.231-18.837-36.006L46.1,62.881l2.711-13.9L29.558,63.229H50.968L22.746,46.546,38.873,64.827,98.165,49.883c6.951-1.738-10.566-3.823-11.4-3.893a355.347,355.347,0,0,0-51.16-1.46Z" transform="translate(4.502 26.271)" fill="#c44a38" opacity="0.11"/>
        <path id="Path_171" data-name="Path 171" d="M106.158,58.291C113.109,40.7,99.207,20.268,82.8,13.109a50.673,50.673,0,0,0-45.321,5.769c-21.965,16.474-11.33,33.991-15.64,57.485C20.73,82.341,35.258,84.5,33.867,80.6Q17.6,50.575,44.155,32.572,68.9-12.749,97.053,54.329C94.9,59.333,105.116,60.793,106.158,58.291Z" transform="translate(18.405 33.016)" fill="#c44a38" opacity="0.11"/>
      </g>
    </g>
    <g id="Group_53" data-name="Group 53" transform="translate(115.734 87.683)" opacity="0.43">
      <g id="Group_52" data-name="Group 52">
        <path id="Path_172" data-name="Path 172" d="M17.7,73.263q95.16,25.441,90.364-29.4A51.438,51.438,0,0,0,82.345,15.5,58.875,58.875,0,0,0,34.452,31.9,47.267,47.267,0,0,0,24.86,53.592a41.707,41.707,0,0,0,2.572,12.3c1.738,5.769,3.545,11.469,5.491,17.169C34.035,86.47,36.607,101,41.4,101.137c18.768.556,14.945-.9,33.365-10.5-.417,0,8.341-4.935,3.615-5.561L37.441,72.012l17.864,29.542L108.2,43.86l-2.711-.348a135.547,135.547,0,0,0-32.809,9.175c-13,4.171-26,8.341-38.856,12.929a64.227,64.227,0,0,0-10.7,4.1A9.592,9.592,0,0,0,17.7,73.263Z" transform="translate(-12.834 -0.238)" fill="#c44a38" opacity="0.11"/>
        <path id="Path_173" data-name="Path 173" d="M107.8,54.56a25.232,25.232,0,0,0-9.453-23.7,34.755,34.755,0,0,0-44.7-9.871c-22.66,8.2-22.174,14.667-30.376,34.755-1.112,2.78,11.678,32.948,15.848,31.349l37.327-5.769c1.043,0-.834-4.379-.9-4.518A74.654,74.654,0,0,0,63.734,60.468c-.7-.834-11.052-14.25-11.539-8.55L34.957,72.771,51.083,81.6,25.5,54.282l13.9,32.392,65.966-40.108-83.413,13.9L18.9,62.484a13.9,13.9,0,0,0,9.523,1.251c11.817-.7,23.564-1.529,35.311-2.711C63.387,61.233,107.943,58.939,107.8,54.56Z" transform="translate(-5.693 9.221)" fill="#c44a38" opacity="0.11"/>
        <path id="Path_174" data-name="Path 174" d="M100.857,58.4c9.175-17.447-9.036-39.2-25.58-44a37.119,37.119,0,0,0-34.755,7.855L30.165,29.209c-20.3,20.853,6.951,29.89-4.8,51.785C23.214,84.887,38.228,88.5,36.63,82.8Q25.438,50.2,60.194,59.725,93.35,48.533,81.672,61.045c-2.641,3.406,5.491,2.433,5.63,2.363C90.431,62.853,99.259,61.81,100.857,58.4Z" transform="translate(15.086 -12.974)" fill="#c44a38" opacity="0.11"/>
        <path id="Path_175" data-name="Path 175" d="M108.153,65.945a21.687,21.687,0,0,0,1.738-16.057,80.912,80.912,0,0,0-7.924-14.945,100.583,100.583,0,0,0-16.891-13.9,103.154,103.154,0,0,0-22.66-2.224,132.069,132.069,0,0,0-22.1,8.55C17.789,41.617,31,62.122,22.168,82.975c-2.294,5.491,15.153,9.871,13.9,5.283Q17.442,23.822,98.63,62.539C96.405,67.127,107.041,68.8,108.153,65.945Z" transform="translate(12.518 21.747)" fill="#c44a38" opacity="0.11"/>
        <path id="Path_176" data-name="Path 176" d="M17,58.7q101.972,44.626,94.256-11.956A38.3,38.3,0,0,0,93.74,25.892q-13.416-14.736-34.2-4.657a77.017,77.017,0,0,0-20.853,12.3c-5.144,3.2-9.245,44.278-4.657,45.251,34.269,6.951,0,.417,47.059,1.39,1.043,0-1.6-5.769-1.668-5.908A218.746,218.746,0,0,0,63.364,51.333a67.425,67.425,0,0,0-10.983-13.9c-1.39-.973-3.893-3.754-3.615,0L50.5,62.663l.9-2.919L39.73,73.159l13.346,5.7L31.389,54.044l9.384,31.627c2.711-.973,67.425-26,69.024-25.163a41.15,41.15,0,0,0-17.725-2.433c-13.9-.487-27.387-.626-41.081-.626C41.607,57.867,25.828,55.225,17,58.7Z" transform="translate(-17 11.822)" fill="#c44a38" opacity="0.11"/>
        <path id="Path_177" data-name="Path 177" d="M17.41,67.755q97.315,33.5,94.048-18.49a22.035,22.035,0,0,0-8.55-19.115l-17.656-13.9A58.458,58.458,0,0,0,37.429,31.957c-6.256,3.823-8.341,57.277-4.866,57.694a56.79,56.79,0,0,0,18.7,1.668l25.163-5c3.823-1.6,4.588-.9,1.668-3.615s-14.875-2.155-19.324-2.78a93.7,93.7,0,0,0-9.87,0c-4.866,2.016-7.785-.765-8.828-8.272l4.379,5.63L30.2,52.811l8.9,45.112c2.5-1.877,70.206-53.732,72.221-53.384a46.85,46.85,0,0,0-18.49,2.433c-13.9,3.267-27.8,6.951-41.706,10.5-6.325,1.6-12.651,3.337-18.907,5.213A89.529,89.529,0,0,0,17.41,67.755Z" transform="translate(-14.56 3.671)" fill="#c44a38" opacity="0.11"/>
        <path id="Path_178" data-name="Path 178" d="M96.457,56a20.853,20.853,0,0,0-6.325-26.344L72.337,18.81a101.744,101.744,0,0,0-12.095,1.182c-11.886,1.182-20.853,1.6-29.612,13.346L20.76,52.662a31,31,0,0,0,8.063,16.822A2.572,2.572,0,0,0,31.4,71.151l24.329.973c2.85,0-11.678-31.975-15.223-25.3V71.708l3.754-13.9-13.9,9.384,18.42-2.572c.834-16.961,2.989-22.243,6.534-15.848,1.529,1.529,1.043,2.989-1.529,4.379l4.657-2.224-5.978,1.182c-2.085.417-.417,1.668,0,2.433,1.043,2.78,13.416,2.155,15.987,2.363C72.893,57.11,93.677,61.142,96.457,56Z" transform="translate(5.376 21.754)" fill="#c44a38" opacity="0.11"/>
        <path id="Path_179" data-name="Path 179" d="M103.936,56.607a26.206,26.206,0,0,0-7.994-27.8L76.618,16.708A30.307,30.307,0,0,0,50.2,19.628C38.944,23.8,22.4,35.268,22.4,50c0,11.539,11.33,16.265,11.817,26.623,0,2.572,8.341,5.7,9.94,5.7s5.769-.834,2.85-3.476L38.318,71l1.46,2.989L37.067,62.238C49.023,40.55,60.214,34.99,70.5,45.694c2.78,2.294,9.314,9.8,4.8,13.9s10.774,2.224,11.052,2.224C90.312,61.334,102.2,61.334,103.936,56.607Z" transform="translate(15.136 -1.307)" fill="#c44a38" opacity="0.11"/>
        <path id="Path_180" data-name="Path 180" d="M30.947,49.724l71.109,3.058a16.4,16.4,0,0,0-5.491-16.126A44.487,44.487,0,0,0,71.61,19a89.113,89.113,0,0,0-23.773,3.267c-19.185,6.117-20.3,16.126-27.8,32.114C18.365,57.926,28.861,63,30.321,63.973a30.585,30.585,0,0,0,39.2,9.731c3.406-.487-6.951-27.8-6.951-27.8A43.305,43.305,0,0,0,56.735,32c-.7-.626-2.919-4.449-3.337-.765L48.672,68.909,53.607,50.7,30.112,71.55,54.65,66.337,23.717,53.755l18.559,15.57L98.3,58.273c9.036-1.807-21.757-5.908-16.891-5.283C70.429,51.739,59.376,50.7,48.324,49.863a76.464,76.464,0,0,0-17.378-.139Z" transform="translate(-0.014 22.884)" fill="#c44a38" opacity="0.11"/>
        <path id="Path_181" data-name="Path 181" d="M17.3,63.657q98.427,37.605,91.754-17.517A37.327,37.327,0,0,0,91.885,25.287C82.918,15.208,71.449,13.679,57.13,20.769A202.759,202.759,0,0,0,36.276,33.211C29.325,37.452,31.063,85.136,32.245,85A137.909,137.909,0,0,1,77.774,83.19c6.534,0-13.9-15.64-12.512-14.6-1.46-1.112-18-14.458-17.308-8.55L49.97,76.864,52.4,74.5,38.5,72.137,49.97,83.885,29.117,53.717,39.2,92.643c2.433-1.668,67.981-46.92,69.511-46.5a43.722,43.722,0,0,0-17.934,1.39c-13.9,2.363-27.04,5.144-40.455,7.994-6.256,1.182-12.373,2.572-18.559,4.032A89.739,89.739,0,0,0,17.3,63.657Z" transform="translate(-15.215 7.352)" fill="#c44a38" opacity="0.11"/>
        <path id="Path_182" data-name="Path 182" d="M36.606,53.233q72.986,32.392,65.409-9.94L92.423,29.738c-12.373-13.9-27.8-13.9-44.487-7.507S29.585,32.658,24.3,45.587c-6.951,15.57-4.31,10.913,6.325,29.055,1.738,2.989,13.346,1.251,15.918,1.112l21.34-1.112c4.171,0-17.656-38.231-18.837-36.006L47.1,71.584l2.711-13.9L30.558,71.931H51.968L23.746,55.249,39.873,73.53,99.165,58.585c6.951-1.738-10.566-3.823-11.4-3.893a355.338,355.338,0,0,0-51.16-1.46Z" transform="translate(3.502 17.568)" fill="#c44a38" opacity="0.11"/>
        <path id="Path_183" data-name="Path 183" d="M107.158,67.291C114.109,49.7,100.207,29.268,83.8,22.109a50.673,50.673,0,0,0-45.321,5.769c-21.965,16.474-11.33,33.991-15.64,57.485C21.73,91.341,36.258,93.5,34.867,89.6Q18.6,59.575,45.155,41.572,69.9-3.819,98.053,63.329C95.9,68.333,106.116,69.793,107.158,67.291Z" transform="translate(17.405 24.016)" fill="#c44a38" opacity="0.11"/>
      </g>
    </g>
    <ellipse id="Ellipse_80" data-name="Ellipse 80" cx="3.476" cy="3.476" rx="3.476" ry="3.476" transform="translate(263.514 158.901)" fill="#e5b806" opacity="0.48"/>
    <ellipse id="Ellipse_81" data-name="Ellipse 81" cx="1.112" cy="1.112" rx="1.112" ry="1.112" transform="translate(308.487 49.631)" fill="#e5b806"/>
    <ellipse id="Ellipse_82" data-name="Ellipse 82" cx="1.112" cy="1.112" rx="1.112" ry="1.112" transform="translate(290.206 119.35)" fill="#e5b806"/>
    <ellipse id="Ellipse_83" data-name="Ellipse 83" cx="1.112" cy="1.112" rx="1.112" ry="1.112" transform="translate(269.631 46.711)" fill="#e5b806"/>
    <ellipse id="Ellipse_84" data-name="Ellipse 84" cx="1.112" cy="1.112" rx="1.112" ry="1.112" transform="translate(235.848 23.425)" fill="#e5b806"/>
    <ellipse id="Ellipse_85" data-name="Ellipse 85" cx="1.112" cy="1.112" rx="1.112" ry="1.112" transform="translate(300.007 64.436)" fill="#e5b806"/>
    <ellipse id="Ellipse_86" data-name="Ellipse 86" cx="1.112" cy="1.112" rx="1.112" ry="1.112" transform="translate(270.534 65.131)" fill="#e5b806"/>
    <ellipse id="Ellipse_87" data-name="Ellipse 87" cx="1.112" cy="1.112" rx="1.112" ry="1.112" transform="translate(255.45 50.743)" fill="#e5b806"/>
    <ellipse id="Ellipse_88" data-name="Ellipse 88" cx="1.112" cy="1.112" rx="1.112" ry="1.112" transform="translate(250.515 142.497)" fill="#e5b806"/>
    <ellipse id="Ellipse_89" data-name="Ellipse 89" cx="1.112" cy="1.112" rx="1.112" ry="1.112" transform="translate(241.27 75.627)" fill="#e5b806"/>
    <ellipse id="Ellipse_90" data-name="Ellipse 90" cx="1.112" cy="1.112" rx="1.112" ry="1.112" transform="translate(310.503 93.7)" fill="#e5b806"/>
    <ellipse id="Ellipse_91" data-name="Ellipse 91" cx="1.112" cy="1.112" rx="1.112" ry="1.112" transform="translate(199.147 56.026)" fill="#e5b806"/>
    <ellipse id="Ellipse_92" data-name="Ellipse 92" cx="1.112" cy="1.112" rx="1.112" ry="1.112" transform="translate(304.803 59.432)" fill="#e5b806"/>
    <ellipse id="Ellipse_93" data-name="Ellipse 93" cx="1.112" cy="1.112" rx="1.112" ry="1.112" transform="translate(229.732 173.081)" fill="#e5b806"/>
    <ellipse id="Ellipse_94" data-name="Ellipse 94" cx="1.112" cy="1.112" rx="1.112" ry="1.112" transform="translate(240.645 46.155)" fill="#e5b806"/>
    <ellipse id="Ellipse_95" data-name="Ellipse 95" cx="3.476" cy="3.476" rx="3.476" ry="3.476" transform="translate(242.661 47.684)" fill="#e5b806" opacity="0.33"/>
    <ellipse id="Ellipse_96" data-name="Ellipse 96" cx="3.476" cy="3.476" rx="3.476" ry="3.476" transform="translate(284.367 144.999)" fill="#e5b806" opacity="0.25"/>
    <ellipse id="Ellipse_97" data-name="Ellipse 97" cx="1.112" cy="1.112" rx="1.112" ry="1.112" transform="translate(223.684 48.24)" fill="#e5b806" opacity="0.48"/>
    <ellipse id="Ellipse_98" data-name="Ellipse 98" cx="1.112" cy="1.112" rx="1.112" ry="1.112" transform="translate(191.848 80.91)" fill="#e5b806" opacity="0.48"/>
    <ellipse id="Ellipse_99" data-name="Ellipse 99" cx="1.112" cy="1.112" rx="1.112" ry="1.112" transform="translate(178.363 98.218)" fill="#e5b806" opacity="0.48"/>
    <ellipse id="Ellipse_100" data-name="Ellipse 100" cx="1.112" cy="1.112" rx="1.112" ry="1.112" transform="translate(236.266 59.779)" fill="#e5b806" opacity="0.48"/>
    <ellipse id="Ellipse_101" data-name="Ellipse 101" cx="1.112" cy="1.112" rx="1.112" ry="1.112" transform="translate(230.427 88.695)" fill="#e5b806" opacity="0.48"/>
    <ellipse id="Ellipse_102" data-name="Ellipse 102" cx="1.112" cy="1.112" rx="1.112" ry="1.112" transform="translate(213.049 100.234)" fill="#e5b806" opacity="0.48"/>
    <ellipse id="Ellipse_103" data-name="Ellipse 103" cx="1.112" cy="1.112" rx="1.112" ry="1.112" transform="translate(234.18 119.558)" fill="#e5b806" opacity="0.48"/>
    <ellipse id="Ellipse_104" data-name="Ellipse 104" cx="1.112" cy="1.112" rx="1.112" ry="1.112" transform="translate(267.128 56.026)" fill="#e5b806" opacity="0.48"/>
    <ellipse id="Ellipse_105" data-name="Ellipse 105" cx="1.112" cy="1.112" rx="1.112" ry="1.112" transform="translate(205.403 63.533)" fill="#e5b806" opacity="0.48"/>
    <ellipse id="Ellipse_106" data-name="Ellipse 106" cx="1.112" cy="1.112" rx="1.112" ry="1.112" transform="translate(232.442 54.01)" fill="#e5b806" opacity="0.48"/>
    <ellipse id="Ellipse_107" data-name="Ellipse 107" cx="1.112" cy="1.112" rx="1.112" ry="1.112" transform="translate(205.264 113.719)" fill="#e5b806" opacity="0.48"/>
    <ellipse id="Ellipse_108" data-name="Ellipse 108" cx="1.112" cy="1.112" rx="1.112" ry="1.112" transform="translate(238.351 141.037)" fill="#e5b806" opacity="0.23"/>
    <ellipse id="Ellipse_109" data-name="Ellipse 109" cx="1.112" cy="1.112" rx="1.112" ry="1.112" transform="translate(199.494 117.264)" fill="#e5b806" opacity="0.23"/>
    <ellipse id="Ellipse_110" data-name="Ellipse 110" cx="1.112" cy="1.112" rx="1.112" ry="1.112" transform="translate(179.614 107.88)" fill="#e5b806" opacity="0.23"/>
    <ellipse id="Ellipse_111" data-name="Ellipse 111" cx="1.112" cy="1.112" rx="1.112" ry="1.112" transform="translate(229.871 155.843)" fill="#e5b806" opacity="0.23"/>
    <ellipse id="Ellipse_112" data-name="Ellipse 112" cx="1.112" cy="1.112" rx="1.112" ry="1.112" transform="translate(200.398 156.538)" fill="#e5b806" opacity="0.23"/>
    <ellipse id="Ellipse_113" data-name="Ellipse 113" cx="1.112" cy="1.112" rx="1.112" ry="1.112" transform="translate(185.314 142.149)" fill="#e5b806" opacity="0.23"/>
    <ellipse id="Ellipse_114" data-name="Ellipse 114" cx="1.112" cy="1.112" rx="1.112" ry="1.112" transform="translate(171.134 167.034)" fill="#e5b806" opacity="0.23"/>
    <ellipse id="Ellipse_115" data-name="Ellipse 115" cx="1.112" cy="1.112" rx="1.112" ry="1.112" transform="translate(240.367 185.107)" fill="#e5b806" opacity="0.23"/>
    <ellipse id="Ellipse_116" data-name="Ellipse 116" cx="1.112" cy="1.112" rx="1.112" ry="1.112" transform="translate(219.374 126.648)" fill="#e5b806" opacity="0.23"/>
    <ellipse id="Ellipse_117" data-name="Ellipse 117" cx="1.112" cy="1.112" rx="1.112" ry="1.112" transform="translate(234.667 150.838)" fill="#e5b806" opacity="0.23"/>
    <ellipse id="Ellipse_118" data-name="Ellipse 118" cx="1.112" cy="1.112" rx="1.112" ry="1.112" transform="translate(170.439 137.561)" fill="#e5b806" opacity="0.23"/>
    <ellipse id="Ellipse_119" data-name="Ellipse 119" cx="1.112" cy="1.112" rx="1.112" ry="1.112" transform="translate(46.432 115.944)" fill="#e5b806"/>
    <ellipse id="Ellipse_120" data-name="Ellipse 120" cx="1.112" cy="1.112" rx="1.112" ry="1.112" transform="translate(49.213 165.296)" fill="#e5b806"/>
    <ellipse id="Ellipse_121" data-name="Ellipse 121" cx="1.112" cy="1.112" rx="1.112" ry="1.112" transform="translate(73.333 177.808)" fill="#e5b806"/>
    <ellipse id="Ellipse_122" data-name="Ellipse 122" cx="1.112" cy="1.112" rx="1.112" ry="1.112" transform="translate(69.093 109.201)" fill="#e5b806"/>
    <ellipse id="Ellipse_123" data-name="Ellipse 123" cx="1.112" cy="1.112" rx="1.112" ry="1.112" transform="translate(86.053 126.44)" fill="#e5b806"/>
    <ellipse id="Ellipse_124" data-name="Ellipse 124" cx="1.112" cy="1.112" rx="1.112" ry="1.112" transform="translate(89.459 147.015)" fill="#e5b806"/>
    <ellipse id="Ellipse_125" data-name="Ellipse 125" cx="1.112" cy="1.112" rx="1.112" ry="1.112" transform="translate(115.734 135.615)" fill="#e5b806"/>
    <ellipse id="Ellipse_126" data-name="Ellipse 126" cx="1.112" cy="1.112" rx="1.112" ry="1.112" transform="translate(71.317 79.52)" fill="#e5b806"/>
    <ellipse id="Ellipse_127" data-name="Ellipse 127" cx="1.112" cy="1.112" rx="1.112" ry="1.112" transform="translate(52.897 138.882)" fill="#e5b806"/>
    <ellipse id="Ellipse_128" data-name="Ellipse 128" cx="1.112" cy="1.112" rx="1.112" ry="1.112" transform="translate(48.309 89.46)" fill="#e5b806"/>
    <ellipse id="Ellipse_129" data-name="Ellipse 129" cx="1.112" cy="1.112" rx="1.112" ry="1.112" transform="translate(105.447 159.596)" fill="#e5b806"/>
    <ellipse id="Ellipse_130" data-name="Ellipse 130" cx="1.112" cy="1.112" rx="1.112" ry="1.112" transform="translate(105.447 109.896)" fill="#e5b806" opacity="0.31"/>
    <ellipse id="Ellipse_131" data-name="Ellipse 131" cx="1.112" cy="1.112" rx="1.112" ry="1.112" transform="translate(62.35 124.563)" fill="#e5b806" opacity="0.31"/>
    <ellipse id="Ellipse_132" data-name="Ellipse 132" cx="1.112" cy="1.112" rx="1.112" ry="1.112" transform="translate(42.401 133.808)" fill="#e5b806" opacity="0.31"/>
    <ellipse id="Ellipse_133" data-name="Ellipse 133" cx="1.112" cy="1.112" rx="1.112" ry="1.112" transform="translate(111.494 125.884)" fill="#e5b806" opacity="0.31"/>
    <ellipse id="Ellipse_134" data-name="Ellipse 134" cx="1.112" cy="1.112" rx="1.112" ry="1.112" transform="translate(93.143 148.961)" fill="#e5b806" opacity="0.31"/>
    <ellipse id="Ellipse_135" data-name="Ellipse 135" cx="1.112" cy="1.112" rx="1.112" ry="1.112" transform="translate(72.429 151.394)" fill="#e5b806" opacity="0.31"/>
    <ellipse id="Ellipse_136" data-name="Ellipse 136" cx="1.112" cy="1.112" rx="1.112" ry="1.112" transform="translate(82.508 178.225)" fill="#e5b806" opacity="0.31"/>
    <ellipse id="Ellipse_137" data-name="Ellipse 137" cx="1.112" cy="1.112" rx="1.112" ry="1.112" transform="translate(140.689 136.519)" fill="#e5b806" opacity="0.31"/>
    <ellipse id="Ellipse_138" data-name="Ellipse 138" cx="1.112" cy="1.112" rx="1.112" ry="1.112" transform="translate(82.23 115.249)" fill="#e5b806" opacity="0.31"/>
    <ellipse id="Ellipse_139" data-name="Ellipse 139" cx="1.112" cy="1.112" rx="1.112" ry="1.112" transform="translate(110.66 119.002)" fill="#e5b806" opacity="0.31"/>
    <ellipse id="Ellipse_140" data-name="Ellipse 140" cx="1.112" cy="1.112" rx="1.112" ry="1.112" transform="translate(59.361 159.874)" fill="#e5b806" opacity="0.31"/>
    <ellipse id="Ellipse_141" data-name="Ellipse 141" cx="3.476" cy="3.476" rx="3.476" ry="3.476" transform="translate(54.982 82.44)" fill="#e5b806" opacity="0.25"/>
    <ellipse id="Ellipse_142" data-name="Ellipse 142" cx="3.476" cy="3.476" rx="3.476" ry="3.476" transform="translate(75.835 54.635)" fill="#e5b806" opacity="0.25"/>
    <ellipse id="Ellipse_143" data-name="Ellipse 143" cx="3.476" cy="3.476" rx="3.476" ry="3.476" transform="translate(54.982 165.852)" fill="#e5b806" opacity="0.25"/>
    <ellipse id="Ellipse_144" data-name="Ellipse 144" cx="3.476" cy="3.476" rx="3.476" ry="3.476" transform="translate(75.835 75.488)" fill="#e5b806" opacity="0.48"/>
    <g id="Group_55" data-name="Group 55" transform="translate(222.433 49.358)" opacity="0.43">
      <g id="Group_54" data-name="Group 54">
        <path id="Path_184" data-name="Path 184" d="M33.07,67.794Q128.3,93.234,123.434,38.46A51.646,51.646,0,0,0,97.784,10.03,58.945,58.945,0,0,0,50.1,26.087a47.128,47.128,0,0,0-9.523,21.757,39.274,39.274,0,0,0,2.572,12.234c1.668,5.769,3.476,11.469,5.422,17.169,1.182,3.476,3.754,17.934,8.55,18.073,18.7.626,14.945-.9,33.365-10.5-.417,0,8.341-4.935,3.615-5.561L52.811,66.195,70.745,95.6l52.9-57.624-2.78-.417a136.1,136.1,0,0,0-32.67,9.384c-13,4.1-26,8.341-38.856,12.859A65.2,65.2,0,0,0,38.561,63.97a9.454,9.454,0,0,0-5.491,3.823Z" transform="translate(-28.065 5.465)" fill="#c44a38" opacity="0.11"/>
        <path id="Path_185" data-name="Path 185" d="M123.184,49.031a25.3,25.3,0,0,0-9.453-23.7,34.755,34.755,0,0,0-44.765-9.8c-22.66,8.2-22.174,14.667-30.307,34.755-1.182,2.85,11.678,32.948,15.779,31.349l37.4-5.839c1.043,0-.834-4.31-.9-4.449A77.576,77.576,0,0,0,79.114,55.425c-.7-.834-11.122-13.9-11.539-8.55L50.337,67.729l16.126,8.828L40.884,49.17l13.9,32.392L121.1,41.384l-83.83,13.9L34.28,57.3a13.9,13.9,0,0,0,9.175,1.182c11.817-.626,23.564-1.529,35.311-2.711C78.767,55.7,123.323,53.41,123.184,49.031Z" transform="translate(-20.864 14.775)" fill="#c44a38" opacity="0.11"/>
        <path id="Path_186" data-name="Path 186" d="M116.178,52.915c8.828-17.308-9.036-39.273-25.51-44A37.049,37.049,0,0,0,55.912,16.7L45.555,23.651c-20.3,20.853,6.951,29.959-4.8,51.785C38.6,79.4,53.618,82.944,51.95,77.244q-11.191-32.6,23.564-23.078,33.226-11.191,21.548,1.39c-2.711,3.406,5.422,2.363,5.63,2.363C105.751,57.433,114.51,56.113,116.178,52.915Z" transform="translate(-0.026 -7.461)" fill="#c44a38" opacity="0.11"/>
        <path id="Path_187" data-name="Path 187" d="M123.354,60.432a20.853,20.853,0,0,0,1.807-15.987,85.986,85.986,0,0,0-7.924-15.014,100.581,100.581,0,0,0-16.891-13.9A107.742,107.742,0,0,0,77.616,13.3a131.234,131.234,0,0,0-21.9,8.619C33.2,36.172,46.406,56.678,37.578,77.531c-2.363,5.491,15.153,9.87,13.9,5.283Q32.851,18.378,114.04,57.1C111.676,61.683,122.311,63,123.354,60.432Z" transform="translate(-2.545 27.285)" fill="#c44a38" opacity="0.11"/>
        <path id="Path_188" data-name="Path 188" d="M32.35,53.134q101.833,44.417,94.256-11.886a37.883,37.883,0,0,0-17.447-20.853c-8.967-9.8-20.436-11.4-34.269-4.657a73.195,73.195,0,0,0-20.853,12.3c-5.144,3.128-9.245,44.209-4.657,45.182,34.269,6.951,0,.417,47.059,1.39.973,0-1.6-5.7-1.738-5.908A206.034,206.034,0,0,0,78.644,45.766a62.977,62.977,0,0,0-10.983-13.9c-1.321-.973-3.823-3.754-3.545,0l1.738,25.163.9-2.919-11.747,13,13.346,5.769L46.947,48.894,56.331,80.73c2.711-.973,67.425-26,69.024-25.093a40.316,40.316,0,0,0-17.725-2.5c-13.9-.487-27.387-.556-41.081-.626C57.165,52.092,41.386,49.659,32.35,53.134Z" transform="translate(-32.35 17.414)" fill="#c44a38" opacity="0.11"/>
        <path id="Path_189" data-name="Path 189" d="M32.78,62.209q97.315,33.5,94.048-18.42a21.687,21.687,0,0,0-8.55-19.115l-17.586-13.9a58.111,58.111,0,0,0-47.823,15.64C46.613,30.3,44.527,83.757,47.933,84.1A55.608,55.608,0,0,0,66.7,85.773l25.163-5c3.754-1.6,4.518-.9,1.668-3.615s-14.667-2.224-19.324-2.5a78.551,78.551,0,0,0-9.87-.348c-4.866,1.946-7.855-.834-8.828-8.341l4.31,5.63-13.9-24.4,8.828,45.112c2.572-1.877,70.206-53.732,72.291-53.384a45.529,45.529,0,0,0-18.49,2.5c-13.9,3.2-27.8,6.951-41.706,10.5-6.325,1.6-12.651,3.336-18.907,5.213A96.686,96.686,0,0,0,32.78,62.209Z" transform="translate(-29.791 9.243)" fill="#c44a38" opacity="0.11"/>
        <path id="Path_190" data-name="Path 190" d="M111.688,50.488a20.853,20.853,0,0,0-6.325-26.275L87.707,13.3a99.2,99.2,0,0,0-12.025,1.182C63.8,15.733,54.828,16.08,46.07,27.9L36.13,47.152a32.044,32.044,0,0,0,8.133,16.891,2.433,2.433,0,0,0,2.572,1.6l24.329.973c2.85,0-11.747-31.975-15.223-25.3V66.2l3.754-13.9-13.9,9.384,18.42-2.5c.765-17.03,2.989-22.313,6.534-15.848,1.529,1.529,1.043,2.989-1.529,4.31L73.8,45.414,67.9,46.665c-2.085.417-.487,1.6,0,2.433,1.043,2.711,13.416,2.155,15.987,2.294C88.332,51.6,109.047,55.7,111.688,50.488Z" transform="translate(-9.855 27.289)" fill="#c44a38" opacity="0.11"/>
        <path id="Path_191" data-name="Path 191" d="M119.246,51.1a26,26,0,0,0-7.924-27.8L92,11.2a30.307,30.307,0,0,0-26.414,2.919c-11.261,4.171-27.8,15.64-27.8,30.376C37.78,56.1,49.11,60.759,49.6,71.116c0,2.572,8.272,5.769,9.94,5.769s5.769-.9,2.85-3.476L53.42,65.416l1.529,2.989L52.238,56.728C64.194,34.971,75.316,29.48,85.673,40.115c2.78,2.363,9.245,9.8,4.8,13.9s10.774,2.155,10.983,2.155C105.692,55.824,117.578,55.824,119.246,51.1Z" transform="translate(-0.036 4.228)" fill="#c44a38" opacity="0.11"/>
        <path id="Path_192" data-name="Path 192" d="M46.315,44.642l71.109,2.989A16.266,16.266,0,0,0,111.933,31.3,44.626,44.626,0,0,0,86.978,13.431a85.984,85.984,0,0,0-23.773,3.2c-19.185,6.117-20.3,16.126-27.8,32.114-1.6,3.545,8.9,8.689,10.357,9.592a30.446,30.446,0,0,0,38.856,9.94c3.476-.417-6.951-27.8-6.951-27.8a40.038,40.038,0,0,0-5.839-13.9c-.7-.7-2.85-4.449-3.267-.834L64.179,63.479l4.935-18.212L45.619,66.12l24.537-5.213L39.294,48.326l18.559,15.64,56.026-11.122c9.036-1.738-21.757-5.839-16.891-5.283-11.052-1.182-22.1-2.224-33.157-3.058a72.152,72.152,0,0,0-17.517.139Z" transform="translate(-15.174 28.061)" fill="#c44a38" opacity="0.11"/>
        <path id="Path_193" data-name="Path 193" d="M32.68,58.212Q131.107,95.818,124.434,40.7a37.6,37.6,0,0,0-17.169-20.853Q93.78,4.62,72.51,15.255A212.217,212.217,0,0,0,51.656,27.767c-6.951,4.171-5.144,51.924-3.962,51.785a137.839,137.839,0,0,1,45.321-1.877c6.534.348-13.9-15.64-12.581-14.6C79.044,61.966,62.5,48.62,63.2,54.528L65.141,71.35,67.5,68.987,54.02,66.693l11.4,11.678L44.566,48.2,54.715,87.129c2.433-1.6,67.981-46.92,69.511-46.433a42.4,42.4,0,0,0-17.934,1.321C92.737,44.38,79.252,47.16,65.767,50.01c-6.186,1.251-12.373,2.572-18.49,4.032a89.948,89.948,0,0,0-14.6,4.171Z" transform="translate(-30.386 12.891)" fill="#c44a38" opacity="0.11"/>
        <path id="Path_194" data-name="Path 194" d="M52.211,47.676q73.125,32.531,65.409-9.94L108.1,24.251c-12.373-13.9-27.8-13.9-44.487-7.577S45.26,27.1,39.629,40.03c-6.951,15.64-4.31,10.913,6.395,29.125,1.738,2.919,13.346,1.182,15.918,1.043l21.27-1.043c4.24,0-17.586-38.231-18.837-36.006L62.5,66.027,65.14,52.472,45.885,66.722H67.295L39.073,49.97,55.2,68.251l59.293-14.945c6.951-1.668-10.566-3.823-11.4-3.823a346.724,346.724,0,0,0-50.882-1.807Z" transform="translate(-11.964 23.15)" fill="#c44a38" opacity="0.11"/>
        <path id="Path_195" data-name="Path 195" d="M122.539,61.74c6.951-17.586-6.951-38.022-23.425-45.182A50.743,50.743,0,0,0,53.862,22.4C31.9,38.8,42.532,56.388,38.222,79.882c-1.112,5.978,13.346,8.063,12.025,4.24q-16.265-30.446,10.288-48.1Q85.142-9.23,113.5,57.569C111.208,62.782,121.5,64.52,122.539,61.74Z" transform="translate(2.233 29.592)" fill="#c44a38" opacity="0.11"/>
      </g>
    </g>
    <circle id="Ellipse_145" data-name="Ellipse 145" cx="1.182" cy="1.182" r="1.182" transform="translate(26.649 117.08) rotate(-36.88)" fill="#e5b806"/>
    <circle id="Ellipse_146" data-name="Ellipse 146" cx="1.182" cy="1.182" r="1.182" transform="translate(29.436 165.176) rotate(-36.88)" fill="#e5b806"/>
    <circle id="Ellipse_147" data-name="Ellipse 147" cx="1.182" cy="1.182" r="1.182" transform="translate(41.484 142.6) rotate(-36.88)" fill="#e5b806"/>
    <circle id="Ellipse_148" data-name="Ellipse 148" cx="1.182" cy="1.182" r="1.182" transform="translate(36.751 87.485) rotate(-36.88)" fill="#e5b806"/>
    <circle id="Ellipse_149" data-name="Ellipse 149" cx="1.182" cy="1.182" r="1.182" transform="translate(100.33 172.394) rotate(-36.88)" fill="#e5b806"/>
    <ellipse id="Ellipse_150" data-name="Ellipse 150" cx="1.182" cy="1.182" rx="1.182" ry="1.182" transform="translate(263.792 50.117)" fill="#e5b806"/>
    <ellipse id="Ellipse_151" data-name="Ellipse 151" cx="1.182" cy="1.182" rx="1.182" ry="1.182" transform="translate(270.534 96.411)" fill="#e5b806"/>
    <ellipse id="Ellipse_152" data-name="Ellipse 152" cx="1.182" cy="1.182" rx="1.182" ry="1.182" transform="translate(292.708 75.767)" fill="#e5b806"/>
    <ellipse id="Ellipse_153" data-name="Ellipse 153" cx="1.182" cy="1.182" rx="1.182" ry="1.182" transform="translate(294.515 20.436)" fill="#e5b806"/>
    <ellipse id="Ellipse_154" data-name="Ellipse 154" cx="1.182" cy="1.182" rx="1.182" ry="1.182" transform="translate(337.681 85.011)" fill="#e5b806"/>
    <ellipse id="Ellipse_155" data-name="Ellipse 155" cx="3.476" cy="3.476" rx="3.476" ry="3.476" transform="translate(27.178 138.048)" fill="#e5b806" opacity="0.25"/>
    <ellipse id="Ellipse_156" data-name="Ellipse 156" cx="3.476" cy="3.476" rx="3.476" ry="3.476" transform="translate(82.786 158.901)" fill="#e5b806" opacity="0.25"/>
    <ellipse id="Ellipse_157" data-name="Ellipse 157" cx="3.476" cy="3.476" rx="3.476" ry="3.476" transform="translate(277.416 75.488)" fill="#e5b806" opacity="0.25"/>
    <ellipse id="Ellipse_158" data-name="Ellipse 158" cx="3.476" cy="3.476" rx="3.476" ry="3.476" transform="translate(291.318 40.733)" fill="#e5b806" opacity="0.25"/>
    <ellipse id="Ellipse_159" data-name="Ellipse 159" cx="1.112" cy="1.112" rx="1.112" ry="1.112" transform="translate(12.372 78.269)" fill="#e5b806"/>
    <ellipse id="Ellipse_160" data-name="Ellipse 160" cx="1.112" cy="1.112" rx="1.112" ry="1.112" transform="translate(48.309 58.667)" fill="#e5b806"/>
    <ellipse id="Ellipse_161" data-name="Ellipse 161" cx="1.112" cy="1.112" rx="1.112" ry="1.112" transform="translate(64.922 71.318)" fill="#e5b806"/>
    <ellipse id="Ellipse_162" data-name="Ellipse 162" cx="1.112" cy="1.112" rx="1.112" ry="1.112" transform="translate(76.252 44.973)" fill="#e5b806"/>
    <ellipse id="Ellipse_163" data-name="Ellipse 163" cx="1.112" cy="1.112" rx="1.112" ry="1.112" transform="translate(29.819 73.612)" fill="#e5b806" opacity="0.31"/>
    <ellipse id="Ellipse_164" data-name="Ellipse 164" cx="1.112" cy="1.112" rx="1.112" ry="1.112" transform="translate(21.756 94.048)" fill="#e5b806" opacity="0.31"/>
    <ellipse id="Ellipse_165" data-name="Ellipse 165" cx="1.182" cy="1.182" rx="1.182" ry="1.182" transform="translate(26.685 102.104) rotate(-80.28)" fill="#e5b806"/>
    <ellipse id="Ellipse_166" data-name="Ellipse 166" cx="1.112" cy="1.112" rx="1.112" ry="1.112" transform="translate(275.4 151.394)" fill="#e5b806"/>
    <ellipse id="Ellipse_167" data-name="Ellipse 167" cx="1.112" cy="1.112" rx="1.112" ry="1.112" transform="translate(311.406 131.792)" fill="#e5b806"/>
    <ellipse id="Ellipse_168" data-name="Ellipse 168" cx="1.112" cy="1.112" rx="1.112" ry="1.112" transform="translate(327.95 158.276)" fill="#e5b806"/>
    <ellipse id="Ellipse_169" data-name="Ellipse 169" cx="1.112" cy="1.112" rx="1.112" ry="1.112" transform="translate(339.28 118.098)" fill="#e5b806"/>
    <ellipse id="Ellipse_170" data-name="Ellipse 170" cx="1.112" cy="1.112" rx="1.112" ry="1.112" transform="translate(292.847 146.737)" fill="#e5b806" opacity="0.31"/>
    <ellipse id="Ellipse_171" data-name="Ellipse 171" cx="1.112" cy="1.112" rx="1.112" ry="1.112" transform="translate(284.784 167.173)" fill="#e5b806" opacity="0.31"/>
    <ellipse id="Ellipse_172" data-name="Ellipse 172" cx="1.182" cy="1.182" rx="1.182" ry="1.182" transform="translate(289.765 175.295) rotate(-80.28)" fill="#e5b806"/>
    <ellipse id="Ellipse_173" data-name="Ellipse 173" cx="3.476" cy="3.476" rx="3.476" ry="3.476" transform="translate(129.636 150.421)" fill="#e5b806" opacity="0.25"/>
    <ellipse id="Ellipse_174" data-name="Ellipse 174" cx="3.476" cy="3.476" rx="3.476" ry="3.476" transform="translate(129.636 53.106)" fill="#e5b806" opacity="0.25"/>
    <ellipse id="Ellipse_175" data-name="Ellipse 175" cx="3.476" cy="3.476" rx="3.476" ry="3.476" transform="translate(101.832 32.253)" fill="#e5b806" opacity="0.25"/>
    <ellipse id="Ellipse_176" data-name="Ellipse 176" cx="3.476" cy="3.476" rx="3.476" ry="3.476" transform="translate(164.392 150.421)" fill="#e5b806" opacity="0.25"/>
    <ellipse id="Ellipse_177" data-name="Ellipse 177" cx="3.476" cy="3.476" rx="3.476" ry="3.476" transform="translate(122.685 94.812)" fill="#e5b806" opacity="0.25"/>
    <ellipse id="Ellipse_178" data-name="Ellipse 178" cx="3.476" cy="3.476" rx="3.476" ry="3.476" transform="translate(199.147 185.176)" fill="#e5b806" opacity="0.25"/>
    <ellipse id="Ellipse_179" data-name="Ellipse 179" cx="3.476" cy="3.476" rx="3.476" ry="3.476" transform="translate(338.168 46.155)" fill="#e5b806" opacity="0.25"/>
  </g>
</svg>
