<svg id="knap" xmlns="http://www.w3.org/2000/svg" width="304.38" height="115.197" viewBox="0 0 304.38 115.197">
  <g id="Group_30" data-name="Group 30" transform="translate(0 10.665)" opacity="0.43">
    <g id="Group_29" data-name="Group 29">
      <path id="Path_4" data-name="Path 4" d="M.81,33.663q37.729,12.374,35.827-14.3A23.8,23.8,0,0,0,26.5,5.567C19.528,4.6,12.576,7.533,7.562,13.546a26.222,26.222,0,0,0-3.8,10.549,22.91,22.91,0,0,0,1.047,5.984c.661,2.806,1.378,5.579,2.15,8.351.469,1.657,1.488,8.723,3.362,8.791,7.441.27,5.925-.44,13.256-5.105-.193,0,3.28-2.4,1.406-2.7L8.637,33.054l7.11,14.369L36.692,19.361H35.617a46.613,46.613,0,0,0-13.008,4.463c-5.154,1.86-10.252,3.922-15.406,6.12A23.654,23.654,0,0,0,2.96,31.939,3.84,3.84,0,0,0,.81,33.663Z" transform="translate(1.174 1.856)" fill="#fcbf2f" opacity="0.11"/>
      <path id="Path_5" data-name="Path 5" d="M37.276,25.4A13.68,13.68,0,0,0,33.528,13.84c-4.1-6.826-11.695-8.865-17.748-4.767-8.984,3.99-8.791,7.134-12.016,16.9C3.3,27.33,8.394,42,10.02,41.226l14.8-2.84c.441,0-.3-2.13-.331-2.2a37.049,37.049,0,0,0-4.685-7.81c-.276-.406-4.382-6.931-4.547-4.159L8.421,34.363l6.394,4.294L4.756,25.369,10.13,41.125,36.394,21.549,3.323,28.311,2,29.359a4.618,4.618,0,0,0,3.8.609c4.658-.338,9.343-.744,14-1.319C19.665,28.649,37.358,27.533,37.276,25.4Z" transform="translate(3.264 5.62)" fill="#fcbf2f" opacity="0.11"/>
      <path id="Path_6" data-name="Path 6" d="M36.586,25.341c3.5-8.385-3.555-19.069-10.114-21.4-4.824-1.691-10.017-.251-13.78,3.821L8.586,11.141C.566,21.284,11.342,25.679,6.684,36.3c-.854,1.927,5.126,3.685,4.465.913q-4.3-15.958,9.48-11.326,13.146-5.443,8.543.642c-1.075,1.657,2.15,1.183,2.2,1.15C32.452,27.5,35.952,26.9,36.586,25.341Z" transform="translate(9.438 -3.244)" fill="#fcbf2f" opacity="0.11"/>
      <path id="Path_7" data-name="Path 7" d="M39.229,32.006a12.712,12.712,0,0,0,.689-7.81A45.275,45.275,0,0,0,36.8,16.927a43.1,43.1,0,0,0-6.724-6.762,33.493,33.493,0,0,0-8.984-1.082,45.9,45.9,0,0,0-8.736,4.159C3.4,20,8.666,30.147,5.166,40.289c-.937,2.671,5.98,4.8,5.512,2.57q-7.441-31.342,24.8-12.51C34.571,32.479,38.788,33.257,39.229,32.006Z" transform="translate(8.669 10.647)" fill="#fcbf2f" opacity="0.11"/>
      <path id="Path_8" data-name="Path 8" d="M.09,27.58q40.429,21.706,37.37-5.815a18,18,0,0,0-6.917-10.143Q25.169,4.589,16.956,9.356a29.725,29.725,0,0,0-8.268,5.984C6.649,16.9,5,36.877,6.842,37.351c13.559,3.381,0,.2,18.63.642.413,0-.634-2.772-.661-2.84A109.511,109.511,0,0,0,18.444,24a31.572,31.572,0,0,0-4.354-6.762c-.551-.473-1.516-1.826-1.433,0l.8,12.408.386-1.42L9.157,34.545l5.319,2.772-8.626-12L9.6,40.833c1.075-.473,26.7-12.645,27.366-12.239a13.742,13.742,0,0,0-7.055-1.183c-5.512-.237-10.858-.3-16.287-.3C9.9,27.073,3.673,25.889.09,27.58Z" transform="translate(-0.09 6.722)" fill="#fcbf2f" opacity="0.11"/>
      <path id="Path_9" data-name="Path 9" d="M.52,31.326q38.583,16.3,37.288-8.993a11.71,11.71,0,0,0-3.39-9.3l-7-6.762C20.476,5.179,13.5,8,8.457,13.948,5.977,15.807,5.15,41.807,6.528,42.01a18.525,18.525,0,0,0,7.413.811l9.949-2.434c1.516-.778,1.819-.44.689-1.758s-5.843-1.082-7.689-1.251a30.1,30.1,0,0,0-3.913-.169c-1.929.98-3.087-.372-3.5-4.023l1.736,2.739L5.591,24.057,9.118,46c.992-.913,27.835-26.135,28.551-25.966a15.3,15.3,0,0,0-7.3,1.183c-5.512,1.589-11.024,3.381-16.536,5.105-2.535.778-5.016,1.623-7.524,2.536A31.349,31.349,0,0,0,.52,31.326Z" transform="translate(0.665 3.416)" fill="#fcbf2f" opacity="0.11"/>
      <path id="Path_10" data-name="Path 10" d="M33.882,27.168c1.853-4.439.8-9.871-2.48-12.814L24.319,9.08a33.131,33.131,0,0,0-4.8.575c-4.685.575-8.268.778-11.713,6.491L3.87,25.714a16.969,16.969,0,0,0,3.114,8.013,1.03,1.03,0,0,0,1.047.811l9.646.473c1.13,0-4.658-15.552-6.063-12.307v12.1l1.516-6.762L7.811,32.476l7.276-1.251c.331-8.25,1.213-10.819,2.756-7.709.606.744.386,1.454-.606,2.13l1.819-1.082-2.343.575c-.854.2-.193.811,0,1.183.441,1.352,5.346,1.048,6.366,1.15C24.567,27.709,32.78,29.67,33.882,27.168Z" transform="translate(6.547 10.65)" fill="#fcbf2f" opacity="0.11"/>
      <path id="Path_11" data-name="Path 11" d="M37.819,25.477A14.574,14.574,0,0,0,34.65,11.953L27.016,6.07A10.1,10.1,0,0,0,16.544,7.49C12.079,9.519,5.52,15.1,5.52,22.265c0,5.612,4.492,7.911,4.685,12.949,0,1.251,3.28,2.772,3.913,2.772s2.315-.406,1.157-1.69L11.8,32.442,12.41,33.9l-1.075-5.714c4.74-10.549,9.287-13.253,13.228-8.047,1.13,1.116,3.693,4.767,1.929,6.762s4.244,1.082,4.354,1.082C32.418,27.776,37.158,27.776,37.819,25.477Z" transform="translate(9.445 1.421)" fill="#fcbf2f" opacity="0.11"/>
      <path id="Path_12" data-name="Path 12" d="M7.369,24.285l28.193,1.488a9.11,9.11,0,0,0-2.2-7.844A18.254,18.254,0,0,0,23.463,9.24a29.11,29.11,0,0,0-9.4,1.589C6.432,13.8,5.991,18.673,3.042,26.449c-.634,1.724,3.528,4.192,4.079,4.666,3.439,6.112,10.026,8.175,15.433,4.835,1.378-.237-2.756-13.524-2.756-13.524a22.979,22.979,0,0,0-2.315-6.762c-.276-.3-1.157-2.164-1.323-.372L14.341,33.617l1.984-8.858L7.01,34.9l9.811-2.434L4.475,26.348l7.386,7.573,22.185-5.207c3.61-.879-8.626-2.874-6.669-2.57q-6.559-.913-13.146-1.521a24.6,24.6,0,0,0-6.862-.338Z" transform="translate(4.978 11.031)" fill="#fcbf2f" opacity="0.11"/>
      <path id="Path_13" data-name="Path 13" d="M.41,29.641q39.079,18.291,36.406-8.52a18.081,18.081,0,0,0-6.807-10.143q-5.346-7.337-13.78-2.2a79,79,0,0,0-8.268,6.052C5.205,16.9,5.894,40.089,6.39,40.021a44.753,44.753,0,0,1,17.969-.879c2.591,0-5.512-7.607-4.988-7.1-.551-.541-7.11-7.032-6.862-4.159l.772,8.182,1.047-1.217L8.953,33.7,13.5,39.412,5.123,24.705l4,18.933c.965-.811,26.98-22.822,27.559-22.619a14.359,14.359,0,0,0-7.138.676c-5.346,1.15-10.693,2.5-16.039,3.888-2.453.575-4.906,1.251-7.331,1.961a31.771,31.771,0,0,0-5.76,2.1Z" transform="translate(0.472 4.897)" fill="#fcbf2f" opacity="0.11"/>
      <path id="Path_14" data-name="Path 14" d="M10.033,25.462Q38.97,41.251,35.966,20.627L32.19,14.034c-4.906-6.762-11.024-6.762-17.638-3.651s-7.276,5.071-9.508,11.36c-2.756,7.573-1.709,5.308,2.508,14.132.689,1.454,5.319.609,6.339.541l8.433-.541c1.654,0-6.972-18.6-7.469-17.513l-.772,16.026,1.1-6.762L7.607,34.692H16.1L4.852,26.442l6.394,8.892,23.48-7.269c2.756-.845-4.189-1.86-4.492-1.893a115.384,115.384,0,0,0-20.2-.71Z" transform="translate(5.924 8.975)" fill="#fcbf2f" opacity="0.11"/>
      <path id="Path_15" data-name="Path 15" d="M39.244,32.856C42,24.268,36.489,14.328,29.957,10.879a16.955,16.955,0,0,0-17.941,2.806C3.418,21.7,7.607,30.219,5.925,41.714c-.441,2.908,5.291,3.956,4.768,2.062Q4.217,29.035,14.772,20.414,24.528-1.63,35.717,31C34.863,33.363,38.941,34.073,39.244,32.856Z" transform="translate(10.114 11.555)" fill="#fcbf2f" opacity="0.11"/>
    </g>
  </g>
  <g id="Group_31" data-name="Group 31" transform="translate(14 0.708)">
    <path id="Path_16" data-name="Path 16" d="M69.523,18.035,70.557,4.071,8.18,44.914q38.8,7.506,75.817,16.9c6.378-1.727,11.363-4.47,14.13-7.776,5.283-3.629,8.235-7.95,8.478-12.408-.748-6.882-3.726-13.661-8.822-20.083l-73.06,5.41c17.1,3.92,31.859,9.927,42.871,17.446,24.278,10.462,53.682,17.651,85.329,20.861h2.206q26.36-10.393,49.97-22.314c-5.55-7.294-15.627-13.55-28.811-17.885-3.86-1.758-24.33,4.294-26.536,4.8s-24.4,4.632-24.4,7.2a41.961,41.961,0,0,0,6.892,19.711c1.241,1.69,16.887,2.367,16.611,2.333,23.365,1.86,54.381,6.018,80.366,4.632,13.4-1.017,26.586-2.6,39.425-4.733-1.007-1.3-3.084-2.331-5.721-2.84-8.271-2.637-16.611-5.173-25.158-7.607s-17.024-4.9-25.778-7.168a18.224,18.224,0,0,0-7.788-1.116,384.944,384.944,0,0,1-70.027,16.195l61.274,4.733c-9.545-6.129-15.288-13.477-16.542-21.165l-46.317,5.274,70.3-1.893-66.719-14c-17.009,9.187-41.143,14.419-66.443,14.4l69.407,5.883c-11.319-10.2-25.214-19.665-41.355-28.163-1.585-.845-6-.473-8-.44-12.475.372-25.02,1.589-37.426,2.536-7.818.365-15.548,1.089-23.09,2.164-.758,0-7.857,1.183-2.412,1.589l28.879,2.231L38.576,27.366l40.045,31.24L49.6,28.178H42.711L77.1,59.857c2.55-4.531,8.271-7.878,10.959-12.374A22.885,22.885,0,0,0,90.89,32c-.551-5.443-.965-10.954-2.619-16.4S84,4.511,72.556,3.26a20.105,20.105,0,0,0-8.409,3.381q-13.3,7.573-26.122,15.383T12.8,37.881c-2.716,1.269-4.549,2.925-5.238,4.733C9.67,47.681,9,52.93,5.63,57.829A20.016,20.016,0,0,0,13.9,54.448C22.654,49.343,31.27,44.305,39.61,38.9S56.427,28.178,64.491,22.667c2.621-1.249,4.381-2.868,5.031-4.632Z" transform="translate(-4.362 6.75)" fill="#fcbf2f" opacity="0.11"/>
    <path id="Path_17" data-name="Path 17" d="M66.393,19.8,73.912,5.233,8.221,33.126Q42.18,48.689,79.655,62.2q9.843,5.477,17.91-2.265c20.029-11.5,10.39-24.985,0-37.191l-60.77,1.589C66.12,39.373,102.523,50.583,142.749,56.962L96.4,42.423l53.456,22.213a13.531,13.531,0,0,0,6.836,2.062q26.09-10.351,49.491-22.213l-1.162-.98c-16.474-12.577-8.34-8.283-30.829-17.108-4.307-1.724-18.73,1.724-22.353,2.3-1.3.237-21.328,2.6-20.507,4.733,1.3,4.632,1.572,10.954,9.16,14.538a154.836,154.836,0,0,0,26.113,6.762,341.625,341.625,0,0,0,44.98,8.486c19.96,1.589,40.126-.845,59.471-2.874-.709-1.415-2.53-2.632-5.058-3.381q-11.484-4.869-23.447-9.467c-2.393-.947-25.839-12-31.718-10.718A373.851,373.851,0,0,1,141.518,46.92L194.7,59.159,177.543,40.124H137.28l66.581,4.328-62.753-16.9A220.147,220.147,0,0,1,106.929,40.53l49.218,25.053c-11.6-16.594-31.691-31.421-58.309-43.04a18.543,18.543,0,0,0-6.357-.913q-16.04-.254-32.06.406a162.613,162.613,0,0,0-19.961.811c-.615,0-6.836.778-2.324,1.42L63.18,27.953,49.509,25.688l21.123,6.525L58.6,28.02l.82,1.589,5.742,2.6c-6.836-4.125-4.785-4.125-14.492-4.7L79.655,62.2l2.393-4.53L88.883,52.3c4.086-5.4,4.987-11.262,2.6-16.9-1.436-4.936-2.871-9.906-4.238-14.876A15.765,15.765,0,0,0,83.756,12.3c-.248-3.078-4.013-5.818-9.707-7.066C70.563,3.677,39.87,18.08,39.87,18.216Q26.814,23.693,14.236,29.44c-2.658.871-4.617,2.175-5.537,3.685a24.393,24.393,0,0,1-2.119,16.7,17.289,17.289,0,0,0,7.793-2.434q12.3-5.68,24.2-11.664T61.95,23.659c2.384-.973,3.964-2.344,4.443-3.854Z" transform="translate(-2.694 17.702)" fill="#fcbf2f" opacity="0.11"/>
    <path id="Path_18" data-name="Path 18" d="M21.912,14.5l.276-13.118-5.154,11.6L21.5,4.359,15.215,14.671l2.094-2.062-1.571.744,9.2,6.762a131.7,131.7,0,0,1,3.969,16.127,61.023,61.023,0,0,1,1.709,10.785,41.157,41.157,0,0,1-2.508,22.957c-1.488,5.207-2.287,4.869,0,9.3.386.71.854.98,1.461.44,5.126-4.429,6.256-4.531,8.681-12.814C42,54.16,37.566,42.226,33.955,30.46l-4.106,6.931a50.427,50.427,0,0,1,17.776,8.588c6.888,8.407,10.587,19.972,10.2,31.883,0,.811,1.213,1.048,1.6.575A232.77,232.77,0,0,0,80.723,50a1.7,1.7,0,0,0,.248-1.623c-6.256-13.118-3-7.776-11.8-18.629-.358-.473-1.571,0-1.516.71.579,9.3,0,23.16,5.016,31.578,1.543,2.637,16.4,8.182,9.095,5.579a69.154,69.154,0,0,0,25.74,2.671c1.846,0,.5-3.381-.882-3.381a81.092,81.092,0,0,1-20.78-1.758q-7.937,0-9.784-11.292C71.088,48.837,68.83,40.814,70.223,33.1l-1.516.744L77.775,48.92l.248-1.623A252.176,252.176,0,0,1,58.29,76.238l1.626.575a106.615,106.615,0,0,0-3.362-25.662,24.072,24.072,0,0,0-6.614-7.675A114.413,114.413,0,0,0,33.652,29.953C32.3,28.9,29.077,35.7,29.518,36.715q10.169,18.933-1.406,41.011h1.846c-2.563-5.038,2.067-10.143,3.528-14,3.307-8.791.909-23.667-.413-32.593L31.365,20.587a55.274,55.274,0,0,0-3.748-16.9C25.274.132,25-.206,21.361.775c-1.3.338-3.941,6.762-4.217,7.2a22.9,22.9,0,0,0-3.28,7.945L13.2,27.755c-.165,2.975,3.61-3.144,3.224-2.536C17.971,22.954,21.857,17.849,21.912,14.5Z" transform="translate(166.777 -0.299)" fill="#fcbf2f" opacity="0.11"/>
    <path id="Path_19" data-name="Path 19" d="M21.5,18.505,19.208,7.618,16.452,9.545a11.44,11.44,0,0,1,5.595,7.878A170.417,170.417,0,0,1,26.7,46.2a88.329,88.329,0,0,1-.992,22.078,33.814,33.814,0,0,0-4.161,9.095,10.671,10.671,0,0,0,.634,5.511l2.15,2.671a.792.792,0,0,0,.992.473C31.058,80.512,32.6,79.971,35,70.437c3.087-12.205-.689-22.551-4.74-33.81L28,39.028a58.942,58.942,0,0,1,22.929,21.1l-1.3-2.5a99.963,99.963,0,0,1,3.032,23.126c0,.98,1.846,4.8,2.894,3.584A224.225,224.225,0,0,0,77.606,57.014a1.283,1.283,0,0,0,.276-1.15,37.667,37.667,0,0,0-11.409-19.1c-.524-.642-1.736.169-1.736,1.082.248,9.7-.661,22.517,4.382,31.037,2.122,3.584,4.63,4.463,9.095,5.951a59.738,59.738,0,0,0,25.051,1.589c2.287-.2-.992-6.762-2.26-6.762a101.686,101.686,0,0,1-16.039.372,32.225,32.225,0,0,1-15.433-4.8L71.1,68.07a63.659,63.659,0,0,1-4.354-30.733l-1.736,1.082q11.465,6.052,2.756,17.547C65.73,66.026,60.38,74.6,53,79.633l3.032,3.821c-.579-8.148-.469-18.223-3.969-25.56C47.181,47.75,37.7,41.428,29.653,35.849c-.8-.541-2.563,1.454-2.26,2.434,5.512,17.277,6.724,28.062-4.6,40.572H24.2L23.2,77.03l.634,5.511c1.6-4.26,3.693-7,5.512-10.954,4-8.52,2.012-24.512.717-33.472L28.22,26.653a44.789,44.789,0,0,0-4.409-16.9,7.741,7.741,0,0,0-4.6-4.4c-1.1-.3-2.756,1.589-3.362,2.637-2.122,3.787,1.323,6.491,3.2,11.563C19.677,21.345,21.826,20.128,21.5,18.505Z" transform="translate(170.252 26.808)" fill="#fcbf2f" opacity="0.11"/>
    <path id="Path_20" data-name="Path 20" d="M67.143,24.629,80.659,11.578,7.4,41.239a508.98,508.98,0,0,0,80.423,37.5c6.63-2.9,11.566-7.084,14.057-11.907,4.923-5.227,7.384-11.221,7.1-17.288A52.751,52.751,0,0,0,97.757,25.476L28.351,22.3A94.061,94.061,0,0,1,56.059,33.951L54.5,32.892c3.068,4.348,8.44,7.9,15.206,10.043Q105.8,55.646,142.429,67.765L90.391,44.587,155.337,80.52l2.365.551Q183.4,67.619,206.767,52.553L205.551,51.2c-15.679-15.763-7.84-10.466-30.48-21.7-3.447-1.695-51.092.551-50.551,1.822,1.234,6.121,6.536,11.631,14.6,15.17,12.435,6.271,25.546,12.034,38.724,17.627a121.028,121.028,0,0,0,33.791,10.127c19.937,2.839,40.549,0,60.08-2.2a9.452,9.452,0,0,0-5.136-4.873q-12.5-7.754-25.073-15.212T216.3,37.256a16.187,16.187,0,0,0-7.975-3.051q-18.2,4.07-37.1,6.7A212,212,0,0,1,133.441,42.6l61.162,26.4C182.124,57.6,175.649,44.041,176.085,30.222L125.669,32l78.26,20.3L136.347,24.332a200.128,200.128,0,0,1-34.94,16.61l55.823,38.433C144.972,58.537,124.57,39.961,97.893,25.349a18.507,18.507,0,0,0-7.3-1.653q-18.073-1.758-36.359-2.373a184.367,184.367,0,0,0-22.708-.72c-.338,0-8.448.466-3.041,1.568L86.877,34.29,40.11,22.637,82.146,73.486,51.328,25.307H44.57L81.2,76.155l2.365-5.636,6.758-6.865a26.188,26.188,0,0,0,2.771-20.848c-1.284-6.059-2.568-12.119-4.325-18.093a24.751,24.751,0,0,0-4.258-10c-.452-3.784-4.309-7.074-9.935-8.475C70.725,4.29,39.434,22.976,38.961,23.188q-13.516,7.2-26.425,14.661a10.356,10.356,0,0,0-5.812,4.788A31.866,31.866,0,0,1,5.17,63.824a15.959,15.959,0,0,0,7.7-3.051q12.773-7.627,24.938-15.382c8.245-5.17,16.355-10.382,24.262-15.763a9.591,9.591,0,0,0,5.069-5Z" transform="translate(-5.17 13.503)" fill="#fcbf2f" opacity="0.11"/>
    <path id="Path_21" data-name="Path 21" d="M71.808,18.98l.953-13.93L7.943,44.236Q48.52,52.12,87.127,62.223c6.224-1.957,11-4.863,13.617-8.283,5.088-3.8,7.854-8.251,7.966-12.814-.991-6.738-4.116-13.356-9.26-19.61L23.195,24.153l17.838,4.869-1.974-.642A115.5,115.5,0,0,1,65.339,41.092c21.047,9.659,48.619,15.051,77.277,15.113L89.374,42.681l60.392,20.725a16.717,16.717,0,0,0,7.489,1.927Q183.3,54.777,206.889,42.85C201.268,35.535,191.142,29.288,177.953,25c-4.494-1.961-24.919,2.4-28.392,2.908-1.294.2-27.234,3.009-26.826,5.342.681,4.936-.34,11.935,5.719,16.3,4.562,3.381,18.043,3.956,25.26,5.071,21.719,3.381,44.256,7.979,67.064,7.945a401.509,401.509,0,0,0,49.634-4.091c-.989-1.463-3.09-2.676-5.855-3.381-8.511-3.212-17.226-6.289-26.077-9.3s-17.634-6.018-26.621-8.892a20.043,20.043,0,0,0-8.17-1.589A436.117,436.117,0,0,1,130.565,49.1l65.5,10.38C186.821,53.659,181.3,46.595,180.2,39.2l-50.383,1.657,74.894,2.3-70.06-16.9A233.82,233.82,0,0,1,98.633,39.773L156.71,64.522C148.2,53.877,136.747,43.874,122.667,34.8a115.365,115.365,0,0,0-23.013-13.22,20.255,20.255,0,0,0-8.1-.744c-10.077,0-20.426.406-30.23.778s-20.426.744-30.094,1.319a17.974,17.974,0,0,0-7.83,1.285L85.084,61.412,49.067,25.37l-6.809.27L80.523,60.566l2.383-4.125,6.809-5.105c4.072-5.061,5.591-10.539,4.426-15.958a92.553,92.553,0,0,0-2.383-15.012,18.56,18.56,0,0,0-3.4-8.419c0-3.909-5.815-7.218-13.617-7.742-4.153-1.319-35.4,17.953-35.609,18.054C30,27.331,21.22,32.268,12.709,37.474c-2.772,1.218-4.7,2.839-5.515,4.632,2.06,5.013,1.378,10.208-1.974,15.045a19.921,19.921,0,0,0,8.511-3.381q13.617-7.3,26.621-14.876c8.783-5,17.43-10.143,25.8-15.248,2.865-1.2,4.851-2.844,5.651-4.666Z" transform="translate(-5.082 8.847)" fill="#fcbf2f" opacity="0.11"/>
    <path id="Path_22" data-name="Path 22" d="M40.233,20.851l7.37-14.2L16.5,17.267c5.248-.2,10.523-.2,15.771,0l-9.433-.676L50.772,41.61l-.516,4.023a46.237,46.237,0,0,0,2.064,11.7A51.128,51.128,0,0,0,54.6,67.305c1.253,3.212,1.7,3.584,8.549,6.593l1.474.575c11.862-2.721,20.61-7.645,24.025-13.524a14.4,14.4,0,0,0,3.39-10.143C91.232,43,82.462,37.282,74.576,30.723L56,37.485c31.512,3.242,58.71,12.307,75.172,25.053L112.457,51.821l24.32,19.61c.543.807,2.076,1.391,3.906,1.488a531,531,0,0,0,51.588-20.962l.074-.879c-7.057-7.2-19.54-12.984-35.154-16.3-3.1-.947-9.728,6.762-7.738,7.742L160.8,48.1l12.013,8.081c8.487,5.38,20.258,9.486,33.827,11.8,18.94,2.367,37.512,1.217,56.673,0,2.653-.169-14.74-9.061-14.74-8.723-2.358-1.15-13.045-7.675-18.424-7a209.688,209.688,0,0,1-22.92,2.333q-38.323.27-49.6-19.272L149.9,43.1l8.991.642-2.432-.845c-9.185,5.142-20.942,9.19-34.269,11.8l15.7,12.848c-4.844-8.51-13.955-16.382-26.6-22.991A171.074,171.074,0,0,0,74.429,30.791C69.712,29.337,52.32,36.268,54.6,37.147c12.16,2.5,14.74,6.762,8.77,12.949-3.853.461-7.931-.194-10.318-1.657l5.9,22.585c.859-2.975,3.4-5.8,7.37-8.182a16.8,16.8,0,0,0,4.643-3.381c5.9-7.168,2.8-15.722-1.327-22.788a60.359,60.359,0,0,1-6.117-12.645A40.351,40.351,0,0,0,54.9,9.153c-2.867-2.112-7.78-3.459-13.192-3.618C36.4,5.3,26.968,11.08,23.578,12.6s-10.023,3.381-9.212,5.781c1.654,4.545.663,9.211-2.874,13.524-.737,2.806,10.023-1.927,9.581-1.758,4.569-1.893,8.991-3.82,13.192-5.849a17.692,17.692,0,0,0,5.969-3.449Z" transform="translate(5.866 27.302)" fill="#fcbf2f" opacity="0.11"/>
    <path id="Path_23" data-name="Path 23" d="M23.372,16.651,23.592,3.6,21.8,7.623l2.067-3.618L16.207,15.264l2.756-2.941-2.949,2.6c8.268,1.014,11.465,18.156,13.063,25.526A55.968,55.968,0,0,1,30.9,55.6a17.311,17.311,0,0,1-2.067,11.732c-1.461,5.883-1.461,7.4,1.654,12.1a.747.747,0,0,0,.937,0,33.18,33.18,0,0,0,4.988-4.294,29.609,29.609,0,0,0,4.685-13.794c.965-6.965.965-4.226-.3-11.631-1.6-9.534-.854-5.646-4.933-17.615l-4.437,7.945a29.589,29.589,0,0,1,12.264,3.584,28.687,28.687,0,0,1,11.933,8.554l-2.094-2.806A149.123,149.123,0,0,1,58.207,76.9c.165,1.352,2.15,2.367,2.921,1.454A237.084,237.084,0,0,0,82.266,51.475a1.368,1.368,0,0,0,.193-1.657c-6.669-13.524-3.252-8.25-11.878-18.764-.882-1.082-1.571.609-1.516,1.42.468,8.52-.331,23.667,5.512,30.429,3.858,4.564,11.768,6.762,16.784,7.607a76.185,76.185,0,0,0,16.536.406c2.756,0-1.158-4.6-2.425-4.632a43.705,43.705,0,0,1-31.39-7.3l2.26,3.077A59.431,59.431,0,0,1,71.518,34.6l-1.543.642L58.4,75.818l2.949,1.454c-.717-7.878-.744-20.692-4.74-27.454C51.73,41.6,42.443,36.294,35.47,31.527c-1.406-.947-5.346,6.491-4.85,7.742q11.85,24.242-1.571,35.669l1.791.406-1.626-3.381.661,3.82,4.713-11.563a10.09,10.09,0,0,0,.882-5.781,87.247,87.247,0,0,0-1.681-25.932c-1.1-6.289-1.736-12.577-2.756-18.866-.772-4.733-2.425-10.954-6.78-11.833-1.791-.372-3.5,3.381-4.492,4.7-1.6,2.3-4.906,5.646-5.291,8.824a87.024,87.024,0,0,0-.854,13.524c0,2.874,3.665-2.434,3.417-2.13,1.543-2.062,3-4.159,4.437-6.322a11.536,11.536,0,0,0,1.9-3.753Z" transform="translate(167.494 3.232)" fill="#fcbf2f" opacity="0.11"/>
    <path id="Path_24" data-name="Path 24" d="M53.953,20.962l25.49,24.546-36.094-21.4L62.8,41.383,47.7,26.811C51.793,39.88,58.858,52.692,68.769,65.016c.227.859,1.2,1.632,2.668,2.13L78.46,70.02c8.086-1.98,14.182-5.439,16.923-9.6,5.251-4.814,7.679-10.226,7.022-15.654-2.766-6.7-8.126-13.088-15.8-18.832L46.369,28.671c10.983,1.829,20.852,4.943,28.721,9.061,16.362,8.926,44.871,16.161,61.444,21.773L99.877,43.412l44.169,24.343a9.865,9.865,0,0,0,5.758,2.333q26.226-10.3,49.717-22.078l-.772-.947c-6.978-7.41-19.163-13.4-34.408-16.9-4.073-1.352-26.684,4.226-24.648,5.849a84.968,84.968,0,0,0,13.061,8.486l35.462,16.161A50.283,50.283,0,0,0,200.364,63.7c21.839,4.666,45.082,2.941,68.185,1.251-.257-1.344-1.686-2.573-3.932-3.381-6.46-3.381-13.061-6.762-19.943-10.143-1.966-.98-21.7-12.712-27.6-11.766a248.836,248.836,0,0,1-56.177,3.99L191.305,59.37,164.34,30.192l-23.454,6.255,56.528,11.766L145.24,31.105a205.553,205.553,0,0,1-33.355,11.5L141.729,61.94c-39.113-30.429-20.294-22.01-56.177-36.65a53.856,53.856,0,0,0-10.182,0c-6.46.237-12.851.609-19.311,1.014,2.458-.169-16.01,1.251-9.55,2.333l27.316,7.742L65.4,32.559a23.228,23.228,0,0,1-10.463-1.048L72.561,65.963c3.722-7.235,13.272-10.988,12.78-19.2a21.985,21.985,0,0,0-2.036-7.945c-2.036-4.564-5.547-8.96-7.865-13.524,0-4.1-1.668-8.166-4.911-11.963-.575-2.887-4.412-5.386-9.976-6.5-3.792-1.555-25.631,7.235-26.895,7.641C30.85,15.485,9.292,21.233,9.924,24.242A22.5,22.5,0,0,1,8.73,39.625a11.627,11.627,0,0,0,6.109-1.217c6.25-2.3,12.289-4.733,18.187-7.235C37.1,29.685,53.812,24.411,53.953,20.962Z" transform="translate(1.081 29.963)" fill="#fcbf2f" opacity="0.11"/>
    <path id="Path_25" data-name="Path 25" d="M68.209,20,69.229,6.139,7.445,41.978Q47.319,52.121,86.512,62.8c6.472-2.146,11.367-5.278,13.949-8.926,5-3.958,7.595-8.547,7.485-13.22-1.166-6.64-4.594-13.134-10.139-19.2H26.089L41.263,25.58l-1.837-.744,15.31,6.39-1.7-.811c4.219,2.57,8.574,5.038,13.064,7.472l75.665,17.48-52.6-16.026,60.219,23.667a16.616,16.616,0,0,0,7.485,2.3l25.789-11.225c24.224-4.328,29.871-9.906,17.079-16.634-9.526-7.911-5.852-5.241-23.135-12.442-5.239-2.164-53.891,2.3-53.414,4.328.953,4.531,1.021,9.636,7.485,13.253a119.418,119.418,0,0,0,15.31,4.564c7.485,1.995,15.106,3.922,22.795,5.781,10.607,2.65,21.592,4.911,32.865,6.762,23,3.753,45.93.879,68.86-1.555-.824-1.487-2.743-2.766-5.376-3.584-8.165-3.719-16.535-7.3-25.04-10.819s-16.943-7-25.312-10.38a18.633,18.633,0,0,0-8.029-2.029,478.367,478.367,0,0,1-77.23,10.413l64.37,15.586c-8.753-5.27-13.943-11.777-14.834-18.6l-40.486-1.86,65.118,5.951-68.52-19.779A235,235,0,0,1,99.373,36.568l56.817,27.69c-12.421-16.349-32.423-31.013-58.382-42.8a23.928,23.928,0,0,0-7.689-1.048c-12.452-.642-25.176-.44-37.7-.473-7.8-.315-15.633-.259-23.407.169-.408,0-8.505.642-2.926,1.386l44.433,5.849-32.661-5.68L80.729,59.052l-31.3-35.974h-6.8l37.22,37.7,2.382-4.294,6.8-5.274C93,46.04,94.243,40.453,92.636,34.979a100.419,100.419,0,0,0-3.4-14.572,17.7,17.7,0,0,0-3.742-7.979c-.386-3.8-6.385-6.867-14.017-7.168C66.984,3.942,37.929,21.32,37.453,21.624q-12.86,6.762-25.108,13.794c-2.67,1.1-4.516,2.61-5.239,4.294C9.22,44.687,8.561,49.854,5.2,54.656a19.537,19.537,0,0,0,7.757-2.772c8.71-4.429,17.147-8.926,25.448-13.524s16.671-9.162,24.7-13.9C65.8,23.319,67.61,21.74,68.209,20Z" transform="translate(-5.117 17.729)" fill="#fcbf2f" opacity="0.11"/>
    <path id="Path_26" data-name="Path 26" d="M56.314,20.04,69.7,10.167,12.084,24.3,75.17,32.177,28.346,21.426l42.9,14.64L38.3,23.691,64.375,37.215,45.73,26.463,57.3,36.336l-7.009-6.762L66.828,58.346A20.7,20.7,0,0,0,70.964,64.6c6.659,5.105,11.636,6.762,21.94.169,8.134-5.4,12.414-11.923,12.2-18.6-.7-6.762-10.094-14.4-16.052-19.948L49.655,32.245a107.746,107.746,0,0,1,29.44,8.621c15.841,8.047,43.108,13.9,59.37,18.764L103.418,46.107l41.847,21.266a9.429,9.429,0,0,0,5.467,1.927q26.452-10.006,49.978-21.638l-.771-.575c-7.132-7.331-19.184-13.288-34.206-16.9-4-1.352-25.655,6.762-23.482,8.621A62.635,62.635,0,0,0,154.1,48.136a79.613,79.613,0,0,0,16.122,6.221c6.379,2.57,13.038,5.038,19.837,7.371,24.814,7.371,52.291,4.869,79.067,2.57-.311-1.227-1.72-2.326-3.855-3.009-6.309-2.975-12.827-5.883-19.486-8.689-2.033-.879-21.519-10.988-26.846-9.839-19,4.091-33.155,6.762-55.095,6.491l28.879,10.887c-7.906-3.073-13.677-7.237-16.542-11.935-5.732-5.649-9.272-11.757-10.444-18.021l-22.08,8.791,50.538,8.114L147.788,33.9a202.92,202.92,0,0,1-33.225,11.462l34.066,20.962c-10.795-9.737-19.7-20.083-34.557-28.535A151.149,151.149,0,0,0,88.7,26.092c-4.977-2.062-21.449,1.623-25.795,2.265-.771,0-19.136,2.941-13.6,3.753l21.028,4.936-2.874-2.029a11.755,11.755,0,0,1-10.164,0L74.328,65.446c3.575-7.066,13.038-10.785,12.617-18.8a33.983,33.983,0,0,0-5.327-14.031c-2.944-5.443-4.066-10.684-6.1-16.195-1.893-4.97-5.327-10.143-16.612-10.616-7.851-.507-21.87,7.776-26.145,9.534S9.35,23.691,10.4,26.8A14.754,14.754,0,0,1,9,40.664a12.91,12.91,0,0,0,6.379-1.454C21.9,36.64,28.276,34,34.444,31.231,38.65,29.439,56.244,23.59,56.314,20.04Z" transform="translate(1.555 20.601)" fill="#fcbf2f" opacity="0.11"/>
    <path id="Path_27" data-name="Path 27" d="M22.17,18.836,19.414,7.915,17.347,9.437c9.232.98,10.362,46.15,10.142,37.191V57.413A98.721,98.721,0,0,1,21.646,77.9a10.106,10.106,0,0,0,.909,5.342l2.15,2.671a.777.777,0,0,0,1.02.406c5.843-5.612,7.441-6.12,9.976-15.755,3.059-12.307-.717-22.754-4.768-33.81l-1.874,1.69c7.141,3.25,12.867,9.981,15.819,18.6,6.089,5.626,9.246,14.831,8.268,24.106,0,.98,1.846,4.733,2.921,3.381A227.391,227.391,0,0,0,78.115,57.48a1.231,1.231,0,0,0,.3-1.116A37.33,37.33,0,0,0,66.76,36.958c-.551-.642-1.626.845-1.626,1.488,0,8.926-.992,23.329,4.575,31.24A17.9,17.9,0,0,0,78.583,75.4c8.268,3.381,16.894,2.468,25.437,1.758,2.287,0-.8-6.458-2.039-6.39a104.11,104.11,0,0,1-16.232.473,30.925,30.925,0,0,1-15.571-4.9l1.488,2.536A71.03,71.03,0,0,1,66.9,37.195l-1.654,1.488q11.575,6.052,3.087,17.75C66.5,66.591,61.117,75.247,53.615,80.1l2.894,3.381c-.606-7.945-.689-17.277-3.886-24.546C47.882,48.25,38.457,41.657,30.189,35.707c-.689-.507-2.177.676-1.874,1.69A38.7,38.7,0,0,1,30.63,67.826,26.287,26.287,0,0,1,22.941,79.22h1.406l-1.075-1.826.909,5.342L25.945,78.1a66.327,66.327,0,0,0,3.693-6.052,53.045,53.045,0,0,0,2.26-16.9,180.423,180.423,0,0,0-3.941-33.336c-.909-5-5.953-22.247-11.8-13.524a1.435,1.435,0,0,0-.193,1.724l3.913,9.6C20.571,20.966,22.611,20.493,22.17,18.836Z" transform="translate(171.287 28.1)" fill="#fcbf2f" opacity="0.11"/>
  </g>
  <g id="Group_32" data-name="Group 32" transform="translate(12.236 58.06)">
    <path id="Path_28" data-name="Path 28" d="M5.25,43.135Q43.006,55.509,41.077,28.867A24.1,24.1,0,0,0,30.99,15.141C24.012,14.123,17.032,17.031,12,23.052A25.839,25.839,0,0,0,8.2,33.6a24.315,24.315,0,0,0,1.02,5.951c.689,2.806,1.406,5.612,2.177,8.351.441,1.69,1.461,8.723,3.362,8.824,7.441.27,5.925-.473,13.228-5.139-.165,0,3.307-2.4,1.433-2.7L13.077,42.56,20.16,56.929,41.132,28.867l-1.075-.2a46.41,46.41,0,0,0-13.008,4.5c-5.154,1.995-10.307,4.057-15.406,6.255A25.351,25.351,0,0,0,7.4,41.445,3.93,3.93,0,0,0,5.25,43.135Z" transform="translate(-3.266 -7.638)" fill="#fcbf2f" opacity="0.11"/>
    <path id="Path_29" data-name="Path 29" d="M41.628,34.986a13.674,13.674,0,0,0-3.748-11.5c-4.049-6.9-11.679-8.968-17.721-4.8-8.984,3.99-8.791,7.134-12.016,16.9-.469,1.386,4.6,16.026,6.256,15.248L29.2,48c.413,0-.331-2.1-.331-2.164a37.174,37.174,0,0,0-4.713-7.709c-.276-.44-4.382-6.965-4.575-4.192L12.746,44.081l6.394,4.294L9,34.784,14.51,50.539,40.774,31,7.7,37.759l-1.213.98a4.611,4.611,0,0,0,3.776.575c4.685-.3,9.343-.744,14-1.285C24.018,38.1,41.683,36.947,41.628,34.986Z" transform="translate(-1.088 -3.817)" fill="#fcbf2f" opacity="0.11"/>
    <path id="Path_30" data-name="Path 30" d="M41.034,34.889c3.5-8.419-3.583-19.1-10.114-21.4-4.823-1.711-10.025-.269-13.78,3.82l-4.106,3.381c-8.047,10.143,2.756,14.538-1.9,25.154-.854,1.927,5.1,3.651,4.465.879Q11.16,30.866,24.939,35.532c8.764-3.651,11.6-3.381,8.516.642-1.047,1.657,2.177,1.15,2.232,1.15C36.9,37.188,40.4,36.444,41.034,34.889Z" transform="translate(4.99 -12.781)" fill="#fcbf2f" opacity="0.11"/>
    <path id="Path_31" data-name="Path 31" d="M43.718,41.533a12.588,12.588,0,0,0,.689-7.776,44.465,44.465,0,0,0-3.2-7.3,42.941,42.941,0,0,0-6.7-6.762,36.611,36.611,0,0,0-8.984-1.082,49.16,49.16,0,0,0-8.764,4.159c-8.929,6.762-3.693,16.9-7.193,27.048-.909,2.671,6.008,4.8,5.512,2.6Q7.7,21.011,39.888,39.877C39.061,42.142,43.277,42.784,43.718,41.533Z" transform="translate(4.179 1.098)" fill="#fcbf2f" opacity="0.11"/>
    <path id="Path_32" data-name="Path 32" d="M4.53,37.154Q44.959,58.86,41.9,31.339A18.182,18.182,0,0,0,34.955,21.2Q29.609,14.062,21.4,18.931a28.592,28.592,0,0,0-8.268,5.984c-2.039,1.521-3.665,21.5-1.846,21.976,13.587,3.381,0,.237,18.658.676.413,0-.634-2.772-.661-2.84a110.045,110.045,0,0,0-6.366-11.191,32.259,32.259,0,0,0-4.354-6.593c-.551-.507-1.543-1.826-1.433,0l.689,12.273.358-1.454L13.6,44.153l5.291,2.806-8.6-12.07,3.8,15.519c1.075-.473,26.732-12.679,27.366-12.239a13.222,13.222,0,0,0-7.028-1.183c-5.512-.237-10.858-.3-16.287-.338C14.341,36.647,8.085,35.43,4.53,37.154Z" transform="translate(-4.53 -2.841)" fill="#fcbf2f" opacity="0.11"/>
    <path id="Path_33" data-name="Path 33" d="M5,40.84q38.583,16.33,37.288-8.96a11.671,11.671,0,0,0-3.39-9.3l-7-6.762C24.964,14.7,17.991,17.5,12.937,23.428c-2.48,1.893-3.307,27.893-1.929,28.062a17.4,17.4,0,0,0,7.413.811L28.4,49.868c1.516-.778,1.819-.44.661-1.758s-5.815-1.082-7.661-1.217a25.264,25.264,0,0,0-3.913-.169c-1.929.947-3.087-.406-3.5-4.057l1.736,2.772-5.512-11.9L13.736,55.48c.992-.913,27.835-26.135,28.634-25.966a15.443,15.443,0,0,0-7.331,1.217c-5.512,1.555-11.024,3.381-16.536,5.105-2.508.778-5.016,1.623-7.5,2.536A33.418,33.418,0,0,0,5,40.84Z" transform="translate(-3.705 -6.121)" fill="#fcbf2f" opacity="0.11"/>
    <path id="Path_34" data-name="Path 34" d="M38.322,36.738c1.838-4.43.787-9.841-2.48-12.78L28.759,18.65c-1.6.169-3.2.338-4.8.609-4.713.575-8.268.778-11.74,6.491L8.31,34.98a16.771,16.771,0,0,0,3.2,8.216.971.971,0,0,0,1.02.778l9.646.507c1.157,0-4.63-15.552-6.035-12.341v12.1l1.488-6.762-5.512,4.564,7.3-1.217c.331-8.283,1.185-10.853,2.618-7.709.579.744.386,1.454-.634,2.1l1.846-1.082-2.37.609c-.827.2-.165.778,0,1.183.413,1.319,5.319,1.048,6.339,1.15C28.979,37.144,37.22,39.139,38.322,36.738Z" transform="translate(2.107 1.193)" fill="#fcbf2f" opacity="0.11"/>
    <path id="Path_35" data-name="Path 35" d="M42.277,34.98a14.656,14.656,0,0,0-3.169-13.524l-7.661-5.849a10.126,10.126,0,0,0-10.472,1.42C16.509,19.09,9.95,24.668,9.95,31.836c0,5.612,4.492,7.878,4.685,12.915,0,1.285,3.307,2.806,3.941,2.806s2.287-.44,1.157-1.69l-3.472-3.888.579,1.42-1.075-5.68c4.74-10.582,9.177-13.253,13.256-8.081,1.13,1.15,3.693,4.767,1.9,6.762s4.272,1.082,4.382,1.048C36.875,37.279,41.588,37.313,42.277,34.98Z" transform="translate(4.987 -8.105)" fill="#fcbf2f" opacity="0.11"/>
    <path id="Path_36" data-name="Path 36" d="M11.8,33.825l28.221,1.488a9.15,9.15,0,0,0-2.2-7.844,18.112,18.112,0,0,0-9.894-8.689A29.364,29.364,0,0,0,18.5,20.335c-7.606,3.009-8.047,7.844-11.024,15.654-.661,1.69,3.5,4.192,4.079,4.632,3.432,6.125,10.028,8.191,15.433,4.835,1.35-.2-2.756-13.524-2.756-13.524a23.672,23.672,0,0,0-2.315-6.762c-.276-.338-1.157-2.164-1.323-.372L18.8,43.191l1.957-8.858L11.444,44.475l9.728-2.536L9.046,35.854l7.386,7.607,22.185-5.41c3.583-.845-8.626-2.84-6.7-2.57-4.354-.575-8.736-1.082-13.118-1.488a23.548,23.548,0,0,0-7-.169Z" transform="translate(0.517 1.503)" fill="#fcbf2f" opacity="0.11"/>
    <path id="Path_37" data-name="Path 37" d="M4.85,39.213q39,18.325,36.378-8.52a17.9,17.9,0,0,0-6.78-10.143c-3.583-4.936-8.13-5.68-13.78-2.231A79.327,79.327,0,0,0,12.4,24.4c-2.756,2.029-2.067,25.256-1.6,25.188a44.779,44.779,0,0,1,17.969-.913c2.618.169-5.512-7.573-4.961-7.1-.579-.507-7.138-7.032-6.862-4.159L17.72,45.6l.965-1.15-5.154-1.116,4.52,5.714L9.783,34.344l3.748,18.933C14.5,52.5,40.484,30.456,41.09,30.693a13.859,13.859,0,0,0-7.11.642c-5.512,1.183-10.721,2.5-16.039,3.888-2.453.609-4.906,1.251-7.358,1.995A28.514,28.514,0,0,0,4.85,39.213Z" transform="translate(-3.968 -4.662)" fill="#fcbf2f" opacity="0.11"/>
    <path id="Path_38" data-name="Path 38" d="M14.473,35.013Q43.41,50.836,40.406,30.178l-3.8-6.559c-4.906-6.762-11.024-6.762-17.638-3.685s-7.276,4.936-9.48,11.225C6.729,38.766,7.776,36.5,11.992,45.325c.689,1.454,5.291.575,6.311.507l8.461-.507c1.654,0-7-18.6-7.469-17.513L18.524,43.8,19.6,37.042l-7.634,7.1h8.488L9.292,35.858l6.394,8.892,23.48-7.235c2.756-.845-4.189-1.86-4.52-1.893a111.8,111.8,0,0,0-20.173-.609Z" transform="translate(1.484 -0.463)" fill="#fcbf2f" opacity="0.11"/>
    <path id="Path_39" data-name="Path 39" d="M43.785,42.4c2.756-8.588-2.756-18.528-9.26-22.01a17.071,17.071,0,0,0-17.969,2.84c-8.709,7.979-4.492,16.533-6.2,27.961-.441,2.908,5.319,3.922,4.8,2.062q-6.5-14.809,4.051-23.4Q29.013,7.85,40.174,40.477C39.32,42.877,43.4,43.621,43.785,42.4Z" transform="translate(5.657 2.019)" fill="#fcbf2f" opacity="0.11"/>
  </g>
  <g id="Group_33" data-name="Group 33" transform="translate(220.685 0)">
    <path id="Path_40" data-name="Path 40" d="M50.566,14.992A43.579,43.579,0,0,1,51.613,4.1L24.853,42.614C35.27,40.349,62.582,46.2,69.719,28.042Q72.965,18.1,77.023,8.6l-.772.879,2.976-2.367L46.542,18.3,86.09,15.769l-29.378-.642C67.763,25.234,81.051,31,94.826,31.66c.689.2.717,0,0-1.014a23.331,23.331,0,0,0-3.969-3.55c-2.756-2.3-5.512-4.531-8.268-6.762L76.444,15.6q-11.768-8.486,6.449,3.55Q97.9,34.364,91.877,20.164a24.083,24.083,0,0,0-3.555-7.709C83.306,4.341,77.9,5.9,70.629,8.23a192.568,192.568,0,0,0-21.634,7.607,16.081,16.081,0,0,0-6.256,5.68L46.1,19.184a29.842,29.842,0,0,0-8.681,4.091l-1.24,2.5a7.35,7.35,0,0,1-4.272,3.381l31.941,6.187a6.128,6.128,0,0,1-3.417-5.579,38.219,38.219,0,0,1-1.488-10.684L57.9,10.664c.193-4.767-1.461-7.235-4.823-7.844A7.409,7.409,0,0,0,49.546,6q-5.7,7.066-11.217,14.335T27.444,35.074a9.282,9.282,0,0,0-2.425,4.6c-.386,4.429-1.185,8.723-1.6,13.152a7.446,7.446,0,0,0,3.445-3.381c3.693-4.869,7.331-9.771,10.858-14.775s7.11-10.143,10.555-15.147a8.943,8.943,0,0,0,2.287-4.531Z" transform="translate(-21.959 6.41)" fill="#fcbf2f" opacity="0.11"/>
    <path id="Path_41" data-name="Path 41" d="M50.058,16.862l.248-5.68L44.16,19.871,55.184,6.685,26.991,30.352l32.134,2.874L36.5,27.58a143.793,143.793,0,0,0,27.7,8.858,8.61,8.61,0,0,0,4.244-2.3,32.449,32.449,0,0,0,4.878-11.9A42.3,42.3,0,0,1,77.892,9.593l-.772.778L80.152,7.9l-29.3,6.525L81.172,9.39,51.518,12.433,89.77,21.088,63.121,10.3,95.944,33.429c.937.541,1.185.406.8-.372a29,29,0,0,0-6.091-7.066L84.7,20.141,78.692,14.36c9.2-.338,12.181-1.555,8.874-3.584a38.586,38.586,0,0,0-6.614-3.651,4.348,4.348,0,0,0-3.665-.27c-4.465.744-8.9,1.555-13.339,2.536S55.1,11.283,50.691,12.433a4.67,4.67,0,0,0-3.39,1.724l-2.756,3.381,3.335-1.826a25.672,25.672,0,0,0-7.992,3.111l-1.24,2.333A5.955,5.955,0,0,1,34.432,24L65.16,35.9,60.5,26.937c-.441-3.922-1.047-7.81-1.791-11.664a17.414,17.414,0,0,0-1.846-6.762,4.613,4.613,0,0,0-1.379-3.068A3.017,3.017,0,0,0,52.7,4.657,5.1,5.1,0,0,0,49.369,6.82q-5.512,5.274-10.693,10.853T28.286,28.966a6.5,6.5,0,0,0-2.232,3.584c-.5,4.26-1.24,8.419-1.654,12.712A4.964,4.964,0,0,0,27.6,43.2c3.528-3.584,6.945-7.269,10.307-11.022s6.752-7.54,10.032-11.428A6.5,6.5,0,0,0,50.058,16.862Z" transform="translate(-20.239 10.592)" fill="#fcbf2f" opacity="0.11"/>
    <path id="Path_42" data-name="Path 42" d="M40.57,11.044a36.337,36.337,0,0,1,.854-9.94L35.913,11.957l5.512-8.621-6.972,9.3L37.7,10.808l-1.6.406c5.542,3,9.851,8.641,11.933,15.62a21.084,21.084,0,0,0,6.228,9.3A8.39,8.39,0,0,0,57.6,37.788c3.583.811,5.154-.947,7.248-4.159a12.884,12.884,0,0,0,2.756-6.12A114.192,114.192,0,0,1,72.1,9.083l-1.35,1.657,4.024-3.381L69.259,10.74C81.33,9.016,83.342,31.5,85,40.29c.3,1.454,4.161,3.043,3.858.575-1.3-9.771-1.3-23.667-7.276-31.308a8.627,8.627,0,0,0-7.551-3.99,14.2,14.2,0,0,0-5.512,3.381c-7.22,6.153-3.39,19.441-11.024,25.8l1.35-.3-3.8-.237,3.748,1.758A100.953,100.953,0,0,1,50.519,12.3,31.777,31.777,0,0,0,45.862.259L45.283.09,41.259.36c-1.9,0-3.087,3.381-4.106,5a28.978,28.978,0,0,0-4.465,9.129,37.6,37.6,0,0,0-1.075,8.96c-.165,2.908,3.555-2.637,3.252-2.2C36.354,18.956,40.515,14.189,40.57,11.044Z" transform="translate(-7.582 -0.09)" fill="#fcbf2f" opacity="0.11"/>
    <path id="Path_43" data-name="Path 43" d="M39.132,15.954a16.384,16.384,0,0,1-.5-9.365L34.971,8.82c5.512,2.6,6.835,11.5,8.268,17.987a81.535,81.535,0,0,0,5.512,16.9c.551,1.116,3.224,3.55,4.437,3.178,4.079-1.319,4.217-.98,6.7-5.815,4.051-7.472,2.673-21.131,9.563-26.439l-3.39.2C76.392,16.495,76.7,33.6,78.1,43.407a9.768,9.768,0,0,0,3.2,4.767s2.48,2.164,2.232.2C82.207,37.118,81.656,14.567,69.006,12.5a6.649,6.649,0,0,0-6.559,2.4c-1.378,1.521-2.756,7.911-3.39,10.143-2.15,7.3-2.26,15.891-9.976,17.277L53.518,45.5a27.937,27.937,0,0,1-4.658-13.22,136.607,136.607,0,0,0-4.217-18.764C42.577,8.38,41.888,7.028,38.416,5c-.937-.541-3.142,1.285-3.665,2.231-1.626,2.941.882,6.762,1.929,9.6C37.231,18.557,39.463,17.644,39.132,15.954Z" transform="translate(-3.002 11.365)" fill="#fcbf2f" opacity="0.11"/>
    <path id="Path_44" data-name="Path 44" d="M49.926,21.255l.22-5.579L48,19.564l7.083-8.52L25.4,35.759l44.563-3.381,1.02-.338a113.215,113.215,0,0,1,6.5-19.272L42.319,19.8l47.512-.575L57.807,13.242,89.5,23.621l-26.843-11.8,28.992,16.9L66.847,11.01Q81.233,24.027,96.17,36.063c1.213.744,1.433.44.606-.913a59.069,59.069,0,0,0-6.642-7.641c-3.307-3.381-6.669-6.965-10.059-10.346q-4-4.159-8.268-8.114Q56.87-4.779,37.524,20.207a3.117,3.117,0,0,0-2.315,2.806,7.384,7.384,0,0,1-4.354,3.077L65.276,39.613l-4.74-9.162q-.772-5.68-1.984-11.259a17.145,17.145,0,0,0-1.929-6.458A4.3,4.3,0,0,0,55.154,9.91a2.853,2.853,0,0,0-2.693-.556,5.453,5.453,0,0,0-3.472,2.265Q43.339,17.1,37.827,22.878T26.8,34.576a7.012,7.012,0,0,0-2.4,3.787c-.386,4.26-1.1,8.419-1.516,12.712a5.378,5.378,0,0,0,3.39-2.367c3.638-3.685,7.248-7.506,10.776-11.428s7.055-7.81,10.5-11.833A6.928,6.928,0,0,0,49.926,21.255Z" transform="translate(-22.89 9.512)" fill="#fcbf2f" opacity="0.11"/>
    <path id="Path_45" data-name="Path 45" d="M51.408,15.915a43.593,43.593,0,0,1,1.02-10.887L24.29,41.949,70.066,28.594c1.433-.338,2.122-1.589,2.039-3.787A111.353,111.353,0,0,1,78.2,8.68l-.827.879,2.949-2.4L48.432,16.287l32.492-7.4L48.763,14.461l32.465,1.014L55.542,13.211l40.236,18.6c.992.473,1.268.338.772-.406a28.659,28.659,0,0,0-6.89-6.762q-6.559-5.68-13.311-11.09-11.024-6.491,3.5-3.381,15.791,2.4,1.35-3.753a4.97,4.97,0,0,0-4.051,0C72.271,7.53,67.42,8.748,62.57,10.134S52.9,12.8,48.074,14.36a5.527,5.527,0,0,0-3.665,2.029L41.652,19.77l3.638-2.13a29.58,29.58,0,0,0-8.709,3.584l-1.268,2.434a7.671,7.671,0,0,1-4.354,3.381l34.284,8.52-4.3-8.655c-.358-3.922-.854-7.844-1.433-11.732a21.1,21.1,0,0,0-1.571-7.2A4.6,4.6,0,0,0,56.793,4.7,2.947,2.947,0,0,0,54,3.744a7.158,7.158,0,0,0-3.638,2.975q-5.98,6.762-11.768,13.794c-3.886,4.632-7.717,9.331-11.437,14.132a8.779,8.779,0,0,0-2.508,4.429c-.413,4.4-1.185,8.655-1.6,13.017a7.1,7.1,0,0,0,3.555-3.077q5.815-6.762,11.41-14.1T49.038,20.446A8.907,8.907,0,0,0,51.408,15.915Z" transform="translate(-22.609 8.462)" fill="#fcbf2f" opacity="0.11"/>
    <path id="Path_46" data-name="Path 46" d="M41.044,17.865a40.933,40.933,0,0,1,1.3-10.582l-2.315,3.381L42.78,7.282l-9.4,9.331,3.472-2.2-3.472,1.758c5.512,1.285,6.559,6.762,9.839,10.819q4.988,4.632,10.059,9.061a10.454,10.454,0,0,0,3.528,2.468c3.011-.087,5.7-2.339,6.862-5.748a75.515,75.515,0,0,0,3.61-12.712,11.735,11.735,0,0,1,4.961-7.4L60.556,16.817l13.78-3.381-14.8,1.454,20.7,4.835L66.95,14.889l13.284,8.723-9.37-6.762L82.438,28.988,74.17,19.623,86.406,37.339c-.3-.406,2.591,2.941,1.929.507a108.706,108.706,0,0,0-5.043-16.195,22.208,22.208,0,0,0-7.8-9.872c-1.461-1.082-7.028.237-8.075.372a17.56,17.56,0,0,0-7.992,1.724c-3.39,2.6-6.118,5.883-9.315,8.824-1.488,1.386-3.665,3.651-5.512,3.381L56.422,36.223,51.213,19.758A22.453,22.453,0,0,0,47.768,9.074c-1.874-3.381-1.268-2.6-4.217-3.854-1.764-.744-4,2.367-5.264,3.584s-6.394,4.733-6.752,7.472c-.524,4.023-1.406,7.844-1.874,11.867-.331,2.806,3.776-1.555,3.693-1.488,1.791-1.758,3.555-3.584,5.264-5.477a10.262,10.262,0,0,0,2.425-3.313Z" transform="translate(-11.032 11.854)" fill="#fcbf2f" opacity="0.11"/>
    <path id="Path_47" data-name="Path 47" d="M42.207,13.64a35.275,35.275,0,0,1,.827-9.94L34.766,16.311l9.976-9.433-9.2,6.762c9.095,5.714,11.8,21.841,22.24,25.053,12.7,3.922,11.024-21.943,17.913-28.13l-7.634,4.666,4.658-1.42-2.508.3C79.55,15.871,82.691,30.1,85.558,38.726c.358,1.048,5.677,4.936,5.236,2.637-1.764-8.757-4.6-36.751-16.756-32.221a22.3,22.3,0,0,0-6.7,4.26,19.668,19.668,0,0,0-3.2,4.159c-1.237,7.3-5.379,13.342-11.024,16.093l5.9,3.381a132.768,132.768,0,0,1-8.6-27.521c-.252-4.121-2.81-7.47-6.146-8.047C42.62.724,40.443,4.477,39.451,5.661a27.8,27.8,0,0,0-5.9,8.283A43.056,43.056,0,0,0,31.872,25c-.138,2.806,3.61-2.029,3.472-1.893,1.626-1.927,3.169-3.922,4.657-5.984a10.143,10.143,0,0,0,2.2-3.482Z" transform="translate(-7.124 2.961)" fill="#fcbf2f" opacity="0.11"/>
    <path id="Path_48" data-name="Path 48" d="M45.616,17.963a38.889,38.889,0,0,1,.8-10.143L30.265,25.4,48.95,9.747,29.659,22.6l19.677-1.488-15.406-.237A160.1,160.1,0,0,0,60.58,37.2a5.917,5.917,0,0,0,4.272-1.758A27.87,27.87,0,0,0,69.62,24.116,21.954,21.954,0,0,1,75.9,10.288L50.19,13.264,83.9,18.2,59.7,10.052l31,20.286L70.529,12.08A274.356,274.356,0,0,0,92.576,36.558c.937.676,1.185.406.689-.811l-1.378-2.434Q88,27.7,83.868,22.325C70.832,5.082,75.407,9.375,45.285,15.8a6.322,6.322,0,0,0-2.756.778c-.877,2.229-2.824,3.512-4.823,3.178l23.343,16.3-4.52-8.892A96.334,96.334,0,0,0,54.3,15.867a13.534,13.534,0,0,0-2.2-6.255c-.532-2.281-2.358-3.727-4.272-3.381-2.756-.879-9.012,6.491-10.555,7.878s-9.012,6.39-9.343,10.143-.965,7.573-1.213,11.462a2.669,2.669,0,0,0,2.48-1.048C31.781,32.5,34.316,30.236,36.8,27.9,38.257,26.416,45.588,21.243,45.616,17.963Z" transform="translate(-16.182 14.359)" fill="#fcbf2f" opacity="0.11"/>
    <path id="Path_49" data-name="Path 49" d="M50.214,16.973l.193-5.612-.358,1.183,2.26-6.762L24.5,36.853l45-8.25L70.5,28.2A116.845,116.845,0,0,1,77.3,8.96l-.854.811L79.426,7.3l-31.5,7.2L83.45,11.361l-28.91.2,17.528,2.3L54.954,10.921,93.537,26.339,66.749,9.67,93.123,30.294A4.555,4.555,0,0,0,96.1,32.188c.579.3.689,0,.276-.473a5.564,5.564,0,0,0-2.26-3.009C90.588,24.885,86.7,21.47,83.092,17.954c-3.087-2.84-6.091-5.41-9.15-8.25-4.906-3.381-2.756-4.429,6.339-3.178a4.833,4.833,0,0,0-3.941,0Q69.147,7.743,62.009,9.332T47.733,12.544A5.267,5.267,0,0,0,44.1,14.336L41.34,17.92l3.555-1.995a29.819,29.819,0,0,0-8.6,3.381l-1.3,2.4a7.616,7.616,0,0,1-4.354,3.381L64.737,35.6l-4.465-8.824C59.8,22.924,59.225,19.1,58.536,15.35a19.274,19.274,0,0,0-1.764-6.762,4.439,4.439,0,0,0-1.3-3.069,2.872,2.872,0,0,0-2.752-.751,6.284,6.284,0,0,0-3.528,2.637c-3.831,4.057-7.579,8.25-11.3,12.51S30.509,28.4,26.871,32.8a8.016,8.016,0,0,0-2.4,4.091c-.386,4.328-1.13,8.554-1.543,12.882a6.266,6.266,0,0,0,3.417-2.7q5.512-6.221,11.024-12.746T47.926,21.132A8,8,0,0,0,50.214,16.973Z" transform="translate(-22.82 10.818)" fill="#fcbf2f" opacity="0.11"/>
    <path id="Path_50" data-name="Path 50" d="M46.777,17.064a38.19,38.19,0,0,1,.8-10.346L30.655,26.091l19.291-16.9L30.132,23.522l13.421-5.612L32.529,21.628c9.48,1.386,18.024,10.413,26.815,14.3a4.005,4.005,0,0,0,4.547,0A14.113,14.113,0,0,0,69.624,27c2.067-6.289,2.4-12.746,7.5-16.9L51.628,14.528l33.264,3.381-23.7-6.322,32,24.377c.772.541,1.047.44.772-.3a17.244,17.244,0,0,0-3-4.767c-3.307-4.531-7.028-8.96-10.748-13.253-1.543-1.758-3.858-5.308-5.87-6.153a9.053,9.053,0,0,0-4.74.27c-4.878.845-9.728,1.995-14.579,3.178a36.87,36.87,0,0,0-10.39,2.637c-2.2,1.352-1.406,3.381-4.823,3.618L61.852,35.727l-4.52-8.621a115.08,115.08,0,0,0-2.067-11.529,14.434,14.434,0,0,0-2.094-6.525c-.4-2.341-2.166-3.942-4.106-3.719-2.756-.947-9.646,7.506-11.024,8.824-1.929,1.826-9.287,7-9.7,10.853s-1.047,7.641-1.35,11.6a2.893,2.893,0,0,0,2.591-1.251c2.756-2.434,5.374-4.936,7.965-7.54C39.088,26.294,46.722,20.546,46.777,17.064Z" transform="translate(-15.691 12.215)" fill="#fcbf2f" opacity="0.11"/>
    <path id="Path_51" data-name="Path 51" d="M40.009,16.391a15.3,15.3,0,0,1-.909-9.3l-3.252,1.69,5.209,6.322a84.624,84.624,0,0,1,3.72,12.374,78.117,78.117,0,0,0,5.815,17.48c.551,1.048,2.756,3.381,4.051,2.975,4-1.521,4.106-1.183,6.449-6.12,3.555-7.54,2.37-22.179,9.343-27.048H67.182C77.076,17.3,77.6,34.243,79.088,43.98a9.44,9.44,0,0,0,3.307,4.7s2.508,2.164,2.26.2c-1.406-11.394-2.2-33.4-14.413-36.278a5.578,5.578,0,0,0-6.256,1.826A43.1,43.1,0,0,0,60.6,24.573c-1.929,6.762-2.287,16.567-9.453,18.663l4.024,2.941a29.033,29.033,0,0,1-5.043-13.524,100.132,100.132,0,0,0-3.555-14.5C44.97,12.638,43.4,7.77,38.852,5.5c-.965-.473-2.618.744-3.252,1.69l-.8,1.217a1.465,1.465,0,0,0,0,1.116,60,60,0,0,0,3.087,8.047C38.466,18.69,40.34,17.574,40.009,16.391Z" transform="translate(-2.17 12.55)" fill="#fcbf2f" opacity="0.11"/>
  </g>
  <g id="Group_35" data-name="Group 35" transform="translate(250.531 46.37)" opacity="0.43">
    <g id="Group_34" data-name="Group 34">
      <path id="Path_52" data-name="Path 52" d="M34.45,39.769q37.729,12.374,35.827-14.3A24.027,24.027,0,0,0,60.108,11.639c-6.982-.975-13.95,1.969-18.961,8.013A25.28,25.28,0,0,0,37.4,30.2a22.9,22.9,0,0,0,1.02,5.984c.689,2.806,1.406,5.579,2.177,8.351.441,1.657,1.461,8.723,3.362,8.791,7.441.27,5.925-.473,13.228-5.105-.165,0,3.307-2.4,1.433-2.7L42.277,39.16,49.36,53.53,70.332,25.468l-1.1-.2a47.534,47.534,0,0,0-12.98,4.5C51.1,31.79,45.942,33.819,40.844,36.05A22.815,22.815,0,0,0,36.6,38.045,3.84,3.84,0,0,0,34.45,39.769Z" transform="translate(-32.438 -4.246)" fill="#fcbf2f" opacity="0.11"/>
      <path id="Path_53" data-name="Path 53" d="M71.056,31.476a13.713,13.713,0,0,0-3.748-11.5c-4.049-6.9-11.679-8.968-17.721-4.8-8.984,3.99-8.791,7.134-12.043,16.9-.441,1.386,4.63,16.06,6.256,15.282l14.827-2.874c.413,0-.331-2.1-.358-2.164a36.752,36.752,0,0,0-4.685-7.709c-.276-.406-4.382-6.931-4.575-4.159L42.174,40.605,48.568,44.9,38.426,31.476,43.8,47.232,70.092,27.656l-33.319,6.83-1.213.98a4.611,4.611,0,0,0,3.776.575c4.685-.3,9.343-.744,14-1.285C53.446,34.756,71.111,33.606,71.056,31.476Z" transform="translate(-30.489 -0.484)" fill="#fcbf2f" opacity="0.11"/>
      <path id="Path_54" data-name="Path 54" d="M70.234,31.424c3.5-8.419-3.583-19.069-10.114-21.4-4.824-1.7-10.02-.257-13.78,3.82-1.378,1.082-2.756,2.164-4.106,3.381-8.047,10.143,2.756,14.538-1.9,25.154-.854,1.927,5.1,3.651,4.465.913Q40.415,27.333,54.167,31.9q13.146-5.443,8.516.642c-1.047,1.657,2.177,1.183,2.232,1.15C66.1,33.588,69.572,32.979,70.234,31.424Z" transform="translate(-24.182 -9.323)" fill="#fcbf2f" opacity="0.11"/>
      <path id="Path_55" data-name="Path 55" d="M72.886,38.083a12.712,12.712,0,0,0,.689-7.81A45.384,45.384,0,0,0,70.433,23a43.119,43.119,0,0,0-6.7-6.762,36.611,36.611,0,0,0-8.984-1.082,48.459,48.459,0,0,0-8.764,4.192C37.059,26.284,42.3,36.258,38.8,46.4c-.937,2.671,6.008,4.767,5.512,2.57q-7.413-31.342,24.8-12.51C68.229,38.658,72.583,39.334,72.886,38.083Z" transform="translate(-24.961 4.574)" fill="#fcbf2f" opacity="0.11"/>
      <path id="Path_56" data-name="Path 56" d="M33.72,33.706Q74.2,55.412,71.09,27.89a18,18,0,0,0-6.917-10.143q-5.346-7.168-13.587-2.265a30.21,30.21,0,0,0-8.268,5.984C40.279,23.022,38.653,43,40.472,43.443c13.587,3.381,0,.237,18.658.676.386,0-.634-2.772-.661-2.84a105.234,105.234,0,0,0-6.394-11.191A30.115,30.115,0,0,0,47.72,23.5c-.524-.473-1.516-1.826-1.406,0L47,35.768l.358-1.42-4.6,6.356,5.291,2.806L39.507,31.44l3.72,15.519C44.3,46.486,69.96,34.314,70.594,34.72a13.562,13.562,0,0,0-7.028-1.183c-5.512-.237-10.858-.3-16.287-.338C43.559,33.2,37.248,32.117,33.72,33.706Z" transform="translate(-33.72 0.6)" fill="#fcbf2f" opacity="0.11"/>
      <path id="Path_57" data-name="Path 57" d="M34.15,37.386q38.583,16.33,37.288-8.96a11.8,11.8,0,0,0-3.362-9.3l-7-6.762c-6.979-1.147-14,1.68-19.071,7.675C39.524,21.9,38.7,47.9,40.048,48.07a18.151,18.151,0,0,0,7.469.845l9.976-2.468c1.488-.744,1.819-.406.661-1.724s-5.815-1.082-7.661-1.251a30.322,30.322,0,0,0-3.913-.169c-1.929.947-3.087-.372-3.5-4.057l1.736,2.772L39.3,30.15l3.5,21.909c1.02-.879,27.835-26.1,28.662-25.932a15.41,15.41,0,0,0-7.331,1.183C58.623,28.9,53.111,30.691,47.6,32.416c-2.508.778-5.016,1.623-7.5,2.536a33.664,33.664,0,0,0-5.953,2.434Z" transform="translate(-32.965 -2.674)" fill="#fcbf2f" opacity="0.11"/>
      <path id="Path_58" data-name="Path 58" d="M67.522,33.248c1.848-4.447.784-9.881-2.508-12.814L57.931,15.16a32.759,32.759,0,0,0-4.768.575c-4.713.575-8.268.778-11.74,6.491l-3.913,9.3a16.685,16.685,0,0,0,3.2,8.182.944.944,0,0,0,1.02.778l9.646.507c1.13,0-4.63-15.552-6.035-12.307v12.07l1.488-6.762-5.512,4.564,7.3-1.251q.5-12.374,2.591-7.709c.606.744.413,1.454-.606,2.1l1.846-1.048-2.37.575c-.827.2-.165.811,0,1.183.413,1.352,5.319,1.048,6.339,1.15C58.152,33.789,66.42,35.75,67.522,33.248Z" transform="translate(-27.065 4.574)" fill="#fcbf2f" opacity="0.11"/>
      <path id="Path_59" data-name="Path 59" d="M71.389,31.519A14.574,14.574,0,0,0,68.22,18L60.7,12.146a10.211,10.211,0,0,0-10.472,1.386C45.759,15.595,39.2,21.173,39.2,28.341c0,5.612,4.492,7.911,4.685,12.949,0,1.251,3.307,2.772,3.941,2.772s2.287-.406,1.13-1.69l-3.528-3.854.579,1.42-1.075-5.68c4.74-10.413,9.122-13.253,13.2-8.081,1.1,1.15,3.693,4.8,1.9,6.762s4.272,1.082,4.354,1.082C65.988,33.987,70.7,33.987,71.389,31.519Z" transform="translate(-24.098 -4.651)" fill="#fcbf2f" opacity="0.11"/>
      <path id="Path_60" data-name="Path 60" d="M41,30.365,69.2,31.853a9.081,9.081,0,0,0-2.177-7.844,18.339,18.339,0,0,0-9.894-8.689A30.182,30.182,0,0,0,47.7,16.875c-7.606,3.009-8.047,7.878-11.024,15.654-.661,1.724,3.5,4.192,4.079,4.666,3.439,6.112,10.026,8.175,15.433,4.835,1.35-.237-2.756-13.524-2.756-13.524a22.248,22.248,0,0,0-2.315-6.762c-.276-.3-1.13-2.164-1.3-.372L48.085,39.731l1.957-8.858L40.726,41.015l9.728-2.5-12.236-6.12,7.358,7.573,22.13-5.443c3.583-.879-8.626-2.874-6.7-2.57-4.382-.609-8.736-1.116-13.146-1.521A24.573,24.573,0,0,0,41,30.365Z" transform="translate(-28.656 4.955)" fill="#fcbf2f" opacity="0.11"/>
      <path id="Path_61" data-name="Path 61" d="M34.05,35.769q39.024,18.46,36.378-8.588a17.813,17.813,0,0,0-6.807-10.143q-5.346-7.337-13.78-2.2a74.391,74.391,0,0,0-8.268,6.052c-2.756,2.062-2.067,25.256-1.6,25.188A44.17,44.17,0,0,1,57.944,45.2c2.591,0-5.512-7.607-4.988-7.1-.551-.541-7.11-7.032-6.835-4.159l.772,8.148.965-1.15-5.512-1.116,4.52,5.714L38.6,30.833l4,18.967c.965-.811,26.953-22.855,27.559-22.619a13.859,13.859,0,0,0-7.11.642C57.53,29.007,52.322,30.359,47,31.712c-2.48.609-4.906,1.285-7.358,1.995a28.686,28.686,0,0,0-5.594,2.062Z" transform="translate(-33.141 -1.226)" fill="#fcbf2f" opacity="0.11"/>
      <path id="Path_62" data-name="Path 62" d="M43.673,31.547Q72.61,47.3,69.606,26.678l-3.8-6.559c-4.906-6.762-11.024-6.762-17.638-3.685s-7.276,5.105-9.48,11.36c-2.756,7.607-1.709,5.342,2.508,14.166.689,1.454,5.291.575,6.311.541l8.516-.541c1.654,0-7-18.6-7.469-17.513l-.8,16.026,1.075-6.762-7.634,6.762h8.488L38.492,32.358,45,41.419,68.5,34.15c2.756-.845-4.189-1.86-4.52-1.893a111.793,111.793,0,0,0-20.311-.71Z" transform="translate(-27.688 2.894)" fill="#fcbf2f" opacity="0.11"/>
      <path id="Path_63" data-name="Path 63" d="M72.985,38.936c2.756-8.588-2.756-18.528-9.287-21.976a16.955,16.955,0,0,0-17.941,2.806c-8.709,8.013-4.492,16.533-6.2,27.961-.441,2.908,5.319,3.956,4.768,2.062Q37.874,35.014,48.4,26.426,58.185,4.348,69.347,37.009C68.52,39.409,72.571,40.153,72.985,38.936Z" transform="translate(-23.516 5.479)" fill="#fcbf2f" opacity="0.11"/>
    </g>
  </g>
  <g id="Group_37" data-name="Group 37" transform="translate(113.583 12.521)" opacity="0.43">
    <g id="Group_36" data-name="Group 36">
      <path id="Path_64" data-name="Path 64" d="M16.43,34.168Q54.186,46.576,52.257,19.9A24.027,24.027,0,0,0,42.088,6.072C35.1,5.086,28.117,8.031,23.1,14.085a25.445,25.445,0,0,0-3.776,10.549,22.647,22.647,0,0,0,1.02,5.951c.661,2.806,1.378,5.612,2.15,8.351.469,1.69,1.488,8.757,3.39,8.824,7.413.27,5.9-.473,13.228-5.139-.165,0,3.307-2.4,1.406-2.7L24.174,33.593l7.11,14.369L52.34,19.8l-1.1-.2a46.538,46.538,0,0,0-12.98,4.5c-5.181,1.995-10.307,4.057-15.406,6.255a25.621,25.621,0,0,0-4.272,2.029A3.992,3.992,0,0,0,16.43,34.168Z" transform="translate(-14.446 1.186)" fill="#fcbf2f" opacity="0.11"/>
      <path id="Path_65" data-name="Path 65" d="M53.011,25.872a13.674,13.674,0,0,0-3.748-11.5c-4.1-6.838-11.688-8.892-17.748-4.8-8.984,3.99-8.791,7.134-12.016,16.9-.469,1.386,4.63,16.06,6.256,15.248l14.827-2.84c.413,0-.331-2.1-.358-2.164a37.061,37.061,0,0,0-4.685-7.709c-.276-.44-4.409-6.965-4.575-4.159L24.129,35l6.394,4.294L20.381,26.008l5.374,15.722L52.047,22.187,18.755,28.881l-1.185.98a4.611,4.611,0,0,0,3.776.575c4.685-.3,9.343-.744,14-1.285C35.291,29.152,53.066,28,53.011,25.872Z" transform="translate(-12.444 4.985)" fill="#fcbf2f" opacity="0.11"/>
      <path id="Path_66" data-name="Path 66" d="M52.2,25.759c3.5-8.419-3.555-19.1-10.087-21.266-4.824-1.7-10.02-.257-13.78,3.821-1.378,1.082-2.756,2.164-4.106,3.381-8.047,10.143,2.756,14.538-1.9,25.154-.854,1.927,5.1,3.651,4.437.879Q22.322,21.87,36.1,26.536q13.2-5.41,8.543.642c-1.075,1.657,2.15,1.15,2.232,1.15C48.062,27.922,51.562,27.314,52.2,25.759Z" transform="translate(-6.172 -3.793)" fill="#fcbf2f" opacity="0.11"/>
      <path id="Path_67" data-name="Path 67" d="M54.849,32.5a12.791,12.791,0,0,0,.717-7.776,47.125,47.125,0,0,0-3.142-7.3,44.513,44.513,0,0,0-6.7-6.762A36.678,36.678,0,0,0,36.715,9.58a46.9,46.9,0,0,0-8.736,4.192c-8.929,6.762-3.693,16.9-7.193,26.845-.937,2.671,6.008,4.8,5.512,2.6Q18.911,11.879,51.1,30.678C50.219,33.112,54.435,33.754,54.849,32.5Z" transform="translate(-6.951 9.985)" fill="#fcbf2f" opacity="0.11"/>
      <path id="Path_68" data-name="Path 68" d="M15.71,28.127q40.429,21.706,37.37-5.815a18,18,0,0,0-6.917-10.143C42.608,7.4,38.061,6.657,32.576,9.9a28.457,28.457,0,0,0-8.268,5.984c-2.039,1.521-3.665,21.537-1.846,21.976,13.587,3.381,0,.237,18.658.676.386,0-.634-2.772-.689-2.84a100.5,100.5,0,0,0-6.366-11.191,30.114,30.114,0,0,0-4.354-6.593c-.524-.507-1.516-1.826-1.406,0l.689,12.273.358-1.454-4.575,6.491,5.291,2.806-8.6-12.07,3.72,15.519c1.075-.473,26.732-12.645,27.366-12.239A13.335,13.335,0,0,0,45.5,28.059c-5.512-.237-10.831-.3-16.26-.338C25.549,27.619,19.265,26.4,15.71,28.127Z" transform="translate(-15.71 6.044)" fill="#fcbf2f" opacity="0.11"/>
      <path id="Path_69" data-name="Path 69" d="M16.14,31.792q38.583,16.33,37.288-8.96a11.71,11.71,0,0,0-3.39-9.3L43.065,6.773c-6.98-1.139-14,1.715-19.043,7.742-2.48,1.86-3.307,27.859-1.957,28.028a18.151,18.151,0,0,0,7.441.845l9.976-2.468c1.488-.778,1.791-.44.661-1.724s-5.815-1.116-7.661-1.251a30.749,30.749,0,0,0-3.941-.169c-1.9.947-3.087-.406-3.472-4.057l1.709,2.772-5.512-11.9,3.5,21.943C25.786,45.621,52.6,20.4,53.428,20.6a15.323,15.323,0,0,0-7.358,1.048C40.557,23.2,35.046,25.03,29.534,26.755c-2.508.778-5.016,1.623-7.5,2.536a33.829,33.829,0,0,0-5.9,2.5Z" transform="translate(-14.955 2.716)" fill="#fcbf2f" opacity="0.11"/>
      <path id="Path_70" data-name="Path 70" d="M49.53,27.644c1.832-4.438.77-9.851-2.508-12.78L39.939,9.59a28.33,28.33,0,0,0-4.768.575c-4.713.575-8.268.778-11.74,6.491L19.49,26.022a16.975,16.975,0,0,0,3.224,8.216.944.944,0,0,0,1.02.778l9.646.507c1.13,0-4.658-15.552-6.035-12.307v12.07l1.488-6.762-5.512,4.6L30.6,31.871q.5-12.408,2.756-7.709c.606.744.386,1.454-.606,2.1l1.819-1.082-2.343.609c-.827.2-.193.778,0,1.183.413,1.352,5.319,1.048,6.339,1.15C40.187,28.185,48.455,30.18,49.53,27.644Z" transform="translate(-9.073 10.009)" fill="#fcbf2f" opacity="0.11"/>
      <path id="Path_71" data-name="Path 71" d="M53.439,25.879A14.459,14.459,0,0,0,50.3,12.355L42.636,6.607a10.126,10.126,0,0,0-10.472,1.42C27.7,10.09,21.14,15.668,21.14,22.836c0,5.612,4.492,7.878,4.685,12.915,0,1.285,3.28,2.806,3.941,2.806s2.287-.44,1.13-1.69l-3.555-3.854.606,1.42-1.075-5.68q7.11-15.823,13.256-8.081c1.1,1.15,3.665,4.8,1.9,6.762s4.272,1.082,4.354,1.048C48.065,28.178,52.778,28.212,53.439,25.879Z" transform="translate(-6.175 0.854)" fill="#fcbf2f" opacity="0.11"/>
      <path id="Path_72" data-name="Path 72" d="M23.059,24.8l28.193,1.488a9.081,9.081,0,0,0-2.177-7.844,18.255,18.255,0,0,0-10-8.689,29.114,29.114,0,0,0-9.425,1.555c-7.606,3.009-8.047,7.878-11.024,15.654-.634,1.724,3.528,4.192,4.106,4.666,3.437,6.094,10.006,8.155,15.406,4.835,1.378-.237-2.756-13.524-2.756-13.524a22.363,22.363,0,0,0-2.315-6.762c-.276-.338-1.13-2.164-1.3-.372l-1.709,18.46,1.957-8.824L22.7,35.581l9.7-2.536L20.193,26.959l7.358,7.573,22.185-5.376c3.61-.879-8.6-2.874-6.669-2.6-4.382-.575-8.764-1.082-13.146-1.488a24.591,24.591,0,0,0-6.862-.27Z" transform="translate(-10.712 10.39)" fill="#fcbf2f" opacity="0.11"/>
      <path id="Path_73" data-name="Path 73" d="M16,30.2q39.024,18.291,36.378-8.52A17.947,17.947,0,0,0,45.571,11.54c-3.555-4.936-8.13-5.646-13.78-2.231a79.73,79.73,0,0,0-8.268,6.086c-2.756,2.029-2.039,25.256-1.571,25.188a44.757,44.757,0,0,1,17.969-.913c2.591.169-5.512-7.573-4.988-7.1-.551-.507-7.11-7-6.835-4.125l.772,8.148.937-1.15-5.346-1.116,4.52,5.714L20.713,25.334l4.024,18.933C25.7,43.49,51.689,21.446,52.3,21.682a13.837,13.837,0,0,0-7.11.642c-5.374,1.183-10.721,2.5-16.067,3.888-2.453.609-4.906,1.251-7.331,1.995A28.488,28.488,0,0,0,16,30.2Z" transform="translate(-15.201 4.306)" fill="#fcbf2f" opacity="0.11"/>
      <path id="Path_74" data-name="Path 74" d="M25.652,25.977q28.937,15.789,25.933-4.869l-3.776-6.559C42.9,7.787,36.786,7.787,30.171,10.864s-7.276,5.173-9.508,11.36c-2.756,7.607-1.709,5.342,2.535,14.166.689,1.454,5.291.575,6.311.507l8.543-.575c1.681,0-6.972-18.6-7.469-17.513l-.8,16.06,1.075-6.762-7.689,7.1H31.66L20.471,27.059l6.394,8.892,23.508-7.235c2.756-.845-4.189-1.86-4.52-1.893a109.193,109.193,0,0,0-20.2-.845Z" transform="translate(-9.695 8.329)" fill="#fcbf2f" opacity="0.11"/>
      <path id="Path_75" data-name="Path 75" d="M54.975,33.374c2.756-8.588-2.756-18.528-9.287-22.01A17.026,17.026,0,0,0,27.746,14.2c-8.709,8.013-4.492,16.533-6.2,27.961-.441,2.908,5.291,3.922,4.768,2.062q-6.5-14.741,4.079-23.4Q40.148-1.18,51.337,31.446C50.4,33.745,54.561,34.591,54.975,33.374Z" transform="translate(-5.506 10.906)" fill="#fcbf2f" opacity="0.11"/>
    </g>
  </g>
  <g id="Group_39" data-name="Group 39" transform="translate(120.855 57.966)" opacity="0.43">
    <g id="Group_38" data-name="Group 38">
      <path id="Path_76" data-name="Path 76" d="M17.43,43.168Q55.186,55.576,53.257,28.9A24.027,24.027,0,0,0,43.088,15.072C36.1,14.086,29.117,17.031,24.1,23.085a25.445,25.445,0,0,0-3.776,10.549,22.646,22.646,0,0,0,1.02,5.951c.661,2.806,1.378,5.612,2.15,8.351.469,1.69,1.488,8.757,3.39,8.824,7.413.27,5.9-.473,13.228-5.139-.165,0,3.307-2.4,1.406-2.7L25.174,42.593l7.11,14.369L53.34,28.8l-1.1-.2a46.539,46.539,0,0,0-12.98,4.5c-5.181,1.995-10.307,4.057-15.406,6.255a25.62,25.62,0,0,0-4.272,2.029,3.992,3.992,0,0,0-2.15,1.792Z" transform="translate(-15.446 -7.678)" fill="#fcbf2f" opacity="0.11"/>
      <path id="Path_77" data-name="Path 77" d="M54.011,34.872a13.674,13.674,0,0,0-3.748-11.5c-4.1-6.838-11.688-8.892-17.748-4.8-8.984,3.99-8.791,7.134-12.016,16.9-.469,1.386,4.63,16.06,6.256,15.248l14.827-2.84c.413,0-.331-2.1-.358-2.164a37.061,37.061,0,0,0-4.685-7.709c-.276-.44-4.409-6.965-4.575-4.159L25.129,44l6.394,4.294L21.381,35.008l5.374,15.722L53.047,31.187,19.755,37.881l-1.185.98a4.611,4.611,0,0,0,3.776.575c4.685-.3,9.343-.744,14-1.285C36.291,38.152,54.066,37,54.011,34.872Z" transform="translate(-13.444 -3.88)" fill="#fcbf2f" opacity="0.11"/>
      <path id="Path_78" data-name="Path 78" d="M53.2,34.854c3.5-8.419-3.555-19.1-10.087-21.4-4.824-1.7-10.02-.257-13.78,3.82-1.378,1.082-2.756,2.164-4.106,3.381-8.047,10.143,2.756,14.538-1.9,25.154-.854,1.927,5.1,3.651,4.437.879Q23.322,30.8,37.1,35.5q13.2-5.443,8.543.642c-1.075,1.657,2.15,1.15,2.232,1.15C49.062,37.018,52.562,36.409,53.2,34.854Z" transform="translate(-7.172 -12.753)" fill="#fcbf2f" opacity="0.11"/>
      <path id="Path_79" data-name="Path 79" d="M55.849,41.5a12.791,12.791,0,0,0,.717-7.776,47.129,47.129,0,0,0-3.142-7.3,44.514,44.514,0,0,0-6.7-6.762,36.677,36.677,0,0,0-9.012-1.082,46.9,46.9,0,0,0-8.736,4.192c-8.929,6.762-3.693,16.9-7.193,26.845-.937,2.671,6.008,4.8,5.512,2.6Q19.911,20.879,52.1,39.678C51.219,42.112,55.435,42.754,55.849,41.5Z" transform="translate(-7.951 1.12)" fill="#fcbf2f" opacity="0.11"/>
      <path id="Path_80" data-name="Path 80" d="M16.71,37.127q40.429,21.706,37.37-5.815a18,18,0,0,0-6.917-10.143c-3.555-4.767-8.1-5.511-13.587-2.265a28.457,28.457,0,0,0-8.268,5.984c-2.039,1.521-3.665,21.537-1.846,21.976,13.587,3.381,0,.237,18.658.676.386,0-.634-2.772-.689-2.84a100.5,100.5,0,0,0-6.366-11.191,30.114,30.114,0,0,0-4.354-6.593c-.524-.507-1.516-1.826-1.406,0l.689,12.273.358-1.454-4.575,6.491,5.291,2.806-8.6-12.07,3.72,15.519c1.075-.473,26.732-12.645,27.366-12.239A13.335,13.335,0,0,0,46.5,37.059c-5.512-.237-10.831-.3-16.26-.338C26.549,36.619,20.265,35.4,16.71,37.127Z" transform="translate(-16.71 -2.821)" fill="#fcbf2f" opacity="0.11"/>
      <path id="Path_81" data-name="Path 81" d="M17.14,40.792q38.583,16.33,37.288-8.96a11.71,11.71,0,0,0-3.39-9.3l-6.972-6.762c-6.98-1.139-14,1.715-19.043,7.742-2.48,1.86-3.307,27.859-1.957,28.028a18.151,18.151,0,0,0,7.441.845l9.976-2.468c1.488-.778,1.791-.44.661-1.724s-5.815-1.116-7.661-1.251a30.745,30.745,0,0,0-3.941-.169c-1.9.947-3.087-.406-3.472-4.057l1.709,2.772-5.512-11.9,3.5,21.943C26.786,54.621,53.6,29.4,54.428,29.6a15.323,15.323,0,0,0-7.358,1.048C41.557,32.2,36.046,34.03,30.534,35.755c-2.508.778-5.016,1.623-7.5,2.536a33.828,33.828,0,0,0-5.9,2.5Z" transform="translate(-15.955 -6.148)" fill="#fcbf2f" opacity="0.11"/>
      <path id="Path_82" data-name="Path 82" d="M50.53,36.644c1.832-4.438.77-9.851-2.508-12.78L40.939,18.59a28.33,28.33,0,0,0-4.768.575c-4.713.575-8.268.778-11.74,6.491L20.49,35.022a16.975,16.975,0,0,0,3.224,8.216.944.944,0,0,0,1.02.778l9.646.507c1.13,0-4.658-15.552-6.035-12.307v12.07l1.488-6.762-5.512,4.6L31.6,40.871q.5-12.442,2.756-7.709c.606.744.386,1.454-.606,2.1l1.819-1.082-2.343.609c-.827.2-.193.778,0,1.183.413,1.352,5.319,1.048,6.339,1.15C41.187,37.185,49.455,39.18,50.53,36.644Z" transform="translate(-10.073 1.144)" fill="#fcbf2f" opacity="0.11"/>
      <path id="Path_83" data-name="Path 83" d="M54.439,34.879A14.459,14.459,0,0,0,51.3,21.355l-7.661-5.748a10.126,10.126,0,0,0-10.472,1.42C28.7,19.09,22.14,24.668,22.14,31.836c0,5.612,4.492,7.878,4.685,12.915,0,1.285,3.28,2.806,3.941,2.806s2.287-.44,1.13-1.69l-3.555-3.854.606,1.42-1.075-5.68q7.11-15.823,13.256-8.081c1.1,1.15,3.665,4.8,1.9,6.762s4.272,1.082,4.354,1.048C49.065,37.178,53.778,37.212,54.439,34.879Z" transform="translate(-7.175 -8.011)" fill="#fcbf2f" opacity="0.11"/>
      <path id="Path_84" data-name="Path 84" d="M24.059,33.8l28.193,1.488a9.081,9.081,0,0,0-2.177-7.844,18.255,18.255,0,0,0-10-8.689,29.115,29.115,0,0,0-9.425,1.555c-7.606,3.009-8.047,7.878-11.024,15.654-.634,1.724,3.528,4.192,4.106,4.666,3.437,6.094,10.006,8.155,15.406,4.835,1.378-.237-2.756-13.524-2.756-13.524a22.364,22.364,0,0,0-2.315-6.762c-.276-.338-1.13-2.164-1.3-.372l-1.709,18.46,1.957-8.824L23.7,44.581l9.7-2.536L21.193,35.959l7.358,7.573,22.185-5.376c3.61-.879-8.6-2.874-6.669-2.6-4.382-.575-8.764-1.082-13.146-1.488a24.591,24.591,0,0,0-6.862-.27Z" transform="translate(-11.712 1.525)" fill="#fcbf2f" opacity="0.11"/>
      <path id="Path_85" data-name="Path 85" d="M17,39.2q39.024,18.291,36.378-8.52A17.947,17.947,0,0,0,46.571,20.54c-3.555-4.936-8.13-5.646-13.78-2.231a79.731,79.731,0,0,0-8.268,6.086c-2.756,2.029-2.039,25.256-1.571,25.188a44.757,44.757,0,0,1,17.969-.913c2.591.169-5.512-7.573-4.988-7.1-.551-.507-7.11-7-6.835-4.125l.772,8.148.937-1.15-5.346-1.116,4.52,5.714L21.713,34.334l4.024,18.933C26.7,52.49,52.689,30.446,53.3,30.682a13.837,13.837,0,0,0-7.11.642c-5.374,1.183-10.721,2.5-16.067,3.888-2.453.609-4.906,1.251-7.331,1.995A28.487,28.487,0,0,0,17,39.2Z" transform="translate(-16.201 -4.559)" fill="#fcbf2f" opacity="0.11"/>
      <path id="Path_86" data-name="Path 86" d="M26.652,34.977q28.937,15.789,25.933-4.869l-3.776-6.559c-4.906-6.762-11.024-6.762-17.638-3.685s-7.276,5.173-9.508,11.36c-2.756,7.607-1.709,5.342,2.535,14.166.689,1.454,5.291.575,6.311.507l8.543-.575c1.681,0-6.972-18.6-7.469-17.513l-.8,16.06,1.075-6.593-7.689,6.931H32.66L21.471,36.059l6.394,8.892,23.508-7.235c2.756-.845-4.189-1.86-4.52-1.893a109.193,109.193,0,0,0-20.2-.845Z" transform="translate(-10.695 -0.536)" fill="#fcbf2f" opacity="0.11"/>
      <path id="Path_87" data-name="Path 87" d="M55.975,42.374c2.756-8.588-2.756-18.528-9.287-22.01A17.026,17.026,0,0,0,28.746,23.2c-8.709,8.013-4.492,16.533-6.2,27.961-.441,2.908,5.291,3.922,4.768,2.062q-6.5-14.775,4.079-23.4Q41.148,7.82,52.337,40.446C51.4,42.745,55.561,43.591,55.975,42.374Z" transform="translate(-6.506 2.041)" fill="#fcbf2f" opacity="0.11"/>
    </g>
  </g>
  <ellipse id="Ellipse_1" data-name="Ellipse 1" cx="1.378" cy="1.69" rx="1.378" ry="1.69" transform="translate(219.182 89.6)" fill="#fcbf2f" opacity="0.48"/>
  <ellipse id="Ellipse_2" data-name="Ellipse 2" cx="0.441" cy="0.541" rx="0.441" ry="0.541" transform="translate(280.158 27.992)" fill="#fcbf2f"/>
  <ellipse id="Ellipse_3" data-name="Ellipse 3" cx="0.441" cy="0.541" rx="0.441" ry="0.541" transform="translate(239.701 67.135)" fill="#fcbf2f"/>
  <ellipse id="Ellipse_4" data-name="Ellipse 4" cx="0.441" cy="0.541" rx="0.441" ry="0.541" transform="translate(222.76 26.355)" fill="#fcbf2f"/>
  <ellipse id="Ellipse_5" data-name="Ellipse 5" cx="0.441" cy="0.541" rx="0.441" ry="0.541" transform="translate(194.85 11.529)" fill="#fcbf2f"/>
  <ellipse id="Ellipse_6" data-name="Ellipse 6" cx="0.441" cy="0.541" rx="0.441" ry="0.541" transform="translate(276.795 36.335)" fill="#fcbf2f"/>
  <ellipse id="Ellipse_7" data-name="Ellipse 7" cx="0.441" cy="0.541" rx="0.441" ry="0.541" transform="translate(223.506 36.725)" fill="#fcbf2f"/>
  <ellipse id="Ellipse_8" data-name="Ellipse 8" cx="0.441" cy="0.541" rx="0.441" ry="0.541" transform="translate(211.044 28.655)" fill="#fcbf2f"/>
  <ellipse id="Ellipse_9" data-name="Ellipse 9" cx="0.441" cy="0.541" rx="0.441" ry="0.541" transform="translate(206.967 80.117)" fill="#fcbf2f"/>
  <ellipse id="Ellipse_10" data-name="Ellipse 10" cx="0.441" cy="0.541" rx="0.441" ry="0.541" transform="translate(199.329 42.612)" fill="#fcbf2f"/>
  <ellipse id="Ellipse_11" data-name="Ellipse 11" cx="0.441" cy="0.541" rx="0.441" ry="0.541" transform="translate(280.957 52.749)" fill="#fcbf2f"/>
  <ellipse id="Ellipse_12" data-name="Ellipse 12" cx="0.441" cy="0.541" rx="0.441" ry="0.541" transform="translate(164.528 31.618)" fill="#fcbf2f"/>
  <ellipse id="Ellipse_13" data-name="Ellipse 13" cx="0.441" cy="0.541" rx="0.441" ry="0.541" transform="translate(278.697 33.528)" fill="#fcbf2f"/>
  <ellipse id="Ellipse_14" data-name="Ellipse 14" cx="0.441" cy="0.541" rx="0.441" ry="0.541" transform="translate(189.796 99.508)" fill="#fcbf2f"/>
  <ellipse id="Ellipse_15" data-name="Ellipse 15" cx="0.441" cy="0.541" rx="0.441" ry="0.541" transform="translate(198.755 26.082)" fill="#fcbf2f"/>
  <ellipse id="Ellipse_16" data-name="Ellipse 16" cx="1.378" cy="1.69" rx="1.378" ry="1.69" transform="translate(201.837 27.025)" fill="#fcbf2f" opacity="0.33"/>
  <ellipse id="Ellipse_17" data-name="Ellipse 17" cx="1.378" cy="1.69" rx="1.378" ry="1.69" transform="translate(236.527 81.778)" fill="#fcbf2f" opacity="0.25"/>
  <ellipse id="Ellipse_18" data-name="Ellipse 18" cx="0.441" cy="0.541" rx="0.441" ry="0.541" transform="translate(184.743 27.252)" fill="#fcbf2f" opacity="0.48"/>
  <ellipse id="Ellipse_19" data-name="Ellipse 19" cx="0.441" cy="0.541" rx="0.441" ry="0.541" transform="translate(158.499 45.536)" fill="#fcbf2f" opacity="0.48"/>
  <ellipse id="Ellipse_20" data-name="Ellipse 20" cx="0.441" cy="0.541" rx="0.441" ry="0.541" transform="translate(147.3 55.244)" fill="#fcbf2f" opacity="0.48"/>
  <ellipse id="Ellipse_21" data-name="Ellipse 21" cx="0.441" cy="0.541" rx="0.441" ry="0.541" transform="translate(195.195 33.723)" fill="#fcbf2f" opacity="0.48"/>
  <ellipse id="Ellipse_22" data-name="Ellipse 22" cx="0.441" cy="0.541" rx="0.441" ry="0.541" transform="translate(190.313 49.942)" fill="#fcbf2f" opacity="0.48"/>
  <ellipse id="Ellipse_23" data-name="Ellipse 23" cx="0.441" cy="0.541" rx="0.441" ry="0.541" transform="translate(175.956 56.374)" fill="#fcbf2f" opacity="0.48"/>
  <ellipse id="Ellipse_24" data-name="Ellipse 24" cx="0.441" cy="0.541" rx="0.441" ry="0.541" transform="translate(193.472 67.213)" fill="#fcbf2f" opacity="0.48"/>
  <ellipse id="Ellipse_25" data-name="Ellipse 25" cx="0.441" cy="0.541" rx="0.441" ry="0.541" transform="translate(220.692 31.579)" fill="#fcbf2f" opacity="0.48"/>
  <ellipse id="Ellipse_26" data-name="Ellipse 26" cx="0.441" cy="0.541" rx="0.441" ry="0.541" transform="translate(169.697 35.829)" fill="#fcbf2f" opacity="0.48"/>
  <ellipse id="Ellipse_27" data-name="Ellipse 27" cx="0.441" cy="0.541" rx="0.441" ry="0.541" transform="translate(191.979 30.448)" fill="#fcbf2f" opacity="0.48"/>
  <ellipse id="Ellipse_28" data-name="Ellipse 28" cx="0.441" cy="0.541" rx="0.441" ry="0.541" transform="translate(169.582 63.938)" fill="#fcbf2f" opacity="0.48"/>
  <ellipse id="Ellipse_29" data-name="Ellipse 29" cx="0.441" cy="0.541" rx="0.441" ry="0.541" transform="translate(196.917 79.259)" fill="#fcbf2f" opacity="0.23"/>
  <ellipse id="Ellipse_30" data-name="Ellipse 30" cx="0.441" cy="0.541" rx="0.441" ry="0.541" transform="translate(164.816 65.926)" fill="#fcbf2f" opacity="0.23"/>
  <ellipse id="Ellipse_31" data-name="Ellipse 31" cx="0.441" cy="0.541" rx="0.441" ry="0.541" transform="translate(148.391 60.663)" fill="#fcbf2f" opacity="0.23"/>
  <ellipse id="Ellipse_32" data-name="Ellipse 32" cx="0.441" cy="0.541" rx="0.441" ry="0.541" transform="translate(189.911 87.603)" fill="#fcbf2f" opacity="0.23"/>
  <ellipse id="Ellipse_33" data-name="Ellipse 33" cx="0.441" cy="0.541" rx="0.441" ry="0.541" transform="translate(165.562 87.992)" fill="#fcbf2f" opacity="0.23"/>
  <ellipse id="Ellipse_34" data-name="Ellipse 34" cx="0.441" cy="0.541" rx="0.441" ry="0.541" transform="translate(153.101 79.922)" fill="#fcbf2f" opacity="0.23"/>
  <ellipse id="Ellipse_35" data-name="Ellipse 35" cx="0.441" cy="0.541" rx="0.441" ry="0.541" transform="translate(141.385 96.566)" fill="#fcbf2f" opacity="0.23"/>
  <ellipse id="Ellipse_36" data-name="Ellipse 36" cx="0.441" cy="0.541" rx="0.441" ry="0.541" transform="translate(198.583 105.357)" fill="#fcbf2f" opacity="0.23"/>
  <ellipse id="Ellipse_37" data-name="Ellipse 37" cx="0.441" cy="0.541" rx="0.441" ry="0.541" transform="translate(181.24 71.189)" fill="#fcbf2f" opacity="0.23"/>
  <ellipse id="Ellipse_38" data-name="Ellipse 38" cx="0.441" cy="0.541" rx="0.441" ry="0.541" transform="translate(193.874 84.795)" fill="#fcbf2f" opacity="0.23"/>
  <ellipse id="Ellipse_39" data-name="Ellipse 39" cx="0.441" cy="0.541" rx="0.441" ry="0.541" transform="translate(140.811 77.349)" fill="#fcbf2f" opacity="0.23"/>
  <ellipse id="Ellipse_40" data-name="Ellipse 40" cx="0.441" cy="0.541" rx="0.441" ry="0.541" transform="translate(18.382 65.224)" fill="#fcbf2f"/>
  <ellipse id="Ellipse_41" data-name="Ellipse 41" cx="0.441" cy="0.541" rx="0.441" ry="0.541" transform="translate(19.512 95.687)" fill="#fcbf2f"/>
  <ellipse id="Ellipse_42" data-name="Ellipse 42" cx="0.441" cy="0.541" rx="0.441" ry="0.541" transform="translate(60.586 101.773)" fill="#fcbf2f"/>
  <ellipse id="Ellipse_43" data-name="Ellipse 43" cx="0.441" cy="0.541" rx="0.441" ry="0.541" transform="translate(27.366 61.443)" fill="#fcbf2f"/>
  <ellipse id="Ellipse_44" data-name="Ellipse 44" cx="0.441" cy="0.541" rx="0.441" ry="0.541" transform="translate(71.095 71.072)" fill="#fcbf2f"/>
  <ellipse id="Ellipse_45" data-name="Ellipse 45" cx="0.441" cy="0.541" rx="0.441" ry="0.541" transform="translate(73.851 82.612)" fill="#fcbf2f"/>
  <ellipse id="Ellipse_46" data-name="Ellipse 46" cx="0.441" cy="0.541" rx="0.441" ry="0.541" transform="translate(95.616 76.257)" fill="#fcbf2f"/>
  <ellipse id="Ellipse_47" data-name="Ellipse 47" cx="0.441" cy="0.541" rx="0.441" ry="0.541" transform="translate(28.276 44.756)" fill="#fcbf2f"/>
  <ellipse id="Ellipse_48" data-name="Ellipse 48" cx="0.441" cy="0.541" rx="0.441" ry="0.541" transform="translate(20.945 78.09)" fill="#fcbf2f"/>
  <ellipse id="Ellipse_49" data-name="Ellipse 49" cx="0.441" cy="0.541" rx="0.441" ry="0.541" transform="translate(19.154 50.37)" fill="#fcbf2f"/>
  <ellipse id="Ellipse_50" data-name="Ellipse 50" cx="0.441" cy="0.541" rx="0.441" ry="0.541" transform="translate(87.117 89.669)" fill="#fcbf2f"/>
  <ellipse id="Ellipse_51" data-name="Ellipse 51" cx="0.441" cy="0.541" rx="0.441" ry="0.541" transform="translate(87.117 61.832)" fill="#fcbf2f" opacity="0.31"/>
  <ellipse id="Ellipse_52" data-name="Ellipse 52" cx="0.441" cy="0.541" rx="0.441" ry="0.541" transform="translate(24.693 70.02)" fill="#fcbf2f" opacity="0.31"/>
  <ellipse id="Ellipse_53" data-name="Ellipse 53" cx="0.441" cy="0.541" rx="0.441" ry="0.541" transform="translate(16.811 75.244)" fill="#fcbf2f" opacity="0.31"/>
  <ellipse id="Ellipse_54" data-name="Ellipse 54" cx="0.441" cy="0.541" rx="0.441" ry="0.541" transform="translate(92.056 70.799)" fill="#fcbf2f" opacity="0.31"/>
  <ellipse id="Ellipse_55" data-name="Ellipse 55" cx="0.441" cy="0.541" rx="0.441" ry="0.541" transform="translate(76.895 83.743)" fill="#fcbf2f" opacity="0.31"/>
  <ellipse id="Ellipse_56" data-name="Ellipse 56" cx="0.441" cy="0.541" rx="0.441" ry="0.541" transform="translate(76.713 85.068)" fill="#fcbf2f" opacity="0.31"/>
  <ellipse id="Ellipse_57" data-name="Ellipse 57" cx="0.441" cy="0.541" rx="0.441" ry="0.541" transform="translate(68.108 101.976)" fill="#fcbf2f" opacity="0.31"/>
  <ellipse id="Ellipse_58" data-name="Ellipse 58" cx="0.441" cy="0.541" rx="0.441" ry="0.541" transform="translate(116.175 76.764)" fill="#fcbf2f" opacity="0.31"/>
  <ellipse id="Ellipse_59" data-name="Ellipse 59" cx="0.441" cy="0.541" rx="0.441" ry="0.541" transform="translate(67.936 64.834)" fill="#fcbf2f" opacity="0.31"/>
  <ellipse id="Ellipse_60" data-name="Ellipse 60" cx="0.441" cy="0.541" rx="0.441" ry="0.541" transform="translate(91.424 66.901)" fill="#fcbf2f" opacity="0.31"/>
  <ellipse id="Ellipse_61" data-name="Ellipse 61" cx="0.441" cy="0.541" rx="0.441" ry="0.541" transform="translate(23.536 89.825)" fill="#fcbf2f" opacity="0.31"/>
  <ellipse id="Ellipse_62" data-name="Ellipse 62" cx="1.378" cy="1.69" rx="1.378" ry="1.69" transform="translate(21.799 46.579)" fill="#fcbf2f" opacity="0.25"/>
  <ellipse id="Ellipse_63" data-name="Ellipse 63" cx="1.378" cy="1.69" rx="1.378" ry="1.69" transform="translate(63.078 30.936)" fill="#fcbf2f" opacity="0.25"/>
  <ellipse id="Ellipse_64" data-name="Ellipse 64" cx="1.378" cy="1.69" rx="1.378" ry="1.69" transform="translate(21.799 95.991)" fill="#fcbf2f" opacity="0.25"/>
  <ellipse id="Ellipse_65" data-name="Ellipse 65" cx="1.378" cy="1.69" rx="1.378" ry="1.69" transform="translate(63.078 42.669)" fill="#fcbf2f" opacity="0.48"/>
  <g id="Group_41" data-name="Group 41" transform="translate(248.795 32.565)" opacity="0.43">
    <g id="Group_40" data-name="Group 40">
      <path id="Path_88" data-name="Path 88" d="M33.81,37.668q37.729,12.374,35.827-14.3A23.8,23.8,0,0,0,59.5,9.572c-6.986-.985-13.962,1.946-18.988,7.979A26.222,26.222,0,0,0,36.7,28.1a22.91,22.91,0,0,0,1.047,5.984c.661,2.806,1.378,5.579,2.15,8.351.469,1.657,1.488,8.723,3.362,8.791,7.441.27,5.925-.44,13.256-5.105-.193,0,3.28-2.4,1.406-2.7L41.582,37.059l7.11,14.369L69.637,23.366H68.562a46.612,46.612,0,0,0-13.008,4.463c-5.154,2.029-10.307,4.057-15.406,6.289A23.654,23.654,0,0,0,35.9,36.113a3.764,3.764,0,0,0-2.094,1.555Z" transform="translate(-31.826 -2.149)" fill="#fcbf2f" opacity="0.11"/>
      <path id="Path_89" data-name="Path 89" d="M70.206,29.4A13.68,13.68,0,0,0,66.457,17.84c-4.1-6.826-11.695-8.865-17.748-4.767-8.984,3.99-8.791,7.134-12.016,16.9C36.225,31.33,41.323,46,42.949,45.226l14.8-2.84c.441,0-.3-2.13-.331-2.2a36.866,36.866,0,0,0-4.713-7.709c-.276-.406-4.382-6.931-4.547-4.159L41.323,38.464l6.394,4.294L37.686,29.369,43.2,45.125,69.461,25.549,36.253,32.311l-1.213.98a4.618,4.618,0,0,0,3.8.609c4.657-.338,9.343-.744,14-1.319C52.6,32.649,70.288,31.533,70.206,29.4Z" transform="translate(-29.666 1.62)" fill="#fcbf2f" opacity="0.11"/>
      <path id="Path_90" data-name="Path 90" d="M69.586,29.341c3.5-8.385-3.555-19.069-10.114-21.4-4.824-1.691-10.017-.251-13.78,3.821l-4.106,3.381c-8.02,10.143,2.756,14.538-1.9,25.154-.854,1.927,5.126,3.685,4.465.913q-4.3-15.958,9.48-11.326,13.146-5.443,8.543.642c-1.075,1.657,2.15,1.183,2.2,1.15C65.452,31.5,68.952,30.9,69.586,29.341Z" transform="translate(-23.562 -7.244)" fill="#fcbf2f" opacity="0.11"/>
      <path id="Path_91" data-name="Path 91" d="M72.229,36.006a12.712,12.712,0,0,0,.689-7.81A45.275,45.275,0,0,0,69.8,20.927a43.094,43.094,0,0,0-6.724-6.762,33.493,33.493,0,0,0-8.984-1.082,45.9,45.9,0,0,0-8.736,4.159c-8.957,6.931-3.693,16.9-7.193,27.048-.937,2.671,5.98,4.8,5.512,2.57q-7.441-31.342,24.8-12.51C67.571,36.479,71.788,37.257,72.229,36.006Z" transform="translate(-24.331 6.647)" fill="#fcbf2f" opacity="0.11"/>
      <path id="Path_92" data-name="Path 92" d="M33.09,31.626Q73.519,53.332,70.46,25.81a18,18,0,0,0-6.917-10.143Q58.169,8.5,49.956,13.4a29.725,29.725,0,0,0-8.268,5.984C39.649,20.942,38,40.923,39.842,41.4c13.559,3.381,0,.2,18.63.642.413,0-.634-2.772-.661-2.84a109.515,109.515,0,0,0-6.366-11.157A31.572,31.572,0,0,0,47.09,21.28c-.551-.473-1.516-1.826-1.433,0l.8,12.408.386-1.42L42.157,38.59l5.319,2.772L38.85,29.293,42.6,44.811c1.075-.473,26.7-12.645,27.366-12.239a13.742,13.742,0,0,0-7.055-1.183c-5.512-.237-10.858-.3-16.287-.3C42.9,31.119,36.673,29.935,33.09,31.626Z" transform="translate(-33.09 2.676)" fill="#fcbf2f" opacity="0.11"/>
      <path id="Path_93" data-name="Path 93" d="M33.52,35.329q38.583,16.3,37.288-8.993a11.71,11.71,0,0,0-3.39-9.3l-7-6.762c-6.937-1.1-13.908,1.707-18.961,7.641-2.48,1.86-3.307,27.859-1.929,28.062a18.526,18.526,0,0,0,7.413.811l9.949-2.4c1.516-.778,1.819-.44.689-1.758s-5.843-1.082-7.689-1.251a30.069,30.069,0,0,0-3.913,0c-1.929.98-3.087-.372-3.5-4.023L44.213,40.1,38.7,28.229l3.528,21.943c.992-.913,27.835-26.135,28.634-25.966a15.3,15.3,0,0,0-7.3,1.183c-5.512,1.589-11.024,3.381-16.536,5.105-2.535.778-5.016,1.623-7.524,2.536a30.937,30.937,0,0,0-5.98,2.3Z" transform="translate(-32.335 -0.587)" fill="#fcbf2f" opacity="0.11"/>
      <path id="Path_94" data-name="Path 94" d="M66.882,31.168c1.853-4.439.8-9.871-2.48-12.814L57.319,13.08a33.131,33.131,0,0,0-4.8.575c-4.685.575-8.268.778-11.713,6.491L36.87,29.714a16.969,16.969,0,0,0,3.114,8.013,1.03,1.03,0,0,0,1.047.811l9.646.473c1.13,0-4.658-15.552-6.063-12.307v12.1l1.516-6.762-5.319,4.429,7.276-1.251c.331-8.25,1.213-10.819,2.756-7.709.606.744.386,1.454-.606,2.13l1.819-1.082-2.343.575c-.854.2-.193.811,0,1.183.441,1.352,5.346,1.048,6.366,1.15C57.567,31.709,65.78,33.67,66.882,31.168Z" transform="translate(-26.453 6.65)" fill="#fcbf2f" opacity="0.11"/>
      <path id="Path_95" data-name="Path 95" d="M70.819,29.477A14.574,14.574,0,0,0,67.65,15.953L60.016,10.07a10.1,10.1,0,0,0-10.472,1.42C45.079,13.519,38.52,19.1,38.52,26.265c0,5.612,4.492,7.911,4.685,12.949,0,1.251,3.28,2.772,3.913,2.772s2.315-.406,1.157-1.69L44.8,36.442,45.41,37.9l-1.075-5.714c4.74-10.549,9.15-13.253,13.228-8.047,1.13,1.116,3.693,4.767,1.929,6.762s4.244,1.082,4.354,1.082C65.418,31.776,70.158,31.776,70.819,29.477Z" transform="translate(-23.555 -2.579)" fill="#fcbf2f" opacity="0.11"/>
      <path id="Path_96" data-name="Path 96" d="M40.369,28.285l28.193,1.488a9.11,9.11,0,0,0-2.2-7.844,18.254,18.254,0,0,0-9.894-8.689,29.11,29.11,0,0,0-9.4,1.589c-7.634,2.975-8.075,7.844-11.024,15.62-.634,1.724,3.528,4.192,4.079,4.666,3.439,6.112,10.026,8.175,15.433,4.835,1.378-.237-2.756-13.524-2.756-13.524a22.979,22.979,0,0,0-2.315-6.762c-.276-.3-1.157-2.164-1.323-.372L47.424,37.651l1.984-8.858L40.093,38.935l9.728-2.468-12.347-6.12,7.386,7.573,22.047-5.376c3.61-.879-8.626-2.874-6.669-2.57q-6.559-.913-13.146-1.521a24.578,24.578,0,0,0-6.724-.169Z" transform="translate(-28.022 7.031)" fill="#fcbf2f" opacity="0.11"/>
      <path id="Path_97" data-name="Path 97" d="M33.41,33.641q39.079,18.291,36.406-8.52a18.082,18.082,0,0,0-6.807-10.143q-5.319-7.337-13.78-2.2a79,79,0,0,0-8.268,6.052C38.205,20.9,38.894,44.089,39.39,44.021a44.753,44.753,0,0,1,17.969-.879c2.591,0-5.512-7.607-4.988-7.1-.551-.541-7.11-7.032-6.862-4.159l.772,8.182.965-1.15-5.512-1.15L46.28,43.48,38.012,28.807l4,18.933c.965-.811,26.98-22.822,27.559-22.619a14.359,14.359,0,0,0-7.138.676c-5.346,1.15-10.693,2.5-16.039,3.888-2.453.575-4.906,1.251-7.331,1.961A31.668,31.668,0,0,0,33.41,33.641Z" transform="translate(-32.528 0.897)" fill="#fcbf2f" opacity="0.11"/>
      <path id="Path_98" data-name="Path 98" d="M43.033,29.462Q71.97,45.251,68.966,24.627L65.19,18.034c-4.906-6.762-11.024-6.762-17.638-3.651s-7.276,5.071-9.508,11.36c-2.756,7.573-1.709,5.308,2.508,14.132.689,1.454,5.319.609,6.339.541l8.433-.541c1.654,0-6.972-18.6-7.469-17.513l-.772,16.026,1.1-6.762-7.579,7.066H49.1l-11.244-8.25,6.394,8.892,23.48-7.269c2.756-.845-4.189-1.86-4.492-1.893a115.389,115.389,0,0,0-20.2-.71Z" transform="translate(-27.076 4.975)" fill="#fcbf2f" opacity="0.11"/>
      <path id="Path_99" data-name="Path 99" d="M72.244,36.856C75,28.268,69.489,18.328,62.957,14.879a16.955,16.955,0,0,0-17.941,2.806c-8.6,8.013-4.409,16.533-6.091,28.028-.441,2.908,5.291,3.956,4.768,2.062q-6.5-14.741,4.079-23.363Q57.528,2.37,68.717,35C67.863,37.363,71.941,38.073,72.244,36.856Z" transform="translate(-22.886 7.555)" fill="#fcbf2f" opacity="0.11"/>
    </g>
  </g>
  <path id="Path_292" data-name="Path 292" d="M.56,0a.414.414,0,0,1,.456.485.664.664,0,0,1-.558.588A.414.414,0,0,1,0,.59.664.664,0,0,1,.56,0Z" transform="translate(10.491 65.791) rotate(-36.88)" fill="#fcbf2f"/>
  <path id="Path_293" data-name="Path 293" d="M.56,0a.414.414,0,0,1,.456.485.664.664,0,0,1-.558.588A.414.414,0,0,1,0,.59.664.664,0,0,1,.56,0Z" transform="translate(11.574 92.804) rotate(-36.88)" fill="#fcbf2f"/>
  <path id="Path_294" data-name="Path 294" d="M.56,0a.414.414,0,0,1,.456.485.664.664,0,0,1-.558.588A.414.414,0,0,1,0,.59.664.664,0,0,1,.56,0Z" transform="translate(16.373 80.111) rotate(-36.88)" fill="#fcbf2f"/>
  <path id="Path_295" data-name="Path 295" d="M.56,0a.414.414,0,0,1,.456.485.664.664,0,0,1-.558.588A.414.414,0,0,1,0,.59.664.664,0,0,1,.56,0Z" transform="translate(14.457 49.175) rotate(-36.88)" fill="#fcbf2f"/>
  <path id="Path_296" data-name="Path 296" d="M.56,0a.414.414,0,0,1,.456.485.664.664,0,0,1-.558.588A.414.414,0,0,1,0,.59.664.664,0,0,1,.56,0Z" transform="translate(82.931 99.129) rotate(-36.88)" fill="#fcbf2f"/>
  <ellipse id="Ellipse_71" data-name="Ellipse 71" cx="0.469" cy="0.575" rx="0.469" ry="0.575" transform="translate(217.921 28.268)" fill="#fcbf2f"/>
  <ellipse id="Ellipse_72" data-name="Ellipse 72" cx="0.469" cy="0.575" rx="0.469" ry="0.575" transform="translate(223.493 54.235)" fill="#fcbf2f"/>
  <ellipse id="Ellipse_73" data-name="Ellipse 73" cx="0.469" cy="0.575" rx="0.469" ry="0.575" transform="translate(241.873 42.694)" fill="#fcbf2f"/>
  <ellipse id="Ellipse_74" data-name="Ellipse 74" cx="0.469" cy="0.575" rx="0.469" ry="0.575" transform="translate(226.348 10.109)" fill="#fcbf2f"/>
  <ellipse id="Ellipse_75" data-name="Ellipse 75" cx="0.469" cy="0.575" rx="0.469" ry="0.575" transform="translate(291.732 47.88)" fill="#fcbf2f"/>
  <ellipse id="Ellipse_76" data-name="Ellipse 76" cx="1.378" cy="1.69" rx="1.378" ry="1.69" transform="translate(10.776 77.867)" fill="#fcbf2f" opacity="0.25"/>
  <ellipse id="Ellipse_77" data-name="Ellipse 77" cx="1.378" cy="1.69" rx="1.378" ry="1.69" transform="translate(68.859 89.6)" fill="#fcbf2f" opacity="0.25"/>
  <ellipse id="Ellipse_78" data-name="Ellipse 78" cx="1.378" cy="1.69" rx="1.378" ry="1.69" transform="translate(230.745 42.669)" fill="#fcbf2f" opacity="0.25"/>
  <ellipse id="Ellipse_79" data-name="Ellipse 79" cx="1.378" cy="1.69" rx="1.378" ry="1.69" transform="translate(242.308 23.114)" fill="#fcbf2f" opacity="0.25"/>
</svg>
