<svg xmlns="http://www.w3.org/2000/svg" width="649.64" height="489.152" viewBox="0 0 649.64 489.152">
  <g id="Group_177" data-name="Group 177" transform="translate(-91.366 -265.982)">
    <g id="Group_73" data-name="Group 73" transform="translate(259.822 265.982)">
      <path id="Path_301" data-name="Path 301" d="M234.409,261.633c77.845-27.364,49.124-31.653,132.664-42.178s94.932-17.334,129.108,1.857,124.547,40.32,124.547,40.32l-92.27,63.67L408.844,341.539l-80.106-27.364Z" transform="translate(-186.99 -176.828)" fill="#1b0b0d"/>
      <path id="Path_302" data-name="Path 302" d="M993.276,629.515c-10.387,11.519-16.6,9.762-17.753,9.377-11.978-4-14.934-39.509-5.081-46.039,3.076-2.039,7.243-1.149,13.094.1,5.407,1.154,11.469,2.448,14.623,6.945C1002.657,606.311,1000.747,618.532,993.276,629.515Z" transform="translate(-755.882 -474.848)" fill="#fff"/>
      <path id="Path_303" data-name="Path 303" d="M1117.583,629.981c8.934,12.929,15.3,12.091,16.49,11.877,12.348-2.226,19.479-37,10.484-44.9-2.808-2.469-7.044-2.193-12.992-1.805-5.5.358-11.659.759-15.319,4.759C1111.028,605.613,1111.476,618.007,1117.583,629.981Z" transform="translate(-871.295 -477.384)" fill="#fff"/>
      <path id="Path_304" data-name="Path 304" d="M856.138,630.347c-9.3,12.606-15.643,11.542-16.824,11.286-12.278-2.663-18.4-37.668-9.183-45.252,2.878-2.368,7.1-1.942,13.038-1.344,5.484.553,11.632,1.172,15.174,5.3C863.393,606.224,862.587,618.6,856.138,630.347Z" transform="translate(-647.703 -477.129)" fill="#fff"/>
      <path id="Path_305" data-name="Path 305" d="M1258.02,624.323c8.365,13.39,14.761,12.891,15.958,12.74,12.431-1.567,21.057-35.917,12.415-44.294-2.7-2.615-6.942-2.565-12.9-2.494-5.506.065-11.679.138-15.507,3.939C1252.527,599.635,1252.438,612.038,1258.02,624.323Z" transform="translate(-981.333 -473.767)" fill="#fff"/>
      <path id="Path_306" data-name="Path 306" d="M1571,311.415c6.145,7.437,5.2,9.731-21.839,22.992-11.963,5.866-20.747-2.145-27.085-11.483-5.3-7.805,8.439-18.34,21.991-20.956S1564.2,303.186,1571,311.415Z" transform="translate(-1189.413 -248.504)" fill="#fff"/>
      <path id="Path_307" data-name="Path 307" d="M1401.516,245.949c-.938,15.8-3.438,18.553-34.739,18.37-13.846-.081-14.523-18.711-12.271-37.518,1.882-15.72,20.708-21.354,33.29-15.188S1402.555,228.471,1401.516,245.949Z" transform="translate(-1058.987 -176.828)" fill="#fff"/>
      <path id="Path_308" data-name="Path 308" d="M1172.023,180.129c-.937,20.034-4.153,23.477-45.05,22.542-18.091-.414-19.316-24.081-16.718-47.908,2.172-19.916,26.664-26.646,43.214-18.534S1173.06,157.963,1172.023,180.129Z" transform="translate(-868.634 -117.379)" fill="#fff"/>
      <path id="Path_309" data-name="Path 309" d="M525.853,236.136c7.341,13.675,6.587,17.517-20.766,36.869-12.1,8.561-22.311-6.456-30.063-23.444-6.479-14.2,7.006-30.6,21.147-33.328S517.731,221.006,525.853,236.136Z" transform="translate(-373.171 -181.904)" fill="#fff"/>
      <path id="Path_310" data-name="Path 310" d="M696.792,245.949c-.938,15.8-3.438,18.553-34.739,18.37-13.846-.081-14.523-18.711-12.272-37.518,1.882-15.72,20.708-21.354,33.29-15.188S697.831,228.471,696.792,245.949Z" transform="translate(-509.876 -176.828)" fill="#fff"/>
      <path id="Path_311" data-name="Path 311" d="M912.473,180.129c-.937,20.034-4.153,23.477-45.05,22.542-18.091-.414-19.316-24.081-16.718-47.908,2.172-19.916,26.664-26.646,43.214-18.534S913.51,157.963,912.473,180.129Z" transform="translate(-666.396 -117.379)" fill="#fff"/>
      <g id="Group_71" data-name="Group 71" transform="translate(5.167 80.456)">
        <path id="Path_312" data-name="Path 312" d="M507.732,434.313c-2.689,2.51-4.7-.125-10.56,4.331-13.785,10.481-43.959,26.83-64.906,51.4-49.96,58.619-153.786,64.613-153.786,64.613s-109.091-1-153.758-64.613c-19.361-27.552-47.016-43.493-67.142-51.778a143.584,143.584,0,0,0-14.521-5.115c1.727-.722,3.793-1.538,6.171-2.448,12.822-1.318,32.354-3.389,36.09-3.389a147.717,147.717,0,0,1,26.523,2.291,79.105,79.105,0,0,0,17.719.753A44.887,44.887,0,0,1,138,434.407a13.629,13.629,0,0,1,3.935,3.546c6.482,9.226,29.155,18.515,57.008,23.849,0,0,9.4,2.887,22.192,6.057,18.031,4.425,42.827,9.383,57.348,7.374,24.8,3.452,79.54-13.431,79.54-13.431,27.853-5.334,46.337-16,55.423-22a56.657,56.657,0,0,1,9.341-5.052,76.6,76.6,0,0,1,9.086-2.824l12.879-2.259c.142-.032.255-.032.368-.063a147.934,147.934,0,0,1,26.523-2.291c4.189,0,17.974-.314,25.843-.22C498.729,427.5,506.571,433.9,507.732,434.313Z" transform="translate(-43.06 -427.077)" fill="#b5051b"/>
      </g>
      <path id="Path_313" data-name="Path 313" d="M1823.473,426.458l17.352-.722A77.976,77.976,0,0,1,1823.473,426.458Z" transform="translate(-1425.165 -345.577)" fill="#fff" stroke="#161615" stroke-miterlimit="10" stroke-width="0.25"/>
      <path id="Path_314" data-name="Path 314" d="M707.359,544.406s22.671,38.628,66.86,22.825,58.649-33.884,58.649-33.884l85.548-63.824L816.3,505.07c-.021-1.318-46.87,11.472-105.464-6.229C652.041,481.08,707.359,544.406,707.359,544.406Z" transform="translate(-537.126 -379.695)" fill="#db0514"/>
      <path id="Path_315" data-name="Path 315" d="M720.9,133.527c-10.473-.345-69.661-12.772-69.661-12.772l-28.051-11.8c-28.051-11.8-43.761,6.59-43.761,6.59-43.223-14.278-93.948,14.121-93.948,14.121s-8.746,2.95-21.852,6.057c-7.02,1.695-15.71-.189-22.277-2.291a18.179,18.179,0,0,1-11.917-13.682l-.142-.69c3.029-1.726,6.454-3.7,10.077-5.805,19.843-11.548,45.459-27.207,46.563-27.772l32.382-19.268s37.76-13.651,61.112,12.992c23.352-26.642,61.113-12.992,61.113-12.992l32.382,19.268c2.236,1.161,41.128,31.757,68.9,39.854,4.784,1.381,12.228,3.609,20.635,6.213.028.094.056.157.085.251C766.557,143.789,734.232,133.935,720.9,133.527Z" transform="translate(-338.84 -62.719)" fill="#db0514"/>
      <path id="Path_316" data-name="Path 316" d="M500.453,301.821c-2.887.879-2.887.879-21.512,2.134-4.564.307-4.189,0-9.143.031h-.311c-8.265,0-33.288-6.088-42.6-4.362l-17.72.785c-1.5-.063-3.028-.188-4.614-.345-18.739-1.538-41.27-6.81-59.414-12.019-53.923-15.5-84.89-10.261-84.89-10.261s-30.967-5.241-84.89,10.261c-16.927,4.864-37.7,9.759-55.593,11.674-2.915.314-5.718.565-8.435.69a77.143,77.143,0,0,1-17.719-.785c-9.284-1.726-18.257,1.757-26.523,1.757-5.293,0-8.322,1.255-12.964,1.663a144.492,144.492,0,0,1-14.776.533c-9.935-.094-17.295-1.161-19.3-1.757-1.274-.408.707-1.632,4.784-3.358,1.727-.722,3.793-1.538,6.171-2.448,18.2-6.778,53.272-17.51,66.858-21.464,1.613-.471,6.2-2.887,12.257-6.276l.142.69a18.179,18.179,0,0,0,11.917,13.682c6.567,2.1,15.257,3.986,22.277,2.291,13.106-3.107,21.852-6.057,21.852-6.057s50.724-28.4,93.948-14.121c0,0,15.71-18.389,43.761-6.59l28.051,11.8s59.188,12.427,69.661,12.772c13.332.408,45.657,10.261,41.638-1.726-.029-.094-.057-.157-.085-.251,11.577,3.577,24.994,7.845,35.977,11.642,1.245.408,2.463.816,3.623,1.224C494.735,297.8,502.746,301.131,500.453,301.821Z" transform="translate(-19.661 -211.933)" fill="#b5051b"/>
      <path id="Path_317" data-name="Path 317" d="M331.086,471.01c-20.61-10.049-55.844-8.7-55.844-8.7l43.669-2.043Z" transform="translate(-218.806 -372.485)" fill="#530c0e"/>
      <path id="Path_318" data-name="Path 318" d="M1730.487,464.6c3.515-2.622,10.6-3.2,15.2-3.735,5.05-.59,9.814-.9,14.245-1.025l-22.333.439A23.8,23.8,0,0,0,1730.487,464.6Z" transform="translate(-1352.712 -372.153)" fill="#530c0e"/>
      <path id="Path_319" data-name="Path 319" d="M827.394,685.773c1.632,12.739-5.555,27.265-16.169,26.076-11.038-1.236-28.19-17.563-39.318-37.076h0c-12.9-29.3,25.487-7.808,33.408-9.055C815.877,664.056,825.762,673.034,827.394,685.773Z" transform="translate(-603.755 -527.553)" fill="#e8656a"/>
      <ellipse id="Ellipse_280" data-name="Ellipse 280" cx="8.041" cy="8.914" rx="8.041" ry="8.914" transform="translate(213.628 164.712)" fill="#e8656a"/>
      <g id="Group_72" data-name="Group 72" transform="translate(155.875 5.063)">
        <path id="Path_320" data-name="Path 320" d="M725.571,113.241c6.53-9.285,10.992-15.8,21.137-21.239s33.486-11.784,37.4,1.678c3.562,12.243-20.719,2.717-29.383,3.031C743.991,97.1,734.779,107.278,725.571,113.241Z" transform="translate(-725.571 -85.648)" fill="#e8656a"/>
      </g>
      <ellipse id="Ellipse_281" data-name="Ellipse 281" cx="4.992" cy="5.534" rx="4.992" ry="5.534" transform="translate(216.677 11.865)" fill="#e34247"/>
    </g>
    <g id="Group_146" data-name="Group 146" transform="translate(25.23 375.561)">
      <path id="Path_556" data-name="Path 556" d="M576.491,255.287c95.528,148.777-96.6,165.982-230.624,165.545C218.5,420.418,6.378,374.284,115.243,255.287c89.9-98.261,244.01-205.161,253.651-183.837C417.806,179.629,510.924,153.173,576.491,255.287Z" transform="translate(-16 -44.267)" fill="#e5b829" stroke="#f3aca9" stroke-miterlimit="10" stroke-width="6"/>
      <text id="Vi_vil_elske_at_høre_fra_dig_" data-name="Vi vil elske at
høre fra dig… " transform="translate(149.162 230.063)" fill="#052455" font-size="55" font-family="Limelight-Regular, Limelight"><tspan x="0" y="0">Vi vil elske at</tspan><tspan x="0" y="66">høre fra dig… </tspan></text>
    </g>
  </g>
</svg>
