<svg xmlns="http://www.w3.org/2000/svg" width="737.609" height="443.482" viewBox="0 0 737.609 443.482">
  <g id="velkomst" transform="translate(1.902 1.626)">
    <g id="Group_73" data-name="Group 73" transform="translate(189.541 133.55)">
      <path id="Path_301" data-name="Path 301" d="M234.409,249.717c60.165-21.149,37.967-24.464,102.534-32.6s73.372-13.4,99.785,1.436,96.26,31.163,96.26,31.163l-71.314,49.209-92.448,12.549-61.913-21.149Z" transform="translate(-197.759 -184.172)" fill="#1b0b0d"/>
      <path id="Path_302" data-name="Path 302" d="M986.745,620.914c-8.028,8.9-12.83,7.545-13.721,7.247-9.258-3.094-11.542-30.536-3.927-35.583,2.377-1.576,5.6-.888,10.12.077,4.179.892,8.864,1.892,11.3,5.368C994,602.979,992.52,612.425,986.745,620.914Z" transform="translate(-803.268 -501.374)" fill="#fff"/>
      <path id="Path_303" data-name="Path 303" d="M1116.46,622.013c6.905,9.993,11.827,9.345,12.745,9.18,9.544-1.721,15.055-28.594,8.1-34.7-2.17-1.908-5.445-1.695-10.042-1.4-4.248.276-9.011.587-11.84,3.678C1111.394,603.179,1111.74,612.758,1116.46,622.013Z" transform="translate(-926.109 -504.073)" fill="#fff"/>
      <path id="Path_304" data-name="Path 304" d="M849.221,622.221c-7.19,9.743-12.09,8.921-13,8.723-9.489-2.058-14.222-29.113-7.1-34.974,2.224-1.83,5.491-1.5,10.077-1.039,4.238.427,8.99.906,11.727,4.1C854.829,603.577,854.206,613.139,849.221,622.221Z" transform="translate(-688.126 -503.802)" fill="#fff"/>
      <path id="Path_305" data-name="Path 305" d="M1257.076,616.585c6.465,10.349,11.409,9.963,12.333,9.847,9.607-1.211,16.274-27.76,9.6-34.234-2.086-2.021-5.365-1.982-9.97-1.928-4.255.05-9.026.107-11.985,3.044C1252.83,597.5,1252.761,607.09,1257.076,616.585Z" transform="translate(-1043.229 -500.223)" fill="#fff"/>
      <path id="Path_306" data-name="Path 306" d="M1559.624,309.084c4.75,5.748,4.023,7.521-16.879,17.77-9.246,4.534-16.035-1.658-20.934-8.875-4.095-6.033,6.522-14.175,17-16.2S1554.369,302.724,1559.624,309.084Z" transform="translate(-1264.702 -260.461)" fill="#fff"/>
      <path id="Path_307" data-name="Path 307" d="M1390.616,237.595c-.725,12.209-2.657,14.339-26.849,14.2-10.7-.062-11.225-14.461-9.484-29,1.455-12.15,16.005-16.5,25.729-11.738S1391.419,224.087,1390.616,237.595Z" transform="translate(-1125.881 -184.172)" fill="#fff"/>
      <path id="Path_308" data-name="Path 308" d="M1157.761,169.4c-.724,15.484-3.21,18.145-34.818,17.423-13.982-.32-14.929-18.612-12.921-37.028,1.678-15.393,20.608-20.594,33.4-14.325S1158.562,152.264,1157.761,169.4Z" transform="translate(-923.276 -120.897)" fill="#fff"/>
      <path id="Path_309" data-name="Path 309" d="M513.929,231.49c5.674,10.569,5.091,13.539-16.05,28.5-9.352,6.616-17.244-4.99-23.235-18.12-5.008-10.975,5.415-23.649,16.344-25.759S507.652,219.8,513.929,231.49Z" transform="translate(-395.924 -189.575)" fill="#fff"/>
      <path id="Path_310" data-name="Path 310" d="M685.892,237.595c-.725,12.209-2.657,14.339-26.849,14.2-10.7-.062-11.225-14.461-9.484-29,1.455-12.15,16.005-16.5,25.729-11.738S686.695,224.087,685.892,237.595Z" transform="translate(-541.428 -184.172)" fill="#fff"/>
      <path id="Path_311" data-name="Path 311" d="M898.211,169.4c-.724,15.484-3.21,18.145-34.818,17.423-13.982-.32-14.929-18.612-12.921-37.028,1.678-15.393,20.608-20.594,33.4-14.325S899.012,152.264,898.211,169.4Z" transform="translate(-708.022 -120.897)" fill="#fff"/>
      <g id="Group_71" data-name="Group 71" transform="translate(3.993 62.183)">
        <path id="Path_312" data-name="Path 312" d="M402.2,432.669c-2.078,1.94-3.633-.1-8.162,3.347-10.654,8.1-33.975,20.737-50.164,39.727-38.613,45.306-118.859,49.938-118.859,49.938s-84.315-.776-118.837-49.938c-14.964-21.295-36.338-33.615-51.893-40.018a110.972,110.972,0,0,0-11.223-3.953c1.334-.558,2.931-1.189,4.769-1.892,9.91-1.018,25.005-2.619,27.893-2.619a114.161,114.161,0,0,1,20.5,1.771,61.144,61.144,0,0,0,13.7.582,34.693,34.693,0,0,1,6.519,3.129,10.534,10.534,0,0,1,3.041,2.741c5.01,7.13,22.533,14.31,44.061,18.432,0,0,7.263,2.231,17.152,4.681,13.936,3.42,33.1,7.252,44.323,5.7,19.164,2.668,61.475-10.381,61.475-10.381,21.527-4.123,35.813-12.369,42.835-17a43.792,43.792,0,0,1,7.219-3.9,59.2,59.2,0,0,1,7.023-2.183l9.954-1.746c.11-.024.2-.024.284-.048a114.328,114.328,0,0,1,20.5-1.771c3.238,0,13.892-.242,19.974-.17C395.239,427.406,401.3,432.354,402.2,432.669Z" transform="translate(-43.06 -427.077)" fill="#b5051b"/>
      </g>
      <path id="Path_313" data-name="Path 313" d="M1823.473,426.294l13.411-.558A60.272,60.272,0,0,1,1823.473,426.294Z" transform="translate(-1515.628 -363.782)" fill="#fff" stroke="#161615" stroke-miterlimit="10" stroke-width="0.25"/>
      <path id="Path_314" data-name="Path 314" d="M702,527.4s17.522,29.855,51.675,17.641,45.329-26.188,45.329-26.188l66.119-49.329L786.2,497c-.017-1.018-36.225,8.867-81.511-4.814C659.248,478.455,702,527.4,702,527.4Z" transform="translate(-570.432 -400.096)" fill="#db0514"/>
      <path id="Path_315" data-name="Path 315" d="M654.671,117.446c-8.095-.267-53.84-9.871-53.84-9.871l-21.68-9.119c-21.681-9.119-33.822,5.093-33.822,5.093-33.406-11.035-72.61,10.914-72.61,10.914s-6.76,2.28-16.889,4.681c-5.426,1.31-12.142-.146-17.217-1.771A14.05,14.05,0,0,1,429.4,106.8l-.109-.534c2.341-1.334,4.988-2.862,7.788-4.487,15.336-8.925,35.135-21.028,35.988-21.464L498.1,65.422s29.184-10.55,47.233,10.041c18.049-20.591,47.233-10.041,47.233-10.041l25.028,14.892c1.728.9,31.787,24.545,53.249,30.8,3.7,1.067,9.451,2.789,15.949,4.8.022.073.044.121.065.194C689.959,125.377,664.975,117.761,654.671,117.446Z" transform="translate(-359.383 -62.719)" fill="#db0514"/>
      <path id="Path_316" data-name="Path 316" d="M391.257,291.01c-2.231.679-2.231.679-16.627,1.649-3.527.238-3.238,0-7.066.024h-.241c-6.388,0-25.728-4.705-32.925-3.371l-13.7.606c-1.159-.049-2.341-.146-3.566-.267-14.483-1.189-31.9-5.263-45.92-9.289-41.676-11.981-65.61-7.931-65.61-7.931s-23.934-4.05-65.61,7.931c-13.083,3.759-29.14,7.543-42.967,9.022-2.253.243-4.419.437-6.519.534a59.626,59.626,0,0,1-13.7-.606c-7.176-1.334-14.111,1.358-20.5,1.358-4.091,0-6.432.97-10.02,1.285a111.676,111.676,0,0,1-11.42.412c-7.679-.073-13.367-.9-14.92-1.358-.985-.315.547-1.261,3.7-2.595,1.334-.558,2.931-1.189,4.769-1.892C42.491,281.284,69.6,272.989,80.1,269.934a78.409,78.409,0,0,0,9.473-4.851l.109.534a14.05,14.05,0,0,0,9.21,10.574c5.076,1.625,11.792,3.08,17.217,1.771C126.237,275.56,133,273.28,133,273.28s39.2-21.949,72.61-10.914c0,0,12.142-14.213,33.822-5.093l21.68,9.119s45.745,9.6,53.84,9.871c10.3.315,35.288,7.931,32.181-1.334-.022-.073-.044-.121-.066-.194,8.948,2.765,19.317,6.063,27.806,9,.963.315,1.9.631,2.8.946C386.838,287.905,393.029,290.476,391.257,291.01Z" transform="translate(-19.661 -221.537)" fill="#b5051b"/>
      <path id="Path_317" data-name="Path 317" d="M318.4,468.57c-15.929-7.767-43.161-6.721-43.161-6.721l33.751-1.579Z" transform="translate(-231.624 -392.422)" fill="#530c0e"/>
      <path id="Path_318" data-name="Path 318" d="M1730.487,463.523c2.717-2.027,8.2-2.472,11.751-2.887,3.9-.456,7.585-.7,11.009-.792l-17.261.339A18.392,18.392,0,0,0,1730.487,463.523Z" transform="translate(-1438.511 -392.069)" fill="#530c0e"/>
      <path id="Path_319" data-name="Path 319" d="M814.2,679.757c1.261,9.845-4.293,21.072-12.5,20.154-8.531-.955-21.787-13.574-30.388-28.655h0c-9.967-22.644,19.7-6.035,25.82-7C805.294,662.972,812.935,669.911,814.2,679.757Z" transform="translate(-641.349 -557.471)" fill="#e8656a"/>
      <ellipse id="Ellipse_280" data-name="Ellipse 280" cx="6.214" cy="6.89" rx="6.214" ry="6.89" transform="translate(165.11 127.303)" fill="#e8656a"/>
      <g id="Group_72" data-name="Group 72" transform="translate(120.473 3.913)">
        <path id="Path_320" data-name="Path 320" d="M725.571,106.974c5.047-7.176,8.5-12.209,16.336-16.415s25.881-9.108,28.908,1.3c2.753,9.463-16.014,2.1-22.709,2.343C739.807,94.5,732.688,102.366,725.571,106.974Z" transform="translate(-725.571 -85.648)" fill="#e8656a"/>
      </g>
      <ellipse id="Ellipse_281" data-name="Ellipse 281" cx="3.858" cy="4.277" rx="3.858" ry="4.277" transform="translate(167.466 9.17)" fill="#e34247"/>
    </g>
    <g id="Group_102" data-name="Group 102" transform="translate(444.421 62.427)">
      <path id="Path_513" data-name="Path 513" d="M117.781,3.5C80.3,13.146,62.565,28.364,49.27,47.972c-27.027,39.859-34.237,75.8-47.364,94.816C-5.009,152.8,78.361,81.444,100.369,64.679c28.185-21.47,90.374-6.238,89.352-29.058S149.071-4.55,117.781,3.5Z" transform="translate(-1.5 -1.5)" fill="#e5a700" stroke="#ce9200" stroke-miterlimit="10" stroke-width="3"/>
      <g id="Group_101" data-name="Group 101" transform="translate(65.993 13.305)">
        <g id="Group_100" data-name="Group 100">
          <path id="Path_514" data-name="Path 514" d="M347.89,84.536a4.666,4.666,0,0,1-.359.4c-.49.488-.958.917-1.375,1.284-5.819,4.8-14.257,10.518-28.441,14.262a92.439,92.439,0,0,0,13.166-8.649,108.94,108.94,0,0,1-25.674,7.677c11.455-3.648,20.179-8.787,27.6-13.034,1.5-.1,3-.236,4.484-.4-3.134,2.162-6.614,4.59-10.572,7.058a90.157,90.157,0,0,0,16.622-8.407c-2.236,2.36-4.808,5.1-7.714,8.116a63.18,63.18,0,0,0,10.124-6.759c.292-.248.558-.49.8-.725s.459-.447.677-.668a1.863,1.863,0,0,1,.732-.551C348.141,84.1,348.124,84.227,347.89,84.536Z" transform="translate(-305.208 -79.483)" fill="#db0514"/>
          <path id="Path_515" data-name="Path 515" d="M457.441,108.229c.353.019.387.232.074.637a4.539,4.539,0,0,1-1.387,1.031,16.128,16.128,0,0,1-9.283,1.778c-2.485-.3-3.45-1.2-3.191-2.646.258-1.51,1.766-3.232,4.055-5.247a56.075,56.075,0,0,1,6.652-5.077,15.846,15.846,0,0,1,5.59-2.635,2.1,2.1,0,0,1,2.624,1.239c.51,1.188.507,2.991-.567,5.522-.158.364-.34.754-.551,1.17q-3.978.07-8.1.081a35.055,35.055,0,0,1-6.433,6.2,7.6,7.6,0,0,0,1.991.434,11.888,11.888,0,0,0,6.428-1.421c.5-.264.852-.477,1.088-.636A2.047,2.047,0,0,1,457.441,108.229Zm3.3-11.193a2.73,2.73,0,0,0-1.241-.043,6.374,6.374,0,0,0-1.3.316,62.844,62.844,0,0,1-4.016,5.74q1.666-.038,3.308-.085A56.622,56.622,0,0,0,460.745,97.036Z" transform="translate(-413.539 -88.775)" fill="#db0514"/>
          <path id="Path_516" data-name="Path 516" d="M521.805,66.96c.8-.309,1.564-.617,2.278-.916,1.948,3.034,1.686,6.391,1.446,10.525-.48,4.066-.939,8.91-4.922,13.355q-3.044-.288-6.143-.621c4.3-4.066,5.5-8.52,6.591-12.308C521.954,73.144,522.738,69.958,521.805,66.96Z" transform="translate(-468.995 -65.324)" fill="#db0514"/>
          <path id="Path_517" data-name="Path 517" d="M578.927,99.718a3.45,3.45,0,0,0,1.172.254,5.316,5.316,0,0,0,1.318-.105,6.242,6.242,0,0,0,1.332-.434,6.051,6.051,0,0,0,2.273-1.728c.4-.506.649-.767.792-.768.312,0,.447.272.36.818a3.5,3.5,0,0,1-1.286,1.9,8.632,8.632,0,0,1-5.841,1.815c-2.461-.162-3.388-1.267-3.812-3.556a33.823,33.823,0,0,1-.141-8.311,26.361,26.361,0,0,1,1.4-7.125c.676-1.852,1.312-2.9,2.487-3.226a3.428,3.428,0,0,1,2.452.468,3.1,3.1,0,0,1,1.512,1.39,1.3,1.3,0,0,1,.15.563c-.006.139-.049.216-.123.231-.112.023-.31-.086-.595-.322a3.784,3.784,0,0,0-2.1-1.167,2,2,0,0,0-.815.031,1.73,1.73,0,0,0-.67.3,36.963,36.963,0,0,1,1.647,8.668C580.653,92.624,580.654,96.306,578.927,99.718Z" transform="translate(-516.309 -75.601)" fill="#db0514"/>
          <path id="Path_518" data-name="Path 518" d="M624.236,81.735c-.451-1.756-.8-3.262-1.051-4.594s-.435-2.458-.555-3.421c-.241-2.053-.249-3.1.737-3.363s2.755.369,5.128,2.2a24.7,24.7,0,0,1,6.443,7.843c1.963,3.639,2.861,7.32,2.007,10.265a5.709,5.709,0,0,1-5.542,4.354c-2.216,0-3.288-1.135-4.293-3.7A84.7,84.7,0,0,1,624.236,81.735Zm7.329,11.495a.8.8,0,0,0,.2.021l.177,0a4.382,4.382,0,0,0,4.051-3.488c.734-2.508.034-5.783-1.729-9.183a22.416,22.416,0,0,0-5.586-7.123c-1.893-1.532-3.32-2.085-4.226-1.868l-.1.024a.187.187,0,0,0-.077.039,37.511,37.511,0,0,1,5.283,9.591C630.94,84.883,632.212,89.137,631.565,93.23Z" transform="translate(-553.551 -68.658)" fill="#db0514"/>
          <path id="Path_519" data-name="Path 519" d="M662.4,67.552q.5.443.987.9c4.8,4.634,10.136,10.674,13.448,17.526-1.507.391-3.076.737-4.7,1.037-1.292-4.515-4.1-8.908-6.882-12.665a53.736,53.736,0,0,0-9.165-9.736.568.568,0,0,0-.261-.069l-.188.02c-.313.038.126.658,1.044,2.045.282.43.6.913.945,1.456,4.406,5.04,9.538,12.042,11.022,19.515-1.692.239-3.429.434-5.2.59-.033-4.85-2.495-9.815-4.909-13.971a38.626,38.626,0,0,0-8.755-10.581c.807-.157,1.606-.292,2.4-.4a27.428,27.428,0,0,1,3.362,2.729c-1.6-2.263-2.485-3.148-1.687-3.212.986-.044,3.372.852,6.467,3.139-1.06-1.163-1.85-1.94-2.253-2.428s-.424-.679,0-.635a12.238,12.238,0,0,1,3.617,1.415,43.326,43.326,0,0,1,6.185,4.071,108.894,108.894,0,0,1,16.055,15.293q-1.9.811-4.026,1.5a77.162,77.162,0,0,0-19.556-20.618.967.967,0,0,0-.357-.075c-.141-.006-.167.061-.084.2a5.269,5.269,0,0,0,.47.609C660.857,65.769,661.541,66.536,662.4,67.552Z" transform="translate(-574.915 -62.732)" fill="#db0514"/>
          <path id="Path_520" data-name="Path 520" d="M740.791,82.78a2.344,2.344,0,0,1,1.105.32,8.629,8.629,0,0,1,1.438.8c2.21,1.508,2.879,3.06,1.648,3.989-1.1.835-3.4.556-6.519-1.106a68.68,68.68,0,0,1-10.142-7.159c-3.581-2.864-6.141-4.886-7.792-6.118-1.766-1.3-1.97-1.463-.77-.738a52.421,52.421,0,0,0,4.829,2.757c2.469,1.239,5.348,2.317,8.97,3.786q.781.318,1.66.686a20.45,20.45,0,0,0-3.545-.155c3.3,2.15,6.756,4.528,10.322,7.045a2.5,2.5,0,0,0,1.337-.371c.757-.5.3-1.528-1.255-2.727-.346-.26-.623-.453-.835-.588C740.857,82.948,740.708,82.811,740.791,82.78Zm-18.3-8.538c-.5-.286-.923-.537-1.252-.727a5.532,5.532,0,0,0-.561-.3c2.974,1.607,6.065,3.464,9.326,5.55.519.028,1.027.073,1.524.138C728.31,77.133,725.274,75.561,722.493,74.243Z" transform="translate(-629.089 -70.253)" fill="#db0514"/>
        </g>
      </g>
    </g>
    <g id="Group_105" data-name="Group 105" transform="translate(109.176 246.046) rotate(-14)">
      <path id="Path_521" data-name="Path 521" d="M49.438,65.953c36.975,12.9,59.442,11.18,80.106,3.868,42.005-14.863,65.011-37.415,85.252-44.38,10.663-3.669-94.857,4.288-121.745,4.867-34.436.741-81.229-43.6-90.982-26.3S18.567,55.183,49.438,65.953Z" transform="translate(0 0)" fill="#e5a700" stroke="#ce9200" stroke-miterlimit="10" stroke-width="3"/>
      <g id="Group_104" data-name="Group 104" transform="translate(38.272 34.018)">
        <g id="Group_103" data-name="Group 103" transform="translate(0)">
          <path id="Path_522" data-name="Path 522" d="M14.927,22.286c.591.076.738.384.434.927a1.308,1.308,0,0,1-.7.531,3.126,3.126,0,0,1-1.482.078c-4.7-.607-9.113-1-13.178-1.146C7.706,14.285,14.713,6.758,22.364,0a30.37,30.37,0,0,0,4.208.593A247.271,247.271,0,0,0,8.926,22.08q1.5.148,3.054.326A7.646,7.646,0,0,0,13.93,22.4,8.724,8.724,0,0,1,14.927,22.286Z" fill="#0f1123"/>
          <path id="Path_523" data-name="Path 523" d="M.666,21A7.64,7.64,0,0,1,.11,16.51a14.112,14.112,0,0,1,2.037-5.117A25.853,25.853,0,0,1,5.781,6.742a32.106,32.106,0,0,1,4.03-3.489C12.72,1.159,15.194-.009,17.35,0s3.233,1.255,3.8,3.758a39.578,39.578,0,0,1,.5,9.857c-.152,4.085-.612,7.708-2.845,10.344a8.455,8.455,0,0,1-5.878,2.827,15.865,15.865,0,0,1-4.363-.314A13.14,13.14,0,0,1,3.831,24.5,8.643,8.643,0,0,1,.666,21ZM16.633,1.276a4.9,4.9,0,0,0-1.153.114A64.269,64.269,0,0,0,7.4,24.508a10.931,10.931,0,0,0,1.912.517c3.39.635,6.323-.137,8.3-2.351,2.1-2.285,2.7-5.493,2.94-9.192a30.13,30.13,0,0,0-.4-8.684C19.6,2.477,18.6,1.315,16.633,1.276Z" transform="translate(21.662 0.561)" fill="#0f1123"/>
          <path id="Path_524" data-name="Path 524" d="M5.939,24.849A22.606,22.606,0,0,1,1.66,19.021,15,15,0,0,1,.009,12.74,13.21,13.21,0,0,1,.941,7.261,14.579,14.579,0,0,1,3.382,3.234C5.456.85,7.592-.291,9.585.063c2.021.347,3.224,2.01,4.669,4.733,1.484,2.791,3.015,6.044,5.344,10.353s4.536,8.292,4.77,11.77c.138,2.138-.627,3.725-2.49,4.437a8.552,8.552,0,0,1-3.933.218A17.523,17.523,0,0,1,12,29.4,27.08,27.08,0,0,1,5.939,24.849ZM9.3,1.474a3.217,3.217,0,0,0-1.049-.005c-1.582,8.286.476,15.874,6.961,27.646a10.7,10.7,0,0,0,2.115.473c3.474.437,5.154-1.1,5.083-3.989-.015-3-1.811-6.594-3.834-10.545-1.922-3.764-3.367-6.7-4.8-9.242S11.159,1.776,9.3,1.474Z" transform="translate(46.295 1.718)" fill="#0f1123"/>
          <path id="Path_525" data-name="Path 525" d="M0,0A41.988,41.988,0,0,1,3.98,1.623,22.568,22.568,0,0,0,6.887,8.041c.223-1.288.441-2.4.606-3.262a2.719,2.719,0,0,0,.053-.834C7.519,3.736,7.5,3.626,7.5,3.59a.12.12,0,0,1,.015-.07c.012-.028.056-.017.131.033a1.561,1.561,0,0,1,.258.231,3.032,3.032,0,0,1,.246.29c.066.09.116.162.149.217a.914.914,0,0,1,.083.174,1.4,1.4,0,0,1,.053.541c-.035.471-.1,1.057-.169,1.731A32.014,32.014,0,0,0,28.225,16.9c.511.047.975.07,1.387.073q.547.017,1.1.01.537-.026,1.081-.078.444-.037.849-.063a3.062,3.062,0,0,1,.739.032,1.8,1.8,0,0,1,.576.2c.351.211.48.44.372.67a1.119,1.119,0,0,1-.82.618,6.1,6.1,0,0,1-1.651.1q-.878-.067-1.731-.177c-.568-.073-1.248-.164-2.027-.292A35.049,35.049,0,0,1,8.2,7.379c-.074.679-.153,1.43-.233,2.243,3.6,4.962,9.506,10.273,18.305,16.234a25.1,25.1,0,0,1-7.863,2.655C5.882,16.384.417,8.174,0,0Z" transform="translate(64.829 4.414)" fill="#0f1123"/>
        </g>
      </g>
    </g>
    <g id="Group_108" data-name="Group 108" transform="matrix(0.951, -0.309, 0.309, 0.951, 0, 103.637)">
      <path id="Path_526" data-name="Path 526" d="M10.947,88.252c22.3,37.142,44.291,51.324,69.574,59.338,51.395,16.29,92.267,12.563,116.857,20.586,12.955,4.227-105.466-47.384-129.892-83.94C45.448,51.255,46.633-7.568,22.47.807S-7.673,57.243,10.947,88.252Z" transform="translate(0 0)" fill="#db0514" stroke="#8d0910" stroke-miterlimit="10" stroke-width="3"/>
      <g id="Group_107" data-name="Group 107" transform="translate(15.899 13.614)">
        <g id="Group_106" data-name="Group 106" transform="translate(0)">
          <path id="Path_527" data-name="Path 527" d="M14.353,16.19a.733.733,0,0,1-.279.8.786.786,0,0,1-.473.127q-.282-.005-.458,0Q6.629,17.624,0,18.588,5.759,8.807,12.041,0q.369,3.815.865,7.54-3.06,4.361-6,8.97,2.73-.306,5.439-.533a8.561,8.561,0,0,0,1.25-.167.866.866,0,0,1,.542-.016A.5.5,0,0,1,14.353,16.19Z" fill="#fda100"/>
          <path id="Path_528" data-name="Path 528" d="M3.707,20.444a.86.86,0,0,1-.146.943q-.15.133-.348-.044a2.015,2.015,0,0,1-.4-.866Q1.273,15.063,0,9.392,6.116,4.29,12.261,0q1,5.147,2.239,10.084.141.5.285,1.006c.16.624.119,1.025-.127,1.21a.3.3,0,0,1-.3.044.357.357,0,0,1-.215-.263,4.938,4.938,0,0,1-.128-.724,11.856,11.856,0,0,0-.3-1.537q-.345-1.39-.671-2.8-1.3.951-2.6,1.94.277,1.164.568,2.318.217.763.44,1.521a1.373,1.373,0,0,1,.035.54.569.569,0,0,1-.2.388c-.235.184-.415.043-.539-.427q-.067-.274-.133-.55c-.055-.29-.106-.53-.154-.716q-.329-1.293-.643-2.6Q6.031,12.356,2.25,15.6q.372,1.438.763,2.858a9.709,9.709,0,0,0,.426,1.3A5.257,5.257,0,0,1,3.707,20.444Z" transform="translate(2.567 19.332)" fill="#fda100"/>
          <path id="Path_529" data-name="Path 529" d="M4.336,19.521a.834.834,0,0,1-.118.969c-.1.091-.212.088-.351-.011a1.859,1.859,0,0,1-.456-.8Q1.591,14.847,0,9.764,5.824,4.475,11.7,0q.882,3.117,1.858,6.139Q8.069,10.477,2.62,15.551q.4,1.133.807,2.253A5.588,5.588,0,0,0,4.007,19,5.231,5.231,0,0,1,4.336,19.521Z" transform="translate(6.768 34.675)" fill="#fda100"/>
          <path id="Path_530" data-name="Path 530" d="M11.208,0q1.079,2.909,2.245,5.717-1.617,1.375-3.229,2.818Q12.106,9.571,14,10.568a6.715,6.715,0,0,0,1.244.535q.442.118.541.158a.733.733,0,0,1,.164.087.6.6,0,0,1,.211.269.671.671,0,0,1,.065.382.428.428,0,0,1-.121.271.521.521,0,0,1-.175.111.454.454,0,0,1-.209.005,3.712,3.712,0,0,1-.888-.349q-1.2-.61-2.4-1.236-2.629,5.213-5.074,10.77-.137.319-.233.582l-.184.452-.157.459c-.045.123-.09.237-.137.341a.7.7,0,0,1-.165.24.384.384,0,0,1-.2.1.325.325,0,0,1-.349-.19.935.935,0,0,1-.108-.577A2.522,2.522,0,0,1,6.05,22.3l.324-.633q.163-.315.377-.78,2.386-5.4,4.952-10.474-1.119-.592-2.234-1.2-3.516,3.188-7,6.708Q1.193,13.05,0,10.073,5.565,4.629,11.208,0Z" transform="translate(11.502 47.687)" fill="#fda100"/>
          <path id="Path_531" data-name="Path 531" d="M.045,8.016A11.259,11.259,0,0,1,.908,4.573,8.769,8.769,0,0,1,2.835,1.716,5.818,5.818,0,0,1,5.32.176,4.636,4.636,0,0,1,7.814.166,7.459,7.459,0,0,1,12.167,4a10.755,10.755,0,0,1,1.5,6.3,9.177,9.177,0,0,1-2.51,5.748A5.8,5.8,0,0,1,6.14,18.214a5.6,5.6,0,0,1-3.227-1.671,9.854,9.854,0,0,1-1.5-1.98A10.12,10.12,0,0,1,.277,11.556,11.6,11.6,0,0,1,.045,8.016ZM11.625,4.5A8,8,0,0,0,11,3.547Q6.241,8.03,1.572,13.187a7.971,7.971,0,0,0,.552,1.09,5.517,5.517,0,0,0,3.988,2.95,5.139,5.139,0,0,0,4.555-1.919,8.348,8.348,0,0,0,2.245-5.093A9.469,9.469,0,0,0,11.625,4.5Z" transform="translate(21.084 65.977)" fill="#fda100"/>
          <path id="Path_532" data-name="Path 532" d="M.011,6.893a.6.6,0,0,1,.177-.344A1.478,1.478,0,0,1,.7,6.259q.269-.083.4-.129c.088-.03.183-.068.288-.111l.853-.362Q7.828,2.6,13.412,0,11.806,4.9,10.4,10.069,14.711,8.5,19.021,7.1q-3.294,7.3-6.157,15.471-1.949-2.006-3.839-4.147,1.619-4.191,3.36-8.148Q8.405,11.809,4.424,13.5,5.471,8.771,6.686,4.224,4.724,5.286,2.764,6.408a6.877,6.877,0,0,0-1.159.575q-.442.287-.693.435C.536,7.639.258,7.6.079,7.3A.582.582,0,0,1,.011,6.893Z" transform="translate(28.09 81.915)" fill="#fda100"/>
          <path id="Path_533" data-name="Path 533" d="M0,8.14A.57.57,0,0,1,.155,7.8a1.685,1.685,0,0,1,.5-.338q.267-.114.4-.175c.087-.04.181-.088.283-.143L2.172,6.7Q7.588,3.111,13.038,0q-1.208,4.625-2.221,9.5,4.256-2.056,8.519-3.948-2.746,7.017-5.041,14.872-2.127-1.509-4.211-3.159Q11.4,13.21,12.852,9.385q-3.918,1.978-7.827,4.11.686-4.452,1.537-8.737Q4.659,6,2.761,7.3a7.864,7.864,0,0,0-1.13.69q-.426.325-.669.5C.6,8.744.313,8.749.107,8.5A.47.47,0,0,1,0,8.14Z" transform="translate(41.29 96.66)" fill="#fda100"/>
          <path id="Path_534" data-name="Path 534" d="M7.711,15.2c.278.154.343.346.2.579a.443.443,0,0,1-.358.181,1.321,1.321,0,0,1-.7-.223Q3.38,13.793,0,11.49,4.089,5.34,8.412,0q3,2.084,6.087,3.864.33.173.66.344c.393.221.5.442.331.666a.548.548,0,0,1-.283.188.386.386,0,0,1-.31-.014,2.164,2.164,0,0,1-.4-.29,5.315,5.315,0,0,0-.873-.6Q12.762,3.65,11.9,3.12q-.909,1.168-1.808,2.373.714.439,1.432.862.5.266,1,.524a.518.518,0,0,1,.236.252.3.3,0,0,1-.048.3c-.162.223-.392.252-.689.083l-.335-.2q-.244-.175-.419-.277-.807-.472-1.61-.965Q7.043,9.624,4.515,13.5q.894.544,1.794,1.063A5.128,5.128,0,0,0,7.2,15,3.04,3.04,0,0,1,7.711,15.2Z" transform="translate(57.039 106.603)" fill="#fda100"/>
          <path id="Path_535" data-name="Path 535" d="M1.418,11.221q-.262.442-.521.887a.655.655,0,0,1-.334.294.443.443,0,0,1-.354-.016.355.355,0,0,1-.2-.251.4.4,0,0,1,.048-.306,1.83,1.83,0,0,1,.179-.244c.063-.072.131-.154.2-.248.134-.154.412-.57.839-1.238Q4.717,4.738,8.348,0q1.791,5.5,4,10.78,1.6-2.506,3.245-4.868a9.194,9.194,0,0,0,.5-.777c.147-.256.256-.432.326-.531a.519.519,0,0,1,.628-.261.33.33,0,0,1,.2.188.321.321,0,0,1-.068.318l-.194.273q-.418.562-.833,1.132Q12.7,11.236,9.47,16.85,7.053,11.39,5.063,5.694,3.213,8.371,1.418,11.221Z" transform="translate(67.007 111.855)" fill="#fda100"/>
        </g>
      </g>
    </g>
    <g id="Group_111" data-name="Group 111" transform="matrix(0.998, -0.07, 0.07, 0.998, 414.386, 215.237)">
      <path id="Path_536" data-name="Path 536" d="M142.606,183.856C95.167,169.986,73.157,149.822,57,124.239,24.159,72.234,16.451,26.051.485,1.235c-8.411-13.074,95.044,81.488,122.439,103.8,35.086,28.58,115.1,11.723,112.851,40.811S182.213,195.436,142.606,183.856Z" transform="translate(0 0)" fill="#db0514" stroke="#8d0910" stroke-miterlimit="10" stroke-width="3"/>
      <g id="Group_110" data-name="Group 110" transform="translate(76.542 120.151)">
        <g id="Group_109" data-name="Group 109" transform="translate(0 0)">
          <path id="Path_537" data-name="Path 537" d="M20.025,12.27q-.207.293-.421.565c-.082.087-.233.107-.454.056a2.672,2.672,0,0,1-.677-.265,1.7,1.7,0,0,1-.485-.355c-.093-.111-.108-.2-.044-.255a.867.867,0,0,1,.3-.161,2.264,2.264,0,0,0,.838-.728,16.035,16.035,0,0,0,2.746-5.179c-2.752-.639-5.5-1.3-8.252-1.994A8.469,8.469,0,0,1,9.084,7.5Q4.552,5.067,0,2.622A7.485,7.485,0,0,0,7.142,0c2.661.377,5.3.68,7.933.935a14.177,14.177,0,0,1-1.221,2.588c2.343.536,4.21.937,5.6,1.234s2.253.47,2.58.531q.232-.787.417-1.643a6.508,6.508,0,0,0,.17-1.142c0-.1-.008-.211-.012-.316a2.523,2.523,0,0,1,.022-.252c.047-.321.28-.472.708-.444a.957.957,0,0,1,.459.164.444.444,0,0,1,.2.46q-.114.7-.261,1.365-.183,1.058-.437,2.028.523.061,1.045.118a1,1,0,0,1,.464.2.313.313,0,0,1,.131.318c-.061.262-.438.331-1.125.208-.124-.014-.243-.034-.359-.057s-.235-.045-.357-.067A16.985,16.985,0,0,1,20.025,12.27Z" fill="#fff"/>
          <path id="Path_538" data-name="Path 538" d="M15.965,22.042c.588.317.824.655.706,1.007-.053.158-.228.226-.523.2a3.908,3.908,0,0,1-1.374-.573Q7.46,18.488,0,14.4A26.536,26.536,0,0,0,3.812,0c4,.25,8,.492,11.985.79l1.235.04c.757.056,1.192.359,1.288.9a.778.778,0,0,1-.1.559.4.4,0,0,1-.4.217,4.2,4.2,0,0,1-.869-.2,8.724,8.724,0,0,0-1.848-.341Q13.4,1.8,11.688,1.648a39.272,39.272,0,0,1,.11,4.692q1.489.294,2.981.59l2.017.32a1.289,1.289,0,0,1,.618.3.72.72,0,0,1,.261.55c0,.472-.312.635-.931.494l-.713-.178q-.546-.171-.91-.253-1.689-.38-3.375-.753a35.947,35.947,0,0,1-2.5,11.2q1.925,1.032,3.841,2.069a18.281,18.281,0,0,0,1.845.912A9.492,9.492,0,0,1,15.965,22.042Z" transform="translate(25.565 2.008)" fill="#fff"/>
          <path id="Path_539" data-name="Path 539" d="M3.306,23.808a12.078,12.078,0,0,0,1.256,1.063,13.855,13.855,0,0,0,1.389.908,7.074,7.074,0,0,0,1.392.617A48.131,48.131,0,0,0,7.759,0q3.883.416,7.772.951a46.932,46.932,0,0,1,2.316,20.314c-.391,3.858-1.812,6.29-3.751,7.26-2.194,1.1-5.056.386-8.6-1.747A14.127,14.127,0,0,1,.553,22.263c-.072-.134-.145-.268-.218-.4-.3-.584-.4-.992-.291-1.242a.558.558,0,0,1,.9-.257,1.886,1.886,0,0,1,.765,1.048,4.309,4.309,0,0,0,.613,1.253A8.231,8.231,0,0,0,3.306,23.808Z" transform="translate(44.295 3.755)" fill="#fff"/>
          <path id="Path_540" data-name="Path 540" d="M0,0Q3.174.6,6.345,1.274a22.745,22.745,0,0,1,7.127,2.611,24.765,24.765,0,0,1,5.415,4.472,29.9,29.9,0,0,1,3.768,5.185,23.675,23.675,0,0,1,3.188,11.8c-.045,6.7-2.914,11.573-6.689,14.468-2.72,2.088-5.413,2.842-7.9,2.352a20.389,20.389,0,0,1-5.465-2.226Q3.23,38.545.606,37.035C4.69,25.823,5.715,12.505,0,0ZM9.244,39.152a4.857,4.857,0,0,0,.435.244l.352.172c2.739,1.343,5.734.879,8.805-1.576,3.192-2.581,5.572-6.949,5.618-12.982a22.366,22.366,0,0,0-2.714-10.658,21.3,21.3,0,0,0-9.268-9.387A19.864,19.864,0,0,0,8.811,3.7C14.129,15.488,13.352,28.186,9.244,39.152Z" transform="translate(72.115 6.715)" fill="#fff"/>
          <path id="Path_541" data-name="Path 541" d="M19.19,6.016a34.4,34.4,0,0,1,2.368,3.5,30.227,30.227,0,0,1,4.594,17.547,17.97,17.97,0,0,1-6.821,12.861c-3.776,3.126-7.5,4.709-10.274,4.554-3.033-.2-4.011-2.265-4.043-6.3-.081-3.711.581-8.429,1.072-14.105A37.848,37.848,0,0,0,0,0C2.532.652,5.037,1.313,7.5,1.97A35.161,35.161,0,0,1,8.664,42.126,6.8,6.8,0,0,0,11,42.665a7.847,7.847,0,0,0,3.473-.8,16.546,16.546,0,0,0,4.391-2.891,18.042,18.042,0,0,0,6.146-13.591A30.94,30.94,0,0,0,20.5,9.324c-.346-.581-.8-1.27-1.377-2.062S18.114,5.94,17.9,5.659c-.756-.974-.959-1.389-.515-1.271A4.759,4.759,0,0,1,19.19,6.016Z" transform="translate(95.538 12.044)" fill="#fff"/>
        </g>
      </g>
    </g>
    <g id="Group_112" data-name="Group 112" transform="translate(129.883 83.192)">
      <path id="Path_542" data-name="Path 542" d="M65.5.034c38.67,1.271,58.946,11.37,75.662,26.249,33.98,30.249,47.731,60.881,64.171,75.264,8.661,7.577-86.605-39.739-111.368-50.381C62.247,37.536,14.61,88.2.641,42.728-5.463,22.852,33.211-1.027,65.5.034Z" transform="translate(19.532 0) rotate(11)" fill="#7298d0" stroke="#608fcb" stroke-miterlimit="10" stroke-width="3"/>
      <text id="VELKOMMEN" transform="translate(23.767 44.653) rotate(1)" fill="#0f1123" font-size="14" font-family="SegoeUI, Segoe UI"><tspan x="0" y="0">VELKOMMEN</tspan></text>
    </g>
    <g id="Group_115" data-name="Group 115" transform="translate(138.423 215.663)">
      <path id="Path_543" data-name="Path 543" d="M102.889,165.255c46.205-7.549,69.232-23.959,87.381-46.14,36.9-45.092,49.488-87.618,67.371-109.1,9.421-11.317-98.787,65.61-127.125,83.418-36.293,22.808-109.572-2.3-110.82,25.306S64.312,171.558,102.889,165.255Z" transform="translate(-19.671 -8.883)" fill="#7298d0" stroke="#608fcb" stroke-miterlimit="10" stroke-width="3"/>
      <g id="Group_114" data-name="Group 114" transform="translate(24.716 73.89)">
        <g id="Group_113" data-name="Group 113">
          <path id="Path_544" data-name="Path 544" d="M78.307,222.908q.168.919.336,1.844a.993.993,0,0,1-.061.682.32.32,0,0,1-.369.156.691.691,0,0,1-.406-.324,1.6,1.6,0,0,1-.233-.627,6.034,6.034,0,0,1-.072-.791,27.212,27.212,0,0,0-.372-2.747q-1.072-6.488-2.157-12.724a55.571,55.571,0,0,1-5.844-1.16q1.45,7.879,2.848,16.264a47.038,47.038,0,0,1-5.658-2.59c-1.375-7.842-2.8-15.3-4.292-22.337a51.827,51.827,0,0,0,5.734,1.43q.579,2.981,1.148,6.045c1.643.4,2.98.652,3.982.822s1.628.246,1.862.266q-.26-1.479-.521-2.943c-.174-.976-.3-1.607-.375-1.9-.046-.169-.092-.337-.138-.5s-.064-.29-.084-.4c-.092-.509.027-.749.359-.722a.724.724,0,0,1,.4.23,1.221,1.221,0,0,1,.311.685q.169,1.071.337,2.152.3,1.716.607,3.452.361-.032.723-.069a.6.6,0,0,1,.39.218.964.964,0,0,1,.225.489c.078.449-.127.679-.609.677a1.149,1.149,0,0,1-.249.012c-.082,0-.166-.007-.251-.006Q77.1,215.535,78.307,222.908Z" transform="translate(-62.025 -161.757)" fill="#fff"/>
          <path id="Path_545" data-name="Path 545" d="M105.845,226.648c.432-.013.69.233.774.745a.736.736,0,0,1-.181.623,1.217,1.217,0,0,1-.924.292,64.833,64.833,0,0,1-10.569-.667c-1.4-8.7-2.8-17.144-4.215-25.27a82.259,82.259,0,0,0,9.706-.471q.508-.081,1.016-.168c.626-.074.985.153,1.074.691a1.108,1.108,0,0,1-.061.6q-.113.285-.313.308a2.413,2.413,0,0,1-.707-.033,5.673,5.673,0,0,0-1.5-.018q-1.379.127-2.747.209.46,2.733.919,5.5,1.129-.038,2.265-.106.761-.092,1.524-.2a.7.7,0,0,1,.5.156.807.807,0,0,1,.284.529c.086.519-.106.8-.574.835l-.543.019a5.848,5.848,0,0,0-.7-.012q-1.275.074-2.542.108,1.345,8.127,2.7,16.549,1.384.056,2.782.056a4.7,4.7,0,0,0,1.312-.127A2.767,2.767,0,0,1,105.845,226.648Z" transform="translate(-73.979 -163.076)" fill="#fff"/>
          <path id="Path_546" data-name="Path 546" d="M123.51,225.2q-.559.069-.7-.791a2.421,2.421,0,0,1,.146-1.193,21.3,21.3,0,0,0,.819-2.962q.182-.936.365-1.874c-3.74-6.666-7.395-13.254-11-19.6q3.668-.517,7.381-1.3,2.768,5.326,5.589,10.8.91-4.765,1.813-9.592.191-1.1.273-2.2c.054-.736.223-1.142.5-1.22.35-.1.57.118.659.647a3.226,3.226,0,0,1-.051,1.13q-2.391,13.027-4.846,25.613c-.051.275-.093.5-.125.679l-.1.735Q124.068,225.134,123.51,225.2Z" transform="translate(-83.312 -160.38)" fill="#fff"/>
          <path id="Path_547" data-name="Path 547" d="M167.113,182.965q.168.9-1.07,1.4-1.482.591-2.967,1.162,2.408,13.221,4.946,26.444-3.358,1.324-6.73,2.475-2.456-13.289-4.782-26.509-.963.335-1.926.661a5.39,5.39,0,0,0-1.338.592,3.077,3.077,0,0,1-.68.387c-.436.142-.7-.05-.79-.571-.106-.615.265-1.055,1.111-1.335,3.815-1.26,7.628-2.655,11.426-4.143a6.2,6.2,0,0,0,1.28-.633,4.167,4.167,0,0,1,.74-.443Q166.97,182.2,167.113,182.965Z" transform="translate(-99.393 -155.027)" fill="#fff"/>
          <path id="Path_548" data-name="Path 548" d="M201.4,194.372q.227.943.453,1.883a1.5,1.5,0,0,1-.028.847.871.871,0,0,1-.383.494.375.375,0,0,1-.449-.035.937.937,0,0,1-.281-.54,6.41,6.41,0,0,1-.118-.875,27.368,27.368,0,0,0-.54-2.953q-1.477-6.857-2.926-13.824-3.178,1.494-6.382,2.935,1.87,9.35,3.8,18.57-3.3,1.612-6.631,3.1-2.759-13.739-5.379-27.652,3.25-1.347,6.481-2.76.719,3.671,1.448,7.328c1.832-.818,3.287-1.484,4.371-1.984s1.75-.817,2-.948q-.344-1.662-.687-3.33t-.482-2.152l-.168-.553c-.045-.174-.081-.327-.107-.456q-.18-.883.347-1.122a.472.472,0,0,1,.437.055.961.961,0,0,1,.358.675q.227,1.239.454,2.475.4,1.942.8,3.875l.757-.544a.405.405,0,0,1,.42.021.678.678,0,0,1,.26.451,1.079,1.079,0,0,1-.606,1.205,1.759,1.759,0,0,1-.261.177q-.13.073-.266.156Q199.73,186.7,201.4,194.372Z" transform="translate(-112.209 -149.997)" fill="#fff"/>
          <path id="Path_549" data-name="Path 549" d="M230.3,181.607q.631-.369.8.315a1.01,1.01,0,0,1-.139.709,2.294,2.294,0,0,1-.882.8c-3.5,2.078-7.033,4.122-10.606,6.1q-2.912-12.913-5.739-26.347c3.279-1.5,6.539-3.01,9.785-4.5l1-.517q.925-.422,1.105.373a1.277,1.277,0,0,1-.025.641.62.62,0,0,1-.292.424,2.539,2.539,0,0,1-.7.206,5.849,5.849,0,0,0-1.495.514l-2.738,1.273q.62,2.82,1.243,5.613l2.26-1.1,1.5-.836a.605.605,0,0,1,.507-.037.556.556,0,0,1,.313.434.888.888,0,0,1-.52,1.1l-.537.246a6.328,6.328,0,0,0-.694.285l-2.534,1.254q1.824,8.151,3.673,16.055,1.38-.791,2.753-1.59a8.012,8.012,0,0,0,1.278-.864A4.692,4.692,0,0,1,230.3,181.607Z" transform="translate(-125.198 -144.879)" fill="#fff"/>
          <path id="Path_550" data-name="Path 550" d="M251.541,163.866l1.02-.448a6.955,6.955,0,0,0,3.126-3.873,8.977,8.977,0,0,0,.262-5.509q-.964-3.747-4.013-4.536a5.847,5.847,0,0,0-3.332.085,11.054,11.054,0,0,0-1.293.469l-.832.365q-.257.113-.449.217,2.761,11.464,5.493,22.127-3.088,1.907-6.217,3.809-2.916-11.8-5.835-24.417c1.918-.864,3.468-1.55,4.653-2.07s1.958-.846,2.32-.99.686-.267.971-.37.554-.2.8-.278a13.937,13.937,0,0,1,1.6-.326,5.458,5.458,0,0,1,2.182.12,5.867,5.867,0,0,1,2.083.981,7.34,7.34,0,0,1,2.763,4.286,10.63,10.63,0,0,1-3.151,10.455c1.525,2.6,2.932,3.759,4.228,3.618a2.683,2.683,0,0,0,1.119-.389q.435-.429.869-.853.442-.267.59.285.2.765-1.272,1.686a2.994,2.994,0,0,1-2.17.479c-1.119-.127-2.279-1.025-3.484-2.76q-.319-.457-.638-.92c-.1-.147-.181-.23-.236-.248a.351.351,0,0,0-.246.065,1.653,1.653,0,0,0-.277.192l-.287.18q-.485.271-.723.128a.638.638,0,0,1-.3-.4Q250.69,164.331,251.541,163.866Z" transform="translate(-135.919 -140.732)" fill="#fff"/>
          <path id="Path_551" data-name="Path 551" d="M286.378,152.922c.4-.226.644-.177.734.142a.665.665,0,0,1-.149.532,2.578,2.578,0,0,1-.842.689c-3.3,1.943-6.622,3.962-9.968,6.023-1.8-6.616-3.654-13.64-5.548-21.019,3.212-1.215,6.429-2.341,9.666-3.349q.5-.178,1-.352c.617-.186.981-.072,1.091.331a.738.738,0,0,1-.036.483.484.484,0,0,1-.3.309,3.154,3.154,0,0,1-.7.132,6.617,6.617,0,0,0-1.485.344q-1.358.447-2.711.92.593,2.232,1.177,4.407,1.107-.444,2.215-.872.74-.324,1.479-.639a.748.748,0,0,1,.5-.028.435.435,0,0,1,.3.327c.1.377-.072.652-.526.83l-.526.191c-.275.078-.5.153-.68.224q-1.239.494-2.477,1.006,1.7,6.322,3.319,12.139,1.3-.764,2.6-1.514a9.954,9.954,0,0,0,1.213-.783A5.127,5.127,0,0,1,286.378,152.922Z" transform="translate(-148.884 -135.501)" fill="#fff"/>
        </g>
      </g>
    </g>
    <g id="Group_116" data-name="Group 116" transform="translate(268.065) rotate(5)">
      <path id="Path_552" data-name="Path 552" d="M.788,34.919C5.718,65.263,18.04,85.258,30.121,96.252,47.886,112.418,70.1,139.517,84.6,154.173c5.919,5.985-13.115-61.647-22.491-100.525C55.539,26.416,37.635,0,23.486,0S-3.328,9.585.788,34.919Z" transform="translate(0 0)" fill="#ee9998" stroke="#eaa9ab" stroke-miterlimit="10" stroke-width="3"/>
      <text id="HALLO" transform="translate(15.75 27.464) rotate(65.797)" fill="#0f1123" font-size="31" font-family="SegoeUI, Segoe UI"><tspan x="0" y="0">HALLO</tspan></text>
    </g>
    <g id="Group_117" data-name="Group 117" transform="translate(389.811 7.082)">
      <path id="Path_553" data-name="Path 553" d="M73.68,12.528C48.439,33.658,37.268,55.643,34.319,72.444c-4.337,24.706-16.156,59.4-21.056,80.371-2,8.563,49.414-45.681,79.912-75.473,21.362-20.867,35.142-51.355,26.626-63.926S94.753-5.113,73.68,12.528Z" transform="translate(-13.207 -1.5)" fill="#ee9998" stroke="#eaa9ab" stroke-miterlimit="10" stroke-width="3"/>
      <text id="HEJJJ" transform="translate(43.461 89.391) rotate(-58.515)" fill="#fff" font-size="21" font-family="SegoeUI, Segoe UI"><tspan x="0" y="0">HEJJJ</tspan></text>
    </g>
    <g id="Group_118" data-name="Group 118" transform="translate(317.136 274.434) rotate(-22)">
      <path id="Path_554" data-name="Path 554" d="M51.337,161.723c21.167-27.14,28.1-52.65,27.8-71.134C78.7,63.408,83.824,24.2,84.676.911,85.024-8.6,44.07,58.654,19.317,96,1.979,122.158-5.917,157.224,5.029,169.115S33.664,184.382,51.337,161.723Z" transform="translate(0 0)" fill="#ee9998" stroke="#eaa9ab" stroke-miterlimit="10" stroke-width="3"/>
      <text id="ENJOY" transform="translate(35.442 153.383) rotate(-68.295)" fill="#b5051b" font-size="26" font-family="SegoeUI, Segoe UI"><tspan x="0" y="0">ENJOY</tspan></text>
    </g>
    <g id="Group_119" data-name="Group 119" transform="translate(474.508 219.264) rotate(-30)">
      <path id="Path_555" data-name="Path 555" d="M142.521,164.4c-41.825-17.455-66.26-42.243-77.869-63.64C47.582,69.3,16.365,27.624.337,1.458c-6.546-10.686,83.906,40,136.441,66.847,36.8,18.8,68.52,53.93,63.647,74.647S177.441,178.974,142.521,164.4Z" transform="translate(0 0)" fill="#7298d0" stroke="#608fcb" stroke-miterlimit="10" stroke-width="3"/>
      <text id="HALLØJSA" transform="translate(61.056 63.616) rotate(39.376)" fill="#ee9998" font-size="25" font-family="SegoeUI, Segoe UI"><tspan x="0" y="0">HALLØJSA</tspan></text>
    </g>
  </g>
</svg>
